<svg width="184" height="117" viewBox="0 0 184 117" fill="none" xmlns="http://www.w3.org/2000/svg">
<path d="M91.4448 111.062C90.2607 111.143 89.0684 111.153 87.9708 110.988C86.8774 110.827 85.8746 110.524 85.0342 110.227C83.3493 109.632 82.3007 109.044 82.3007 109.044C82.3007 109.044 82.561 109.191 83.015 109.452C83.4753 109.7 84.1407 110.047 84.979 110.374C85.8173 110.696 86.8118 111.054 87.9354 111.229C89.0538 111.411 90.2649 111.413 91.4635 111.342C93.8618 111.168 96.2069 110.686 97.9772 110.433C98.8686 110.287 99.5934 110.127 100.109 110.032C100.621 109.933 100.915 109.876 100.915 109.876C100.915 109.876 99.7319 110.036 97.9574 110.277C96.1704 110.455 93.817 110.91 91.4448 111.062Z" fill="#E9E4D0"/>
<path d="M91.3541 105.144C90.8969 105.176 90.6366 105.195 90.6366 105.195C90.6366 105.195 91.6873 105.28 93.2587 105.126C94.0418 105.046 94.9541 104.937 95.9236 104.803C96.8858 104.667 97.9417 104.601 98.9831 104.333C100.031 104.073 100.986 103.508 101.763 102.905C102.549 102.301 103.236 101.702 103.839 101.194C105.029 100.161 105.73 99.3766 105.73 99.3766C105.73 99.3766 104.945 100.071 103.69 101.011C103.062 101.478 102.331 102.025 101.547 102.61C100.766 103.19 99.8734 103.695 98.8758 103.926C97.8886 104.198 96.8462 104.286 95.8704 104.441C94.9041 104.605 94.0023 104.758 93.2285 104.891C92.4559 105.008 91.8102 105.107 91.3541 105.144" fill="#E9E4D0"/>
<path d="M88.4406 101.962C89.1893 102.227 90.0328 102.373 90.845 102.383C92.4852 102.4 94.0743 102.068 95.552 101.856C96.2903 101.754 97.0244 101.666 97.7034 101.486C98.3855 101.316 99.0082 101.032 99.5143 100.693C100.526 100.009 101.237 99.2965 101.778 98.8508C102.308 98.3915 102.611 98.1281 102.611 98.1281C102.611 98.1281 102.292 98.3718 101.733 98.7966C101.17 99.2142 100.391 99.8599 99.3883 100.492C98.8832 100.804 98.2939 101.047 97.6316 101.189C96.9713 101.339 96.2538 101.392 95.504 101.494C94.0076 101.691 92.4289 101.998 90.8534 101.962C90.0619 101.955 89.3038 101.838 88.5593 101.587C87.8209 101.355 87.1149 101.048 86.4662 100.694C85.1593 99.9879 84.1075 99.0695 83.2838 98.1989C82.4549 97.3367 81.8113 96.5692 81.3896 96.0089C80.9647 95.4508 80.7439 95.1155 80.7439 95.1155C80.7439 95.1155 80.9428 95.4643 81.3323 96.0495C81.7249 96.6317 82.2976 97.4637 83.1098 98.3603C83.9096 99.258 84.9458 100.273 86.2881 101.014C86.9535 101.388 87.6752 101.712 88.4406 101.962" fill="#E9E4D0"/>
<path d="M144.856 96.2745C143.795 96.3526 142.725 96.3671 141.74 96.2224C140.757 96.0839 139.861 95.7975 139.11 95.5288C137.601 94.9905 136.66 94.4656 136.66 94.4656C136.66 94.4656 136.894 94.5989 137.301 94.8322C137.713 95.0529 138.308 95.3685 139.062 95.6569C139.815 95.9423 140.709 96.2484 141.712 96.4109C142.713 96.5775 143.799 96.5848 144.873 96.5265C147.021 96.3578 149.12 95.9162 150.71 95.7079C151.51 95.584 152.158 95.4351 152.621 95.3518C153.08 95.2633 153.343 95.2112 153.343 95.2112C153.343 95.2112 152.283 95.357 150.693 95.5736C149.095 95.7517 146.983 96.1505 144.856 96.2745" fill="#E9E4D0"/>
<path d="M146.481 90.9552C147.183 90.8833 148.001 90.7865 148.869 90.6657C149.732 90.5438 150.678 90.4845 151.611 90.245C152.55 90.0117 153.405 89.5056 154.103 88.9651C154.815 88.4351 155.41 87.8509 155.937 87.3948C156.982 86.4523 157.659 85.8025 157.659 85.8025C157.659 85.8025 156.902 86.3617 155.797 87.2344C155.241 87.6749 154.618 88.1924 153.908 88.7017C153.209 89.2203 152.409 89.6732 151.514 89.8794C150.63 90.1231 149.696 90.2023 148.822 90.3408C147.956 90.4886 147.148 90.6261 146.454 90.7438C145.071 90.976 144.131 91.0166 144.131 91.0166C144.131 91.0166 145.074 91.0989 146.481 90.9552" fill="#E9E4D0"/>
<path d="M34.1568 100.401C33.0967 100.478 32.0272 100.493 31.0421 100.349C30.058 100.211 29.1625 99.9244 28.4106 99.6557C26.9027 99.1173 25.9624 98.5925 25.9624 98.5925C25.9624 98.5925 26.1946 98.7258 26.6018 98.958C27.0152 99.1788 27.6098 99.4953 28.3637 99.7828C29.1156 100.069 30.0112 100.375 31.014 100.538C32.0148 100.703 33.0998 100.712 34.1735 100.652C36.3218 100.485 38.4222 100.043 40.0113 99.8348C40.8121 99.7099 41.4598 99.562 41.9222 99.4787C42.3825 99.3891 42.6449 99.3381 42.6449 99.3381C42.6449 99.3381 41.5848 99.4829 39.9946 99.7005C38.3962 99.8786 36.2853 100.277 34.1568 100.401Z" fill="#E9E4D0"/>
<path d="M33.4331 95.1425C33.4331 95.1425 34.3755 95.2248 35.7824 95.0821C36.4853 95.0092 37.3028 94.9124 38.1702 94.7926C39.0335 94.6698 39.9801 94.6114 40.9121 94.3719C41.8514 94.1376 42.7074 93.6315 43.4051 93.0911C44.1164 92.5621 44.712 91.9779 45.2389 91.5207C46.2834 90.5793 46.9603 89.9285 46.9603 89.9285C46.9603 89.9285 46.2043 90.4887 45.0994 91.3614C44.5433 91.8019 43.9185 92.3184 43.2104 92.8276C42.5106 93.3472 41.7108 93.8002 40.8163 94.0064C39.9322 94.2501 38.9981 94.3282 38.1233 94.4677C37.258 94.6146 36.4488 94.752 35.7563 94.8707C34.3724 95.103 33.4331 95.1425 33.4331 95.1425" fill="#E9E4D0"/>
<path d="M31.4649 92.2464C32.1366 92.4838 32.8916 92.614 33.6195 92.6234C35.0899 92.638 36.5145 92.3401 37.838 92.1506C38.5003 92.06 39.1574 91.9798 39.7666 91.8195C40.3779 91.6664 40.9361 91.4133 41.3891 91.1082C42.2971 90.4949 42.9334 89.8576 43.4186 89.4577C43.8935 89.0453 44.1653 88.8099 44.1653 88.8099C44.1653 88.8099 43.8789 89.0276 43.378 89.4087C42.874 89.7836 42.1753 90.3616 41.2766 90.9281C40.8236 91.2082 40.2956 91.4258 39.7021 91.5518C39.1106 91.6872 38.467 91.7351 37.7953 91.8257C36.4541 92.0027 35.0399 92.2777 33.6268 92.2454C32.2199 92.2516 30.861 91.7289 29.6946 91.1093C28.5231 90.4772 27.5817 89.6535 26.8434 88.8735C25.346 87.3323 24.567 86.1097 24.567 86.1097C24.567 86.1097 24.7451 86.4221 25.0939 86.947C25.4459 87.4687 25.9593 88.2143 26.6872 89.0182C27.4037 89.8221 28.3325 90.7323 29.5353 91.3956C30.132 91.731 30.7787 92.0225 31.4649 92.2464Z" fill="#E9E4D0"/>
<path d="M90.6503 13.7159L91.0887 18.3208L86.5442 17.948L90.6503 13.7159ZM153.177 48.217C152.581 48.217 152.096 47.7328 152.096 47.135C152.096 46.5383 152.581 46.0541 153.177 46.0541C153.775 46.0541 154.259 46.5383 154.259 47.135C154.259 47.7328 153.775 48.217 153.177 48.217ZM165.066 43.9506C165.17 44.0078 167.018 45.0981 167.018 46.606C167.163 48.0899 165.427 49.3542 165.353 49.4062C163.77 50.2279 160.423 50.9537 156.084 51.5879C155.97 51.6045 155.855 51.6212 155.74 51.6368C155.324 51.6972 154.899 51.7555 154.466 51.8138C153.145 51.9909 151.751 52.1606 150.298 52.3231C150.004 52.3553 149.709 52.3887 149.41 52.4209C149.156 52.448 148.902 52.4751 148.644 52.5022C147.859 52.5844 147.06 52.6657 146.25 52.7438C146.032 52.7646 145.811 52.7854 145.591 52.8062C143.44 53.0103 141.217 53.1999 138.972 53.3769C138.942 53.379 138.912 53.3811 138.883 53.3842C138.713 53.3967 138.544 53.4102 138.374 53.4238C137.377 53.5008 136.376 53.5748 135.375 53.6466C135.296 53.6529 135.217 53.6581 135.138 53.6643C134.526 53.7081 133.913 53.7508 133.303 53.7924C120.59 54.663 108.508 55.1087 106.038 55.1941V54.8233C108.418 54.738 120.81 54.2704 133.725 53.3759C134.017 53.355 134.309 53.3342 134.602 53.3134C135.021 53.2842 135.441 53.254 135.861 53.2238C136.65 53.1666 137.439 53.1072 138.228 53.0468C138.406 53.0333 138.584 53.0187 138.762 53.0051C139.337 52.9604 139.91 52.9146 140.481 52.8677C142.195 52.7281 143.888 52.5803 145.539 52.4251C145.795 52.4012 146.049 52.3762 146.304 52.3522C147.097 52.2752 147.877 52.1971 148.644 52.1169C148.661 52.1158 148.677 52.1138 148.693 52.1117C148.969 52.0825 149.245 52.0544 149.519 52.0242C151.181 51.8451 152.771 51.6576 154.267 51.4598C159.417 50.7808 163.422 49.9925 165.159 49.0917C165.156 49.0917 166.773 47.9119 166.649 46.6248C166.648 45.3096 164.923 44.2932 164.905 44.2828C157.532 41.3222 112.993 43.8381 106.038 44.2526V43.8798C113.292 43.4403 157.511 40.9119 165.066 43.9506ZM98.5771 28.7937C97.7148 29.6434 96.813 30.4536 96.1122 31.0284C95.4093 31.6022 94.9146 31.9479 94.9146 31.9479C94.9146 31.9479 95.3822 31.5647 96.0351 30.942C96.687 30.3172 97.518 29.4466 98.3084 28.5396C99.6413 27.0192 100.844 25.4259 101.198 24.95C101.205 24.9407 101.218 24.924 101.224 24.9146L101.237 24.9584L101.471 25.7383C100.89 26.3934 99.7757 27.6232 98.5771 28.7937ZM103.536 56.1167C103.806 55.4659 103.963 54.7734 103.98 54.0777C104.023 50.8308 104.065 47.7994 104.1 45.2023C104.129 43.558 104.16 42.0886 104.189 40.8453C104.252 38.1523 104.309 36.5268 104.309 36.5268C104.309 36.5268 104.364 38.1523 104.427 40.8442C104.457 42.0876 104.488 43.558 104.516 45.2023C104.528 46.0458 104.542 46.9486 104.555 47.8765V54.8744C104.422 55.8043 104.072 56.7217 103.536 57.5329C103.237 57.9849 102.887 58.4066 102.478 58.7722C101.809 59.3761 101.008 59.8468 100.138 60.1311C99.2831 60.4352 98.299 60.4706 97.4597 60.455C97.3316 60.454 97.2035 60.454 97.0744 60.4529C96.4787 60.4498 95.8831 60.4467 95.2895 60.4446C94.8803 60.4425 94.4731 60.4404 94.0659 60.4383C93.3068 60.4352 92.5508 60.431 91.801 60.4279C91.4303 60.4258 91.0627 60.4237 90.6951 60.4227C89.6485 60.4175 88.6155 60.4123 87.6033 60.4071C87.4919 60.4071 87.3773 60.406 87.2669 60.406C84.0137 60.3644 80.9771 60.3259 78.3748 60.2925C73.1701 60.204 69.6993 60.0843 69.6993 60.0843C69.6993 60.0843 73.1701 59.9645 78.3748 59.876C80.9771 59.8427 84.0137 59.8041 87.2669 59.7625C87.521 59.7614 87.7834 59.7604 88.0407 59.7594C88.4999 59.7562 88.9581 59.7542 89.4246 59.7521C90.4118 59.7479 91.4105 59.7427 92.4216 59.7375C92.6591 59.7365 92.8996 59.7354 93.1381 59.7344C94.5689 59.7281 96.0132 59.7208 97.4597 59.7135C98.35 59.7365 99.129 59.7125 99.9194 59.449C100.695 59.2033 101.415 58.792 102.018 58.2567C102.69 57.6652 103.202 56.9227 103.536 56.1167ZM62.9096 61.3662C62.9149 60.9632 62.9232 60.3738 62.9336 59.623C62.943 58.8721 62.9555 57.9599 62.9701 56.9133C62.9773 56.3906 62.9846 55.8335 62.9919 55.2472C62.9971 54.9504 63.0013 54.6453 63.0065 54.3339C63.0159 53.9819 63.0638 53.6237 63.1492 53.2686C63.2991 52.573 63.699 51.8211 64.0937 51.2744C64.4769 50.6954 64.8726 50.0966 65.2798 49.4812C66.0941 48.2514 66.9522 46.9538 67.8405 45.6105C68.7277 44.2682 69.6462 42.8811 70.5782 41.4722C71.0447 40.7672 71.5144 40.0569 71.9861 39.3436C72.4932 38.5688 73.2232 37.9315 74.0657 37.5442C74.4843 37.3515 74.9425 37.213 75.3819 37.1422L76.6472 36.9183C77.4897 36.7683 78.3279 36.6195 79.16 36.4716C80.8241 36.1769 82.4611 35.8853 84.046 35.6041C87.2159 35.0418 90.1733 34.5159 92.709 34.066C97.7804 33.1663 101.161 32.5655 101.161 32.5655C101.161 32.5655 97.7981 33.2569 92.7528 34.2941C90.2306 34.8127 87.2877 35.4177 84.1345 36.0654C82.5579 36.3893 80.9282 36.7246 79.2735 37.0641C78.4456 37.2349 77.6115 37.4057 76.7742 37.5785L75.5152 37.8368C75.1102 37.9138 74.7436 38.0378 74.3864 38.2127C73.6773 38.5637 73.0806 39.1145 72.6682 39.782C72.2163 40.5078 71.7653 41.2305 71.3186 41.947C71.2801 42.0095 71.2426 42.0699 71.203 42.1324L101.837 36.3976L70.6761 42.979C70.0034 44.0568 69.339 45.1231 68.6933 46.1593C67.8415 47.5245 67.0189 48.8449 66.2378 50.0966C65.8484 50.7235 65.4683 51.3317 65.1017 51.9211C64.707 52.5136 64.4915 52.9791 64.3696 53.5477C64.3124 53.8205 64.2832 54.0913 64.2832 54.3568C64.2863 54.6609 64.2905 54.9577 64.2936 55.2472C64.3019 55.8335 64.3092 56.3906 64.3165 56.9133C64.3301 57.9599 64.3426 58.8721 64.353 59.623C64.3634 60.3738 64.3707 60.9632 64.3759 61.3662H62.9096ZM24.0213 48.168C24.2983 47.8015 24.5597 47.5464 24.7368 47.3829C24.92 47.2215 25.0169 47.135 25.0169 47.135C25.0169 47.135 24.9294 47.2308 24.7649 47.411C24.6014 47.5932 24.3858 47.8723 24.139 48.2503C23.6517 48.997 23.0987 50.2049 22.9779 51.7139C22.9248 52.4595 23.0019 53.2926 23.3736 54.0423C23.5475 54.4297 23.7954 54.7525 24.1192 55.0733C24.4129 55.3513 24.7961 55.6137 25.2095 55.7949C25.447 55.9022 25.6969 55.9886 25.9541 56.0646C26.2623 56.1542 26.5841 56.2208 26.9121 56.274C27.1089 56.3052 27.3068 56.3323 27.5088 56.3521C27.6754 56.3687 27.841 56.3864 28.0097 56.3968C29.0053 56.4583 30.0424 56.4239 31.0828 56.4218C31.4983 56.425 31.9075 56.4281 32.322 56.4312C33.1665 56.4385 33.9996 56.4447 34.8264 56.451C35.0909 56.4531 35.3471 56.4552 35.6085 56.4572C36.1354 56.4614 36.6728 56.4656 37.1841 56.4697C37.4423 56.4718 37.6922 56.477 37.9463 56.4801C38.2077 56.4833 38.4712 56.4864 38.7263 56.4916C39.1595 56.4999 39.5854 56.5093 39.9988 56.5197C40.8881 56.5426 41.7296 56.5676 42.5064 56.5832C44.3902 56.6374 45.8846 56.702 46.7791 56.7446C47.3633 56.7728 47.6986 56.7915 47.6986 56.7915C47.6986 56.7915 47.3997 56.8092 46.8624 56.8352C45.9783 56.8779 44.4444 56.9446 42.5064 57.0008C42.3783 57.0029 42.2398 57.0071 42.1096 57.0102C41.0246 57.0341 39.8333 57.0716 38.5597 57.0956C38.3587 57.0998 38.1504 57.1008 37.9463 57.1039C37.6922 57.107 37.4423 57.1122 37.1841 57.1133C36.6436 57.1174 36.075 57.1227 35.5169 57.1268C35.3169 57.1279 35.1211 57.1299 34.9202 57.131C33.657 57.1414 32.3761 57.1518 31.0828 57.1622C30.4861 57.1539 29.8873 57.1508 29.2875 57.1393C28.8761 57.131 28.4637 57.1195 28.0503 57.0893C28.0201 57.0872 27.991 57.0883 27.9608 57.0852C27.8816 57.08 27.8025 57.0675 27.7234 57.0602C26.9757 56.9904 26.2321 56.8582 25.5282 56.6114C25.3282 56.5405 25.1293 56.4676 24.9367 56.377C24.466 56.1521 24.038 55.8762 23.6746 55.4846C23.3517 55.1347 23.0498 54.7015 22.8821 54.2631C22.501 53.3821 22.4697 52.4678 22.5634 51.6743C22.7665 50.0664 23.4788 48.8928 24.0213 48.168ZM46.2636 45.623C45.2962 45.3293 43.9102 44.6316 43.2208 42.9967C44.1288 42.6937 45.8523 42.2678 47.8954 42.4833C47.1248 43.0727 46.45 44.0526 46.2636 45.623ZM46.1834 47.1392C46.5354 47.2267 46.9061 47.1548 47.2029 46.9424C47.4997 46.7289 47.6861 46.3988 47.7142 46.0343C47.8923 43.6819 49.3502 43.2779 49.8813 43.2091L51.5527 44.1286C52.4545 44.6243 53.0137 45.5709 53.0137 46.5987V47.2746C53.0137 50.9547 50.0198 53.9486 46.3396 53.9486H26.5935C26.1322 53.9486 25.7583 53.5748 25.7583 53.1145V51.717C25.7583 49.6114 27.1131 47.789 29.1292 47.1819L41.7733 43.3747C42.7761 46.0124 45.1473 46.8799 46.1834 47.1392ZM84.8603 19.2965C84.75 19.4506 84.624 19.6266 84.4751 19.8349C84.2782 20.1088 84.0502 20.4264 83.7961 20.7804C83.6753 20.9491 83.5493 21.1241 83.4181 21.3074C82.8516 22.0728 82.2236 22.9892 81.5384 23.9597C80.8626 24.9375 80.1409 25.981 79.4203 27.0244C78.6872 28.0637 77.9572 29.105 77.2502 30.0652C76.5504 31.0305 75.8631 31.9073 75.2914 32.6717C74.1282 34.1858 73.3044 35.1615 73.3044 35.1615C73.3044 35.1615 73.9324 34.0494 74.9488 32.4332C75.4673 31.6324 76.0505 30.6827 76.7138 29.6913C77.3689 28.6958 78.0916 27.6492 78.8122 26.6016C79.5422 25.5634 80.2774 24.5158 81.0146 23.5734C81.6186 22.784 82.2101 22.0863 82.7537 21.449C82.8641 21.3188 82.987 21.172 83.0921 21.0481C83.5024 20.5784 83.8721 20.1744 84.1908 19.8349C84.3876 19.6235 84.5636 19.4392 84.7135 19.2851L84.8603 19.2965ZM97.9981 20.3754L98.4906 20.4149C98.2178 20.7325 97.7648 21.2512 97.19 21.8937C96.007 23.2131 94.2919 25.0625 92.4706 26.8151C90.8127 28.423 89.0685 29.9433 87.6751 30.9732C87.3325 31.2367 86.9983 31.4523 86.7129 31.6574C86.4286 31.8646 86.1662 32.0229 85.9496 32.1531C85.5195 32.4155 85.2738 32.5655 85.2738 32.5655C85.2738 32.5655 85.5133 32.4061 85.9319 32.126C86.1433 31.9875 86.3984 31.8199 86.6734 31.6012C86.9493 31.3856 87.2732 31.1586 87.6043 30.8816C88.9498 29.8007 90.6232 28.2189 92.2071 26.5537C94.521 24.142 96.6349 21.574 97.6211 20.3441L97.9981 20.3754ZM57.8351 22.9881C58.0705 22.8444 58.3839 22.9173 58.5308 23.1558L61.0311 27.24C61.1769 27.4774 61.1019 27.7888 60.8644 27.9346C60.7822 27.9856 60.6905 28.0095 60.5999 28.0095C60.4302 28.0095 60.2646 27.9231 60.1688 27.7679L57.6675 23.6838C57.5227 23.4453 57.5967 23.1339 57.8351 22.9881ZM64.5498 23.6838C64.404 23.4453 64.4779 23.1339 64.7164 22.9881C64.9538 22.8444 65.2652 22.9173 65.412 23.1558L67.9134 27.24C68.0591 27.4774 67.9852 27.7888 67.7468 27.9346C67.6645 27.9856 67.5728 28.0095 67.4822 28.0095C67.3125 28.0095 67.1469 27.9231 67.0511 27.7679L64.5498 23.6838ZM63.1585 27.9346C63.0763 27.9856 62.9846 28.0095 62.894 28.0095C62.7243 28.0095 62.5587 27.9231 62.4629 27.7679L59.9616 23.6838C59.8158 23.4453 59.8897 23.1339 60.1282 22.9881C60.3635 22.8444 60.677 22.9173 60.8238 23.1558L63.3251 27.24C63.4709 27.4774 63.396 27.7888 63.1585 27.9346ZM62.2557 23.6838C62.1099 23.4453 62.1838 23.1339 62.4223 22.9881C62.6587 22.8444 62.9711 22.9173 63.1179 23.1558L65.6193 27.24C65.765 27.4774 65.6911 27.7888 65.4527 27.9346C65.3704 27.9856 65.2787 28.0095 65.1881 28.0095C65.0184 28.0095 64.8528 27.9231 64.757 27.7679L62.2557 23.6838ZM57.2707 49.0095C58.3631 47.2298 59.6075 45.1336 60.9957 42.9238C62.3723 40.7057 63.876 38.3637 65.3777 36.0196C66.8991 33.688 68.4163 31.3554 69.8722 29.1894C71.33 27.0213 72.6869 25.0073 73.9366 23.3089C74.7863 22.1571 75.5934 21.2022 76.2859 20.4139C76.4671 20.2067 76.6347 20.0161 76.7972 19.8349C76.9242 19.6922 77.0596 19.5402 77.1741 19.4132C77.4272 19.1372 77.6375 18.9154 77.825 18.7196L77.9676 18.7311C77.7937 18.9591 77.5927 19.2216 77.3407 19.5517C77.2751 19.636 77.1981 19.7433 77.1283 19.8349C76.9773 20.0349 76.8232 20.24 76.6545 20.4722C76.0234 21.3438 75.2799 22.4237 74.4489 23.6681C73.3024 25.3905 72.0944 27.5211 70.6948 29.7205C69.3181 31.9386 67.8134 34.2795 66.3118 36.6236C64.7904 38.9552 63.272 41.2878 61.8152 43.4538C60.3698 45.6261 58.9692 47.6213 57.7945 49.3479C56.6188 51.0734 55.5827 52.4761 54.884 53.4738C54.1654 54.4599 53.7551 55.0222 53.7551 55.0222C53.7551 55.0222 54.0998 54.4172 54.7038 53.3571C55.3265 52.3106 56.1804 50.7902 57.2707 49.0095ZM34.841 38.5574C36.4051 37.9815 37.9817 37.439 39.4802 37.0016C40.9756 36.5507 42.396 36.2175 43.6082 35.9228C44.8213 35.6291 45.8512 35.4646 46.5656 35.3302C47.2831 35.2063 47.6986 35.1615 47.6986 35.1615C47.6986 35.1615 46.123 35.6843 43.7612 36.4685C42.5783 36.8465 41.2162 37.339 39.7541 37.8462C38.2931 38.3606 36.7373 38.9125 35.1972 39.5019C34.4297 39.8018 33.6497 40.0736 32.903 40.3891C32.1554 40.7057 31.4004 40.9702 30.6954 41.2868C29.9904 41.5992 29.2864 41.8595 28.6439 42.1574C27.9993 42.45 27.3745 42.703 26.8226 42.9811C26.2707 43.2591 25.7531 43.4955 25.2928 43.7048C24.8357 43.9193 24.4514 44.1328 24.1276 44.2953C23.4746 44.6181 23.1018 44.8024 23.1018 44.8024C23.1018 44.8024 23.4371 44.5567 24.0255 44.1276C24.617 43.7017 25.4761 43.1081 26.557 42.4781C27.0913 42.1501 27.6952 41.845 28.3221 41.494C28.9459 41.1389 29.627 40.8099 30.333 40.4735C31.7419 39.7914 33.2873 39.1614 34.841 38.5574ZM21.7803 58.995C22.3177 59.3907 22.9186 59.7011 23.5642 59.9197C24.0859 60.0968 24.6337 60.2155 25.2064 60.255L25.8218 60.2977H25.826L28.0462 60.4508L28.3419 60.4716L28.8313 60.505L29.1396 60.5268L30.5069 60.6206L30.9911 60.6539L43.0083 61.4818L43.5644 61.5203L45.569 61.6577L45.7929 61.6734L47.1446 61.7671L48.44 61.8556L50.3041 61.9847L51.2902 62.0524L51.6745 62.0785L54.0571 62.243L62.8388 62.848H81.5187H84.0564H84.6667H85.8538H92.3039H92.9527H95.6717H96.3278H100.291C100.501 62.848 100.708 62.8345 100.912 62.8126C102.201 62.6731 103.36 62.1045 104.251 61.2547C105.195 60.355 105.833 59.1398 105.995 57.7787H106.11L106.279 57.7704C106.417 57.7641 106.544 57.6964 106.628 57.5829L107.238 56.7384C107.267 56.6978 107.307 56.6676 107.354 56.6509L108.252 56.326L107.658 57.3538C107.616 57.4267 107.617 57.5163 107.661 57.5881C107.706 57.66 107.789 57.7016 107.868 57.6985L108.691 57.6579L108.86 57.6506C109 57.6433 109.127 57.5746 109.208 57.4611L109.815 56.6145C109.845 56.5739 109.884 56.5437 109.931 56.527L110.829 56.2L110.238 57.2289C110.195 57.3018 110.198 57.3913 110.24 57.4632C110.285 57.534 110.364 57.5673 110.448 57.5725L111.272 57.5298L111.441 57.5215C111.58 57.5142 111.708 57.4444 111.788 57.3309L112.393 56.4822C112.422 56.4427 112.462 56.4125 112.508 56.3948L113.406 56.0667L112.818 57.0966C112.776 57.1695 112.777 57.2591 112.821 57.3299C112.862 57.3986 112.937 57.4392 113.029 57.4392L113.853 57.3955L114.021 57.3872C114.16 57.3778 114.287 57.3091 114.367 57.1945L114.97 56.3448C114.999 56.3031 115.04 56.2729 115.086 56.2562L115.981 55.9251L115.396 56.9571C115.354 57.0289 115.356 57.1185 115.4 57.1904C115.445 57.2612 115.527 57.2997 115.608 57.2997L116.431 57.2539L116.6 57.2445C116.737 57.2372 116.866 57.1654 116.948 57.0529L117.548 56.2011C117.576 56.1605 117.615 56.1302 117.662 56.1125L118.556 55.7783L117.974 56.8113C117.933 56.8842 117.935 56.9737 117.98 57.0456C118.024 57.1175 118.106 57.157 118.189 57.1539L119.011 57.1039L119.18 57.0945C119.318 57.0852 119.447 57.0144 119.526 56.9019L120.125 56.048C120.153 56.0074 120.192 55.9772 120.238 55.9595L121.133 55.6252L120.553 56.6582C120.512 56.7311 120.514 56.8217 120.558 56.8925C120.604 56.9644 120.682 57.0008 120.767 56.9998L121.59 56.9519L121.759 56.9415C121.898 56.9331 122.024 56.8613 122.103 56.7467L122.7 55.8907C122.729 55.8501 122.769 55.8178 122.815 55.8012L123.707 55.4627L123.13 56.4989C123.089 56.5728 123.093 56.6624 123.137 56.7332C123.183 56.805 123.264 56.8404 123.346 56.8394L124.167 56.7863L124.337 56.7759C124.477 56.7665 124.603 56.6947 124.682 56.5811L125.276 55.7241C125.304 55.6835 125.343 55.6533 125.389 55.6356L126.282 55.2961L125.708 56.3323C125.668 56.4052 125.67 56.4958 125.715 56.5655C125.758 56.6364 125.84 56.6759 125.924 56.6738L126.746 56.6197L126.74 56.527L126.747 56.6197L126.915 56.6082C127.055 56.5978 127.181 56.526 127.259 56.4114L127.852 55.5512C127.879 55.5106 127.918 55.4794 127.964 55.4607L128.855 55.117L128.285 56.1563C128.244 56.2302 128.247 56.3198 128.293 56.3906C128.339 56.4614 128.408 56.4978 128.502 56.4958L129.317 56.4385H129.324L129.493 56.427C129.633 56.4166 129.757 56.3448 129.837 56.2292L130.192 55.7106L130.425 55.3701C130.453 55.3284 130.492 55.2972 130.538 55.2795L131.429 54.9348L130.961 55.7929L130.862 55.974C130.822 56.048 130.825 56.1386 130.869 56.2094C130.915 56.2792 130.985 56.3177 131.08 56.3146L131.901 56.2562L131.895 56.1636L131.902 56.2562L132.071 56.2438C132.211 56.2313 132.335 56.1594 132.414 56.0438L132.999 55.1795C133.027 55.1378 133.066 55.1066 133.113 55.0889L134 54.738L133.436 55.7814C133.397 55.8553 133.4 55.9459 133.447 56.0157C133.493 56.0865 133.575 56.124 133.657 56.1198L133.814 56.1073L134.479 56.0553L134.647 56.0428C134.787 56.0313 134.912 55.9584 134.99 55.8428L135.563 54.992L135.571 54.9795C135.6 54.9379 135.639 54.9056 135.684 54.8879L135.843 54.8254L136.572 54.537L136.013 55.5804C135.973 55.6543 135.977 55.7439 136.023 55.8147C136.069 55.8866 136.152 55.9199 136.235 55.9189L137.055 55.8553L137.048 55.7626L137.056 55.8553L137.059 55.8543L137.215 55.8418L137.225 55.8407C137.322 55.8324 137.406 55.7835 137.479 55.721C137.509 55.6939 137.543 55.6721 137.566 55.6387L137.634 55.5367L138.144 54.7692C138.17 54.7286 138.211 54.6953 138.257 54.6776L138.782 54.4641L139.141 54.3183L138.901 54.7713L138.792 54.9795L138.656 55.2378L138.587 55.3669C138.548 55.4409 138.553 55.5304 138.598 55.6012C138.645 55.6721 138.735 55.7054 138.811 55.7033L139.25 55.6648L139.596 55.6346L139.631 55.6314L139.8 55.6169C139.94 55.6044 140.064 55.5304 140.141 55.4148L140.689 54.5838L140.715 54.5443C140.741 54.5026 140.78 54.4714 140.826 54.4537L141.71 54.0944L141.57 54.361L141.161 55.1441C141.123 55.218 141.127 55.3065 141.174 55.3774C141.204 55.4232 141.253 55.4471 141.305 55.4617C141.332 55.47 141.359 55.4794 141.386 55.4794L141.402 55.4773L142.207 55.4075L142.375 55.3919C142.515 55.3794 142.639 55.3034 142.716 55.1868L143.286 54.31C143.313 54.2673 143.35 54.236 143.396 54.2173L143.982 53.9705L144.276 53.8476L144.227 53.9444L143.733 54.9035C143.696 54.9785 143.701 55.0681 143.749 55.1378C143.796 55.2066 143.88 55.2472 143.96 55.2357L144.782 55.1555L144.951 55.1389C145.088 55.1253 145.214 55.0483 145.289 54.9327L145.779 54.1704L145.851 54.0569C145.878 54.0153 145.917 53.983 145.963 53.9642L146.091 53.9101L146.228 53.8528L146.842 53.5946L146.706 53.8622L146.306 54.6505C146.268 54.7244 146.273 54.814 146.321 54.8827C146.368 54.9525 146.444 54.99 146.536 54.9827L147.355 54.9025L147.525 54.8848C147.663 54.8692 147.786 54.7921 147.861 54.6734L148.31 53.9622L148.418 53.7893C148.444 53.7466 148.483 53.7133 148.528 53.6935L148.644 53.6435L149.131 53.4311L149.196 53.4029L149.402 53.3123L149.348 53.4206L149.029 54.0673L148.875 54.3756C148.839 54.4505 148.846 54.5401 148.894 54.6088C148.942 54.6786 149.02 54.7182 149.109 54.7046L149.927 54.612L150.097 54.5932C150.235 54.5765 150.358 54.4995 150.432 54.3808L150.477 54.3089L150.869 53.6789L150.982 53.4967C151.008 53.455 151.045 53.4227 151.089 53.4019L151.962 53.0208L151.569 53.8289L151.446 54.084C151.409 54.159 151.416 54.2485 151.465 54.3162C151.514 54.386 151.59 54.4266 151.68 54.412L152.392 54.3308L152.501 54.3162L152.669 54.2933C152.76 54.2818 152.837 54.236 152.903 54.1777C152.939 54.1465 152.976 54.1173 153.001 54.0757L153.541 53.1791C153.556 53.153 153.583 53.1384 153.607 53.1197C153.622 53.1082 153.631 53.0895 153.649 53.0822L154.513 52.6834L154.216 53.3196L154.011 53.756C153.976 53.832 153.984 53.9215 154.033 53.9882C154.083 54.058 154.173 54.0944 154.25 54.0809L155.069 53.9705L155.238 53.9486C155.332 53.9351 155.41 53.8861 155.478 53.8247C155.51 53.7945 155.545 53.7685 155.568 53.7299L156.096 52.8344C156.121 52.7927 156.158 52.7594 156.202 52.7375L156.723 52.4949L157.06 52.3283L156.576 53.4113C156.541 53.4873 156.55 53.5748 156.6 53.6425C156.651 53.7112 156.737 53.7466 156.822 53.7341L157.639 53.5998L157.807 53.5727C157.946 53.5498 158.064 53.4665 158.133 53.3446L158.235 53.1603L158.642 52.4334C158.666 52.3897 158.702 52.3553 158.745 52.3335L159.595 51.9076L159.155 52.9479L159.135 52.9947C159.102 53.0718 159.113 53.1613 159.165 53.227C159.217 53.2936 159.298 53.3269 159.385 53.3113L159.921 53.2238L160.202 53.177L160.371 53.1489C160.507 53.127 160.628 53.0416 160.695 52.9187L161.179 51.9867C161.202 51.9409 161.237 51.9044 161.28 51.8815L162.105 51.4181L161.687 52.5261C161.657 52.6042 161.672 52.6927 161.727 52.7573C161.78 52.8208 161.864 52.85 161.951 52.8312L162.766 52.6573L162.933 52.6219C163.071 52.5928 163.187 52.5032 163.247 52.3772L163.694 51.4473C163.714 51.4035 163.746 51.3692 163.795 51.3421L164.57 50.8173L164.436 51.29L164.23 51.9575C164.204 52.0388 164.224 52.1262 164.283 52.1856C164.342 52.247 164.431 52.2689 164.515 52.2439L165.328 51.9982L165.496 51.9471C165.634 51.9055 165.741 51.8065 165.792 51.6764L166.145 50.7121C166.158 50.6725 166.185 50.634 166.211 50.5975L166.228 50.5684C166.233 50.5548 166.244 50.5298 166.269 50.4882L166.472 50.1768C166.538 50.0716 166.597 49.9644 166.643 49.879C166.671 50.0029 166.709 50.1768 166.738 50.3528C166.793 50.6819 166.817 51.0318 166.817 51.0349C166.823 51.1203 166.873 51.1901 166.95 51.2234C167.03 51.2598 167.126 51.2442 167.202 51.1828L167.498 50.9235C167.645 50.7891 167.784 50.6465 167.784 50.6465L167.868 50.559L167.801 50.4955L167.87 50.558L167.999 50.4195C168.098 50.307 168.144 50.157 168.122 50.0185C168.12 50.0081 168.073 49.7416 168.01 49.4895C167.948 49.2313 167.86 48.9918 167.858 48.9824C167.843 48.9397 167.841 48.8949 167.852 48.8418L167.884 48.6783C167.907 48.57 167.932 48.4409 167.94 48.3159C167.956 48.2003 167.96 48.0868 167.961 47.9973C168.044 48.09 168.154 48.2212 168.255 48.3649C168.442 48.6325 168.61 48.9522 168.611 48.9543C168.649 49.0303 168.727 49.073 168.809 49.074C168.902 49.072 168.983 49.0157 169.022 48.9293C169.025 48.922 169.114 48.7398 169.192 48.5419L169.331 48.1389L169.362 48.0129L169.273 47.991L169.363 48.0118L169.408 47.815C169.444 47.6505 169.409 47.4922 169.312 47.3849C169.305 47.3756 169.124 47.1621 168.931 46.984C168.731 46.8049 168.519 46.656 168.51 46.6508C168.472 46.6227 168.441 46.5842 168.427 46.5436L168.418 46.5196C168.31 46.2259 168.189 45.9823 168.053 45.7813C168.174 45.8094 168.339 45.8542 168.499 45.9177C168.64 45.9708 168.804 46.0406 168.932 46.1051L169.118 46.2062C169.19 46.2478 169.274 46.2447 169.342 46.202C169.42 46.153 169.464 46.0624 169.457 45.9552L169.376 45.5376C169.335 45.321 169.255 45.1221 169.253 45.119L169.215 45.0055C169.207 44.9586 169.179 44.8972 169.142 44.817C169.142 44.817 169.098 44.7201 169.09 44.7222C169.023 44.6181 168.924 44.541 168.812 44.5108C168.801 44.5067 168.536 44.4369 168.275 44.4004C168.016 44.3567 167.756 44.3525 167.747 44.3525C167.697 44.3515 167.653 44.3369 167.615 44.3088C167.605 44.3026 167.385 44.1526 167.154 44.0235C167.047 43.9641 166.938 43.9099 166.852 43.8693C166.974 43.8339 167.146 43.7881 167.319 43.7527C167.646 43.6809 167.995 43.6455 167.997 43.6455C168.081 43.6371 168.15 43.5871 168.181 43.509C168.214 43.4247 168.197 43.3278 168.131 43.2518L167.853 42.9613L167.562 42.6885L167.469 42.6104L167.408 42.6801L167.468 42.6093L167.327 42.4906C167.22 42.3979 167.075 42.3604 166.92 42.3875C166.81 42.4135 166.109 42.5906 165.904 42.6905C165.858 42.7062 165.813 42.7124 165.77 42.7187C165.758 42.7207 165.73 42.7228 165.696 42.7291L164.89 42.8238L165.235 42.4739L165.741 41.9824C165.806 41.9241 165.83 41.8366 165.807 41.7554C165.785 41.6742 165.717 41.6138 165.632 41.5971L164.798 41.4326L164.779 41.5232L164.797 41.4326L164.626 41.3992C164.489 41.3711 164.341 41.4086 164.235 41.4982L163.455 42.1792C163.42 42.2115 163.377 42.2303 163.324 42.2365L162.393 42.4135L163.158 41.4992C163.214 41.4336 163.228 41.3451 163.197 41.267C163.167 41.1879 163.094 41.1337 163.01 41.1254L162.181 41.0337L162.011 41.014C161.873 40.9963 161.734 41.0462 161.634 41.1462L160.901 41.8877C160.867 41.922 160.824 41.9449 160.776 41.9543L160.219 42.0626C160.087 42.0866 159.956 42.1157 159.852 42.1397L160.571 41.2108C160.623 41.1452 160.636 41.0598 160.602 40.9817C160.57 40.9025 160.496 40.8473 160.413 40.838C160.413 40.838 160.229 40.813 160.048 40.8026L159.58 40.7734L159.41 40.763C159.273 40.7547 159.135 40.8078 159.04 40.9109L158.333 41.6846C158.3 41.7221 158.257 41.7471 158.21 41.7585L157.285 41.9814L157.984 41.0265C158.034 40.9598 158.044 40.8703 158.007 40.7942C157.972 40.7172 157.898 40.6662 157.812 40.6609L156.987 40.6089L156.816 40.5985C156.68 40.5912 156.541 40.6453 156.449 40.7484L155.761 41.5325C155.73 41.57 155.686 41.5971 155.638 41.6106L154.718 41.8595L155.398 40.8869C155.446 40.8171 155.454 40.7276 155.416 40.6526C155.379 40.5766 155.303 40.5287 155.218 40.5256L154.393 40.4985L154.223 40.4922C154.083 40.4954 153.95 40.5464 153.859 40.6526L153.185 41.4471C153.152 41.4846 153.111 41.5117 153.063 41.5242L152.144 41.7752L152.811 40.7994C152.859 40.7307 152.865 40.6411 152.827 40.5662C152.79 40.4901 152.713 40.4422 152.629 40.4391L151.803 40.411C151.803 40.411 151.632 40.4068 151.626 40.4068C151.489 40.4068 151.357 40.4683 151.271 40.5735L150.606 41.3816C150.574 41.4201 150.532 41.4482 150.485 41.4617L149.57 41.7315L150.226 40.7422C150.273 40.6724 150.277 40.5828 150.238 40.5079C150.199 40.4339 150.122 40.3871 150.038 40.386L149.213 40.3756C149.213 40.3756 149.044 40.3735 149.037 40.3735C148.899 40.3735 148.771 40.4339 148.684 40.5412L148.027 41.3482C147.997 41.3868 147.954 41.4149 147.907 41.4284L146.993 41.6981L147.64 40.7088C147.686 40.638 147.69 40.5495 147.652 40.4756C147.612 40.4006 147.534 40.3538 147.45 40.3527L146.624 40.3444H146.454C146.315 40.3454 146.185 40.4079 146.097 40.5172L145.446 41.3357C145.415 41.3743 145.374 41.4024 145.327 41.417L144.415 41.7002L145.056 40.7015C145.102 40.6307 145.105 40.5412 145.064 40.4672C145.025 40.3933 144.946 40.3485 144.862 40.3485L144.038 40.3496H143.869C143.729 40.3506 143.598 40.4141 143.513 40.5235L142.867 41.341C142.836 41.3795 142.795 41.4076 142.748 41.4222L141.837 41.7054L142.471 40.7068C142.516 40.6359 142.52 40.5474 142.48 40.4735C142.439 40.3996 142.361 40.3537 142.276 40.3537L141.451 40.3569L141.282 40.36C141.141 40.3621 141.012 40.4256 140.927 40.536L140.286 41.3618C140.256 41.4003 140.215 41.4295 140.169 41.4451L139.259 41.7387L139.889 40.7328C139.933 40.6609 139.935 40.5714 139.893 40.4985C139.852 40.4246 139.765 40.3777 139.69 40.3818L138.866 40.3923L138.696 40.3944C138.557 40.3964 138.428 40.461 138.342 40.5724L137.707 41.3972C137.677 41.4357 137.635 41.4649 137.588 41.4794L136.68 41.7731L137.305 40.7672C137.349 40.6964 137.351 40.6068 137.31 40.5339C137.268 40.46 137.186 40.41 137.105 40.4162L136.28 40.4277L136.112 40.4318C135.971 40.435 135.843 40.5006 135.758 40.612L135.124 41.444C135.095 41.4826 135.056 41.5117 135.008 41.5273L134.102 41.8283L134.721 40.8182C134.765 40.7463 134.767 40.6568 134.726 40.5839C134.684 40.512 134.608 40.4683 134.52 40.4683L133.697 40.487L133.528 40.4912C133.388 40.4943 133.259 40.5599 133.174 40.6713L132.545 41.5023C132.516 41.5409 132.475 41.57 132.429 41.5857L131.523 41.8877L132.139 40.8765C132.183 40.8046 132.184 40.7151 132.142 40.6422C132.099 40.5682 132.021 40.5329 131.937 40.5266L131.113 40.5453L131.115 40.638L131.112 40.5453L130.943 40.5506C130.804 40.5537 130.676 40.6203 130.591 40.7328L129.966 41.568C129.936 41.6075 129.896 41.6377 129.849 41.6534L128.945 41.9616L129.557 40.9452C129.601 40.8734 129.601 40.7838 129.558 40.7109C129.516 40.638 129.433 40.5901 129.353 40.5974L128.53 40.6224L128.361 40.6276C128.22 40.6318 128.092 40.6984 128.009 40.8099L127.386 41.6461C127.357 41.6856 127.316 41.7148 127.269 41.7304L126.367 42.0387L126.976 41.0223C127.019 40.9515 127.02 40.8619 126.977 40.789C126.935 40.7182 126.86 40.6755 126.771 40.6755L125.947 40.6995L125.777 40.7057C125.638 40.7109 125.51 40.7786 125.426 40.8911L124.807 41.7294C124.776 41.77 124.737 41.7991 124.69 41.8158L123.787 42.1292L124.393 41.1097C124.437 41.0379 124.437 40.9483 124.394 40.8765C124.351 40.8036 124.275 40.7672 124.187 40.763L123.365 40.7922L123.369 40.8848L123.364 40.7922L123.195 40.7984C123.055 40.8036 122.928 40.8713 122.846 40.9838L122.227 41.8231C122.199 41.8616 122.159 41.8918 122.112 41.9085L121.209 42.2219L121.813 41.2024C121.857 41.1296 121.857 41.0421 121.813 40.9692C121.769 40.8963 121.69 40.8546 121.606 40.8557L120.783 40.8869L120.614 40.8942C120.474 40.8994 120.346 40.9671 120.264 41.0806L119.649 41.9231C119.619 41.9637 119.579 41.9928 119.532 42.0095L118.633 42.3271L119.233 41.3045C119.275 41.2316 119.274 41.142 119.23 41.0702C119.189 41.0015 119.114 40.9588 119.024 40.9588L118.201 40.9931L118.032 41.0004C117.894 41.0056 117.764 41.0754 117.682 41.1868L117.069 42.0293C117.041 42.0688 117.001 42.0991 116.954 42.1157L116.054 42.4354L116.651 41.4107C116.693 41.3389 116.693 41.2483 116.65 41.1764C116.606 41.1046 116.527 41.0671 116.443 41.065L115.62 41.1025L115.451 41.1108C115.312 41.117 115.185 41.1858 115.102 41.2982L114.491 42.1438C114.463 42.1834 114.422 42.2136 114.376 42.2302L113.477 42.5531L114.072 41.5273C114.114 41.4544 114.113 41.3649 114.069 41.2941C114.027 41.2212 113.948 41.1816 113.862 41.1827L113.04 41.2201L113.044 41.3128L113.039 41.2201L112.871 41.2274C112.733 41.2337 112.602 41.3035 112.522 41.4159L111.913 42.2625C111.885 42.3031 111.844 42.3334 111.797 42.35L110.899 42.6759L111.492 41.6481C111.534 41.5753 111.533 41.4857 111.489 41.4138C111.444 41.342 111.354 41.3024 111.282 41.3045L110.459 41.3451L110.29 41.3534C110.15 41.3597 110.023 41.4295 109.941 41.543L109.335 42.3896C109.306 42.4291 109.267 42.4604 109.221 42.4771L108.323 42.8051L108.912 41.7762C108.954 41.7033 108.952 41.6127 108.908 41.5419C108.866 41.4732 108.793 41.4326 108.7 41.4326L107.877 41.4753L107.709 41.4846C107.569 41.4919 107.442 41.5617 107.362 41.6752L106.757 42.525C106.729 42.5645 106.69 42.5947 106.643 42.6124C106.462 42.6791 106.249 42.7624 106.038 42.7884V35.9217C106.038 35.8488 106.028 35.778 106.007 35.7083L102.455 23.8535C103.403 22.4883 104.16 21.1449 104.759 19.8349C108.507 11.6186 105.975 4.67799 104.357 1.56538C103.85 0.591715 102.616 0.272042 101.704 0.882275L98.2064 3.22532C97.4847 3.70851 97.2035 4.63531 97.5316 5.43924C99.9392 11.35 99.5778 15.8517 98.5583 18.9331L96.9359 18.7998C96.9026 15.6101 96.0435 11.3625 95.4061 8.63515C95.0344 7.04708 93.6171 5.92971 91.9853 5.92971H91.0314C90.0734 5.92971 89.1591 6.32853 88.5082 7.03145L78.9788 17.3273L75.6319 17.0534C75.4267 17.0534 73.6825 16.9483 61.9495 15.9736C59.2243 15.7382 56.748 17.3544 55.8035 19.8349C55.6722 20.1806 55.5681 20.542 55.4994 20.9179L55.3505 21.7468C53.9821 22.003 52.8929 23.0829 52.6523 24.5002L51.8234 29.3997C51.1861 29.5018 50.5946 29.7944 50.1156 30.2526C49.6074 30.7389 49.2794 31.3585 49.1648 32.0583L44.007 33.5651L34.6504 33.5693C33.4279 33.5693 32.4334 34.5638 32.4334 35.7864V37.3546L24.1046 41.4024C21.0545 42.8863 19.0853 46.0354 19.0853 49.426V53.6956C19.0853 55.8543 20.1444 57.7922 21.7803 58.995Z" fill="#E9E4D0"/>
<path d="M167.398 86.7971L164.827 85.7505C165.175 85.1851 165.523 84.553 165.836 83.823C166.023 83.3877 166.198 82.9222 166.361 82.4349L167.314 81.0405L168.683 81.4185L169.445 81.2508C169.029 83.1961 168.359 85.0737 167.398 86.7971ZM166.822 87.7812C166.414 88.4112 165.958 89.0027 165.477 89.5723L163.149 88.0019C163.269 87.8676 163.394 87.726 163.538 87.5573C163.904 87.121 164.335 86.5451 164.768 85.8526L166.996 87.4833C166.936 87.5812 166.885 87.6854 166.822 87.7812ZM159.399 95.0571C158.359 95.8735 157.305 96.6972 156.1 97.2388C155.651 97.4408 155.184 97.5897 154.711 97.7199L154.082 96.5067C154.122 96.4952 154.167 96.4879 154.206 96.4754C154.951 96.2557 155.604 95.9454 156.133 95.6142C156.667 95.2862 157.096 94.9551 157.444 94.6791C158.133 94.1168 158.504 93.7721 158.504 93.7721C158.504 93.7721 158.085 94.0564 157.354 94.5562C156.626 95.0446 155.531 95.709 154.088 96.0495C154.018 96.0683 153.939 96.0766 153.868 96.0933L153.399 95.1914L153.595 96.1474C152.247 96.4223 150.664 96.4859 148.981 96.7545C148.018 96.8909 147.023 97.0347 146.016 97.1367L145.917 96.4473L145.815 97.1523C144.925 97.2367 144.027 97.2898 143.131 97.2658C142.143 97.2585 141.172 97.1429 140.245 96.8826C139.297 96.6244 138.397 96.2974 137.548 95.911C135.85 95.1456 134.366 94.2032 133.221 93.2368C132.341 92.4871 131.607 91.7904 131.035 91.2156L132.278 89.6337C132.762 90.1628 133.252 90.6699 133.742 91.1385C134.693 92.0497 135.691 92.7693 136.591 93.3087C137.49 93.8502 138.3 94.1865 138.866 94.4125C139.436 94.6322 139.768 94.7353 139.768 94.7353C139.768 94.7353 139.439 94.6177 138.882 94.374C138.323 94.1303 137.547 93.7377 136.66 93.1931C135.777 92.6453 134.798 91.9143 133.876 91.0042C133.384 90.5189 132.897 89.9982 132.418 89.4557L132.857 88.8975L132.327 89.3474C131.934 88.8965 131.543 88.4362 131.17 87.9572C130.94 87.6708 130.733 87.373 130.515 87.0793L130.969 86.5222L131.419 86.8877C131.947 87.576 132.49 88.2435 133.044 88.8454C133.849 89.715 134.656 90.4679 135.41 91.0521C136.16 91.6363 136.854 92.0205 137.336 92.283C137.824 92.5381 138.115 92.6578 138.115 92.6578C138.115 92.6578 137.851 92.4891 137.388 92.1955C136.929 91.8976 136.301 91.4332 135.597 90.824C134.89 90.2242 134.157 89.4067 133.382 88.5414C133.167 88.2966 132.955 88.028 132.742 87.7687L134.003 86.1994L135.694 87.55L136.471 86.567C136.554 86.6471 136.642 86.7346 136.722 86.8075C137.068 87.1522 137.416 87.3563 137.679 87.5739C138.222 87.9769 138.533 88.2071 138.533 88.2071C138.533 88.2071 138.245 87.9478 137.743 87.4948C137.503 87.2636 137.155 87.0168 136.859 86.669C136.778 86.5836 136.693 86.4847 136.609 86.392L137.032 85.8568L138.726 87.1959L139.2 86.5878C139.523 86.8304 139.861 87.0637 140.233 87.2699C140.831 87.6052 141.478 87.8957 142.163 88.1196C142.835 88.357 143.591 88.4872 144.319 88.4976C145.788 88.5122 147.212 88.2133 148.537 88.0238C149.198 87.9332 149.856 87.8541 150.466 87.6927C151.076 87.5406 151.634 87.2865 152.087 86.9814C152.995 86.3681 153.631 85.7308 154.117 85.3309C154.593 84.9195 154.863 84.6831 154.863 84.6831C154.863 84.6831 154.577 84.9018 154.077 85.283C153.572 85.6568 152.874 86.2348 151.975 86.8023C151.523 87.0814 150.995 87.299 150.401 87.4261C149.809 87.5604 149.166 87.6083 148.493 87.7C147.152 87.8759 145.738 88.1519 144.326 88.1196C142.918 88.1259 141.559 87.6021 140.394 86.9825C140.033 86.7888 139.703 86.5732 139.386 86.3493L140.055 85.4902L141.762 86.8158L143.006 85.1945C143.1 85.2257 143.199 85.2403 143.295 85.2653L144.795 86.4139L145.54 85.4308C145.998 85.3892 146.439 85.3298 146.855 85.2559L147.831 85.99L148.603 84.956C149.003 84.8893 149.38 84.805 149.704 84.6842L150.582 85.335C150.238 85.5058 150.016 85.5568 150.023 85.5704C150.017 85.5558 150.246 85.5141 150.607 85.3527L150.865 85.5433L151.275 84.9841C151.637 84.7477 152.057 84.4343 152.52 84.0719L153.548 84.8237C152.444 85.712 151.447 86.6097 150.288 86.8658C149.671 87.0293 149.072 87.0928 148.523 87.1699C147.973 87.2553 147.469 87.3334 147.014 87.4042C145.192 87.7093 144.132 87.6375 144.132 87.6375C144.132 87.6375 145.192 87.7249 147.019 87.4459C147.476 87.3823 147.981 87.3115 148.531 87.2345C149.081 87.1657 149.683 87.1105 150.311 86.9543C151.511 86.7055 152.543 85.7974 153.661 84.906L153.893 85.0747L154.564 84.1458C154.82 83.9209 155.066 83.6814 155.313 83.4325L156.917 84.5842L158.174 82.8212L158.536 83.0774C158.534 83.0815 158.532 83.0857 158.53 83.0899C157.268 84.9768 155.549 86.317 154.125 87.4781C153.41 88.0571 152.748 88.5747 152.077 88.8808C151.406 89.1891 150.762 89.3245 150.237 89.4234C149.173 89.5963 148.566 89.6952 148.566 89.6952C148.566 89.6952 149.179 89.6285 150.25 89.5109C150.783 89.439 151.44 89.338 152.152 89.0558C152.868 88.7757 153.58 88.2748 154.308 87.7104C155.753 86.5836 157.569 85.308 158.907 83.345C158.908 83.344 158.909 83.3429 158.91 83.3408L159.944 84.0708L161.191 82.2985L161.893 82.7879C161.884 82.8077 161.878 82.8274 161.868 82.8472C161.392 83.8563 160.769 84.8394 159.999 85.7214C159.233 86.6107 158.346 87.4209 157.419 88.1883C156.496 88.9537 155.543 89.7264 154.602 90.4252C153.661 91.1333 152.61 91.5623 151.506 91.7581C150.412 91.956 149.301 92.0716 148.279 92.2632C147.251 92.436 146.284 92.5922 145.384 92.6807C143.592 92.8682 142.064 92.7693 141.074 92.3881C140.065 92.0622 139.488 91.8758 139.488 91.8758C139.488 91.8758 140.054 92.0924 141.045 92.4714C142.025 92.8994 143.584 93.1212 145.409 92.9754C146.322 92.913 147.304 92.7849 148.336 92.6422C149.367 92.4808 150.449 92.41 151.591 92.2059C152.731 92.0205 153.91 91.5509 154.886 90.8251C155.867 90.1107 156.806 89.3651 157.755 88.5913C158.687 87.8041 159.589 86.9658 160.371 86.039C161.159 85.1174 161.791 84.0979 162.274 83.0534L162.967 83.5356L163 83.4866C162.973 83.5449 162.95 83.6053 162.922 83.6626C162.33 84.9029 161.542 86.0078 160.655 86.97C159.767 87.9343 158.815 88.784 157.886 89.5629C156.951 90.3315 156.062 91.0729 155.215 91.6925C154.367 92.3131 153.497 92.7245 152.669 92.9473C151.845 93.1785 151.1 93.2858 150.489 93.3784C149.265 93.5794 148.566 93.694 148.566 93.694C148.566 93.694 149.269 93.6117 150.499 93.467C151.115 93.4014 151.867 93.3285 152.717 93.1316C153.568 92.9463 154.505 92.5547 155.385 91.9362C156.268 91.3228 157.165 90.6116 158.129 89.8597C159.083 89.1006 160.077 88.2675 160.991 87.2792C161.91 86.2972 162.742 85.1518 163.362 83.8792C163.7 83.2034 163.983 82.4942 164.221 81.7674L165.028 82.3182C164.778 83.0441 164.47 83.7949 164.073 84.5457C163.571 85.5162 162.915 86.4576 162.159 87.3344L161.859 87.1324L162.137 87.3605C161.87 87.6687 161.591 87.9697 161.301 88.2592C160.196 89.3974 158.966 90.4116 157.801 91.3457C156.634 92.2757 155.557 93.1754 154.474 93.669C153.394 94.1616 152.403 94.3459 151.719 94.4667C151.03 94.5729 150.635 94.6333 150.635 94.6333C150.635 94.6333 151.032 94.5885 151.726 94.5083C152.412 94.4063 153.422 94.2865 154.53 93.7929C155.642 93.3024 156.742 92.4079 157.919 91.4946C159.097 90.5751 160.349 89.5733 161.481 88.4351C161.772 88.1373 162.051 87.827 162.319 87.5094L163.014 88.0811C162.641 88.5382 162.412 88.7788 162.412 88.7788C162.412 88.7788 162.654 88.5507 163.051 88.1123L165.213 89.8878C163.509 91.8237 161.439 93.4565 159.399 95.0571ZM151.552 98.2863C149.903 98.4894 148.1 98.8143 146.287 99.0247L146.12 97.8657C147.139 97.7438 148.131 97.5814 149.084 97.4304C150.018 97.2804 150.922 97.1367 151.778 96.9992C152.45 96.893 153.085 96.7618 153.688 96.6066L153.954 97.9115C153.163 98.0791 152.355 98.1885 151.552 98.2863ZM139.981 98.8372C136.798 97.9771 133.865 96.3442 131.496 94.046C130.986 93.5513 130.495 93.039 130.015 92.5152L130.903 91.3853C131.417 92.008 132.075 92.7734 132.927 93.5701C134.055 94.6073 135.507 95.7111 137.26 96.5317C138.13 96.9461 139.072 97.3075 140.042 97.5897C141.029 97.8865 142.082 98.0312 143.116 98.0531C143.993 98.0614 144.857 97.9958 145.707 97.9052L145.535 99.1059C143.613 99.2892 141.703 99.3017 139.981 98.8372ZM126.696 88.3185L127.934 86.8231L129.603 88.1988L129.76 88.0061C130.336 88.7517 130.699 89.1703 130.699 89.1703C130.699 89.1703 130.348 88.7351 129.793 87.9655L130.361 87.2678C130.565 87.55 130.757 87.8374 130.973 88.1134C131.354 88.5882 131.754 89.0454 132.157 89.4921L130.625 90.7938C130.607 90.7751 130.584 90.7522 130.567 90.7345C129.961 90.0888 129.616 89.7191 129.616 89.7191C129.616 89.7191 129.9 90.1388 130.452 90.8355C130.466 90.8542 130.486 90.8782 130.502 90.8969L129.408 91.8258C128.437 90.7116 127.527 89.5421 126.696 88.3185ZM116.597 100.487L113.729 99.3194C114.116 98.6883 114.505 97.9823 114.853 97.1679C115.657 95.2997 116.294 92.9744 116.498 90.4314C116.547 89.7952 116.573 89.1464 116.577 88.4914L117.412 89.2245L118.825 87.5885L119.484 88.1581C119.541 92.4267 118.664 96.7806 116.597 100.487ZM115.954 101.585C115.499 102.288 114.99 102.947 114.453 103.583L111.855 101.831C111.99 101.681 112.129 101.523 112.29 101.334C112.698 100.847 113.179 100.205 113.662 99.4318L116.149 101.252C116.081 101.361 116.024 101.477 115.954 101.585ZM107.672 109.704C106.511 110.614 105.336 111.533 103.991 112.137C103.49 112.362 102.97 112.529 102.442 112.675L101.74 111.321C101.783 111.307 101.833 111.299 101.877 111.286C102.708 111.04 103.436 110.694 104.026 110.325C104.623 109.959 105.101 109.589 105.491 109.281C106.259 108.654 106.673 108.269 106.673 108.269C106.673 108.269 106.206 108.586 105.39 109.144C104.577 109.689 103.355 110.43 101.746 110.811C101.668 110.831 101.579 110.841 101.5 110.859L100.977 109.853L101.195 110.92C99.6924 111.226 97.9252 111.297 96.0476 111.597C94.974 111.749 93.8629 111.909 92.7393 112.023L92.6278 111.254L92.5154 112.041C91.5219 112.134 90.5201 112.195 89.5215 112.168C88.4187 112.159 87.3336 112.03 86.3006 111.74C85.2425 111.451 84.2387 111.087 83.2911 110.656C81.3968 109.803 79.7411 108.751 78.4623 107.672C77.4813 106.836 76.6608 106.058 76.0245 105.417L77.4064 103.658C77.9427 104.25 78.4894 104.817 79.0329 105.343C80.092 106.364 81.2156 107.156 82.2205 107.754C83.2275 108.353 84.1293 108.733 84.7614 108.983C85.3967 109.229 85.7674 109.344 85.7674 109.344C85.7674 109.344 85.4008 109.212 84.7791 108.94C84.1574 108.668 83.2879 108.234 82.3028 107.62C81.3187 107.007 80.2367 106.18 79.2048 105.17C78.6549 104.629 78.1082 104.05 77.5719 103.447L78.0572 102.83L77.472 103.328C77.0304 102.826 76.5931 102.314 76.1755 101.781C74.2427 99.359 72.6984 96.6514 71.733 94.5375C71.4935 94.0095 71.2697 93.519 71.1062 93.0837C70.95 92.637 70.8125 92.2465 70.7 91.9258C70.4751 91.2843 70.346 90.9177 70.346 90.9177C70.346 90.9177 70.4584 91.2895 70.6553 91.9403C70.85 92.587 71.1041 93.5367 71.5883 94.602C72.488 96.7576 74.0209 99.5016 75.9547 101.955C76.3775 102.486 76.8222 102.997 77.2699 103.498L75.5652 104.946C75.5465 104.925 75.5205 104.9 75.5017 104.88C74.8259 104.16 74.4396 103.747 74.4396 103.747C74.4396 103.747 74.7572 104.216 75.3726 104.993C75.3903 105.013 75.4122 105.041 75.4288 105.061L74.2094 106.098C72.5037 104.142 70.9812 102.03 69.6743 99.789L72.2392 98.3759C73.0066 99.6578 73.7491 100.7 74.325 101.477C75.1404 102.554 75.6496 103.135 75.6496 103.135C75.6496 103.135 75.1602 102.537 74.3823 101.435C73.8251 100.647 73.1368 99.5756 72.4089 98.2822L72.7026 98.1208L72.386 98.2426C72.1048 97.7417 71.8184 97.2138 71.5289 96.6452C71.0124 95.6153 70.4949 94.476 70.0263 93.241C69.7232 92.4381 69.4515 91.5832 69.2786 90.6928L71.5789 90.2252C71.656 90.8334 71.8278 91.6852 72.1746 92.6589C72.5318 93.6503 72.9691 94.8061 73.569 95.9839C74.1615 97.1648 74.8769 98.3822 75.6694 99.5495C76.4795 100.704 77.371 101.8 78.2655 102.771C78.7029 103.263 79.1715 103.713 79.6078 104.12C80.0462 104.539 80.4867 104.911 80.9053 105.234C81.7415 105.886 82.5163 106.314 83.0547 106.607C83.5993 106.892 83.9231 107.025 83.9231 107.025C83.9231 107.025 83.6284 106.838 83.113 106.509C82.6006 106.177 81.8987 105.659 81.1136 104.98C80.3253 104.311 79.5068 103.398 78.6435 102.432C77.7812 101.458 76.9253 100.365 76.1515 99.2163C74.5437 96.9555 73.2961 94.4604 72.4828 92.5422C72.0944 91.6009 71.8195 90.7959 71.6945 90.2013L72.0132 90.1367L71.682 90.1482C71.6539 90.0128 71.631 89.891 71.6102 89.7816L72.915 88.5809C72.9212 88.7923 72.9171 89.0183 72.9379 89.2068C72.9848 89.8608 73.1701 90.3512 73.2378 90.6897C73.3211 91.0281 73.3659 91.2083 73.3659 91.2083C73.3659 91.2083 73.3305 91.026 73.2628 90.6845C73.2107 90.3377 73.0514 89.8493 73.0358 89.1995C73.0254 88.9766 73.0368 88.7153 73.0462 88.4601L73.192 88.3258L74.6509 89.918L75.0883 89.5088C75.0925 89.5515 75.0935 89.59 75.0987 89.6327C75.2632 91.0573 75.9964 92.8172 76.8284 94.4989C77.6927 96.1724 78.7643 97.7313 79.6682 98.8122C80.57 99.8963 81.2552 100.539 81.2552 100.539C81.2552 100.539 80.6283 99.839 79.7921 98.7144C78.9538 97.5928 77.9166 96.036 77.0783 94.3709C76.238 92.713 75.4882 90.9813 75.256 89.6098C75.2424 89.5307 75.2351 89.4578 75.2247 89.3807L75.8089 88.834C75.836 89.5994 75.9828 90.3617 76.2223 91.0864C76.8076 92.7412 77.5813 94.3032 78.4321 95.6965C79.2808 97.0919 80.2493 98.2749 81.1188 99.2402C81.5541 99.7213 81.981 100.144 82.3684 100.498C82.7547 100.882 83.1432 101.111 83.4368 101.353C84.0429 101.803 84.3897 102.06 84.3897 102.06C84.3897 102.06 84.0689 101.771 83.5087 101.266C83.2411 101.006 82.8516 100.731 82.5225 100.344C82.1622 99.9598 81.7821 99.5162 81.3666 99.0247C80.5429 98.0385 79.6786 96.8128 78.8674 95.4351C78.0562 94.0605 77.3178 92.5058 76.7784 90.9021C76.516 90.143 76.3587 89.3526 76.3494 88.5705L77.7021 90.0191L78.8903 88.8913C78.9465 89.5338 79.1048 90.1357 79.3037 90.6834C79.8004 92.032 80.3784 93.1473 80.9022 94.0324C81.4281 94.9176 81.9029 95.5736 82.2351 96.0131C82.5767 96.4452 82.7589 96.6764 82.7589 96.6764C82.7589 96.6764 82.5798 96.4432 82.2445 96.0058C81.9196 95.5622 81.4552 94.8999 80.9428 94.0085C80.4336 93.1181 79.8733 91.9966 79.3985 90.6501C79.1996 90.0753 79.0475 89.4421 79.0132 88.7746L79.2683 88.533L80.6387 89.9753C80.7605 90.3669 80.898 90.7407 81.0407 91.0781C81.4468 92.0403 81.8862 92.7932 82.2007 93.3108C82.5194 93.8283 82.7193 94.1105 82.7193 94.1105C82.7193 94.1105 82.5329 93.8179 82.2414 93.2879C81.9487 92.7578 81.5666 91.981 81.1865 91.0187C81.0636 90.7053 80.948 90.3648 80.8449 90.0128L81.6499 89.236C81.7301 89.7702 81.8904 90.3762 82.1601 91.0219C82.584 92.083 83.1796 93.2951 84.0252 94.4594C84.4449 95.0436 84.9176 95.6153 85.4394 96.1682C85.9403 96.7108 86.539 97.2554 87.1868 97.6782C87.8428 98.1 88.553 98.4342 89.2799 98.6737C89.9869 98.9268 90.7961 99.0361 91.5105 99.0143C92.9704 98.9757 94.2554 98.6227 95.3718 98.479C95.9362 98.3978 96.4579 98.2853 96.8984 98.1166C97.3441 97.9521 97.6919 97.7303 97.9616 97.5345C98.4948 97.1346 98.7656 96.8712 98.7656 96.8712C98.7656 96.8712 98.4604 97.0982 97.9012 97.4439C97.6211 97.6136 97.267 97.799 96.8338 97.9188C96.3996 98.0427 95.8925 98.1072 95.3322 98.1656C94.1982 98.2666 92.8861 98.5144 91.5063 98.5269C90.8044 98.5279 90.1421 98.4342 89.4475 98.177C88.7654 97.9396 88.1031 97.6136 87.495 97.2075C86.8712 96.8087 86.3329 96.3421 85.8153 95.8017C85.3071 95.28 84.8343 94.7291 84.4188 94.1699C83.5837 93.0515 82.911 91.9226 82.4517 90.8969C82.2216 90.3856 82.0216 89.9107 81.8935 89.4775C81.8519 89.3401 81.8311 89.2151 81.805 89.086L82.3101 88.5997L83.8086 90.1544L85.2311 88.7621C85.2821 89.0974 85.3727 89.4317 85.4956 89.7389C85.7237 90.294 85.9965 90.8292 86.2891 91.3082C86.5807 91.7893 86.9149 92.1944 87.2034 92.5339C87.798 93.2045 88.2812 93.5534 88.2812 93.5534C88.2812 93.5534 87.8907 93.1056 87.3898 92.3881C86.892 91.6696 86.2902 90.6699 85.8882 89.5848C85.8018 89.3828 85.7351 89.1797 85.681 88.9767L86.865 90.1867L88.1896 88.8684C88.1906 88.8704 88.1906 88.8715 88.1917 88.8736C88.2437 89.0017 88.2739 89.0756 88.2739 89.0756C88.2739 89.0756 88.2604 88.9975 88.2375 88.8611C88.2354 88.8517 88.2333 88.8371 88.2312 88.8277L88.3968 88.6632L89.9214 90.194L90.2869 89.8243C90.5962 90.2284 90.9637 90.596 91.424 90.798C91.9312 91.0625 92.5174 91.0083 92.9881 90.9094C93.2287 90.8615 93.4661 90.8438 93.6983 90.7803C93.9399 90.723 94.1024 90.5439 94.2836 90.4366C94.622 90.1617 94.9261 89.9087 95.1333 89.6202C95.1896 89.5421 95.2218 89.465 95.2645 89.3869L96.0372 90.1398L96.6266 89.5265C96.4954 89.8878 96.3101 90.2346 96.0664 90.5127C95.7769 90.8428 95.4353 91.1406 95.0875 91.4228C94.9636 91.5301 94.7345 91.6685 94.5731 91.7925L94.4419 91.8883C94.4502 91.8893 94.3679 91.9247 94.3409 91.9362C94.2555 91.9716 94.1638 91.9987 94.0711 92.0226C93.6692 92.0986 93.2891 92.1715 92.9381 92.2382C92.5872 92.3017 92.2696 92.3548 91.9864 92.3621C91.6948 92.3756 91.473 92.3256 91.2699 92.2465C90.8669 92.1215 90.6367 92.0497 90.6367 92.0497C90.6367 92.0497 90.8513 92.1601 91.2272 92.3527C91.4053 92.4537 91.6781 92.5579 91.977 92.5797C92.28 92.6162 92.6226 92.6058 92.985 92.5652C93.3536 92.5193 93.714 92.4995 94.1555 92.4412C94.2648 92.4235 94.3773 92.4006 94.4918 92.3642C94.5627 92.3392 94.5845 92.3413 94.6835 92.2882L94.822 92.2049C95.0188 92.0841 95.1729 91.9966 95.4072 91.8289C95.7665 91.555 96.1559 91.2676 96.4923 90.8855C96.8401 90.497 97.0931 90.0399 97.2525 89.5442C97.3379 89.2641 97.3889 88.9829 97.4201 88.7007L97.5357 88.582L98.2699 89.287C98.1845 89.6473 98.0345 90.1044 97.7628 90.5939C97.4514 91.1781 96.9005 91.7112 96.2528 92.2257C95.9268 92.4766 95.5915 92.763 95.2375 92.9786C94.8792 93.1973 94.4637 93.267 94.0232 93.3181C93.137 93.4326 92.2644 93.6502 91.4667 93.5305C90.6794 93.3857 89.9724 93.0286 89.4642 92.6214C88.9581 92.2038 88.5801 91.7925 88.3322 91.4957C88.0834 91.1979 87.9563 91.0146 87.9563 91.0146C87.9563 91.0146 88.0688 91.2062 88.2947 91.5248C88.5259 91.8373 88.856 92.2923 89.3632 92.7432C89.8766 93.1827 90.5753 93.6034 91.4282 93.7721C92.2956 93.9106 93.1891 93.695 94.0586 93.5971C94.495 93.5419 94.9792 93.4534 95.3708 93.2045C95.7613 92.9577 96.0768 92.6755 96.4069 92.4142C97.0546 91.8883 97.6055 91.2791 97.9023 90.6678C98.1564 90.1669 98.2636 89.7035 98.324 89.338L99.0946 90.0774L99.5226 89.6265C99.3987 90.2294 99.2154 90.8042 98.9478 91.3051C98.6552 91.8612 98.2667 92.3142 97.871 92.7037C97.4732 93.09 97.0817 93.4201 96.7339 93.7159C96.3861 94.0116 96.082 94.2626 95.7977 94.4198C95.5155 94.5625 95.2489 94.6104 95.0885 94.6739C94.9219 94.728 94.8334 94.7562 94.8334 94.7562C94.8334 94.7562 94.924 94.7343 95.0948 94.6916C95.2635 94.6375 95.5176 94.6135 95.83 94.4823C96.132 94.3428 96.4621 94.1064 96.8287 93.8356C97.1963 93.5659 97.6149 93.2608 98.0345 92.8765C98.4532 92.4964 98.8864 92.0299 99.2165 91.4561C99.5518 90.8844 99.7996 90.2211 99.9277 89.5119C99.9496 89.3963 99.9506 89.2745 99.9663 89.1568L100.582 88.508L101.92 89.7712C101.885 89.9784 101.867 90.1836 101.817 90.3919C101.611 91.252 101.263 92.1122 100.739 92.8744C100.216 93.6388 99.5195 94.2896 98.7843 94.8895C98.0376 95.4716 97.3337 96.1589 96.4996 96.5213C95.6582 96.8628 94.7043 96.8743 93.8233 97.043C92.9402 97.1836 92.0832 97.3106 91.273 97.2773C90.4628 97.2544 89.7245 96.9951 89.0758 96.7108C88.4291 96.4171 87.873 96.0683 87.4169 95.7111C86.9514 95.3654 86.6359 94.9665 86.3464 94.6614C85.7799 94.046 85.4571 93.694 85.4571 93.694C85.4571 93.694 85.7674 94.0574 86.311 94.6926C86.5859 95.004 86.8931 95.4216 87.3534 95.7902C87.8001 96.1693 88.3541 96.5463 89.0123 96.8482C89.6673 97.1461 90.4243 97.422 91.2647 97.4574C92.0988 97.5022 92.9694 97.3825 93.8556 97.2533C94.7314 97.093 95.6727 97.1044 96.5964 96.7483C97.5045 96.3599 98.2022 95.684 98.9634 95.1061C99.6997 94.4896 100.409 93.8127 100.942 93.0119C101.476 92.2142 101.823 91.3239 102.023 90.4397C102.06 90.2721 102.071 90.1076 102.099 89.941L102.153 89.992L103.52 88.5257C103.523 89.1308 103.526 89.4859 103.526 89.4859C103.526 89.4859 103.563 89.0943 103.629 88.4112L104.571 89.288C104.548 89.5536 104.528 89.8191 104.488 90.0836C104.282 91.5738 103.765 93.0234 102.983 94.1938C102.197 95.3664 101.198 96.2609 100.328 96.9909C99.4435 97.7105 98.7291 98.3447 98.1564 98.6821C97.5868 99.0236 97.2004 99.0986 97.2098 99.1184C97.2015 99.0976 97.5888 99.0413 98.1803 98.7227C98.7708 98.403 99.5268 97.8157 100.428 97.1138C101.315 96.3994 102.367 95.533 103.185 94.3313C104 93.1316 104.544 91.6477 104.766 90.1242C104.795 89.9243 104.805 89.7233 104.824 89.5223L105.213 89.8847L106.181 88.8298C106.12 90.5626 105.768 92.2361 105.087 93.6971C104.253 95.5341 102.846 96.8899 101.497 98.001C100.121 99.0778 98.9207 100.25 97.5055 100.564C96.8172 100.746 96.1497 100.817 95.5353 100.902C94.923 100.998 94.3596 101.086 93.8514 101.165C91.8208 101.505 90.6378 101.424 90.6378 101.424C90.6378 101.424 91.8197 101.522 93.8587 101.21C94.3679 101.14 94.9313 101.061 95.5447 100.974C96.158 100.898 96.8297 100.837 97.5305 100.662C98.9874 100.361 100.218 99.1892 101.594 98.1187C102.952 97.0097 104.39 95.6424 105.25 93.7742C105.981 92.2257 106.343 90.4439 106.388 88.6038L106.676 88.2914L106.926 88.5216C106.929 88.7673 106.926 89.0069 106.916 89.2349C106.859 91.0937 106.515 92.3079 106.515 92.3079C106.515 92.3079 106.62 92.0143 106.761 91.4853C106.896 90.9563 107.079 90.1898 107.153 89.2495C107.166 89.0912 107.173 88.9225 107.182 88.7559L108.271 89.7535L108.855 89.1068C108.762 91.7113 108.051 94.3157 106.702 96.3505C105.294 98.4551 103.375 99.9504 101.788 101.246C100.989 101.893 100.252 102.469 99.5018 102.812C98.7531 103.156 98.0356 103.307 97.4483 103.417C96.2622 103.61 95.5853 103.72 95.5853 103.72C95.5853 103.72 96.2684 103.645 97.4639 103.515C98.0585 103.434 98.7916 103.321 99.5851 103.007C100.384 102.694 101.179 102.136 101.992 101.506C102.81 100.881 103.704 100.206 104.598 99.4193C105.49 98.6342 106.392 97.7292 107.123 96.6348C108.605 94.4427 109.373 91.6498 109.454 88.86C109.456 88.7246 109.442 88.5903 109.442 88.4549L109.716 88.1509L110.029 88.4341C110.033 89.0881 110.012 89.7077 109.963 90.2669C109.794 92.2673 109.375 93.5544 109.375 93.5544C109.375 93.5544 109.488 93.2389 109.648 92.6724C109.804 92.107 110.005 91.2874 110.12 90.2835C110.185 89.7733 110.225 89.2151 110.24 88.6247L111.317 89.5994L112.108 88.709C112.101 88.9642 112.099 89.2099 112.082 89.4765C111.952 91.4801 111.496 93.82 110.428 96.0797C109.896 97.2054 109.2 98.302 108.341 99.2861C107.486 100.278 106.496 101.183 105.463 102.038C104.433 102.893 103.369 103.755 102.32 104.534C101.269 105.325 100.097 105.804 98.8655 106.022C97.644 106.242 96.4059 106.372 95.2635 106.585C94.118 106.779 93.0371 106.953 92.0343 107.051C90.0349 107.26 88.3301 107.15 87.2253 106.724C86.0985 106.361 85.455 106.153 85.455 106.153C85.455 106.153 86.0871 106.394 87.192 106.818C88.2864 107.295 90.0265 107.543 92.0624 107.381C93.0808 107.311 94.1763 107.167 95.3281 107.008C96.4777 106.829 97.6857 106.749 98.9603 106.521C100.231 106.315 101.548 105.79 102.636 104.981C103.731 104.184 104.779 103.353 105.837 102.488C106.878 101.61 107.884 100.675 108.756 99.6401C109.639 98.6081 110.349 97.4647 110.888 96.2942C111.972 93.9439 112.327 91.5259 112.41 89.4932C112.425 89.1006 112.418 88.7351 112.41 88.3706L112.752 87.9863L113.454 88.6122C113.436 89.941 113.315 91.2791 113.047 92.5943C112.753 94.123 112.276 95.6163 111.602 96.9899C110.941 98.3728 110.062 99.6058 109.074 100.679C108.083 101.755 107.02 102.704 105.984 103.572C104.941 104.43 103.948 105.258 103.004 105.949C102.056 106.641 101.086 107.099 100.163 107.349C99.2446 107.606 98.4115 107.726 97.7294 107.83C96.3652 108.054 95.5853 108.182 95.5853 108.182C95.5853 108.182 96.3694 108.09 97.7419 107.928C98.4292 107.855 99.2685 107.774 100.216 107.554C101.165 107.348 102.211 106.911 103.192 106.22C104.179 105.536 105.179 104.743 106.255 103.904C107.319 103.056 108.428 102.127 109.448 101.024C110.474 99.9286 111.401 98.6508 112.094 97.2315C112.801 95.8163 113.308 94.2792 113.622 92.7078C113.855 91.5113 113.975 90.3023 114.005 89.1027L114.364 89.4234L115.789 87.7999L116.031 88.0124C116.048 88.8194 116.043 89.6171 115.991 90.3929C115.809 92.8828 115.296 95.1831 114.548 97.0419C114.221 97.8604 113.867 98.5831 113.513 99.2319L113.231 99.1163L113.479 99.2986C113.04 100.094 112.602 100.766 112.212 101.273C112.062 101.471 111.929 101.637 111.803 101.796L110.968 101.232C111.803 100.236 112.527 99.1663 113.075 98.0718C113.84 96.5754 114.321 95.0748 114.62 93.771C114.926 92.4652 115.024 91.3499 115.081 90.5741C115.135 89.7962 115.135 89.3515 115.135 89.3515C115.135 89.3515 115.117 89.7972 115.035 90.5699C114.957 91.3436 114.788 92.4444 114.473 93.7356C114.159 95.0269 113.662 96.5077 112.886 97.975C112.326 99.057 111.594 100.109 110.751 101.086L110.416 100.861L110.727 101.115C110.429 101.459 110.118 101.795 109.795 102.117C108.562 103.387 107.189 104.52 105.888 105.561C104.586 106.599 103.385 107.603 102.176 108.154C100.971 108.703 99.8652 108.909 99.103 109.045C98.3334 109.162 97.894 109.23 97.894 109.23C97.894 109.23 98.3365 109.18 99.1103 109.091C99.8757 108.977 101.002 108.843 102.24 108.292C103.481 107.745 104.706 106.746 106.021 105.728C107.336 104.702 108.731 103.584 109.994 102.314C110.319 101.981 110.631 101.636 110.93 101.281L111.705 101.919C111.29 102.429 111.034 102.698 111.034 102.698C111.034 102.698 111.303 102.443 111.747 101.954L114.159 103.935C112.256 106.095 109.949 107.917 107.672 109.704ZM98.9155 113.307C97.0775 113.532 95.0636 113.895 93.0412 114.13L92.8559 112.836C93.992 112.701 95.099 112.52 96.1622 112.351C97.2046 112.184 98.2126 112.023 99.1686 111.87C99.9194 111.751 100.626 111.605 101.299 111.432L101.596 112.887C100.713 113.075 99.8111 113.196 98.9155 113.307ZM86.0058 113.92C82.4538 112.961 79.1819 111.14 76.5389 108.575C75.9703 108.023 75.4205 107.451 74.8852 106.866L75.8756 105.606C76.4504 106.301 77.1846 107.155 78.1353 108.044C79.3933 109.201 81.0126 110.433 82.9703 111.348C83.9409 111.811 84.9926 112.213 86.0736 112.529C87.1753 112.86 88.3489 113.022 89.5027 113.047C90.4816 113.055 91.4459 112.982 92.3946 112.881L92.2019 114.22C90.0567 114.424 87.9261 114.439 86.0058 113.92ZM66.9991 94.3063C66.6169 93.343 66.2732 92.36 66.0483 91.3499L67.4468 91.0656C67.6072 91.6717 67.8061 92.2319 67.9956 92.7182C68.3008 93.5045 68.6527 94.1189 68.8745 94.55C69.1047 94.9811 69.2473 95.2217 69.2473 95.2217C69.2473 95.2217 69.1755 94.9509 69.0307 94.4844C68.8735 94.022 68.6861 93.3545 68.4632 92.561C68.3226 92.0684 68.2112 91.5113 68.1206 90.9292L68.9849 90.7532C69.1734 91.6644 69.4598 92.5318 69.7753 93.3389C70.2606 94.577 70.7948 95.7184 71.3269 96.7493C71.6175 97.3085 71.9101 97.8261 72.2006 98.3145L69.4442 99.3777C68.5173 97.7438 67.6905 96.0537 66.9991 94.3063ZM56.699 90.924L54.129 89.8774C54.4768 89.312 54.8246 88.6788 55.137 87.9488C55.1964 87.8124 55.2464 87.6573 55.3036 87.5146L56.3533 88.7746L58.0039 87.3782L58.1684 87.5729C57.7873 88.7382 57.2937 89.8576 56.699 90.924ZM56.1242 91.9081C55.716 92.5381 55.2599 93.1285 54.7777 93.6981L52.4503 92.1288C52.5701 91.9945 52.6961 91.8529 52.8387 91.6831C53.2053 91.2468 53.6364 90.6709 54.0696 89.9784L56.2981 91.6102C56.2377 91.7081 56.1867 91.8112 56.1242 91.9081ZM48.7004 99.184C47.6611 99.9994 46.6073 100.824 45.4014 101.366C44.9526 101.567 44.486 101.717 44.0133 101.847L43.3843 100.634C43.4238 100.622 43.4686 100.614 43.5072 100.602C44.2528 100.383 44.9047 100.072 45.4337 99.7411C45.9679 99.4131 46.3969 99.0809 46.7458 98.806C47.4341 98.2437 47.8048 97.8979 47.8048 97.8979C47.8048 97.8979 47.3873 98.1833 46.6552 98.6821C45.9273 99.1715 44.8318 99.8348 43.3895 100.176C43.3197 100.194 43.2406 100.203 43.1687 100.22L42.7012 99.3173L42.8959 100.274C41.5494 100.548 39.9655 100.613 38.2827 100.881C37.3205 101.018 36.3249 101.16 35.3169 101.263L35.218 100.574L35.117 101.278C34.2266 101.363 33.329 101.417 32.4334 101.393C31.4452 101.385 30.4736 101.27 29.5468 101.008C28.5991 100.75 27.6994 100.424 26.8497 100.037C25.1523 99.2725 23.6683 98.3301 22.5218 97.3637C21.6429 96.6139 20.9077 95.9162 20.337 95.3425L21.5804 93.7606C22.0626 94.2896 22.5541 94.7957 23.0435 95.2654C23.9953 96.1755 24.9919 96.8961 25.8916 97.4356C26.7913 97.976 27.6015 98.3134 28.167 98.5394C28.7366 98.7591 29.0688 98.8622 29.0688 98.8622C29.0688 98.8622 28.7408 98.7435 28.1836 98.4998C27.6255 98.2572 26.8486 97.8646 25.9624 97.3189C25.0794 96.7722 24.1005 96.0412 23.1768 95.1311C22.6863 94.6447 22.198 94.1241 21.72 93.5826L22.1584 93.0244L21.6294 93.4732C21.2347 93.0234 20.8452 92.5631 20.4724 92.0841C18.7302 89.9201 17.3369 87.4959 16.4882 85.5933C16.0425 84.6498 15.7624 83.8324 15.5656 83.2513C15.3635 82.6765 15.2479 82.3474 15.2479 82.3474C15.2479 82.3474 15.349 82.6806 15.525 83.2638C15.7009 83.8428 15.9238 84.6956 16.3643 85.6485C17.1869 87.5719 18.5501 90.0326 20.2746 92.2392C20.6546 92.7141 21.0556 93.1712 21.4586 93.619L19.9257 94.9197C19.908 94.902 19.8861 94.8791 19.8684 94.8613C19.2634 94.2147 18.9166 93.846 18.9166 93.846C18.9166 93.846 19.202 94.2657 19.7528 94.9624C19.7685 94.9811 19.7882 95.005 19.8039 95.0238L18.7104 95.9527C17.1817 94.2001 15.8176 92.3069 14.646 90.2981L16.9443 89.0318C17.6326 90.1805 18.2981 91.1156 18.8135 91.8112C19.5456 92.7766 20.0007 93.2972 20.0007 93.2972C20.0007 93.2972 19.5623 92.7609 18.8646 91.7737C18.3657 91.0667 17.7493 90.1076 17.0963 88.9475L17.3598 88.8027L17.0755 88.9121C16.8235 88.4633 16.5673 87.9905 16.308 87.4813C15.8446 86.5576 15.3812 85.5371 14.9616 84.4301C14.6898 83.7095 14.4461 82.9441 14.2909 82.1464L16.1623 81.7653L16.3882 81.9611C16.4684 82.4828 16.6173 83.1513 16.886 83.9084C17.2067 84.7967 17.5983 85.8318 18.1367 86.8877C18.6667 87.9468 19.3092 89.0371 20.0194 90.0836C20.7453 91.1187 21.544 92.1007 22.3458 92.9713C23.1508 93.8419 23.9578 94.5948 24.7118 95.179C25.4616 95.7632 26.1551 96.1464 26.6383 96.4088C27.1256 96.665 27.4162 96.7837 27.4162 96.7837C27.4162 96.7837 27.1517 96.616 26.6893 96.3213C26.2311 96.0235 25.6021 95.5591 24.8982 94.9509C24.1921 94.35 23.458 93.5336 22.6843 92.6672C21.9116 91.7946 21.1441 90.8146 20.4505 89.7847C19.0103 87.7583 17.892 85.5235 17.163 83.8032C16.8954 83.1555 16.6871 82.5786 16.5548 82.1048L17.2036 82.6671L17.868 82.2568C17.9232 82.4828 17.9544 82.6077 17.9544 82.6077C17.9544 82.6077 17.9294 82.4786 17.8836 82.2474L18.8989 81.6205L20.0517 83.4575L20.1111 83.419C20.3797 84.1219 20.7067 84.8466 21.0577 85.5568C21.8324 87.0574 22.7925 88.4539 23.6027 89.4223C24.4108 90.395 25.0252 90.9708 25.0252 90.9708C25.0252 90.9708 24.4629 90.3429 23.7142 89.3349C22.9623 88.331 22.0334 86.9346 21.2815 85.4423C20.9191 84.7279 20.5797 84 20.2975 83.2982L20.7182 83.0264C21.2149 84.3124 21.8241 85.5319 22.4947 86.6305C23.2549 87.8811 24.1234 88.9412 24.9023 89.8066C25.2928 90.2377 25.6761 90.6168 26.0228 90.9333C26.3696 91.278 26.7174 91.4821 26.9809 91.6998C27.5234 92.1028 27.8338 92.334 27.8338 92.334C27.8338 92.334 27.5474 92.0747 27.0454 91.6217C26.8049 91.3895 26.456 91.1427 26.1603 90.7959C25.8385 90.4512 25.497 90.0534 25.1252 89.6129C24.3869 88.7299 23.6121 87.6312 22.8852 86.3962C22.2271 85.2809 21.6304 84.0313 21.1628 82.7389L21.871 82.2807L23.0539 84.0937L23.8704 83.5481C24.1505 84.1448 24.4369 84.68 24.7086 85.1393C25.1804 85.9328 25.6053 86.5211 25.9031 86.9148C26.2092 87.3022 26.3727 87.5083 26.3727 87.5083C26.3727 87.5083 26.2124 87.299 25.9125 86.9075C25.6209 86.5097 25.2043 85.9161 24.7451 85.1184C24.4795 84.654 24.2005 84.1125 23.9287 83.5095L24.8544 82.891L25.5147 83.8751C25.6438 84.1062 25.7677 84.3187 25.8729 84.4926C26.1582 84.956 26.3373 85.209 26.3373 85.209C26.3373 85.209 26.1488 84.9227 25.8729 84.4103L26.0582 84.6863L26.6997 84.2437C26.9382 84.6696 27.2006 85.0986 27.5078 85.5214C27.8837 86.0452 28.3076 86.5576 28.7751 87.0533C29.224 87.5396 29.7613 88.028 30.3413 88.406C30.9297 88.784 31.5659 89.0839 32.2168 89.2984C32.851 89.5254 33.5758 89.6233 34.2162 89.6035C35.5252 89.5702 36.6759 89.2536 37.6777 89.1235C38.1827 89.0516 38.6503 88.9506 39.046 88.7996C39.4448 88.6517 39.7562 88.4528 39.9978 88.2779C40.4758 87.9197 40.7184 87.6833 40.7184 87.6833C40.7184 87.6833 40.4446 87.8864 39.9437 88.1967C39.6927 88.3487 39.3751 88.5143 38.9866 88.6216C38.5982 88.733 38.1442 88.7913 37.6412 88.8434C36.6249 88.934 35.4492 89.1558 34.212 89.1672C33.5841 89.1683 32.9905 89.0839 32.3678 88.8538C31.7565 88.6413 31.163 88.3487 30.6173 87.9842C30.0581 87.6271 29.5759 87.2095 29.1115 86.7252C28.6564 86.2577 28.2336 85.7641 27.8608 85.2621C27.5515 84.8487 27.2735 84.4343 27.0173 84.024L27.8379 83.4585L29.0646 85.2361L29.1073 85.2059C29.2281 85.3465 29.3718 85.5152 29.5572 85.7308C29.803 86.0098 30.0779 86.3837 30.4902 86.7148C30.8912 87.0543 31.3869 87.3917 31.9773 87.6635C32.5646 87.929 33.2425 88.1769 33.9954 88.2081C34.7431 88.2487 35.5241 88.1415 36.3177 88.0259C37.1028 87.8822 37.9474 87.8926 38.7742 87.5729C39.4615 87.2792 40.0155 86.8033 40.582 86.3504L41.1516 87.1022L42.8636 85.7818L43.4665 86.5628C43.0156 87.0272 42.5502 87.4344 42.1211 87.7937C41.3245 88.4331 40.6861 89.0048 40.1728 89.3068C39.6615 89.6119 39.3157 89.6796 39.324 89.6973C39.3167 89.6785 39.6646 89.6275 40.1946 89.3432C40.7226 89.0547 41.4026 88.533 42.2065 87.8988C42.6387 87.549 43.1083 87.1512 43.5686 86.694L44.1851 87.4927L45.1848 86.7065C44.5631 87.4646 43.8612 88.1238 43.1666 88.6965C41.9337 89.6608 40.858 90.7115 39.5896 90.9927C38.9721 91.1562 38.3743 91.2197 37.8235 91.2968C37.2747 91.3822 36.7706 91.4603 36.3145 91.5311C34.4942 91.8362 33.4342 91.7643 33.4342 91.7643C33.4342 91.7643 34.4932 91.8518 36.3208 91.5727C36.7769 91.5092 37.282 91.4374 37.8318 91.3603C38.3816 91.2926 38.9835 91.2374 39.6125 91.0812C40.9173 90.8105 42.0211 89.7608 43.2531 88.8007C44.0976 88.1123 44.9651 87.3001 45.6815 86.316L45.8846 86.1556L47.2217 87.8541L47.5257 87.6104C46.299 89.2828 44.7433 90.5304 43.427 91.604C42.7116 92.184 42.0503 92.7005 41.3786 93.0077C40.707 93.316 40.0644 93.4513 39.5375 93.5503C38.4753 93.7231 37.8682 93.8221 37.8682 93.8221C37.8682 93.8221 38.4806 93.7544 39.5521 93.6378C40.0853 93.5649 40.7424 93.4639 41.4536 93.1816C42.169 92.9026 42.8813 92.4017 43.6092 91.8373C45.0546 90.7105 46.8707 89.4348 48.2089 87.4719C48.3828 87.2147 48.5442 86.9471 48.6962 86.6732L48.9097 86.5014L50.2624 88.1873L50.6894 87.8385C50.2916 88.5382 49.8459 89.2224 49.3002 89.8472C48.5348 90.7376 47.6465 91.5478 46.7197 92.3152C45.7971 93.0806 44.8442 93.8533 43.9039 94.551C42.9625 95.2602 41.9118 95.6892 40.808 95.884C39.7135 96.0829 38.6034 96.1984 37.5798 96.389C36.553 96.5629 35.5846 96.7191 34.6859 96.8076C32.8937 96.994 31.366 96.8951 30.3757 96.515C29.3666 96.188 28.7897 96.0016 28.7897 96.0016C28.7897 96.0016 29.3552 96.2182 30.3465 96.5983C31.3264 97.0253 32.8864 97.2471 34.7109 97.1023C35.6241 97.0398 36.6061 96.9107 37.637 96.7681C38.668 96.6077 39.751 96.5358 40.8934 96.3328C42.0316 96.1474 43.2125 95.6778 44.1872 94.9519C45.1692 94.2365 46.1085 93.492 47.0571 92.7172C47.9881 91.931 48.8899 91.0927 49.673 90.1648C50.4645 89.2401 51.0997 88.2154 51.5829 87.1657C51.5964 87.1376 51.6058 87.1095 51.6183 87.0814L51.938 86.821L52.4024 87.3886C52.342 87.5219 52.2879 87.6583 52.2233 87.7895C51.6308 89.0287 50.8425 90.1346 49.9573 91.0969C49.069 92.0601 48.1162 92.9109 47.1883 93.6898C46.2532 94.4583 45.3639 95.1998 44.5173 95.8194C43.6675 96.439 42.798 96.8503 41.9712 97.0742C41.1475 97.3054 40.4018 97.4127 39.7906 97.5053C38.567 97.7063 37.8682 97.8209 37.8682 97.8209C37.8682 97.8209 38.5711 97.7376 39.801 97.5928C40.4175 97.5272 41.1693 97.4543 42.0191 97.2575C42.8688 97.0732 43.8071 96.6806 44.686 96.062C45.5701 95.4487 46.4667 94.7385 47.431 93.9866C48.3849 93.2264 49.3794 92.3933 50.2926 91.4061C51.2121 90.4241 52.0431 89.2786 52.6638 88.0061C52.695 87.9436 52.72 87.878 52.7513 87.8145L53.3063 88.4945L53.5635 88.28C53.4989 88.4112 53.4438 88.5414 53.375 88.6726C52.8721 89.6421 52.216 90.5845 51.46 91.4603L51.1611 91.2583L51.4392 91.4874C51.1715 91.7956 50.8935 92.0955 50.6029 92.385C49.4981 93.5232 48.2672 94.5385 47.103 95.4716C45.9356 96.4026 44.8588 97.3012 43.7758 97.7959C42.6949 98.2874 41.7046 98.4728 41.0204 98.5936C40.331 98.6998 39.9374 98.7602 39.9374 98.7602C39.9374 98.7602 40.3342 98.7144 41.0277 98.6352C41.7129 98.5321 42.723 98.4124 43.8321 97.9188C44.9442 97.4293 46.0429 96.5338 47.2206 95.6215C48.3994 94.701 49.6501 93.6992 50.7831 92.561C51.0736 92.2632 51.3527 91.9539 51.6204 91.6363L52.3149 92.2069C51.9432 92.6651 51.7141 92.9046 51.7141 92.9046C51.7141 92.9046 51.9557 92.6776 52.3535 92.2382L54.5153 94.0147C52.8096 95.9506 50.7414 97.5834 48.7004 99.184ZM40.8528 102.413C39.2053 102.615 37.4007 102.941 35.5887 103.152L35.4221 101.991C36.4405 101.87 37.4319 101.708 38.3847 101.556C39.3199 101.407 40.2227 101.263 41.0798 101.126C41.7525 101.02 42.3867 100.889 42.9896 100.734L43.2551 102.037C42.4637 102.206 41.6556 102.314 40.8528 102.413ZM29.2823 102.963C26.0999 102.104 23.1674 100.471 20.7984 98.1728C20.2881 97.6782 19.7966 97.1648 19.3155 96.641L20.2037 95.5112C20.7192 96.1339 21.3774 96.8993 22.2292 97.6959C23.357 98.7341 24.8076 99.838 26.5623 100.658C27.4318 101.073 28.3742 101.433 29.3437 101.717C30.3309 102.013 31.3827 102.158 32.4168 102.18C33.2946 102.187 34.1579 102.123 35.0087 102.031L34.8358 103.233C32.9135 103.415 31.0036 103.429 29.2823 102.963ZM12.2478 85.385C11.9062 84.5217 11.597 83.6397 11.396 82.7358L12.6498 82.4807C12.7924 83.0232 12.9715 83.5252 13.1413 83.9615C13.4152 84.6665 13.7307 85.2163 13.9286 85.6037C14.142 85.9859 14.2628 86.2056 14.2628 86.2056C14.2628 86.2056 14.193 85.9651 14.0691 85.5443C13.9285 85.1299 13.7609 84.5322 13.5599 83.8209C13.4349 83.3794 13.335 82.8795 13.2527 82.3578L14.0275 82.1995C14.1962 83.017 14.4534 83.7949 14.7366 84.5176C15.1719 85.6277 15.6509 86.6492 16.1279 87.5739C16.3872 88.0748 16.6496 88.5382 16.9099 88.9767L14.4398 89.9295C13.6088 88.4653 12.8674 86.9502 12.2478 85.385ZM12.3717 80.6219C12.3832 80.9009 12.403 81.178 12.4405 81.4497C12.455 81.5685 12.4811 81.6809 12.5009 81.7965L11.2356 81.8413C11.17 81.3456 11.144 80.8499 11.1481 80.3532L12.3717 80.6219ZM178.898 67.3217C178.898 67.3217 179.034 67.7518 179.189 68.4057C179.259 68.7338 179.359 69.1139 179.432 69.5262C179.507 69.9376 179.586 70.377 179.665 70.8175C179.791 71.7016 179.911 72.5868 179.959 73.2574C180.013 73.927 180.016 74.3779 180.016 74.3779C180.016 74.3779 179.879 73.9478 179.724 73.2949C179.562 72.642 179.402 71.7631 179.249 70.8831C179.188 70.4406 179.128 69.998 179.071 69.5835C179.013 69.168 178.99 68.7765 178.956 68.4432C178.901 67.7736 178.898 67.3217 178.898 67.3217ZM176.739 72.8096C177.207 72.8096 177.589 73.1908 177.589 73.6583C177.589 74.1269 177.207 74.5081 176.739 74.5081C176.271 74.5081 175.89 74.1269 175.89 73.6583C175.89 73.1908 176.271 72.8096 176.739 72.8096ZM176.019 67.5727C176.487 67.5727 176.868 67.9538 176.868 68.4214C176.868 68.8889 176.487 69.2701 176.019 69.2701C175.552 69.2701 175.171 68.8889 175.171 68.4214C175.171 67.9538 175.552 67.5727 176.019 67.5727ZM178.622 74.8465L177.16 66.7448H177.59L179.052 74.8465H178.622ZM180.047 53.2082C180.132 54.1048 180.222 55.0618 180.312 56.0188C180.46 57.936 180.6 59.8531 180.664 61.2943C180.735 62.7345 180.747 63.6988 180.747 63.6988C180.747 63.6988 180.599 62.746 180.427 61.3141C180.248 59.8823 180.067 57.9683 179.892 56.0542C179.82 55.0962 179.75 54.1371 179.683 53.2384C179.631 52.3387 179.582 51.4994 179.54 50.7787C179.47 49.3385 179.457 48.3753 179.457 48.3753C179.457 48.3753 179.605 49.3271 179.777 50.759C179.856 51.4765 179.948 52.3127 180.047 53.2082ZM176.621 46.9715L177.224 46.8893C176.991 47.3048 176.805 47.9848 176.979 49.0616C177.302 51.0714 179.175 63.8623 179.473 65.8992H181.424L181.483 66.323H177.932L177.904 66.1314L177.87 65.8992L175.345 48.6658C175.287 48.268 175.387 47.8723 175.63 47.5516C175.871 47.2319 176.224 47.0247 176.621 46.9715ZM175.174 75.6931L175.148 75.5109L173.906 66.7448H174.332L175.54 75.2693H178.291L178.335 75.6931H175.174ZM155.16 83.3221L155.194 83.3471C155.127 83.4158 155.06 83.4877 154.991 83.5543L155.16 83.3221ZM152.146 83.799L152.416 83.9959C152.04 84.3051 151.703 84.5842 151.401 84.8133L152.146 83.799ZM149.124 84.2551L149.501 84.5342C149.291 84.5842 149.066 84.6248 148.826 84.6571L149.124 84.2551ZM146.101 84.6884L146.431 84.9362C146.246 84.957 146.061 84.9779 145.871 84.9935L146.101 84.6884ZM91.4417 88.659L92.9788 90.1794L94.4877 88.6309L95.2458 89.3692C95.202 89.4473 95.1677 89.5244 95.1094 89.6025C94.9022 89.8795 94.5929 90.1367 94.2513 90.3835C94.0618 90.4856 93.8972 90.6522 93.6754 90.6907C93.4578 90.7407 93.2131 90.749 92.9694 90.7865C92.48 90.8605 91.9697 90.8865 91.5084 90.622C91.0897 90.4137 90.7565 90.0472 90.4628 89.6473L91.4417 88.659ZM69.0964 89.2443C69.0953 89.212 69.0974 89.1797 69.0964 89.1474L70.1565 88.1873L71.5352 89.7129C71.5394 89.8399 71.5477 89.9836 71.5696 90.1523L69.1922 90.2356C69.1432 89.9097 69.1078 89.5806 69.0964 89.2443ZM67.9811 89.8264C67.9644 89.5567 67.9769 89.2672 67.9779 88.986L68.5569 89.6358L68.7964 89.4192C68.8152 89.6983 68.8433 89.9753 68.886 90.2471L68.0383 90.2763C68.0217 90.1242 67.9925 89.9836 67.9811 89.8264ZM30.6548 84.1114C31.0401 84.4999 31.3223 84.7102 31.3223 84.7102C31.3223 84.7102 31.0974 84.4488 30.7808 84.0219L30.8287 83.9875L32.0773 85.7505L33.5081 84.7144C33.7059 84.7914 33.9121 84.8591 34.1329 84.9029L35.0982 86.2337L36.8352 84.9466L37.408 85.7193C37.2715 85.763 37.1945 85.788 37.1945 85.788C37.1945 85.788 37.2736 85.7682 37.4173 85.7328L38.1223 86.6826L39.8458 85.3788L40.4321 86.1525C39.8718 86.6117 39.3209 87.0949 38.6878 87.3698C37.9338 87.675 37.0778 87.6864 36.2895 87.8374C35.4971 87.9634 34.7296 88.0769 34.0027 88.0467C33.2769 88.0269 32.6156 87.7947 32.0335 87.5396C31.4545 87.2761 30.9568 86.9637 30.5475 86.644C30.1299 86.3337 29.8477 85.9755 29.5884 85.7026C29.3968 85.4944 29.2469 85.3319 29.1219 85.1955L30.6548 84.1114ZM14.1431 81.0113L15.6822 81.3498L16.0539 81.6716L14.2139 81.7361C14.1785 81.4987 14.1577 81.2561 14.1431 81.0113ZM33.8288 84.4832L33.9329 84.6269C33.858 84.6082 33.782 84.5925 33.708 84.5707L33.8288 84.4832ZM6.38499 75.2693H9.1352L10.3432 66.7448H10.7701L9.50175 75.6931H6.33915L6.38499 75.2693ZM7.08582 66.7448H7.51589L6.05486 74.8413L5.62584 74.8351L7.08582 66.7448ZM5.77787 67.3217C5.77787 67.3217 5.77474 67.7736 5.71955 68.4432C5.68519 68.7765 5.66229 69.168 5.60502 69.5835C5.54774 69.998 5.48732 70.4406 5.42692 70.8831C5.2728 71.7631 5.1135 72.642 4.95209 73.2949C4.79692 73.9478 4.65946 74.3779 4.65946 74.3779C4.65946 74.3779 4.66259 73.927 4.71674 73.2574C4.76464 72.5868 4.88438 71.7016 5.01038 70.8175C5.08953 70.377 5.16867 69.9376 5.2426 69.5262C5.31654 69.1139 5.41652 68.7338 5.48629 68.4057C5.64145 67.7518 5.77787 67.3217 5.77787 67.3217ZM8.78529 73.6583C8.78529 74.1269 8.40417 74.5081 7.9366 74.5081C7.46799 74.5081 7.08686 74.1269 7.08686 73.6583C7.08686 73.1908 7.46799 72.8096 7.9366 72.8096C8.40417 72.8096 8.78529 73.1908 8.78529 73.6583ZM8.65616 69.2701C8.1886 69.2701 7.80747 68.8889 7.80747 68.4214C7.80747 67.9538 8.1886 67.5727 8.65616 67.5727C9.12373 67.5727 9.50384 67.9538 9.50384 68.4214C9.50384 68.8889 9.12373 69.2701 8.65616 69.2701ZM4.89898 50.759C5.0708 49.3271 5.21865 48.3753 5.21865 48.3753C5.21865 48.3753 5.20514 49.3385 5.13537 50.7787C5.09371 51.4994 5.04476 52.3387 4.99269 53.2384C4.92604 54.1371 4.85523 55.0962 4.78337 56.0542C4.60843 57.9683 4.42724 59.8823 4.24813 61.3141C4.07631 62.746 3.92843 63.6988 3.92843 63.6988C3.92843 63.6988 3.94093 62.7345 4.01174 61.2943C4.07422 59.8531 4.21583 57.936 4.36266 56.0188C4.45326 55.0618 4.54282 54.1048 4.62821 53.2082C4.72714 52.3127 4.81983 51.4765 4.89898 50.759ZM3.24738 65.8992H5.202C5.50087 63.8623 7.37322 51.0714 7.69708 49.0616C7.87099 47.9848 7.6846 47.3048 7.45134 46.8893L8.05426 46.9715C8.45206 47.0247 8.80508 47.2319 9.04563 47.5516C9.28722 47.8723 9.38823 48.268 9.32992 48.6648L6.80463 65.8992L6.77133 66.1314L6.74321 66.323H3.18593L3.24738 65.8992ZM13.1288 81.3696C13.1163 81.1832 13.1288 80.9811 13.1257 80.7874L13.8525 80.9478C13.8692 81.2186 13.8983 81.4841 13.9389 81.7465L13.1788 81.7726C13.1642 81.6361 13.1382 81.5101 13.1288 81.3696ZM53.9051 89.8587C53.5125 90.572 53.1199 91.1739 52.77 91.629C52.6357 91.806 52.517 91.956 52.4035 92.0965L51.6558 91.5925C52.4035 90.6991 53.0522 89.74 53.5427 88.759C53.6718 88.508 53.7833 88.256 53.8947 88.0051L54.9693 87.1126L55.0735 87.2376C55.0027 87.4365 54.9402 87.6479 54.8642 87.8364C54.5705 88.5705 54.2539 89.2172 53.9363 89.7993L53.6833 89.6962L53.9051 89.8587ZM65.8692 90.3523C65.8182 89.9732 65.7942 89.5921 65.7817 89.211L67.1188 88.0217L67.1397 88.0457C67.1147 88.6788 67.1303 89.3078 67.2136 89.9159C67.2302 90.0482 67.2584 90.1742 67.2813 90.3033L65.8692 90.3523ZM164.603 85.7318C164.21 86.4451 163.818 87.047 163.468 87.5021C163.334 87.6791 163.215 87.8291 163.101 87.9707L162.354 87.4657C163.101 86.5722 163.75 85.6131 164.242 84.6332C164.625 83.8823 164.923 83.1336 165.163 82.4109L165.852 82.8816C165.758 83.1617 165.667 83.4481 165.562 83.7095C165.27 84.4436 164.952 85.0914 164.634 85.6724L164.381 85.5693L164.603 85.7318ZM183.986 74.5945L182.648 65.5035L181.431 48.0056C181.378 47.2475 181.011 46.5373 180.42 46.0572C179.831 45.5782 179.069 45.3637 178.307 45.4626L176.451 45.7147C175.714 45.8146 175.063 46.1957 174.617 46.7893C174.169 47.3829 173.984 48.1139 174.09 48.8491L176.526 65.4764H171.658H169.554H167.879H166.37H165.659H164.798H164.204H161.736H161.313H157.245H157.074H156.246H155.782H153.513H153.267H152.524H152.131H142.998H142.956H140.192H139.863H139.171H138.609H134.88H134.656H132.491H131.847H130.547H130.361H127.876H127.479H124.491H122.314H111.021H106.316H103.883H101.929H87.8147H87.6616H85.4998H85.0832H83.9992H83.6316H80.2721H77.0648H56.8032H53.7457H52.091H51.1018H50.1718H49.6824H48.5786H48.4348H46.8114H46.6968H44.9234H44.7391H30.3642H29.8217H26.8111H25.8989H24.4181H24.0328H20.9598H20.5515H17.2827H16.8402H16.1456H15.4677H12.7341H8.15008L10.5858 48.8491C10.692 48.1139 10.5056 47.3829 10.0589 46.7893C9.61212 46.1957 8.96129 45.8146 8.22505 45.7147L6.36831 45.4626C5.61437 45.3637 4.84585 45.5772 4.25436 46.0572C3.66495 46.5373 3.29736 47.2475 3.24425 48.0067L2.03317 65.4556L0.689806 74.5945C0.633573 74.9756 0.745019 75.363 0.998068 75.6546C1.25008 75.9483 1.61662 76.1149 2.00296 76.1149H5.01872L4.97708 76.5064C4.82816 77.8925 5.74247 79.164 7.10456 79.4639L10.0214 80.1054C9.53195 80.8301 9.10605 81.5466 9.45698 82.2724C9.61944 82.6109 9.94121 82.8774 10.0047 83.2482C10.112 83.8782 9.42365 84.5072 9.68295 85.0903C9.79542 85.3444 10.0599 85.4964 10.213 85.7276C10.541 86.2223 10.2828 86.9116 10.5025 87.4625C10.8503 88.3393 12.1666 88.431 12.6206 89.2578C12.9132 89.7889 12.7529 90.4398 12.6925 91.0437C12.6321 91.6467 12.7747 92.3913 13.3454 92.5964C13.6286 92.6974 13.9619 92.637 14.2222 92.787C15.1594 93.3285 13.8005 95.3352 14.8189 95.6986C15.9248 96.0922 15.5458 96.4411 16.2591 97.1929C16.7777 97.7417 17.6504 97.422 18.2044 97.8604C18.8812 98.3957 18.623 99.5287 19.7737 99.687C20.084 99.7297 20.4568 99.6745 20.6567 99.915C20.8275 100.12 20.7682 100.426 20.8421 100.684C20.9764 101.141 21.5096 101.352 21.9845 101.388C22.4603 101.424 22.956 101.353 23.4007 101.523C23.9984 101.751 24.3535 102.348 24.7274 102.867C25.8229 104.392 27.9972 103.556 29.6228 104.347C30.183 104.62 30.7193 104.975 31.3337 105.087C32.4105 105.284 32.8968 103.928 33.8267 104.506C34.1683 104.719 34.437 105.038 34.7921 105.226C35.9261 105.828 37.687 104.474 38.8117 104.199C39.902 103.934 40.581 104.541 41.6254 104.467C42.8147 104.381 43.6457 102.767 44.8005 103.064C45.0567 103.131 45.2889 103.291 45.5524 103.305C45.718 103.313 45.8804 103.262 46.0314 103.194C46.9103 102.805 46.8062 102.047 47.3529 101.522C48.0516 100.852 48.3526 101.193 49.2752 101.25C51.4444 101.383 51.0528 100.292 52.0077 98.7966C52.3347 98.2843 53.1574 98.1249 53.2563 97.5241C53.2865 97.3429 53.2386 97.145 53.3146 96.9774C53.5239 96.5202 54.1956 96.8108 54.684 96.9253C55.7212 97.17 56.6845 96.2047 57.0146 95.1925C57.3447 94.1803 57.2853 93.0744 57.5967 92.0559C57.6467 91.8924 57.7133 91.7217 57.8497 91.6165C58.1028 91.4207 58.4683 91.5321 58.7817 91.4738C59.468 91.3447 59.7137 90.4741 59.6533 89.7775C59.6242 89.4421 59.5961 89.1506 59.5878 88.8673L61.0404 87.6187L62.4515 89.2557L64.0791 87.8322L64.5467 88.3664C63.9885 89.1922 63.4855 90.0076 63.8844 90.8334C64.0666 91.2114 64.4248 91.5092 64.4956 91.9226C64.6154 92.6256 63.8479 93.3274 64.1364 93.9783C64.2624 94.2615 64.5571 94.4313 64.7279 94.6895C65.0944 95.2414 64.807 96.01 65.0507 96.6254C65.4391 97.6032 66.9074 97.7053 67.4146 98.6279C67.7405 99.2204 67.5614 99.9473 67.4947 100.62C67.4281 101.294 67.5864 102.125 68.2237 102.353C68.5392 102.466 68.911 102.398 69.2015 102.566C70.2471 103.17 68.7308 105.409 69.868 105.814C71.101 106.254 70.6782 106.642 71.4738 107.483C72.0538 108.094 73.0264 107.738 73.645 108.227C74.4 108.824 74.1115 110.088 75.3955 110.264C75.7423 110.312 76.1578 110.25 76.3817 110.519C76.5722 110.748 76.5045 111.09 76.5889 111.376C76.7378 111.886 77.3324 112.122 77.8625 112.162C78.3925 112.203 78.9465 112.123 79.4432 112.313C80.1097 112.567 80.5065 113.234 80.923 113.813C82.1455 115.515 84.5709 114.58 86.3849 115.465C87.0108 115.769 87.6085 116.165 88.2937 116.29C89.4954 116.51 90.039 114.997 91.0762 115.643C91.4573 115.879 91.7562 116.235 92.153 116.445C93.4193 117.116 95.3833 115.606 96.6381 115.3C97.8544 115.003 98.6114 115.681 99.7778 115.598C101.104 115.503 102.032 113.702 103.319 114.033C103.606 114.107 103.865 114.286 104.159 114.3C104.343 114.31 104.525 114.253 104.694 114.178C105.674 113.744 105.557 112.897 106.168 112.312C106.947 111.565 107.283 111.945 108.314 112.008C110.734 112.157 110.295 110.94 111.362 109.272C111.727 108.699 112.644 108.521 112.754 107.852C112.788 107.648 112.735 107.428 112.821 107.241C113.053 106.732 113.803 107.055 114.348 107.184C115.504 107.455 116.58 106.379 116.948 105.25C117.316 104.12 117.25 102.887 117.597 101.751C117.654 101.568 117.728 101.377 117.88 101.259C118.162 101.042 118.57 101.166 118.92 101.1C119.686 100.956 119.959 99.9848 119.893 99.208C119.811 98.277 119.7 97.6261 120.051 96.767C120.277 96.2151 120.989 96.2505 120.857 95.3487C120.768 94.7489 120.433 94.2001 120.393 93.5961C120.318 92.4746 121.332 91.6633 121.364 90.6074C121.388 89.8024 120.783 89.6046 120.705 89.0089C120.692 88.9069 120.69 88.8152 120.693 88.7288L121.862 87.3563L123.508 88.7569L123.858 88.3404C123.919 88.3852 123.968 88.4424 124.043 88.4695C124.327 88.5716 124.66 88.5101 124.92 88.6611C125.857 89.2026 124.498 91.2093 125.518 91.5727C126.623 91.9653 126.244 92.3142 126.957 93.0671C127.477 93.6148 128.349 93.2962 128.903 93.7346C129.579 94.2688 129.321 95.4028 130.472 95.5601C130.782 95.6028 131.155 95.5476 131.356 95.7881C131.527 95.9933 131.466 96.3005 131.541 96.5567C131.674 97.0138 132.208 97.2252 132.684 97.2617C133.158 97.2971 133.654 97.2263 134.099 97.396C134.696 97.6251 135.053 98.2218 135.425 98.7414C136.522 100.265 138.695 99.4287 140.321 100.22C140.882 100.494 141.418 100.849 142.032 100.961C143.109 101.157 143.596 99.8015 144.526 100.381C144.866 100.593 145.135 100.912 145.491 101.1C146.625 101.701 148.386 100.347 149.51 100.073C150.6 99.8067 151.279 100.415 152.324 100.34C153.513 100.256 154.345 98.6415 155.499 98.9382C155.755 99.0038 155.987 99.1642 156.25 99.1778C156.416 99.1861 156.578 99.1351 156.73 99.0684C157.608 98.6789 157.504 97.9198 158.051 97.396C158.75 96.7254 159.051 97.0669 159.974 97.1232C162.143 97.2575 161.751 96.1662 162.706 94.6697C163.034 94.1574 163.855 93.9981 163.954 93.3982C163.985 93.216 163.937 93.0192 164.014 92.8515C164.222 92.3944 164.894 92.6839 165.383 92.7995C166.419 93.0431 167.384 92.0778 167.713 91.0656C168.043 90.0534 167.983 88.9485 168.295 87.9301C168.346 87.7656 168.411 87.5948 168.548 87.4896C168.801 87.2949 169.166 87.4063 169.481 87.3469C170.167 87.2178 170.412 86.3472 170.351 85.6516C170.278 84.8164 170.179 84.2333 170.494 83.4627C170.696 82.9691 171.334 83.0003 171.216 82.1922C171.152 81.7622 170.953 81.3602 170.855 80.9405L177.571 79.4639C178.933 79.164 179.847 77.8925 179.699 76.5075L179.657 76.1149H182.672C183.059 76.1149 183.426 75.9483 183.678 75.6546C183.93 75.363 184.042 74.9756 183.986 74.5945Z" fill="#E9E4D0"/>
<path d="M64.6582 71.4151V79.6975C64.6582 81.3975 64.1701 82.7235 63.1941 83.6755C62.218 84.6139 60.8352 85.0831 59.0458 85.0831C57.7308 85.0831 56.6734 84.8519 55.8735 84.3895C55.0737 83.9135 54.5246 83.2607 54.2264 82.4311C53.9281 81.5879 53.8671 80.6291 54.0434 79.5547L57.4596 78.9427C57.297 80.1803 57.3512 81.0575 57.6223 81.5743C57.907 82.0775 58.4221 82.3291 59.1678 82.3291C59.8998 82.3291 60.415 82.0843 60.7132 81.5947C61.0115 81.1051 61.1606 80.3503 61.1606 79.3303V71.4151H64.6582Z" fill="#B18857"/>
<path d="M80.1076 84.8791H76.5083L75.5729 81.8395H70.9772L70.0215 84.8791H66.5036L71.2212 71.4151H75.4102L80.1076 84.8791ZM71.6279 79.4527H74.9222L73.2751 74.0059L71.6279 79.4527Z" fill="#B18857"/>
<path d="M84.1358 84.8791L80.2721 71.4151H83.9934L86.2709 82.0435L88.6704 71.4151H91.8427L94.3032 82.0231L96.54 71.4151H100.139L96.2553 84.8791H92.4527L90.8666 78.3511L90.2566 75.0667H90.2159L89.6262 78.3511L88.0604 84.8791H84.1358Z" fill="#B18857"/>
<path d="M108.566 71.2111C109.922 71.2111 111.088 71.4899 112.064 72.0475C113.054 72.5915 113.813 73.3803 114.342 74.4139C114.87 75.4475 115.135 76.6919 115.135 78.1471C115.135 79.6023 114.87 80.8467 114.342 81.8803C113.813 82.9139 113.054 83.7095 112.064 84.2671C111.088 84.8111 109.922 85.0831 108.566 85.0831C107.211 85.0831 106.038 84.8111 105.049 84.2671C104.059 83.7095 103.3 82.9139 102.771 81.8803C102.242 80.8467 101.978 79.6023 101.978 78.1471C101.978 76.6919 102.242 75.4475 102.771 74.4139C103.3 73.3803 104.059 72.5915 105.049 72.0475C106.038 71.4899 107.211 71.2111 108.566 71.2111ZM108.566 73.9651C107.916 73.9651 107.367 74.1215 106.919 74.4343C106.472 74.7471 106.133 75.2163 105.903 75.8419C105.672 76.4539 105.557 77.2223 105.557 78.1471C105.557 79.0583 105.672 79.8267 105.903 80.4523C106.133 81.0779 106.472 81.5471 106.919 81.8599C107.367 82.1727 107.916 82.3291 108.566 82.3291C109.217 82.3291 109.759 82.1727 110.193 81.8599C110.641 81.5471 110.98 81.0779 111.21 80.4523C111.44 79.8267 111.556 79.0583 111.556 78.1471C111.556 77.2223 111.44 76.4539 111.21 75.8419C110.98 75.2163 110.641 74.7471 110.193 74.4343C109.759 74.1215 109.217 73.9651 108.566 73.9651Z" fill="#B18857"/>
<path d="M124.963 71.4151C126.562 71.4151 127.803 71.7959 128.684 72.5575C129.579 73.3055 130.026 74.3051 130.026 75.5563C130.026 76.9299 129.585 77.9771 128.704 78.6979C127.823 79.4187 126.583 79.7791 124.983 79.7791L124.658 79.9627H121.994V84.8791H118.557V71.4151H124.963ZM124.475 77.4739C125.152 77.4739 125.661 77.3379 126 77.0659C126.339 76.7939 126.508 76.3587 126.508 75.7603C126.508 75.1755 126.339 74.7471 126 74.4751C125.661 74.2031 125.152 74.0671 124.475 74.0671H121.994V77.4739H124.475ZM126.528 78.2083L130.819 84.8791H126.955L123.519 78.9835L126.528 78.2083Z" fill="#B18857"/>
</svg>
