<svg width="184" height="117" viewBox="0 0 184 117" fill="none" xmlns="http://www.w3.org/2000/svg">
<path d="M90.7694 110.49C89.5853 110.572 88.393 110.582 87.2954 110.416C86.202 110.256 85.1992 109.953 84.3588 109.655C82.6739 109.061 81.6252 108.472 81.6252 108.472C81.6252 108.472 81.8856 108.62 82.3396 108.88C82.7999 109.128 83.4653 109.476 84.3036 109.803C85.1419 110.125 86.1364 110.483 87.26 110.658C88.3784 110.839 89.5895 110.841 90.7881 110.77C93.1864 110.596 95.5315 110.114 97.3018 109.861C98.1932 109.716 98.918 109.555 99.4334 109.46C99.9458 109.361 100.239 109.304 100.239 109.304C100.239 109.304 99.0565 109.465 97.282 109.705C95.495 109.883 93.1416 110.338 90.7694 110.49Z" fill="#4E7457"/>
<path d="M90.6787 104.572C90.2215 104.605 89.9612 104.623 89.9612 104.623C89.9612 104.623 91.0119 104.709 92.5833 104.555C93.3664 104.474 94.2786 104.366 95.2481 104.232C96.2103 104.095 97.2663 104.03 98.3076 103.762C99.3552 103.502 100.31 102.936 101.088 102.333C101.873 101.729 102.561 101.131 103.163 100.622C104.354 99.5893 105.055 98.8052 105.055 98.8052C105.055 98.8052 104.269 99.4998 103.015 100.439C102.387 100.907 101.656 101.453 100.871 102.039C100.09 102.619 99.198 103.124 98.2004 103.355C97.2132 103.627 96.1708 103.714 95.195 103.869C94.2287 104.034 93.3269 104.187 92.5531 104.319C91.7804 104.437 91.1348 104.536 90.6787 104.572" fill="#4E7457"/>
<path d="M87.765 101.391C88.5138 101.655 89.3572 101.801 90.1695 101.812C91.8096 101.828 93.3988 101.496 94.8764 101.285C95.6148 101.183 96.3489 101.094 97.0279 100.915C97.7099 100.744 98.3327 100.461 98.8388 100.122C99.851 99.4374 100.561 98.7251 101.103 98.2794C101.633 97.8201 101.936 97.5567 101.936 97.5567C101.936 97.5567 101.616 97.8004 101.058 98.2252C100.495 98.6428 99.7156 99.2884 98.7128 99.9206C98.2077 100.233 97.6183 100.476 96.956 100.617C96.2958 100.767 95.5783 100.82 94.8285 100.922C93.3321 101.119 91.7534 101.426 90.1778 101.391C89.3864 101.384 88.6283 101.267 87.8837 101.016C87.1454 100.784 86.4394 100.477 85.7906 100.123C84.4837 99.4165 83.4319 98.4981 82.6082 97.6275C81.7793 96.7652 81.1358 95.9978 80.714 95.4375C80.2891 94.8794 80.0684 94.544 80.0684 94.544C80.0684 94.544 80.2673 94.8929 80.6567 95.4781C81.0493 96.0602 81.6221 96.8923 82.4343 97.7889C83.2341 98.6865 84.2702 99.7019 85.6125 100.442C86.278 100.816 86.9996 101.141 87.765 101.391" fill="#4E7457"/>
<path d="M144.18 95.703C143.119 95.7811 142.05 95.7957 141.065 95.651C140.082 95.5125 139.186 95.2261 138.434 94.9574C136.925 94.419 135.985 93.8942 135.985 93.8942C135.985 93.8942 136.218 94.0275 136.625 94.2608C137.038 94.4815 137.632 94.7971 138.386 95.0855C139.139 95.3708 140.034 95.677 141.036 95.8395C142.037 96.0061 143.123 96.0134 144.197 95.9551C146.345 95.7864 148.445 95.3448 150.035 95.1365C150.835 95.0126 151.482 94.8637 151.946 94.7804C152.405 94.6919 152.667 94.6398 152.667 94.6398C152.667 94.6398 151.607 94.7856 150.017 95.0022C148.42 95.1803 146.308 95.5791 144.18 95.703" fill="#4E7457"/>
<path d="M145.806 90.3837C146.508 90.3119 147.325 90.215 148.194 90.0943C149.056 89.9724 150.003 89.9131 150.936 89.6735C151.875 89.4403 152.73 88.9342 153.428 88.3937C154.14 87.8637 154.734 87.2795 155.261 86.8234C156.307 85.8809 156.984 85.2311 156.984 85.2311C156.984 85.2311 156.227 85.7903 155.122 86.663C154.566 87.1035 153.942 87.621 153.233 88.1303C152.533 88.6489 151.733 89.1018 150.839 89.308C149.955 89.5517 149.021 89.6308 148.147 89.7693C147.28 89.9172 146.472 90.0547 145.779 90.1724C144.396 90.4046 143.456 90.4452 143.456 90.4452C143.456 90.4452 144.398 90.5275 145.806 90.3837" fill="#4E7457"/>
<path d="M33.4813 99.8299C32.4212 99.907 31.3517 99.9216 30.3666 99.7778C29.3825 99.6393 28.4869 99.353 27.7351 99.0843C26.2272 98.5459 25.2869 98.0211 25.2869 98.0211C25.2869 98.0211 25.5191 98.1544 25.9262 98.3866C26.3397 98.6074 26.9343 98.9239 27.6882 99.2113C28.4401 99.4977 29.3357 99.8039 30.3385 99.9663C31.3392 100.132 32.4243 100.14 33.4979 100.081C35.6462 99.9132 37.7467 99.4717 39.3358 99.2634C40.1366 99.1385 40.7843 98.9906 41.2467 98.9073C41.7069 98.8177 41.9694 98.7667 41.9694 98.7667C41.9694 98.7667 40.9093 98.9114 39.3191 99.1291C37.7206 99.3072 35.6098 99.706 33.4813 99.8299Z" fill="#4E7457"/>
<path d="M32.7576 94.5711C32.7576 94.5711 33.7 94.6534 35.1068 94.5107C35.8098 94.4378 36.6272 94.341 37.4947 94.2212C38.358 94.0984 39.3045 94.04 40.2366 93.8005C41.1759 93.5662 42.0319 93.0601 42.7296 92.5197C43.4408 91.9907 44.0365 91.4064 44.5634 90.9493C45.6079 90.0079 46.2847 89.3571 46.2847 89.3571C46.2847 89.3571 45.5287 89.9173 44.4239 90.79C43.8678 91.2305 43.2429 91.747 42.5348 92.2562C41.835 92.7758 41.0353 93.2288 40.1408 93.435C39.2566 93.6787 38.3225 93.7568 37.4478 93.8963C36.5824 94.0432 35.7733 94.1806 35.0808 94.2993C33.6969 94.5316 32.7576 94.5711 32.7576 94.5711" fill="#4E7457"/>
<path d="M30.7895 91.675C31.4612 91.9124 32.2162 92.0426 32.9441 92.052C34.4145 92.0666 35.839 91.7687 37.1626 91.5792C37.8249 91.4886 38.482 91.4084 39.0912 91.2481C39.7025 91.095 40.2606 90.8419 40.7136 90.5368C41.6217 89.9235 42.258 89.2861 42.7432 88.8863C43.2181 88.4739 43.4899 88.2385 43.4899 88.2385C43.4899 88.2385 43.2035 88.4562 42.7026 88.8373C42.1986 89.2122 41.4999 89.7902 40.6012 90.3567C40.1482 90.6368 39.6202 90.8544 39.0266 90.9804C38.4352 91.1158 37.7916 91.1637 37.1199 91.2543C35.7787 91.4313 34.3645 91.7062 32.9514 91.674C31.5445 91.6802 30.1855 91.1575 29.0192 90.5379C27.8477 89.9058 26.9063 89.082 26.168 88.3021C24.6705 86.7609 23.8916 85.5383 23.8916 85.5383C23.8916 85.5383 24.0697 85.8507 24.4185 86.3756C24.7705 86.8973 25.2839 87.6429 26.0118 88.4468C26.7283 89.2507 27.6571 90.1609 28.8599 90.8242C29.4566 91.1595 30.1033 91.4511 30.7895 91.675Z" fill="#4E7457"/>
<path d="M89.9746 13.1445L90.413 17.7494L85.8686 17.3766L89.9746 13.1445ZM152.502 47.6456C151.905 47.6456 151.421 47.1614 151.421 46.5636C151.421 45.9669 151.905 45.4827 152.502 45.4827C153.099 45.4827 153.584 45.9669 153.584 46.5636C153.584 47.1614 153.099 47.6456 152.502 47.6456ZM164.391 43.3792C164.494 43.4364 166.342 44.5267 166.342 46.0346C166.487 47.5185 164.751 48.7828 164.677 48.8348C163.094 49.6564 159.747 50.3823 155.408 51.0165C155.295 51.0331 155.179 51.0498 155.064 51.0654C154.648 51.1258 154.223 51.1841 153.79 51.2424C152.469 51.4195 151.075 51.5892 149.622 51.7516C149.329 51.7839 149.033 51.8173 148.734 51.8495C148.48 51.8766 148.226 51.9037 147.969 51.9308C147.183 52.013 146.385 52.0943 145.575 52.1724C145.356 52.1932 145.135 52.214 144.915 52.2348C142.764 52.4389 140.542 52.6285 138.297 52.8055C138.266 52.8076 138.236 52.8097 138.207 52.8128C138.037 52.8253 137.869 52.8388 137.699 52.8524C136.701 52.9294 135.7 53.0034 134.7 53.0752C134.621 53.0815 134.541 53.0867 134.462 53.0929C133.85 53.1366 133.238 53.1793 132.627 53.221C119.915 54.0916 107.833 54.5373 105.363 54.6227V54.2519C107.742 54.1665 120.134 53.699 133.049 52.8045C133.342 52.7836 133.633 52.7628 133.926 52.742C134.346 52.7128 134.765 52.6826 135.185 52.6524C135.974 52.5951 136.764 52.5358 137.552 52.4754C137.73 52.4619 137.908 52.4473 138.086 52.4337C138.661 52.389 139.235 52.3431 139.805 52.2963C141.52 52.1567 143.213 52.0089 144.863 51.8537C145.12 51.8298 145.374 51.8048 145.629 51.7808C146.421 51.7037 147.201 51.6256 147.969 51.5455C147.985 51.5444 148.001 51.5423 148.018 51.5403C148.294 51.5111 148.57 51.483 148.843 51.4528C150.505 51.2737 152.096 51.0862 153.591 50.8884C158.741 50.2094 162.747 49.4211 164.483 48.5203C164.48 48.5203 166.098 47.3405 165.974 46.0534C165.973 44.7381 164.247 43.7218 164.229 43.7114C156.857 40.7508 112.317 43.2667 105.363 43.6812V43.3083C112.617 42.8689 156.836 40.3405 164.391 43.3792ZM97.9014 28.2223C97.0392 29.072 96.1374 29.8822 95.4365 30.457C94.7336 31.0308 94.239 31.3765 94.239 31.3765C94.239 31.3765 94.7065 30.9933 95.3595 30.3706C96.0114 29.7458 96.8424 28.8752 97.6328 27.9682C98.9657 26.4478 100.168 24.8545 100.523 24.3786C100.53 24.3692 100.542 24.3526 100.549 24.3432L100.561 24.387L100.795 25.1669C100.214 25.8219 99.1 27.0518 97.9014 28.2223ZM102.86 55.5453C103.13 54.8945 103.287 54.202 103.304 53.5063C103.348 50.2594 103.389 47.228 103.425 44.6309C103.453 42.9866 103.484 41.5172 103.513 40.2739C103.577 37.5809 103.633 35.9553 103.633 35.9553C103.633 35.9553 103.688 37.5809 103.752 40.2728C103.781 41.5162 103.812 42.9866 103.84 44.6309C103.853 45.4744 103.866 46.3772 103.88 47.3051V54.303C103.747 55.2329 103.397 56.1503 102.86 56.9615C102.561 57.4135 102.212 57.8352 101.802 58.2008C101.134 58.8047 100.332 59.2754 99.4624 59.5597C98.6074 59.8638 97.6234 59.8992 96.784 59.8836C96.6559 59.8825 96.5279 59.8825 96.3987 59.8815C95.8031 59.8784 95.2074 59.8753 94.6139 59.8732C94.2046 59.8711 93.7974 59.869 93.3903 59.8669C92.6311 59.8638 91.8751 59.8596 91.1253 59.8565C90.7546 59.8544 90.387 59.8523 90.0194 59.8513C88.9728 59.8461 87.9398 59.8409 86.9276 59.8357C86.8162 59.8357 86.7017 59.8346 86.5913 59.8346C83.3381 59.793 80.3015 59.7544 77.6991 59.7211C72.4945 59.6326 69.0236 59.5129 69.0236 59.5129C69.0236 59.5129 72.4945 59.3931 77.6991 59.3046C80.3015 59.2713 83.3381 59.2327 86.5913 59.1911C86.8454 59.19 87.1078 59.189 87.365 59.188C87.8242 59.1848 88.2824 59.1828 88.749 59.1807C89.7362 59.1765 90.7348 59.1713 91.746 59.1661C91.9834 59.165 92.2239 59.164 92.4624 59.163C93.8932 59.1567 95.3376 59.1494 96.784 59.1421C97.6744 59.165 98.4533 59.1411 99.2437 58.8776C100.02 58.6319 100.739 58.2205 101.342 57.6853C102.015 57.0938 102.526 56.3513 102.86 55.5453ZM62.234 60.7948C62.2392 60.3918 62.2475 59.8024 62.2579 59.0515C62.2673 58.3007 62.2798 57.3885 62.2944 56.3419C62.3017 55.8192 62.309 55.2621 62.3163 54.6758C62.3215 54.379 62.3256 54.0739 62.3309 53.7625C62.3402 53.4105 62.3881 53.0523 62.4735 52.6972C62.6235 52.0016 63.0233 51.2497 63.418 50.703C63.8012 50.124 64.1969 49.5252 64.6041 48.9098C65.4185 47.68 66.2765 46.3824 67.1648 45.0391C68.052 43.6968 68.9705 42.3097 69.9025 40.9008C70.3691 40.1958 70.8387 39.4855 71.3104 38.7722C71.8176 37.9974 72.5476 37.3601 73.39 36.9727C73.8086 36.7801 74.2668 36.6416 74.7063 36.5708L75.9715 36.3469C76.814 36.1969 77.6523 36.048 78.4843 35.9002C80.1484 35.6055 81.7854 35.3139 83.3704 35.0327C86.5403 34.4704 89.4977 33.9445 92.0334 33.4946C97.1048 32.5949 100.485 31.9941 100.485 31.9941C100.485 31.9941 97.1225 32.6855 92.0771 33.7227C89.555 34.2413 86.6121 34.8463 83.4589 35.494C81.8823 35.8179 80.2525 36.1532 78.5978 36.4927C77.77 36.6635 76.9358 36.8343 76.0986 37.0071L74.8396 37.2654C74.4345 37.3424 74.068 37.4664 73.7108 37.6413C73.0016 37.9922 72.4049 38.5431 71.9925 39.2106C71.5406 39.9364 71.0897 40.6591 70.6429 41.3756C70.6044 41.4381 70.5669 41.4985 70.5273 41.561L101.161 35.8262L70.0004 42.4076C69.3277 43.4854 68.6633 44.5517 68.0177 45.5879C67.1658 46.9531 66.3432 48.2735 65.5622 49.5252C65.1727 50.1521 64.7926 50.7603 64.426 51.3497C64.0314 51.9422 63.8158 52.4077 63.694 52.9763C63.6367 53.2491 63.6076 53.5199 63.6076 53.7854C63.6107 54.0895 63.6148 54.3863 63.618 54.6758C63.6263 55.2621 63.6336 55.8192 63.6409 56.3419C63.6544 57.3885 63.6669 58.3007 63.6773 59.0515C63.6877 59.8024 63.695 60.3918 63.7002 60.7948H62.234ZM23.3457 47.5966C23.6227 47.2301 23.8841 46.9749 24.0611 46.8115C24.2444 46.65 24.3412 46.5636 24.3412 46.5636C24.3412 46.5636 24.2538 46.6594 24.0892 46.8396C23.9257 47.0218 23.7102 47.3009 23.4634 47.6789C22.976 48.4256 22.423 49.6335 22.3022 51.1425C22.2491 51.8881 22.3262 52.7211 22.698 53.4709C22.8719 53.8583 23.1197 54.1811 23.4436 54.5019C23.7372 54.7799 24.1205 55.0423 24.5339 55.2235C24.7713 55.3308 25.0212 55.4172 25.2784 55.4932C25.5867 55.5828 25.9084 55.6494 26.2365 55.7025C26.4333 55.7338 26.6311 55.7609 26.8332 55.7806C26.9998 55.7973 27.1654 55.815 27.3341 55.8254C28.3296 55.8869 29.3668 55.8525 30.4071 55.8504C30.8226 55.8535 31.2318 55.8567 31.6463 55.8598C32.4908 55.8671 33.3239 55.8733 34.1508 55.8796C34.4153 55.8817 34.6714 55.8837 34.9328 55.8858C35.4597 55.89 35.9971 55.8942 36.5084 55.8983C36.7667 55.9004 37.0166 55.9056 37.2707 55.9087C37.532 55.9119 37.7955 55.915 38.0506 55.9202C38.4838 55.9285 38.9097 55.9379 39.3232 55.9483C40.2125 55.9712 41.0539 55.9962 41.8307 56.0118C43.7146 56.066 45.2089 56.1305 46.1034 56.1732C46.6876 56.2014 47.023 56.2201 47.023 56.2201C47.023 56.2201 46.7241 56.2378 46.1867 56.2638C45.3026 56.3065 43.7687 56.3732 41.8307 56.4294C41.7027 56.4315 41.5642 56.4357 41.434 56.4388C40.3489 56.4627 39.1576 56.5002 37.884 56.5242C37.683 56.5283 37.4748 56.5294 37.2707 56.5325C37.0166 56.5356 36.7667 56.5408 36.5084 56.5419C35.9679 56.546 35.3994 56.5512 34.8412 56.5554C34.6413 56.5564 34.4455 56.5585 34.2445 56.5596C32.9813 56.57 31.7005 56.5804 30.4071 56.5908C29.8104 56.5825 29.2116 56.5794 28.6118 56.5679C28.2005 56.5596 27.7881 56.5481 27.3747 56.5179C27.3445 56.5158 27.3153 56.5169 27.2851 56.5138C27.206 56.5086 27.1268 56.4961 27.0477 56.4888C26.3 56.419 25.5565 56.2867 24.8525 56.0399C24.6526 55.9691 24.4537 55.8962 24.261 55.8056C23.7903 55.5807 23.3623 55.3048 22.9989 54.9132C22.6761 54.5633 22.3741 54.1301 22.2064 53.6917C21.8253 52.8107 21.7941 51.8964 21.8878 51.1029C22.0908 49.495 22.8031 48.3214 23.3457 47.5966ZM45.588 45.0516C44.6205 44.7579 43.2345 44.0602 42.5451 42.4253C43.4532 42.1222 45.1766 41.6963 47.2198 41.9119C46.4492 42.5013 45.7744 43.4812 45.588 45.0516ZM45.5078 46.5678C45.8598 46.6553 46.2305 46.5834 46.5273 46.371C46.8241 46.1575 47.0104 45.8274 47.0386 45.4629C47.2166 43.1105 48.6745 42.7065 49.2056 42.6377L50.877 43.5572C51.7788 44.0529 52.338 44.9995 52.338 46.0273V46.7032C52.338 50.3833 49.3441 53.3772 45.664 53.3772H25.9178C25.4565 53.3772 25.0826 53.0034 25.0826 52.5431V51.1456C25.0826 49.04 26.4375 47.2176 28.4535 46.6105L41.0976 42.8033C42.1005 45.441 44.4716 46.3085 45.5078 46.5678ZM84.1847 18.7251C84.0743 18.8792 83.9483 19.0552 83.7994 19.2635C83.6026 19.5374 83.3745 19.855 83.1204 20.209C82.9996 20.3777 82.8736 20.5527 82.7424 20.736C82.1759 21.5014 81.548 22.4177 80.8628 23.3883C80.1869 24.3661 79.4653 25.4095 78.7447 26.453C78.0115 27.4923 77.2816 28.5336 76.5745 29.4938C75.8747 30.4591 75.1874 31.3359 74.6157 32.1003C73.4525 33.6144 72.6288 34.5901 72.6288 34.5901C72.6288 34.5901 73.2567 33.478 74.2731 31.8618C74.7917 31.061 75.3748 30.1113 76.0382 29.1199C76.6932 28.1244 77.4159 27.0778 78.1365 26.0302C78.8665 24.992 79.6017 23.9444 80.339 23.0019C80.943 22.2126 81.5344 21.5149 82.078 20.8776C82.1884 20.7474 82.3113 20.6006 82.4165 20.4767C82.8268 20.007 83.1965 19.603 83.5151 19.2635C83.7119 19.0521 83.8879 18.8678 84.0379 18.7137L84.1847 18.7251ZM97.3224 19.804L97.815 19.8435C97.5421 20.1611 97.0892 20.6797 96.5143 21.3223C95.3314 22.6417 93.6162 24.4911 91.7949 26.2437C90.1371 27.8515 88.3928 29.3719 86.9995 30.4018C86.6569 30.6653 86.3226 30.8808 86.0373 31.086C85.753 31.2932 85.4905 31.4515 85.2739 31.5817C84.8439 31.8441 84.5981 31.9941 84.5981 31.9941C84.5981 31.9941 84.8376 31.8347 85.2562 31.5546C85.4676 31.4161 85.7228 31.2484 85.9977 31.0298C86.2737 30.8142 86.5975 30.5872 86.9287 30.3102C88.2741 29.2292 89.9475 27.6474 91.5314 25.9823C93.8453 23.5705 95.9593 21.0026 96.9454 19.7727L97.3224 19.804ZM57.1595 22.4167C57.3948 22.273 57.7083 22.3459 57.8551 22.5844L60.3554 26.6686C60.5012 26.906 60.4262 27.2174 60.1888 27.3632C60.1065 27.4142 60.0149 27.4381 59.9243 27.4381C59.7545 27.4381 59.589 27.3517 59.4932 27.1965L56.9918 23.1123C56.8471 22.8739 56.921 22.5625 57.1595 22.4167ZM63.8741 23.1123C63.7283 22.8739 63.8023 22.5625 64.0407 22.4167C64.2782 22.273 64.5895 22.3459 64.7364 22.5844L67.2377 26.6686C67.3835 26.906 67.3096 27.2174 67.0711 27.3632C66.9888 27.4142 66.8972 27.4381 66.8066 27.4381C66.6368 27.4381 66.4713 27.3517 66.3755 27.1965L63.8741 23.1123ZM62.4829 27.3632C62.4006 27.4142 62.309 27.4381 62.2184 27.4381C62.0486 27.4381 61.8831 27.3517 61.7873 27.1965L59.2859 23.1123C59.1401 22.8739 59.2141 22.5625 59.4525 22.4167C59.6879 22.273 60.0013 22.3459 60.1482 22.5844L62.6495 26.6686C62.7953 26.906 62.7203 27.2174 62.4829 27.3632ZM61.58 23.1123C61.4342 22.8739 61.5082 22.5625 61.7466 22.4167C61.983 22.273 62.2954 22.3459 62.4423 22.5844L64.9436 26.6686C65.0894 26.906 65.0155 27.2174 64.777 27.3632C64.6947 27.4142 64.6031 27.4381 64.5125 27.4381C64.3427 27.4381 64.1772 27.3517 64.0814 27.1965L61.58 23.1123ZM56.5951 48.4381C57.6874 46.6584 58.9319 44.5621 60.32 42.3524C61.6967 40.1343 63.2004 37.7923 64.702 35.4482C66.2234 33.1166 67.7407 30.784 69.1965 28.618C70.6544 26.4499 72.0113 24.4359 73.2609 22.7374C74.1106 21.5857 74.9177 20.6308 75.6102 19.8425C75.7914 19.6352 75.959 19.4447 76.1215 19.2635C76.2485 19.1208 76.3839 18.9688 76.4985 18.8417C76.7515 18.5658 76.9619 18.344 77.1493 18.1482L77.292 18.1597C77.1181 18.3877 76.9171 18.6501 76.6651 18.9803C76.5995 19.0646 76.5224 19.1719 76.4526 19.2635C76.3016 19.4634 76.1475 19.6686 75.9788 19.9008C75.3478 20.7724 74.6042 21.8523 73.7732 23.0967C72.6267 24.8191 71.4187 26.9497 70.0191 29.1491C68.6425 31.3671 67.1377 33.7081 65.6361 36.0522C64.1147 38.3838 62.5964 40.7164 61.1395 42.8824C59.6941 45.0547 58.2935 47.0499 57.1189 48.7765C55.9432 50.502 54.907 51.9047 54.2083 52.9023C53.4898 53.8885 53.0795 54.4508 53.0795 54.4508C53.0795 54.4508 53.4242 53.8458 54.0281 52.7857C54.6509 51.7392 55.5048 50.2188 56.5951 48.4381ZM34.1654 37.986C35.7295 37.4101 37.3061 36.8676 38.8046 36.4302C40.3 35.9793 41.7204 35.6461 42.9325 35.3514C44.1457 35.0577 45.1756 34.8932 45.8899 34.7588C46.6074 34.6349 47.023 34.5901 47.023 34.5901C47.023 34.5901 45.4474 35.1129 43.0856 35.897C41.9026 36.2751 40.5405 36.7676 39.0785 37.2748C37.6174 37.7892 36.0617 38.3411 34.5215 38.9305C33.754 39.2304 32.974 39.5022 32.2274 39.8177C31.4797 40.1343 30.7247 40.3988 30.0197 40.7154C29.3147 41.0278 28.6108 41.2881 27.9683 41.5859C27.3237 41.8786 26.6988 42.1316 26.1469 42.4097C25.595 42.6877 25.0774 42.9241 24.6172 43.1334C24.16 43.3479 23.7758 43.5614 23.4519 43.7238C22.799 44.0467 22.4262 44.231 22.4262 44.231C22.4262 44.231 22.7615 43.9852 23.3498 43.5562C23.9413 43.1303 24.8005 42.5367 25.8814 41.9067C26.4156 41.5787 27.0196 41.2736 27.6465 40.9226C28.2702 40.5675 28.9513 40.2384 29.6573 39.9021C31.0663 39.22 32.6117 38.59 34.1654 37.986ZM21.1047 58.4236C21.642 58.8193 22.2429 59.1296 22.8885 59.3483C23.4103 59.5254 23.958 59.6441 24.5307 59.6836L25.1462 59.7263H25.1503L27.3705 59.8794L27.6663 59.9002L28.1557 59.9336L28.4639 59.9554L29.8312 60.0492L30.3154 60.0825L42.3327 60.9104L42.8888 60.9489L44.8934 61.0863L45.1173 61.102L46.4689 61.1957L47.7644 61.2842L49.6284 61.4133L50.6146 61.481L50.9988 61.507L53.3814 61.6716L62.1632 62.2766H80.843H83.3808H83.991H85.1781H91.6283H92.277H94.996H95.6521H99.6155C99.8258 62.2766 100.032 62.2631 100.236 62.2412C101.525 62.1017 102.684 61.5331 103.576 60.6833C104.519 59.7836 105.158 58.5683 105.319 57.2073H105.435L105.603 57.199C105.742 57.1927 105.869 57.125 105.952 57.0115L106.562 56.167C106.592 56.1264 106.631 56.0962 106.678 56.0795L107.577 55.7546L106.982 56.7824C106.94 56.8553 106.941 56.9449 106.985 57.0167C107.03 57.0886 107.113 57.1302 107.192 57.1271L108.015 57.0865L108.185 57.0792C108.324 57.0719 108.451 57.0032 108.533 56.8897L109.14 56.0431C109.169 56.0025 109.208 55.9722 109.255 55.9556L110.153 55.6286L109.562 56.6575C109.52 56.7304 109.522 56.8199 109.565 56.8918C109.609 56.9626 109.688 56.9959 109.773 57.0011L110.597 56.9584L110.765 56.9501C110.905 56.9428 111.032 56.873 111.112 56.7595L111.717 55.9108C111.746 55.8712 111.787 55.841 111.833 55.8233L112.73 55.4953L112.142 56.5252C112.1 56.5981 112.101 56.6877 112.145 56.7585C112.187 56.8272 112.262 56.8678 112.353 56.8678L113.177 56.8241L113.346 56.8157C113.484 56.8064 113.611 56.7376 113.691 56.6231L114.294 55.7733C114.324 55.7317 114.364 55.7015 114.41 55.6848L115.306 55.3537L114.72 56.3857C114.679 56.4575 114.681 56.5471 114.724 56.6189C114.769 56.6898 114.852 56.7283 114.933 56.7283L115.755 56.6825L115.924 56.6731C116.062 56.6658 116.191 56.5939 116.272 56.4815L116.873 55.6297C116.9 55.589 116.939 55.5588 116.986 55.5411L117.881 55.2069L117.299 56.2399C117.257 56.3128 117.259 56.4023 117.304 56.4742C117.349 56.546 117.43 56.5856 117.513 56.5825L118.335 56.5325L118.505 56.5231C118.642 56.5138 118.771 56.4429 118.85 56.3305L119.449 55.4766C119.477 55.436 119.517 55.4058 119.563 55.3881L120.457 55.0538L119.877 56.0868C119.836 56.1597 119.839 56.2503 119.882 56.3211C119.928 56.393 120.006 56.4294 120.092 56.4284L120.914 56.3805L121.083 56.3701C121.223 56.3617 121.349 56.2899 121.428 56.1753L122.024 55.3193C122.054 55.2787 122.093 55.2464 122.139 55.2298L123.031 54.8913L122.454 55.9275C122.414 56.0014 122.417 56.091 122.462 56.1618C122.508 56.2336 122.589 56.269 122.67 56.268L123.492 56.2149L123.661 56.2045C123.801 56.1951 123.927 56.1232 124.006 56.0097L124.601 55.1527C124.629 55.1121 124.667 55.0819 124.713 55.0642L125.607 54.7247L125.033 55.7609C124.992 55.8337 124.994 55.9244 125.039 55.9941C125.083 56.0649 125.164 56.1045 125.248 56.1024L126.07 56.0483L126.065 55.9556L126.071 56.0483L126.24 56.0368C126.379 56.0264 126.505 55.9545 126.583 55.84L127.176 54.9798C127.203 54.9392 127.243 54.908 127.288 54.8892L128.18 54.5456L127.609 55.5849C127.569 55.6588 127.572 55.7484 127.617 55.8192C127.663 55.89 127.732 55.9264 127.827 55.9244L128.641 55.8671H128.648L128.817 55.8556C128.958 55.8452 129.082 55.7734 129.162 55.6578L129.516 55.1392L129.749 54.7986C129.777 54.757 129.817 54.7257 129.863 54.708L130.753 54.3634L130.285 55.2214L130.186 55.4026C130.146 55.4766 130.149 55.5672 130.194 55.638C130.24 55.7078 130.309 55.7463 130.404 55.7432L131.226 55.6848L131.22 55.5922L131.227 55.6848L131.396 55.6723C131.535 55.6598 131.659 55.588 131.738 55.4724L132.323 54.6081C132.351 54.5664 132.39 54.5352 132.437 54.5175L133.324 54.1665L132.761 55.21C132.721 55.2839 132.724 55.3745 132.771 55.4443C132.817 55.5151 132.899 55.5526 132.982 55.5484L133.139 55.5359L133.803 55.4839L133.972 55.4714C134.111 55.4599 134.236 55.387 134.314 55.2714L134.887 54.4206L134.895 54.4081C134.925 54.3665 134.963 54.3342 135.008 54.3165L135.167 54.254L135.896 53.9656L135.337 55.009C135.297 55.0829 135.302 55.1725 135.347 55.2433C135.393 55.3152 135.477 55.3485 135.559 55.3474L136.379 55.2839L136.372 55.1912L136.38 55.2839L136.384 55.2829L136.54 55.2704L136.549 55.2693C136.646 55.261 136.73 55.2121 136.803 55.1496C136.833 55.1225 136.868 55.1006 136.891 55.0673L136.958 54.9653L137.469 54.1978C137.495 54.1572 137.535 54.1239 137.581 54.1062L138.106 53.8927L138.465 53.7469L138.226 54.1999L138.116 54.4081L137.98 54.6664L137.911 54.7955C137.873 54.8695 137.877 54.959 137.923 55.0298C137.97 55.1006 138.059 55.134 138.135 55.1319L138.575 55.0934L138.92 55.0632L138.956 55.06L139.124 55.0454C139.264 55.0329 139.388 54.959 139.465 54.8434L140.014 54.0124L140.04 53.9729C140.066 53.9312 140.104 53.9 140.15 53.8823L141.034 53.523L140.895 53.7896L140.486 54.5727C140.447 54.6466 140.451 54.7351 140.498 54.8059C140.528 54.8518 140.577 54.8757 140.629 54.8903C140.656 54.8986 140.683 54.908 140.71 54.908L140.726 54.9059L141.531 54.8361L141.7 54.8205C141.839 54.808 141.963 54.732 142.04 54.6154L142.61 53.7386C142.637 53.6959 142.674 53.6646 142.72 53.6459L143.307 53.3991L143.6 53.2762L143.551 53.373L143.058 54.3321C143.02 54.4071 143.025 54.4967 143.073 54.5664C143.12 54.6352 143.204 54.6758 143.285 54.6643L144.106 54.5841L144.275 54.5675C144.412 54.5539 144.538 54.4769 144.613 54.3613L145.103 53.599L145.176 53.4855C145.203 53.4438 145.241 53.4116 145.287 53.3928L145.415 53.3387L145.553 53.2814L146.166 53.0231L146.031 53.2908L145.631 54.0791C145.592 54.153 145.597 54.2426 145.645 54.3113C145.692 54.3811 145.768 54.4186 145.86 54.4113L146.679 54.3311L146.849 54.3134C146.988 54.2978 147.111 54.2207 147.186 54.102L147.634 53.3907L147.743 53.2179C147.769 53.1752 147.807 53.1419 147.852 53.1221L147.969 53.0721L148.455 52.8596L148.521 52.8315L148.727 52.7409L148.673 52.8492L148.353 53.4959L148.2 53.8042C148.163 53.8791 148.171 53.9687 148.219 54.0374C148.266 54.1072 148.345 54.1468 148.433 54.1332L149.252 54.0405L149.421 54.0218C149.56 54.0051 149.683 53.9281 149.757 53.8094L149.801 53.7375L150.193 53.1075L150.306 52.9252C150.333 52.8836 150.369 52.8513 150.414 52.8305L151.286 52.4494L150.894 53.2574L150.77 53.5126C150.733 53.5876 150.741 53.6771 150.79 53.7448C150.839 53.8146 150.915 53.8552 151.004 53.8406L151.716 53.7594L151.826 53.7448L151.994 53.7219C152.084 53.7104 152.161 53.6646 152.228 53.6063C152.263 53.5751 152.301 53.5459 152.326 53.5042L152.865 52.6076C152.881 52.5816 152.908 52.567 152.932 52.5483C152.946 52.5368 152.956 52.5181 152.973 52.5108L153.838 52.112L153.54 52.7482L153.336 53.1845C153.3 53.2606 153.309 53.3501 153.358 53.4168C153.408 53.4865 153.497 53.523 153.574 53.5094L154.394 53.3991L154.563 53.3772C154.656 53.3637 154.734 53.3147 154.802 53.2533C154.834 53.2231 154.87 53.197 154.893 53.1585L155.421 52.2629C155.446 52.2213 155.482 52.188 155.527 52.1661L156.047 51.9235L156.384 51.7569L155.901 52.8399C155.865 52.9159 155.875 53.0034 155.925 53.071C155.976 53.1398 156.061 53.1752 156.146 53.1627L156.963 53.0283L157.132 53.0013C157.27 52.9784 157.389 52.8951 157.457 52.7732L157.56 52.5889L157.967 51.862C157.991 51.8183 158.026 51.7839 158.07 51.7621L158.92 51.3361L158.479 52.3765L158.459 52.4233C158.426 52.5004 158.437 52.5899 158.489 52.6555C158.542 52.7222 158.623 52.7555 158.709 52.7399L159.245 52.6524L159.527 52.6056L159.695 52.5774C159.832 52.5556 159.953 52.4702 160.019 52.3473L160.503 51.4153C160.526 51.3695 160.562 51.333 160.604 51.3101L161.429 50.8467L161.012 51.9547C160.981 52.0328 160.996 52.1213 161.051 52.1859C161.104 52.2494 161.189 52.2786 161.275 52.2598L162.09 52.0859L162.257 52.0505C162.396 52.0214 162.511 51.9318 162.572 51.8058L163.018 50.8759C163.038 50.8321 163.07 50.7978 163.119 50.7707L163.894 50.2458L163.761 50.7186L163.555 51.3861C163.529 51.4674 163.548 51.5548 163.608 51.6142C163.666 51.6756 163.756 51.6975 163.839 51.6725L164.652 51.4267L164.82 51.3757C164.958 51.3341 165.066 51.2351 165.117 51.105L165.47 50.1407C165.482 50.1011 165.509 50.0626 165.535 50.0261L165.552 49.997C165.557 49.9834 165.569 49.9584 165.594 49.9168L165.797 49.6054C165.862 49.5002 165.922 49.393 165.967 49.3076C165.996 49.4315 166.033 49.6054 166.062 49.7814C166.117 50.1105 166.141 50.4604 166.141 50.4635C166.148 50.5489 166.198 50.6187 166.275 50.652C166.355 50.6884 166.451 50.6728 166.527 50.6114L166.822 50.3521C166.969 50.2177 167.109 50.0751 167.109 50.0751L167.192 49.9876L167.125 49.9241L167.194 49.9866L167.323 49.8481C167.422 49.7356 167.468 49.5856 167.446 49.4471C167.444 49.4367 167.397 49.1701 167.335 48.9181C167.272 48.6599 167.185 48.4204 167.183 48.411C167.167 48.3683 167.165 48.3235 167.176 48.2704L167.209 48.1069C167.232 47.9986 167.257 47.8695 167.264 47.7445C167.281 47.6289 167.285 47.5154 167.286 47.4259C167.368 47.5185 167.478 47.6498 167.579 47.7935C167.766 48.0611 167.935 48.3808 167.936 48.3829C167.973 48.4589 168.051 48.5016 168.133 48.5026C168.226 48.5006 168.307 48.4443 168.346 48.3579C168.349 48.3506 168.439 48.1683 168.517 47.9705L168.655 47.5675L168.686 47.4415L168.597 47.4196L168.687 47.4404L168.732 47.2436C168.769 47.0791 168.733 46.9208 168.636 46.8135C168.629 46.8042 168.448 46.5907 168.255 46.4126C168.055 46.2335 167.843 46.0846 167.835 46.0794C167.796 46.0513 167.766 46.0128 167.751 45.9721L167.742 45.9482C167.635 45.6545 167.514 45.4108 167.377 45.2099C167.498 45.238 167.664 45.2828 167.823 45.3463C167.965 45.3994 168.128 45.4692 168.256 45.5337L168.443 45.6347C168.515 45.6764 168.598 45.6733 168.667 45.6306C168.745 45.5816 168.788 45.491 168.781 45.3838L168.7 44.9662C168.659 44.7496 168.579 44.5507 168.577 44.5476L168.54 44.4341C168.531 44.3872 168.503 44.3258 168.467 44.2456C168.467 44.2456 168.422 44.1487 168.415 44.1508C168.347 44.0467 168.248 43.9696 168.137 43.9394C168.125 43.9353 167.861 43.8655 167.599 43.829C167.34 43.7853 167.081 43.7811 167.071 43.7811C167.021 43.7801 166.978 43.7655 166.939 43.7374C166.93 43.7312 166.709 43.5812 166.479 43.4521C166.371 43.3927 166.262 43.3385 166.177 43.2979C166.299 43.2625 166.47 43.2167 166.643 43.1813C166.97 43.1095 167.319 43.074 167.321 43.074C167.406 43.0657 167.474 43.0157 167.506 42.9376C167.539 42.8533 167.521 42.7564 167.456 42.6804L167.177 42.3899L166.886 42.117L166.793 42.0389L166.733 42.1087L166.792 42.0379L166.652 41.9192C166.544 41.8265 166.4 41.789 166.244 41.8161C166.134 41.8421 165.433 42.0192 165.228 42.1191C165.182 42.1348 165.137 42.141 165.095 42.1473C165.082 42.1493 165.054 42.1514 165.021 42.1576L164.215 42.2524L164.56 41.9025L165.066 41.411C165.13 41.3527 165.154 41.2652 165.131 41.184C165.109 41.1028 165.042 41.0424 164.956 41.0257L164.122 40.8612L164.103 40.9518L164.121 40.8612L163.95 40.8278C163.813 40.7997 163.665 40.8372 163.56 40.9268L162.78 41.6078C162.744 41.6401 162.702 41.6588 162.649 41.6651L161.718 41.8421L162.482 40.9278C162.538 40.8622 162.553 40.7737 162.522 40.6956C162.491 40.6164 162.418 40.5623 162.334 40.554L161.505 40.4623L161.335 40.4425C161.197 40.4248 161.058 40.4748 160.959 40.5748L160.225 41.3163C160.191 41.3506 160.148 41.3735 160.1 41.3829L159.543 41.4912C159.411 41.5151 159.28 41.5443 159.177 41.5683L159.895 40.6394C159.947 40.5738 159.96 40.4884 159.927 40.4103C159.894 40.3311 159.82 40.2759 159.737 40.2666C159.737 40.2666 159.554 40.2416 159.373 40.2311L158.904 40.202L158.734 40.1916C158.598 40.1833 158.459 40.2364 158.365 40.3394L157.657 41.1132C157.624 41.1507 157.581 41.1757 157.535 41.1871L156.61 41.41L157.309 40.4551C157.359 40.3884 157.368 40.2989 157.331 40.2228C157.296 40.1458 157.222 40.0947 157.137 40.0895L156.311 40.0375L156.14 40.027C156.005 40.0198 155.865 40.0739 155.774 40.177L155.085 40.9611C155.054 40.9986 155.01 41.0257 154.962 41.0392L154.042 41.2881L154.722 40.3155C154.771 40.2457 154.778 40.1562 154.741 40.0812C154.703 40.0052 154.627 39.9573 154.543 39.9542L153.717 39.9271L153.547 39.9208C153.408 39.9239 153.274 39.975 153.184 40.0812L152.509 40.8757C152.477 40.9132 152.435 40.9403 152.387 40.9528L151.469 41.2038L152.135 40.228C152.183 40.1593 152.189 40.0697 152.152 39.9948C152.114 39.9187 152.037 39.8708 151.953 39.8677L151.127 39.8396C151.127 39.8396 150.956 39.8354 150.95 39.8354C150.814 39.8354 150.681 39.8969 150.595 40.0021L149.931 40.8101C149.898 40.8487 149.857 40.8768 149.81 40.8903L148.894 41.16L149.55 40.1708C149.597 40.101 149.602 40.0114 149.562 39.9365C149.523 39.8625 149.446 39.8156 149.362 39.8146L148.537 39.8042C148.537 39.8042 148.369 39.8021 148.361 39.8021C148.224 39.8021 148.096 39.8625 148.008 39.9698L147.351 40.7768C147.321 40.8153 147.278 40.8435 147.231 40.857L146.317 41.1267L146.965 40.1374C147.011 40.0666 147.015 39.9781 146.976 39.9042C146.937 39.8292 146.859 39.7823 146.774 39.7813L145.948 39.773H145.779C145.639 39.774 145.509 39.8365 145.422 39.9458L144.771 40.7643C144.739 40.8029 144.699 40.831 144.651 40.8456L143.74 41.1288L144.38 40.1301C144.426 40.0593 144.429 39.9698 144.388 39.8958C144.349 39.8219 144.271 39.7771 144.186 39.7771L143.363 39.7782H143.193C143.053 39.7792 142.922 39.8427 142.837 39.9521L142.191 40.7695C142.16 40.8081 142.119 40.8362 142.073 40.8507L141.161 41.134L141.796 40.1353C141.84 40.0645 141.844 39.976 141.804 39.9021C141.763 39.8282 141.685 39.7823 141.601 39.7823L140.775 39.7854L140.606 39.7886C140.466 39.7907 140.337 39.8542 140.251 39.9646L139.611 40.7904C139.581 40.8289 139.539 40.8581 139.493 40.8737L138.583 41.1673L139.213 40.1614C139.258 40.0895 139.26 40 139.217 39.9271C139.177 39.8531 139.089 39.8063 139.014 39.8104L138.19 39.8209L138.021 39.8229C137.881 39.825 137.752 39.8896 137.667 40.001L137.031 40.8258C137.001 40.8643 136.959 40.8934 136.913 40.908L136.005 41.2017L136.629 40.1958C136.673 40.1249 136.675 40.0354 136.635 39.9625C136.592 39.8886 136.511 39.8386 136.429 39.8448L135.605 39.8563L135.436 39.8604C135.295 39.8635 135.167 39.9292 135.082 40.0406L134.449 40.8726C134.42 40.9112 134.38 40.9403 134.332 40.9559L133.426 41.2569L134.046 40.2468C134.089 40.1749 134.092 40.0854 134.05 40.0125C134.008 39.9406 133.932 39.8969 133.845 39.8969L133.021 39.9156L132.852 39.9198C132.713 39.9229 132.584 39.9885 132.498 40.0999L131.869 40.9309C131.84 40.9695 131.8 40.9986 131.754 41.0142L130.848 41.3163L131.463 40.3051C131.507 40.2332 131.508 40.1437 131.466 40.0708C131.424 39.9968 131.346 39.9614 131.261 39.9552L130.437 39.9739L130.44 40.0666L130.436 39.9739L130.268 39.9791C130.128 39.9823 130 40.0489 129.916 40.1614L129.29 40.9965C129.261 41.0361 129.22 41.0663 129.173 41.0819L128.269 41.3902L128.882 40.3738C128.925 40.302 128.925 40.2124 128.883 40.1395C128.84 40.0666 128.758 40.0187 128.678 40.026L127.854 40.051L127.685 40.0562C127.545 40.0604 127.417 40.127 127.333 40.2384L126.71 41.0747C126.681 41.1142 126.641 41.1434 126.594 41.159L125.691 41.4672L126.3 40.4509C126.343 40.3801 126.344 40.2905 126.301 40.2176C126.26 40.1468 126.185 40.1041 126.095 40.1041L125.271 40.1281L125.102 40.1343C124.962 40.1395 124.834 40.2072 124.751 40.3197L124.131 41.158C124.101 41.1986 124.061 41.2277 124.014 41.2444L123.112 41.5578L123.718 40.5383C123.761 40.4665 123.761 40.3769 123.719 40.3051C123.675 40.2322 123.599 40.1957 123.511 40.1916L122.69 40.2207L122.693 40.3134L122.689 40.2207L122.519 40.227C122.379 40.2322 122.252 40.2999 122.17 40.4123L121.552 41.2517C121.523 41.2902 121.483 41.3204 121.436 41.3371L120.533 41.6505L121.137 40.631C121.181 40.5581 121.181 40.4707 121.137 40.3978C121.093 40.3249 121.014 40.2832 120.93 40.2843L120.107 40.3155L119.939 40.3228C119.798 40.328 119.67 40.3957 119.589 40.5092L118.973 41.3516C118.943 41.3923 118.903 41.4214 118.857 41.4381L117.957 41.7557L118.558 40.7331C118.599 40.6602 118.598 40.5706 118.555 40.4988C118.513 40.4301 118.438 40.3873 118.348 40.3873L117.526 40.4217L117.356 40.429C117.219 40.4342 117.088 40.504 117.006 40.6154L116.394 41.4579C116.366 41.4974 116.325 41.5276 116.278 41.5443L115.378 41.864L115.975 40.8393C116.018 40.7674 116.018 40.6769 115.974 40.605C115.93 40.5331 115.851 40.4957 115.767 40.4936L114.944 40.5311L114.776 40.5394C114.636 40.5456 114.509 40.6144 114.427 40.7268L113.815 41.5724C113.787 41.612 113.747 41.6422 113.701 41.6588L112.801 41.9817L113.397 40.9559C113.438 40.883 113.437 40.7935 113.394 40.7227C113.351 40.6498 113.273 40.6102 113.186 40.6113L112.365 40.6487L112.368 40.7414L112.364 40.6487L112.195 40.656C112.058 40.6623 111.926 40.732 111.846 40.8445L111.237 41.6911C111.209 41.7317 111.168 41.7619 111.121 41.7786L110.224 42.1045L110.816 41.0767C110.858 41.0038 110.857 40.9143 110.813 40.8424C110.768 40.7706 110.679 40.731 110.606 40.7331L109.783 40.7737L109.615 40.782C109.474 40.7883 109.347 40.858 109.266 40.9716L108.66 41.8182C108.63 41.8577 108.591 41.889 108.545 41.9056L107.647 42.2337L108.237 41.2048C108.278 41.1319 108.276 41.0413 108.233 40.9705C108.19 40.9018 108.117 40.8612 108.024 40.8612L107.202 40.9039L107.033 40.9132C106.894 40.9205 106.766 40.9903 106.686 41.1038L106.081 41.9535C106.053 41.9931 106.015 42.0233 105.968 42.041C105.787 42.1077 105.573 42.191 105.363 42.217V35.3503C105.363 35.2774 105.352 35.2066 105.331 35.1368L101.779 23.2821C102.727 21.9169 103.484 20.5735 104.083 19.2635C107.832 11.0472 105.299 4.10658 103.681 0.99397C103.175 0.0203039 101.941 -0.299369 101.029 0.310864L97.5307 2.65391C96.809 3.1371 96.5279 4.0639 96.8559 4.86783C99.2635 10.7786 98.9021 15.2803 97.8827 18.3617L96.2602 18.2284C96.2269 15.0387 95.3678 10.791 94.7305 8.06374C94.3587 6.47567 92.9415 5.3583 91.3096 5.3583H90.3558C89.3977 5.3583 88.4834 5.75712 87.8326 6.46004L78.3031 16.7559L74.9562 16.482C74.7511 16.482 73.0068 16.3769 61.2739 15.4022C58.5486 15.1668 56.0723 16.783 55.1278 19.2635C54.9966 19.6092 54.8925 19.9706 54.8237 20.3465L54.6748 21.1754C53.3065 21.4316 52.2172 22.5115 51.9767 23.9287L51.1477 28.8283C50.5104 28.9304 49.919 29.223 49.4399 29.6812C48.9317 30.1675 48.6037 30.7871 48.4892 31.4869L43.3313 32.9937L33.9748 32.9979C32.7522 32.9979 31.7577 33.9924 31.7577 35.215V36.7832L23.429 40.831C20.3789 42.3149 18.4097 45.464 18.4097 48.8546V53.1242C18.4097 55.2829 19.4687 57.2208 21.1047 58.4236Z" fill="#DB9D46"/>
<path d="M166.723 86.2257L164.151 85.1791C164.499 84.6137 164.847 83.9816 165.161 83.2516C165.348 82.8163 165.523 82.3508 165.685 81.8635L166.638 80.4691L168.008 80.8471L168.77 80.6794C168.353 82.6247 167.684 84.5022 166.723 86.2257ZM166.147 87.2098C165.738 87.8398 165.282 88.4313 164.801 89.0009L162.474 87.4305C162.594 87.2962 162.719 87.1546 162.862 86.9859C163.229 86.5496 163.66 85.9737 164.092 85.2812L166.321 86.9119C166.26 87.0098 166.209 87.114 166.147 87.2098ZM158.724 94.4857C157.684 95.3021 156.63 96.1258 155.425 96.6673C154.975 96.8694 154.509 97.0183 154.036 97.1484L153.407 95.9353C153.446 95.9238 153.491 95.9165 153.531 95.904C154.275 95.6843 154.928 95.374 155.457 95.0428C155.991 94.7148 156.42 94.3837 156.768 94.1077C157.458 93.5454 157.828 93.2007 157.828 93.2007C157.828 93.2007 157.41 93.485 156.679 93.9848C155.951 94.4732 154.855 95.1376 153.412 95.4781C153.342 95.4969 153.263 95.5052 153.192 95.5219L152.724 94.62L152.919 95.576C151.572 95.8509 149.988 95.9144 148.305 96.1831C147.343 96.3195 146.347 96.4632 145.34 96.5653L145.241 95.8759L145.139 96.5809C144.249 96.6653 143.351 96.7184 142.456 96.6944C141.468 96.6871 140.496 96.5715 139.569 96.3112C138.622 96.0529 137.722 95.726 136.872 95.3396C135.175 94.5742 133.691 93.6318 132.545 92.6654C131.665 91.9156 130.931 91.219 130.36 90.6442L131.603 89.0623C132.086 89.5913 132.577 90.0985 133.066 90.5671C134.018 91.4783 135.015 92.1979 135.915 92.7373C136.815 93.2788 137.624 93.6151 138.19 93.8411C138.76 94.0608 139.092 94.1639 139.092 94.1639C139.092 94.1639 138.763 94.0463 138.206 93.8026C137.648 93.5589 136.871 93.1663 135.985 92.6217C135.102 92.0739 134.123 91.3429 133.2 90.4328C132.709 89.9475 132.221 89.4268 131.742 88.8843L132.182 88.3261L131.652 88.776C131.258 88.3251 130.868 87.8648 130.495 87.3858C130.265 87.0994 130.058 86.8015 129.84 86.5079L130.294 85.9508L130.744 86.3163C131.272 87.0046 131.814 87.6721 132.368 88.274C133.173 89.1436 133.98 89.8965 134.734 90.4807C135.484 91.0649 136.179 91.4491 136.661 91.7115C137.148 91.9667 137.44 92.0864 137.44 92.0864C137.44 92.0864 137.175 91.9177 136.713 91.6241C136.254 91.3262 135.626 90.8618 134.922 90.2526C134.215 89.6528 133.481 88.8353 132.707 87.97C132.491 87.7252 132.28 87.4566 132.066 87.1973L133.327 85.6279L135.019 86.9786L135.795 85.9956C135.879 86.0757 135.966 86.1632 136.046 86.2361C136.392 86.5808 136.741 86.7849 137.003 87.0025C137.547 87.4055 137.857 87.6357 137.857 87.6357C137.857 87.6357 137.57 87.3764 137.068 86.9234C136.827 86.6922 136.48 86.4454 136.184 86.0976C136.103 86.0122 136.017 85.9133 135.934 85.8206L136.357 85.2853L138.051 86.6245L138.525 86.0164C138.848 86.259 139.185 86.4923 139.558 86.6985C140.156 87.0338 140.802 87.3243 141.487 87.5482C142.159 87.7856 142.915 87.9158 143.643 87.9262C145.112 87.9408 146.537 87.6419 147.862 87.4524C148.523 87.3618 149.181 87.2827 149.79 87.1212C150.4 86.9692 150.959 86.7151 151.412 86.41C152.32 85.7967 152.956 85.1593 153.441 84.7595C153.917 84.3481 154.188 84.1117 154.188 84.1117C154.188 84.1117 153.901 84.3304 153.402 84.7116C152.896 85.0854 152.199 85.6634 151.299 86.2309C150.847 86.51 150.319 86.7276 149.726 86.8547C149.133 86.989 148.491 87.0369 147.818 87.1285C146.477 87.3045 145.062 87.5805 143.65 87.5482C142.242 87.5544 140.883 87.0307 139.718 86.411C139.358 86.2174 139.028 86.0018 138.71 85.7779L139.38 84.9188L141.087 86.2444L142.331 84.623C142.425 84.6543 142.524 84.6689 142.619 84.6939L144.12 85.8425L144.865 84.8594C145.323 84.8178 145.763 84.7584 146.18 84.6845L147.155 85.4186L147.927 84.3846C148.327 84.3179 148.704 84.2336 149.029 84.1128L149.907 84.7636C149.562 84.9344 149.34 84.9854 149.348 84.999C149.341 84.9844 149.57 84.9427 149.932 84.7813L150.189 84.9719L150.599 84.4127C150.962 84.1763 151.381 83.8628 151.845 83.5005L152.873 84.2523C151.769 85.1406 150.771 86.0382 149.612 86.2944C148.996 86.4579 148.397 86.5214 147.847 86.5985C147.297 86.6839 146.793 86.762 146.338 86.8328C144.517 87.1379 143.457 87.0661 143.457 87.0661C143.457 87.0661 144.517 87.1535 146.343 86.8744C146.8 86.8109 147.305 86.7401 147.855 86.6631C148.405 86.5943 149.007 86.5391 149.635 86.3829C150.836 86.134 151.868 85.226 152.985 84.3346L153.217 84.5033L153.889 83.5744C154.144 83.3495 154.391 83.11 154.638 82.8611L156.241 84.0128L157.498 82.2498L157.861 82.506C157.859 82.5101 157.856 82.5143 157.854 82.5185C156.592 84.4054 154.873 85.7456 153.449 86.9067C152.734 87.4857 152.073 88.0033 151.401 88.3094C150.73 88.6177 150.087 88.753 149.561 88.852C148.498 89.0248 147.891 89.1238 147.891 89.1238C147.891 89.1238 148.503 89.0571 149.575 88.9395C150.108 88.8676 150.765 88.7666 151.476 88.4844C152.193 88.2043 152.905 87.7034 153.633 87.139C155.077 86.0122 156.893 84.7365 158.231 82.7736C158.232 82.7726 158.233 82.7715 158.234 82.7694L159.269 83.4994L160.515 81.727L161.218 82.2165C161.209 82.2363 161.202 82.256 161.193 82.2758C160.716 83.2849 160.093 84.2679 159.324 85.15C158.557 86.0393 157.67 86.8495 156.743 87.6169C155.821 88.3823 154.868 89.155 153.926 89.8538C152.985 90.5619 151.934 90.9909 150.83 91.1867C149.736 91.3846 148.626 91.5001 147.603 91.6917C146.575 91.8646 145.608 92.0208 144.708 92.1093C142.916 92.2968 141.388 92.1979 140.398 91.8167C139.389 91.4908 138.812 91.3044 138.812 91.3044C138.812 91.3044 139.379 91.521 140.369 91.9C141.35 92.328 142.909 92.5498 144.733 92.404C145.647 92.3416 146.629 92.2135 147.661 92.0708C148.692 91.9094 149.773 91.8386 150.916 91.6345C152.055 91.4491 153.235 90.9795 154.211 90.2536C155.192 89.5393 156.131 88.7937 157.08 88.0199C158.012 87.2327 158.913 86.3944 159.695 85.4676C160.484 84.546 161.116 83.5265 161.598 82.482L162.292 82.9642L162.325 82.9152C162.298 82.9735 162.275 83.0339 162.247 83.0912C161.654 84.3315 160.866 85.4363 159.98 86.3986C159.092 87.3628 158.14 88.2126 157.211 88.9915C156.276 89.76 155.386 90.5015 154.54 91.1211C153.691 91.7417 152.822 92.1531 151.994 92.3759C151.17 92.6071 150.424 92.7144 149.813 92.807C148.589 93.008 147.891 93.1226 147.891 93.1226C147.891 93.1226 148.594 93.0403 149.823 92.8956C150.44 92.83 151.192 92.7571 152.042 92.5602C152.892 92.3749 153.83 91.9833 154.709 91.3648C155.593 90.7514 156.489 90.0402 157.453 89.2883C158.407 88.5292 159.402 87.6961 160.315 86.7078C161.235 85.7258 162.067 84.5803 162.686 83.3078C163.025 82.632 163.308 81.9228 163.545 81.1959L164.352 81.7468C164.103 82.4726 163.794 83.2235 163.398 83.9743C162.896 84.9448 162.24 85.8862 161.484 86.763L161.184 86.561L161.462 86.7891C161.194 87.0973 160.916 87.3983 160.625 87.6878C159.521 88.826 158.291 89.8402 157.125 90.7743C155.958 91.7043 154.881 92.604 153.798 93.0976C152.718 93.5901 151.727 93.7745 151.044 93.8953C150.355 94.0015 149.96 94.0619 149.96 94.0619C149.96 94.0619 150.357 94.0171 151.05 93.9369C151.736 93.8349 152.747 93.7151 153.855 93.2215C154.967 92.731 156.066 91.8365 157.243 90.9232C158.422 90.0037 159.674 89.0019 160.806 87.8637C161.096 87.5659 161.375 87.2556 161.644 86.938L162.338 87.5097C161.966 87.9668 161.737 88.2074 161.737 88.2074C161.737 88.2074 161.978 87.9793 162.376 87.5409L164.538 89.3164C162.833 91.2523 160.764 92.8851 158.724 94.4857ZM150.876 97.7149C149.228 97.918 147.424 98.2429 145.611 98.4533L145.445 97.2942C146.463 97.1724 147.455 97.0099 148.408 96.8589C149.342 96.709 150.246 96.5653 151.102 96.4278C151.775 96.3216 152.409 96.1904 153.012 96.0352L153.279 97.3401C152.487 97.5077 151.679 97.6171 150.876 97.7149ZM139.306 98.2658C136.122 97.4057 133.19 95.7728 130.821 93.4745C130.311 92.9799 129.819 92.4676 129.339 91.9438L130.227 90.8139C130.742 91.4366 131.4 92.202 132.252 92.9987C133.379 94.0358 134.831 95.1397 136.585 95.9603C137.454 96.3747 138.397 96.7361 139.366 97.0183C140.353 97.3151 141.406 97.4598 142.44 97.4817C143.317 97.49 144.181 97.4244 145.031 97.3338L144.859 98.5345C142.937 98.7178 141.027 98.7303 139.306 98.2658ZM126.02 87.7471L127.258 86.2517L128.928 87.6273L129.085 87.4347C129.661 88.1803 130.023 88.5989 130.023 88.5989C130.023 88.5989 129.672 88.1636 129.117 87.3941L129.686 86.6964C129.89 86.9786 130.081 87.266 130.297 87.542C130.678 88.0168 131.078 88.474 131.481 88.9207L129.949 90.2224C129.932 90.2037 129.909 90.1808 129.892 90.1631C129.286 89.5174 128.94 89.1477 128.94 89.1477C128.94 89.1477 129.224 89.5674 129.776 90.2641C129.791 90.2828 129.811 90.3067 129.826 90.3255L128.733 91.2544C127.761 90.1401 126.851 88.9707 126.02 87.7471ZM115.921 99.9153L113.053 98.748C113.441 98.1169 113.829 97.4109 114.178 96.5965C114.982 94.7283 115.618 92.403 115.822 89.86C115.871 89.2237 115.897 88.575 115.901 87.92L116.737 88.6531L118.15 87.0171L118.809 87.5867C118.865 91.8552 117.988 96.2091 115.921 99.9153ZM115.279 101.014C114.824 101.717 114.314 102.376 113.777 103.011L111.18 101.26C111.314 101.11 111.454 100.951 111.614 100.763C112.022 100.276 112.503 99.6331 112.987 98.8604L115.473 100.681C115.406 100.79 115.348 100.906 115.279 101.014ZM106.997 109.132C105.836 110.042 104.661 110.962 103.316 111.566C102.815 111.791 102.294 111.958 101.766 112.103L101.064 110.75C101.108 110.736 101.158 110.728 101.202 110.714C102.033 110.468 102.761 110.123 103.351 109.754C103.948 109.387 104.426 109.018 104.815 108.71C105.584 108.083 105.997 107.697 105.997 107.697C105.997 107.697 105.531 108.015 104.714 108.572C103.902 109.118 102.679 109.858 101.07 110.239C100.992 110.259 100.904 110.27 100.825 110.287L100.302 109.281L100.52 110.349C99.0168 110.655 97.2497 110.726 95.3721 111.026C94.2985 111.178 93.1873 111.338 92.0637 111.451L91.9523 110.683L91.8398 111.469C90.8464 111.563 89.8446 111.623 88.8459 111.596C87.7431 111.588 86.658 111.459 85.625 111.168C84.567 110.88 83.5632 110.515 82.6155 110.084C80.7213 109.231 79.0655 108.18 77.7867 107.101C76.8058 106.264 75.9852 105.487 75.349 104.845L76.7308 103.086C77.2671 103.679 77.8138 104.245 78.3574 104.771C79.4165 105.793 80.5401 106.584 81.545 107.183C82.552 107.782 83.4538 108.162 84.0859 108.412C84.7211 108.657 85.0918 108.773 85.0918 108.773C85.0918 108.773 84.7253 108.641 84.1036 108.369C83.4819 108.096 82.6124 107.663 81.6273 107.049C80.6432 106.435 79.5612 105.608 78.5292 104.598C77.9794 104.058 77.4327 103.479 76.8964 102.876L77.3817 102.258L76.7964 102.756C76.3549 102.254 75.9175 101.743 75.4999 101.21C73.5672 98.7875 72.0228 96.08 71.0575 93.9661C70.818 93.4381 70.5941 92.9476 70.4306 92.5123C70.2744 92.0656 70.137 91.6751 70.0245 91.3544C69.7996 90.7129 69.6704 90.3463 69.6704 90.3463C69.6704 90.3463 69.7829 90.7181 69.9797 91.3689C70.1745 92.0156 70.4285 92.9653 70.9128 94.0306C71.8125 96.1862 73.3454 98.9302 75.2792 101.384C75.702 101.915 76.1466 102.426 76.5944 102.927L74.8897 104.374C74.871 104.354 74.8449 104.329 74.8262 104.309C74.1504 103.588 73.764 103.176 73.764 103.176C73.764 103.176 74.0816 103.644 74.6971 104.421C74.7148 104.442 74.7366 104.469 74.7533 104.49L73.5339 105.526C71.8281 103.57 70.3057 101.459 68.9988 99.2176L71.5636 97.8045C72.3311 99.0864 73.0736 100.129 73.6495 100.906C74.4648 101.982 74.9741 102.563 74.9741 102.563C74.9741 102.563 74.4846 101.966 73.7067 100.864C73.1496 100.076 72.4613 99.0041 71.7334 97.7108L72.027 97.5494L71.7104 97.6712C71.4293 97.1703 71.1429 96.6423 70.8534 96.0738C70.3369 95.0439 69.8194 93.9046 69.3507 92.6696C69.0477 91.8667 68.7759 91.0118 68.6031 90.1214L70.9034 89.6538C70.9805 90.262 71.1523 91.1138 71.4991 92.0875C71.8563 93.0788 72.2936 94.2347 72.8934 95.4125C73.486 96.5934 74.2014 97.8107 74.9938 98.9781C75.804 100.133 76.6954 101.228 77.5899 102.2C78.0273 102.692 78.4959 103.141 78.9322 103.549C79.3707 103.967 79.8111 104.34 80.2298 104.663C81.066 105.315 81.8408 105.743 82.3791 106.035C82.9238 106.321 83.2476 106.454 83.2476 106.454C83.2476 106.454 82.9529 106.267 82.4374 105.937C81.9251 105.605 81.2232 105.088 80.438 104.409C79.6497 103.739 78.8312 102.827 77.9679 101.861C77.1057 100.887 76.2497 99.7935 75.476 98.6449C73.8681 96.3841 72.6206 93.889 71.8073 91.9708C71.4189 91.0295 71.144 90.2245 71.019 89.6299L71.3377 89.5653L71.0065 89.5768C70.9784 89.4414 70.9555 89.3196 70.9346 89.2102L72.2395 88.0095C72.2457 88.2209 72.2415 88.4469 72.2624 88.6354C72.3092 89.2894 72.4946 89.7798 72.5623 90.1183C72.6456 90.4567 72.6904 90.6369 72.6904 90.6369C72.6904 90.6369 72.655 90.4546 72.5873 90.1131C72.5352 89.7663 72.3759 89.2779 72.3602 88.6281C72.3498 88.4052 72.3613 88.1439 72.3707 87.8887L72.5164 87.7544L73.9754 89.3466L74.4128 88.9374C74.4169 88.9801 74.418 89.0186 74.4232 89.0613C74.5877 90.4859 75.3208 92.2457 76.1529 93.9275C77.0172 95.601 78.0888 97.1599 78.9926 98.2408C79.8945 99.3249 80.5797 99.9674 80.5797 99.9674C80.5797 99.9674 79.9528 99.2676 79.1166 98.1429C78.2783 97.0214 77.2411 95.4646 76.4028 93.7995C75.5624 92.1416 74.8126 90.4098 74.5804 89.0384C74.5669 88.9592 74.5596 88.8864 74.5492 88.8093L75.1334 88.2626C75.1605 89.028 75.3073 89.7902 75.5468 90.515C76.132 92.1697 76.9058 93.7318 77.7566 95.1251C78.6053 96.5205 79.5737 97.7035 80.4432 98.6688C80.8785 99.1499 81.3055 99.5727 81.6929 99.9268C82.0792 100.311 82.4676 100.539 82.7613 100.782C83.3674 101.232 83.7141 101.489 83.7141 101.489C83.7141 101.489 83.3934 101.199 82.8332 100.694C82.5655 100.435 82.1761 100.16 81.847 99.7727C81.4867 99.3884 81.1066 98.9448 80.6911 98.4533C79.8674 97.4671 79.003 96.2414 78.1918 94.8637C77.3806 93.4891 76.6423 91.9344 76.1029 90.3307C75.8405 89.5716 75.6832 88.7812 75.6738 87.9991L77.0266 89.4476L78.2148 88.3198C78.271 88.9624 78.4293 89.5643 78.6282 90.112C79.1249 91.4606 79.7028 92.5759 80.2266 93.461C80.7525 94.3462 81.2274 95.0022 81.5596 95.4417C81.9011 95.8738 82.0834 96.105 82.0834 96.105C82.0834 96.105 81.9043 95.8718 81.569 95.4344C81.2441 94.9908 80.7796 94.3285 80.2673 93.4371C79.758 92.5467 79.1978 91.4252 78.7229 90.0787C78.524 89.5039 78.372 88.8707 78.3376 88.2032L78.5928 87.9616L79.9632 89.4039C80.085 89.7954 80.2225 90.1693 80.3651 90.5067C80.7713 91.4689 81.2107 92.2218 81.5252 92.7394C81.8439 93.2569 82.0438 93.5391 82.0438 93.5391C82.0438 93.5391 81.8574 93.2465 81.5658 92.7164C81.2732 92.1864 80.891 91.4095 80.5109 90.4473C80.388 90.1339 80.2725 89.7934 80.1694 89.4414L80.9743 88.6645C81.0545 89.1988 81.2149 89.8048 81.4846 90.4505C81.9084 91.5116 82.5041 92.7237 83.3497 93.888C83.7693 94.4722 84.2421 95.0439 84.7638 95.5968C85.2647 96.1394 85.8635 96.684 86.5112 97.1068C87.1673 97.5285 87.8775 97.8628 88.6043 98.1023C89.3114 98.3554 90.1206 98.4647 90.8349 98.4428C92.2949 98.4043 93.5799 98.0513 94.6962 97.9076C95.2607 97.8264 95.7824 97.7139 96.2229 97.5452C96.6686 97.3807 97.0164 97.1589 97.2861 96.9631C97.8193 96.5632 98.09 96.2997 98.09 96.2997C98.09 96.2997 97.7849 96.5268 97.2257 96.8725C96.9456 97.0422 96.5915 97.2276 96.1583 97.3474C95.7241 97.4713 95.2169 97.5358 94.6567 97.5942C93.5227 97.6952 92.2105 97.943 90.8308 97.9555C90.1289 97.9565 89.4666 97.8628 88.772 97.6056C88.0899 97.3682 87.4276 97.0422 86.8195 96.6361C86.1957 96.2373 85.6573 95.7707 85.1398 95.2303C84.6316 94.7086 84.1588 94.1577 83.7433 93.5985C82.9081 92.4801 82.2354 91.3512 81.7762 90.3255C81.546 89.8142 81.3461 89.3393 81.218 88.9061C81.1764 88.7687 81.1555 88.6437 81.1295 88.5146L81.6345 88.0283L83.1331 89.583L84.5555 88.1907C84.6066 88.526 84.6972 88.8603 84.8201 89.1675C85.0481 89.7226 85.3209 90.2578 85.6136 90.7368C85.9051 91.2179 86.2394 91.623 86.5279 91.9625C87.1225 92.6331 87.6057 92.982 87.6057 92.982C87.6057 92.982 87.2152 92.5342 86.7143 91.8167C86.2165 91.0982 85.6146 90.0985 85.2127 89.0134C85.1262 88.8114 85.0596 88.6083 85.0054 88.4052L86.1894 89.6153L87.514 88.2969C87.5151 88.299 87.5151 88.3001 87.5161 88.3022C87.5682 88.4302 87.5984 88.5042 87.5984 88.5042C87.5984 88.5042 87.5849 88.4261 87.562 88.2896C87.5599 88.2803 87.5578 88.2657 87.5557 88.2563L87.7213 88.0918L89.2458 89.6226L89.6113 89.2529C89.9206 89.6569 90.2882 90.0245 90.7485 90.2266C91.2556 90.4911 91.8419 90.4369 92.3126 90.338C92.5532 90.2901 92.7906 90.2724 93.0228 90.2089C93.2644 90.1516 93.4268 89.9725 93.608 89.8652C93.9465 89.5903 94.2506 89.3372 94.4578 89.0488C94.514 88.9707 94.5463 88.8936 94.589 88.8155L95.3617 89.5684L95.9511 88.9551C95.8199 89.3164 95.6345 89.6632 95.3908 89.9412C95.1013 90.2714 94.7598 90.5692 94.412 90.8514C94.288 90.9586 94.0589 91.0971 93.8975 91.2211L93.7663 91.3169C93.7747 91.3179 93.6924 91.3533 93.6653 91.3648C93.5799 91.4002 93.4883 91.4273 93.3956 91.4512C92.9936 91.5272 92.6135 91.6001 92.2626 91.6668C91.9117 91.7303 91.5941 91.7834 91.3108 91.7907C91.0193 91.8042 90.7974 91.7542 90.5944 91.6751C90.1914 91.5501 89.9612 91.4783 89.9612 91.4783C89.9612 91.4783 90.1757 91.5887 90.5517 91.7813C90.7297 91.8823 91.0026 91.9865 91.3014 92.0083C91.6045 92.0448 91.9471 92.0344 92.3095 91.9937C92.6781 91.9479 93.0384 91.9281 93.4799 91.8698C93.5893 91.8521 93.7018 91.8292 93.8163 91.7928C93.8871 91.7678 93.909 91.7699 94.0079 91.7167L94.1464 91.6334C94.3432 91.5126 94.4974 91.4252 94.7317 91.2575C95.0909 90.9836 95.4804 90.6962 95.8167 90.314C96.1646 89.9256 96.4176 89.4685 96.5769 88.9728C96.6623 88.6927 96.7134 88.4115 96.7446 88.1293L96.8602 88.0106L97.5943 88.7156C97.509 89.0759 97.359 89.533 97.0872 90.0225C96.7759 90.6067 96.225 91.1398 95.5772 91.6543C95.2513 91.9052 94.916 92.1916 94.5619 92.4072C94.2037 92.6258 93.7882 92.6956 93.3477 92.7466C92.4615 92.8612 91.5888 93.0788 90.7912 92.9591C90.0039 92.8143 89.2968 92.4572 88.7886 92.05C88.2825 91.6324 87.9046 91.2211 87.6567 90.9243C87.4078 90.6264 87.2808 90.4432 87.2808 90.4432C87.2808 90.4432 87.3932 90.6348 87.6192 90.9534C87.8504 91.2658 88.1805 91.7209 88.6876 92.1718C89.201 92.6113 89.8998 93.032 90.7526 93.2007C91.6201 93.3392 92.5136 93.1236 93.3831 93.0257C93.8194 92.9705 94.3037 92.882 94.6952 92.6331C95.0857 92.3863 95.4013 92.1041 95.7314 91.8428C96.3791 91.3169 96.93 90.7077 97.2267 90.0964C97.4808 89.5955 97.5881 89.1321 97.6485 88.7666L98.4191 89.5059L98.8471 89.055C98.7232 89.658 98.5399 90.2328 98.2723 90.7337C97.9796 91.2898 97.5912 91.7428 97.1955 92.1322C96.7977 92.5186 96.4062 92.8487 96.0583 93.1444C95.7105 93.4402 95.4065 93.6911 95.1222 93.8484C94.84 93.9911 94.5734 94.039 94.413 94.1025C94.2464 94.1566 94.1579 94.1848 94.1579 94.1848C94.1579 94.1848 94.2485 94.1629 94.4193 94.1202C94.588 94.066 94.842 94.0421 95.1545 93.9109C95.4564 93.7713 95.7866 93.5349 96.1531 93.2642C96.5207 92.9945 96.9393 92.6894 97.359 92.3051C97.7776 91.925 98.2108 91.4585 98.5409 90.8847C98.8763 90.313 99.1241 89.6497 99.2522 88.9405C99.274 88.8249 99.2751 88.7031 99.2907 88.5854L99.9061 87.9366L101.244 89.1998C101.21 89.407 101.191 89.6122 101.141 89.8204C100.935 90.6806 100.587 91.5408 100.063 92.303C99.5406 93.0674 98.844 93.7182 98.1088 94.318C97.3621 94.9002 96.6582 95.5875 95.824 95.9498C94.9826 96.2914 94.0288 96.3029 93.1478 96.4716C92.2647 96.6122 91.4077 96.7392 90.5975 96.7059C89.7873 96.683 89.049 96.4237 88.4002 96.1394C87.7535 95.8457 87.1975 95.4969 86.7414 95.1397C86.2759 94.7939 85.9603 94.3951 85.6708 94.09C85.1043 93.4746 84.7815 93.1226 84.7815 93.1226C84.7815 93.1226 85.0919 93.486 85.6355 94.1212C85.9104 94.4326 86.2175 94.8502 86.6778 95.2188C87.1246 95.5979 87.6786 95.9748 88.3367 96.2768C88.9917 96.5747 89.7488 96.8506 90.5892 96.886C91.4233 96.9308 92.2939 96.8111 93.1801 96.6819C94.0558 96.5216 94.9972 96.533 95.9209 96.1769C96.8289 95.7884 97.5267 95.1126 98.2879 94.5347C99.0241 93.9182 99.7333 93.2413 100.266 92.4405C100.801 91.6428 101.147 90.7524 101.347 89.8683C101.385 89.7007 101.395 89.5362 101.423 89.3695L101.478 89.4206L102.845 87.9543C102.848 88.5594 102.85 88.9145 102.85 88.9145C102.85 88.9145 102.888 88.5229 102.953 87.8398L103.896 88.7166C103.873 88.9822 103.853 89.2477 103.812 89.5122C103.606 91.0024 103.09 92.4519 102.308 93.6224C101.521 94.795 100.523 95.6895 99.6521 96.4195C98.768 97.1391 98.0536 97.7733 97.4809 98.1107C96.9112 98.4522 96.5249 98.5272 96.5342 98.547C96.5259 98.5262 96.9133 98.4699 97.5048 98.1513C98.0952 97.8316 98.8513 97.2442 99.752 96.5424C100.639 95.828 101.691 94.9616 102.51 93.7599C103.325 92.5602 103.869 91.0763 104.09 89.5528C104.119 89.3529 104.13 89.1519 104.149 88.9509L104.537 89.3133L105.506 88.2584C105.444 89.9912 105.092 91.6647 104.411 93.1257C103.578 94.9626 102.17 96.3185 100.821 97.4296C99.4459 98.5064 98.2452 99.6789 96.83 99.9924C96.1417 100.175 95.4741 100.245 94.8597 100.331C94.2474 100.427 93.6841 100.514 93.1759 100.593C91.1452 100.934 89.9623 100.853 89.9623 100.853C89.9623 100.853 91.1442 100.95 93.1832 100.639C93.6924 100.568 94.2558 100.489 94.8691 100.403C95.4825 100.327 96.1542 100.265 96.855 100.09C98.3119 99.7893 99.5427 98.6178 100.918 97.5473C102.276 96.4382 103.714 95.0709 104.575 93.2028C105.306 91.6543 105.668 89.8725 105.713 88.0324L106 87.72L106.25 87.9502C106.253 88.1959 106.25 88.4354 106.241 88.6635C106.183 90.5223 105.84 91.7365 105.84 91.7365C105.84 91.7365 105.945 91.4429 106.086 90.9139C106.221 90.3849 106.403 89.6184 106.477 88.6781C106.491 88.5198 106.498 88.3511 106.506 88.1845L107.596 89.1821L108.18 88.5354C108.086 91.1398 107.376 93.7443 106.026 95.7791C104.618 97.8836 102.699 99.379 101.112 100.674C100.313 101.321 99.576 101.898 98.8263 102.241C98.0775 102.584 97.36 102.735 96.7727 102.846C95.5866 103.038 94.9097 103.149 94.9097 103.149C94.9097 103.149 95.5929 103.074 96.7883 102.944C97.3829 102.862 98.1161 102.75 98.9096 102.435C99.7083 102.123 100.504 101.565 101.316 100.935C102.135 100.31 103.028 99.6342 103.923 98.8479C104.814 98.0628 105.717 97.1578 106.448 96.0634C107.93 93.8713 108.697 91.0784 108.779 88.2886C108.781 88.1532 108.766 88.0189 108.766 87.8835L109.041 87.5794L109.353 87.8627C109.357 88.5167 109.337 89.1363 109.288 89.6955C109.118 91.6959 108.699 92.983 108.699 92.983C108.699 92.983 108.813 92.6675 108.972 92.101C109.128 91.5356 109.329 90.716 109.445 89.7121C109.51 89.2019 109.549 88.6437 109.565 88.0533L110.641 89.028L111.433 88.1376C111.426 88.3927 111.424 88.6385 111.407 88.9051C111.277 90.9087 110.821 93.2486 109.752 95.5083C109.22 96.634 108.524 97.7306 107.665 98.7146C106.81 99.7071 105.82 100.612 104.787 101.467C103.757 102.322 102.694 103.183 101.644 103.963C100.593 104.753 99.4219 105.232 98.19 105.45C96.9685 105.671 95.7303 105.801 94.588 106.013C93.4425 106.207 92.3616 106.381 91.3587 106.48C89.3593 106.688 87.6546 106.579 86.5497 106.153C85.423 105.79 84.7794 105.581 84.7794 105.581C84.7794 105.581 85.4116 105.823 86.5164 106.247C87.6109 106.724 89.351 106.972 91.3868 106.809C92.4053 106.739 93.5008 106.596 94.6525 106.436C95.8022 106.257 97.0102 106.178 98.2848 105.95C99.5552 105.744 100.873 105.219 101.961 104.41C103.055 103.612 104.104 102.781 105.162 101.917C106.202 101.039 107.208 100.104 108.081 99.0687C108.964 98.0367 109.673 96.8933 110.212 95.7228C111.296 93.3725 111.652 90.9545 111.735 88.9218C111.749 88.5292 111.742 88.1636 111.735 87.7992L112.076 87.4149L112.778 88.0408C112.761 89.3695 112.64 90.7077 112.371 92.0229C112.078 93.5516 111.601 95.0449 110.927 96.4185C110.266 97.8014 109.387 99.0343 108.398 100.108C107.407 101.184 106.345 102.132 105.309 103.001C104.265 103.859 103.273 104.687 102.328 105.377C101.381 106.07 100.41 106.528 99.4875 106.778C98.569 107.035 97.736 107.155 97.0539 107.259C95.6897 107.483 94.9097 107.611 94.9097 107.611C94.9097 107.611 95.6939 107.518 97.0664 107.357C97.7537 107.284 98.593 107.203 99.5406 106.983C100.489 106.777 101.536 106.339 102.517 105.649C103.503 104.965 104.504 104.171 105.579 103.333C106.644 102.484 107.753 101.555 108.772 100.453C109.798 99.3572 110.726 98.0794 111.418 96.66C112.125 95.2448 112.633 93.7078 112.946 92.1364C113.179 90.9399 113.299 89.7309 113.329 88.5312L113.688 88.852L115.113 87.2285L115.356 87.441C115.372 88.248 115.367 89.0457 115.315 89.8215C115.134 92.3114 114.62 94.6117 113.873 96.4705C113.546 97.289 113.192 98.0117 112.838 98.6605L112.555 98.5449L112.803 98.7271C112.365 99.5227 111.927 100.194 111.536 100.702C111.386 100.899 111.254 101.066 111.128 101.224L110.293 100.661C111.128 99.6644 111.852 98.5949 112.399 97.5004C113.165 96.004 113.646 94.5034 113.945 93.1996C114.251 91.8938 114.349 90.7785 114.406 90.0027C114.459 89.2248 114.459 88.7801 114.459 88.7801C114.459 88.7801 114.441 89.2258 114.359 89.9985C114.281 90.7722 114.112 91.8729 113.798 93.1642C113.483 94.4555 112.987 95.9363 112.211 97.4036C111.651 98.4855 110.918 99.5373 110.075 100.514L109.741 100.289L110.051 100.543C109.753 100.888 109.443 101.223 109.119 101.546C107.886 102.815 106.514 103.948 105.213 104.99C103.91 106.028 102.709 107.032 101.5 107.583C100.296 108.132 99.1897 108.338 98.4274 108.473C97.6579 108.591 97.2184 108.659 97.2184 108.659C97.2184 108.659 97.661 108.609 98.4347 108.52C99.2001 108.405 100.327 108.271 101.564 107.72C102.805 107.174 104.031 106.175 105.345 105.156C106.66 104.131 108.056 103.012 109.319 101.743C109.644 101.41 109.955 101.065 110.254 100.71L111.03 101.347C110.614 101.857 110.358 102.126 110.358 102.126C110.358 102.126 110.628 101.872 111.072 101.383L113.483 103.363C111.581 105.524 109.273 107.345 106.997 109.132ZM98.24 112.735C96.402 112.96 94.388 113.324 92.3657 113.558L92.1803 112.265C93.3165 112.129 94.4234 111.948 95.4866 111.779C96.529 111.613 97.5371 111.451 98.493 111.298C99.2439 111.18 99.9509 111.034 100.624 110.861L100.92 112.316C100.037 112.503 99.1355 112.625 98.24 112.735ZM85.3303 113.349C81.7783 112.39 78.5063 110.568 75.8634 108.004C75.2948 107.452 74.7449 106.88 74.2097 106.295L75.2 105.035C75.7749 105.729 76.509 106.583 77.4598 107.472C78.7177 108.629 80.337 109.861 82.2948 110.777C83.2653 111.24 84.3171 111.642 85.398 111.958C86.4998 112.289 87.6734 112.45 88.8272 112.475C89.8061 112.483 90.7704 112.411 91.719 112.31L91.5264 113.649C89.3812 113.853 87.2506 113.867 85.3303 113.349ZM66.3235 93.7349C65.9413 92.7716 65.5977 91.7886 65.3728 90.7785L66.7713 90.4942C66.9317 91.1003 67.1306 91.6605 67.3201 92.1468C67.6252 92.933 67.9772 93.5474 68.199 93.9786C68.4291 94.4097 68.5718 94.6502 68.5718 94.6502C68.5718 94.6502 68.5 94.3795 68.3552 93.913C68.198 93.4506 68.0105 92.7831 67.7877 91.9896C67.6471 91.497 67.5357 90.9399 67.4451 90.3578L68.3094 90.1818C68.4979 91.093 68.7843 91.9604 69.0998 92.7675C69.5851 94.0056 70.1193 95.147 70.6514 96.1779C70.9419 96.7371 71.2346 97.2547 71.5251 97.7431L68.7686 98.8063C67.8418 97.1724 67.015 95.4823 66.3235 93.7349ZM56.0235 90.3526L53.4534 89.306C53.8013 88.7406 54.1491 88.1074 54.4615 87.3774C54.5208 87.241 54.5708 87.0858 54.6281 86.9432L55.6778 88.2032L57.3283 86.8068L57.4929 87.0015C57.1117 88.1668 56.6181 89.2862 56.0235 90.3526ZM55.4487 91.3366C55.0405 91.9667 54.5844 92.5571 54.1022 93.1267L51.7748 91.5574C51.8945 91.4231 52.0205 91.2815 52.1632 91.1117C52.5297 90.6754 52.9609 90.0995 53.3941 89.407L55.6226 91.0388C55.5622 91.1367 55.5111 91.2398 55.4487 91.3366ZM48.0249 98.6126C46.9856 99.428 45.9317 100.253 44.7259 100.794C44.277 100.995 43.8105 101.145 43.3377 101.275L42.7087 100.062C42.7483 100.051 42.7931 100.042 42.8316 100.031C43.5772 99.8112 44.2291 99.5009 44.7581 99.1697C45.2924 98.8417 45.7214 98.5095 46.0702 98.2346C46.7586 97.6722 47.1293 97.3265 47.1293 97.3265C47.1293 97.3265 46.7117 97.6118 45.9796 98.1107C45.2517 98.6001 44.1562 99.2634 42.714 99.605C42.6442 99.6227 42.565 99.6321 42.4932 99.6487L42.0256 98.7459L42.2203 99.7029C40.8739 99.9768 39.29 100.041 37.6071 100.31C36.6449 100.446 35.6494 100.589 34.6414 100.691L34.5424 100.003L34.4414 100.707C33.5511 100.791 32.6534 100.845 31.7579 100.821C30.7696 100.814 29.798 100.698 28.8712 100.437C27.9236 100.179 27.0239 99.8528 26.1741 99.4655C24.4767 98.7011 22.9928 97.7587 21.8463 96.7923C20.9674 96.0425 20.2322 95.3448 19.6615 94.771L20.9049 93.1892C21.387 93.7182 21.8786 94.2243 22.368 94.694C23.3198 95.6041 24.3163 96.3247 25.2161 96.8642C26.1158 97.4046 26.926 97.742 27.4914 97.968C28.0611 98.1877 28.3932 98.2908 28.3932 98.2908C28.3932 98.2908 28.0652 98.1721 27.5081 97.9284C26.9499 97.6858 26.1731 97.2932 25.2869 96.7475C24.4038 96.2008 23.425 95.4698 22.5013 94.5596C22.0108 94.0733 21.5224 93.5527 21.0444 93.0112L21.4828 92.453L20.9538 92.9018C20.5591 92.4519 20.1697 91.9917 19.7969 91.5126C18.0547 89.3487 16.6614 86.9244 15.8127 85.0219C15.367 84.0784 15.0868 83.2609 14.89 82.6799C14.688 82.105 14.5724 81.776 14.5724 81.776C14.5724 81.776 14.6734 82.1092 14.8494 82.6924C15.0254 83.2714 15.2482 84.1242 15.6887 85.0771C16.5114 87.0004 17.8745 89.4612 19.599 91.6678C19.9791 92.1427 20.38 92.5998 20.7831 93.0476L19.2502 94.3482C19.2325 94.3305 19.2106 94.3076 19.1929 94.2899C18.5879 93.6433 18.2411 93.2746 18.2411 93.2746C18.2411 93.2746 18.5264 93.6943 19.0773 94.3909C19.0929 94.4097 19.1127 94.4336 19.1283 94.4524L18.0349 95.3813C16.5062 93.6287 15.142 91.7355 13.9705 89.7267L16.2688 88.4604C16.9571 89.609 17.6225 90.5442 18.138 91.2398C18.8701 92.2051 19.3252 92.7258 19.3252 92.7258C19.3252 92.7258 18.8867 92.1895 18.189 91.2023C17.6902 90.4952 17.0737 89.5362 16.4208 88.3761L16.6843 88.2313L16.4 88.3407C16.148 87.8919 15.8918 87.4191 15.6325 86.9099C15.1691 85.9862 14.7057 84.9656 14.286 83.8587C14.0142 83.1381 13.7706 82.3727 13.6154 81.575L15.4867 81.1939L15.7127 81.3896C15.7929 81.9114 15.9418 82.5799 16.2104 83.337C16.5312 84.2252 16.9227 85.2603 17.4611 86.3163C17.9912 87.3753 18.6337 88.4656 19.3439 89.5122C20.0697 90.5473 20.8684 91.5293 21.6703 92.3999C22.4753 93.2704 23.2823 94.0233 24.0362 94.6075C24.786 95.1917 25.4796 95.575 25.9627 95.8374C26.4501 96.0936 26.7406 96.2123 26.7406 96.2123C26.7406 96.2123 26.4761 96.0446 26.0138 95.7499C25.5556 95.4521 24.9266 94.9876 24.2226 94.3795C23.5166 93.7786 22.7825 92.9622 22.0087 92.0958C21.236 91.2231 20.4685 90.2432 19.775 89.2133C18.3348 87.1869 17.2164 84.9521 16.4875 83.2318C16.2198 82.5841 16.0116 82.0072 15.8793 81.5334L16.5281 82.0957L17.1925 81.6854C17.2477 81.9114 17.2789 82.0363 17.2789 82.0363C17.2789 82.0363 17.2539 81.9072 17.2081 81.676L18.2234 81.0491L19.3762 82.8861L19.4355 82.8475C19.7042 83.5505 20.0312 84.2752 20.3821 84.9854C21.1569 86.486 22.117 87.8825 22.9272 88.8509C23.7353 89.8236 24.3497 90.3994 24.3497 90.3994C24.3497 90.3994 23.7873 89.7715 23.0386 88.7635C22.2868 87.7596 21.3579 86.3631 20.606 84.8709C20.2436 84.1565 19.9041 83.4286 19.6219 82.7267L20.0426 82.4549C20.5394 83.741 21.1486 84.9604 21.8192 86.0591C22.5794 87.3097 23.4479 88.3698 24.2268 89.2352C24.6173 89.6663 25.0005 90.0454 25.3473 90.3619C25.6941 90.7066 26.0419 90.9107 26.3053 91.1284C26.8479 91.5314 27.1582 91.7626 27.1582 91.7626C27.1582 91.7626 26.8718 91.5033 26.3699 91.0503C26.1294 90.8181 25.7805 90.5713 25.4848 90.2245C25.163 89.8798 24.8214 89.482 24.4497 89.0415C23.7113 88.1584 22.9366 87.0598 22.2097 85.8248C21.5516 84.7095 20.9549 83.4599 20.4873 82.1675L21.1954 81.7093L22.3784 83.5223L23.1948 82.9767C23.4749 83.5734 23.7613 84.1086 24.0331 84.5678C24.5048 85.3614 24.9297 85.9497 25.2275 86.3434C25.5337 86.7307 25.6972 86.9369 25.6972 86.9369C25.6972 86.9369 25.5368 86.7276 25.2369 86.3361C24.9453 85.9383 24.5288 85.3447 24.0695 84.547C23.804 84.0826 23.5249 83.5411 23.2531 82.9381L24.1789 82.3196L24.8391 83.3037C24.9682 83.5348 25.0922 83.7473 25.1973 83.9212C25.4827 84.3846 25.6618 84.6376 25.6618 84.6376C25.6618 84.6376 25.4733 84.3512 25.1973 83.8389L25.3827 84.1149L26.0242 83.6723C26.2626 84.0982 26.5251 84.5272 26.8323 84.95C27.2082 85.4738 27.632 85.9862 28.0996 86.4819C28.5484 86.9682 29.0857 87.4566 29.6658 87.8346C30.2541 88.2126 30.8904 88.5125 31.5413 88.727C32.1754 88.954 32.9002 89.0519 33.5407 89.0321C34.8497 88.9988 36.0004 88.6822 37.0021 88.5521C37.5072 88.4802 37.9748 88.3792 38.3705 88.2282C38.7693 88.0803 39.0807 87.8814 39.3223 87.7065C39.8002 87.3483 40.0429 87.1119 40.0429 87.1119C40.0429 87.1119 39.769 87.3149 39.2681 87.6253C39.0172 87.7773 38.6995 87.9429 38.3111 88.0501C37.9227 88.1616 37.4687 88.2199 36.9657 88.2719C35.9493 88.3625 34.7736 88.5844 33.5365 88.5958C32.9086 88.5968 32.315 88.5125 31.6923 88.2824C31.081 88.0699 30.4874 87.7773 29.9418 87.4128C29.3825 87.0556 28.9004 86.6381 28.436 86.1538C27.9809 85.6863 27.5581 85.1927 27.1853 84.6907C26.876 84.2773 26.598 83.8629 26.3418 83.4526L27.1624 82.8871L28.3891 84.6647L28.4318 84.6345C28.5526 84.7751 28.6963 84.9438 28.8817 85.1593C29.1274 85.4384 29.4023 85.8123 29.8147 86.1434C30.2156 86.4829 30.7113 86.8203 31.3018 87.0921C31.8891 87.3576 32.567 87.6055 33.3199 87.6367C34.0676 87.6773 34.8486 87.5701 35.6421 87.4545C36.4273 87.3108 37.2718 87.3212 38.0987 87.0015C38.786 86.7078 39.34 86.2319 39.9065 85.7789L40.4761 86.5308L42.1881 85.2104L42.791 85.9914C42.3401 86.4558 41.8746 86.863 41.4456 87.2223C40.649 87.8616 40.0106 88.4334 39.4972 88.7353C38.9859 89.0405 38.6402 89.1082 38.6485 89.1259C38.6412 89.1071 38.989 89.0561 39.5191 88.7718C40.047 88.4833 40.7271 87.9616 41.531 87.3274C41.9631 86.9775 42.4328 86.5797 42.8931 86.1226L43.5096 86.9213L44.5092 86.1351C43.8876 86.8932 43.1857 87.5524 42.4911 88.1251C41.2581 89.0894 40.1824 90.1401 38.914 90.4213C38.2965 90.5848 37.6988 90.6483 37.1479 90.7254C36.5991 90.8108 36.0951 90.8889 35.639 90.9597C33.8187 91.2648 32.7586 91.1929 32.7586 91.1929C32.7586 91.1929 33.8177 91.2804 35.6452 91.0013C36.1014 90.9378 36.6064 90.866 37.1563 90.7889C37.7061 90.7212 38.308 90.666 38.937 90.5098C40.2418 90.2391 41.3456 89.1894 42.5775 88.2292C43.4221 87.5409 44.2895 86.7287 45.006 85.7446L45.209 85.5842L46.5461 87.2827L46.8502 87.039C45.6235 88.7114 44.0677 89.9589 42.7514 91.0326C42.036 91.6126 41.3748 92.1291 40.7031 92.4363C40.0314 92.7446 39.3889 92.8799 38.862 92.9789C37.7998 93.1517 37.1927 93.2507 37.1927 93.2507C37.1927 93.2507 37.805 93.183 38.8766 93.0663C39.4097 92.9934 40.0668 92.8924 40.7781 92.6102C41.4935 92.3311 42.2058 91.8303 42.9337 91.2658C44.3791 90.1391 46.1952 88.8634 47.5333 86.9005C47.7072 86.6433 47.8686 86.3756 48.0207 86.1018L48.2342 85.9299L49.5869 87.6159L50.0138 87.267C49.6161 87.9668 49.1703 88.651 48.6247 89.2758C47.8593 90.1662 46.971 90.9763 46.0442 91.7438C45.1216 92.5092 44.1687 93.2819 43.2284 93.9796C42.287 94.6888 41.2363 95.1178 40.1324 95.3125C39.038 95.5114 37.9279 95.627 36.9042 95.8176C35.8775 95.9915 34.909 96.1477 34.0103 96.2362C32.2182 96.4226 30.6905 96.3237 29.7002 95.9436C28.6911 95.6166 28.1142 95.4302 28.1142 95.4302C28.1142 95.4302 28.6796 95.6468 29.671 96.0269C30.6509 96.4539 32.2109 96.6757 34.0353 96.5309C34.9486 96.4684 35.9306 96.3393 36.9615 96.1966C37.9925 96.0363 39.0755 95.9644 40.2178 95.7614C41.356 95.576 42.5369 95.1064 43.5116 94.3805C44.4936 93.6651 45.4329 92.9205 46.3816 92.1458C47.3126 91.3596 48.2144 90.5213 48.9975 89.5934C49.7889 88.6687 50.4241 87.644 50.9073 86.5943C50.9209 86.5662 50.9302 86.5381 50.9427 86.51L51.2624 86.2496L51.7269 86.8172C51.6665 86.9505 51.6123 87.0869 51.5478 87.2181C50.9552 88.4573 50.1669 89.5632 49.2818 90.5254C48.3935 91.4887 47.4407 92.3395 46.5128 93.1184C45.5777 93.8869 44.6884 94.6284 43.8417 95.248C42.992 95.8676 42.1225 96.2789 41.2956 96.5028C40.4719 96.734 39.7263 96.8412 39.115 96.9339C37.8914 97.1349 37.1927 97.2495 37.1927 97.2495C37.1927 97.2495 37.8956 97.1662 39.1254 97.0214C39.7419 96.9558 40.4938 96.8829 41.3435 96.6861C42.1933 96.5018 43.1315 96.1092 44.0104 95.4906C44.8945 94.8773 45.7912 94.1671 46.7554 93.4152C47.7093 92.655 48.7038 91.8219 49.6171 90.8347C50.5366 89.8527 51.3676 88.7072 51.9883 87.4347C52.0195 87.3722 52.0445 87.3066 52.0757 87.2431L52.6308 87.9231L52.888 87.7086C52.8234 87.8398 52.7682 87.97 52.6995 88.1012C52.1965 89.0707 51.5405 90.0131 50.7844 90.8889L50.4856 90.6868L50.7636 90.9159C50.496 91.2242 50.2179 91.5241 49.9274 91.8136C48.8225 92.9518 47.5917 93.9671 46.4274 94.9002C45.2601 95.8311 44.1833 96.7298 43.1003 97.2245C42.0194 97.716 41.029 97.9013 40.3449 98.0221C39.6555 98.1284 39.2619 98.1888 39.2619 98.1888C39.2619 98.1888 39.6586 98.1429 40.3522 98.0638C41.0374 97.9607 42.0475 97.841 43.1565 97.3474C44.2687 96.8579 45.3673 95.9623 46.5451 95.0501C47.7239 94.1296 48.9746 93.1278 50.1076 91.9896C50.3981 91.6917 50.6772 91.3825 50.9448 91.0649L51.6394 91.6355C51.2676 92.0937 51.0385 92.3332 51.0385 92.3332C51.0385 92.3332 51.2801 92.1062 51.6779 91.6668L53.8398 93.4433C52.134 95.3792 50.0659 97.012 48.0249 98.6126ZM40.1772 101.842C38.5298 102.044 36.7251 102.37 34.9132 102.58L34.7465 101.42C35.765 101.298 36.7564 101.137 37.7092 100.985C38.6443 100.836 39.5472 100.691 40.4042 100.555C41.0769 100.448 41.7111 100.317 42.3141 100.162L42.5796 101.466C41.7882 101.635 40.9801 101.743 40.1772 101.842ZM28.6067 102.392C25.4244 101.533 22.4919 99.8997 20.1228 97.6014C19.6126 97.1068 19.121 96.5934 18.6399 96.0696L19.5282 94.9397C20.0437 95.5625 20.7018 96.3279 21.5536 97.1245C22.6814 98.1627 24.132 99.2666 25.8867 100.086C26.7563 100.502 27.6987 100.862 28.6682 101.145C29.6554 101.442 30.7072 101.587 31.7412 101.609C32.6191 101.616 33.4823 101.551 34.3331 101.46L34.1603 102.661C32.2379 102.844 30.3281 102.857 28.6067 102.392ZM11.5723 84.8136C11.2307 83.9503 10.9214 83.0683 10.7204 82.1644L11.9742 81.9093C12.1169 82.4518 12.296 82.9538 12.4657 83.3901C12.7396 84.0951 13.0552 84.6449 13.253 85.0323C13.4665 85.4145 13.5873 85.6342 13.5873 85.6342C13.5873 85.6342 13.5175 85.3936 13.3936 84.9729C13.253 84.5585 13.0854 83.9607 12.8844 83.2495C12.7594 82.808 12.6594 82.3081 12.5772 81.7864L13.3519 81.6281C13.5206 82.4456 13.7779 83.2235 14.0611 83.9462C14.4964 85.0562 14.9754 86.0778 15.4523 87.0025C15.7116 87.5034 15.9741 87.9668 16.2344 88.4052L13.7643 89.3581C12.9333 87.8939 12.1919 86.3788 11.5723 84.8136ZM11.6962 80.0505C11.7077 80.3295 11.7274 80.6065 11.7649 80.8783C11.7795 80.9971 11.8055 81.1095 11.8253 81.2251L10.5601 81.2699C10.4945 80.7742 10.4684 80.2785 10.4726 79.7818L11.6962 80.0505ZM178.222 66.7503C178.222 66.7503 178.359 67.1804 178.514 67.8343C178.584 68.1624 178.684 68.5425 178.756 68.9548C178.831 69.3662 178.911 69.8056 178.99 70.2461C179.116 71.1302 179.235 72.0154 179.283 72.686C179.338 73.3556 179.341 73.8065 179.341 73.8065C179.341 73.8065 179.203 73.3764 179.048 72.7235C178.887 72.0706 178.726 71.1917 178.573 70.3117C178.513 69.8691 178.452 69.4266 178.395 69.0121C178.338 68.5966 178.315 68.2051 178.281 67.8718C178.225 67.2022 178.222 66.7503 178.222 66.7503ZM176.063 72.2382C176.531 72.2382 176.913 72.6194 176.913 73.0869C176.913 73.5555 176.531 73.9367 176.063 73.9367C175.596 73.9367 175.215 73.5555 175.215 73.0869C175.215 72.6194 175.596 72.2382 176.063 72.2382ZM175.344 67.0012C175.811 67.0012 176.193 67.3824 176.193 67.85C176.193 68.3175 175.811 68.6987 175.344 68.6987C174.876 68.6987 174.495 68.3175 174.495 67.85C174.495 67.3824 174.876 67.0012 175.344 67.0012ZM177.946 74.2751L176.484 66.1734H176.914L178.376 74.2751H177.946ZM179.372 52.6368C179.456 53.5334 179.547 54.4904 179.636 55.4474C179.784 57.3646 179.925 59.2817 179.988 60.7229C180.059 62.1631 180.072 63.1274 180.072 63.1274C180.072 63.1274 179.924 62.1746 179.752 60.7427C179.573 59.3109 179.392 57.3968 179.217 55.4828C179.145 54.5248 179.074 53.5657 179.007 52.667C178.955 51.7673 178.906 50.9279 178.865 50.2073C178.795 48.7671 178.781 47.8039 178.781 47.8039C178.781 47.8039 178.929 48.7557 179.101 50.1876C179.18 50.905 179.273 51.7412 179.372 52.6368ZM175.946 46.4001L176.549 46.3179C176.315 46.7334 176.129 47.4134 176.303 48.4901C176.627 50.5 178.499 63.2909 178.797 65.3278H180.749L180.808 65.7516H177.257L177.229 65.56L177.194 65.3278L174.669 48.0944C174.612 47.6966 174.712 47.3009 174.954 46.9802C175.195 46.6605 175.548 46.4532 175.946 46.4001ZM174.498 75.1217L174.472 74.9395L173.23 66.1734H173.657L174.865 74.6979H177.615L177.66 75.1217H174.498ZM154.485 82.7507L154.519 82.7757C154.451 82.8444 154.385 82.9163 154.316 82.9829L154.485 82.7507ZM151.471 83.2276L151.741 83.4244C151.365 83.7337 151.027 84.0128 150.725 84.2419L151.471 83.2276ZM148.449 83.6837L148.826 83.9628C148.615 84.0128 148.391 84.0534 148.15 84.0857L148.449 83.6837ZM145.426 84.1169L145.756 84.3648C145.571 84.3856 145.385 84.4064 145.196 84.4221L145.426 84.1169ZM90.7662 88.0876L92.3032 89.608L93.8121 88.0595L94.5702 88.7978C94.5265 88.8759 94.4922 88.953 94.4338 89.0311C94.2266 89.3081 93.9173 89.5653 93.5758 89.8121C93.3862 89.9142 93.2217 90.0808 92.9999 90.1193C92.7823 90.1693 92.5375 90.1776 92.2939 90.2151C91.8044 90.2891 91.2942 90.3151 90.8328 90.0506C90.4142 89.8423 90.081 89.4758 89.7873 89.0759L90.7662 88.0876ZM68.4208 88.6729C68.4198 88.6406 68.4219 88.6083 68.4208 88.576L69.4809 87.6159L70.8597 89.1415C70.8638 89.2685 70.8722 89.4122 70.894 89.5809L68.5166 89.6642C68.4677 89.3383 68.4323 89.0092 68.4208 88.6729ZM67.3055 89.255C67.2889 88.9853 67.3014 88.6958 67.3024 88.4146L67.8814 89.0644L68.1209 88.8478C68.1396 89.1269 68.1678 89.4039 68.2105 89.6757L67.3628 89.7049C67.3461 89.5528 67.317 89.4122 67.3055 89.255ZM29.9792 83.54C30.3645 83.9285 30.6468 84.1388 30.6468 84.1388C30.6468 84.1388 30.4218 83.8774 30.1053 83.4505L30.1532 83.4161L31.4017 85.1791L32.8326 84.143C33.0304 84.22 33.2366 84.2877 33.4574 84.3315L34.4227 85.6623L36.1597 84.3752L36.7324 85.1479C36.596 85.1916 36.5189 85.2166 36.5189 85.2166C36.5189 85.2166 36.5981 85.1968 36.7418 85.1614L37.4468 86.1111L39.1702 84.8074L39.7565 85.5811C39.1963 86.0403 38.6454 86.5235 38.0122 86.7984C37.2583 87.1035 36.4023 87.115 35.614 87.266C34.8215 87.392 34.0541 87.5055 33.3272 87.4753C32.6014 87.4555 31.9401 87.2233 31.358 86.9682C30.779 86.7047 30.2812 86.3923 29.872 86.0726C29.4544 85.7623 29.1722 85.4041 28.9129 85.1312C28.7213 84.923 28.5713 84.7605 28.4464 84.6241L29.9792 83.54ZM13.4675 80.4399L15.0066 80.7784L15.3784 81.1001L13.5383 81.1647C13.5029 80.9273 13.4821 80.6846 13.4675 80.4399ZM33.1533 83.9118L33.2574 84.0555C33.1824 84.0368 33.1064 84.0211 33.0325 83.9993L33.1533 83.9118ZM5.70945 74.6979H8.45966L9.66764 66.1734H10.0946L8.82622 75.1217H5.66361L5.70945 74.6979ZM6.41028 66.1734H6.84035L5.37933 74.2699L4.9503 74.2637L6.41028 66.1734ZM5.10234 66.7503C5.10234 66.7503 5.09921 67.2022 5.04401 67.8718C5.00965 68.2051 4.98675 68.5966 4.92948 69.0121C4.87221 69.4266 4.81179 69.8691 4.75139 70.3117C4.59727 71.1917 4.43796 72.0706 4.27655 72.7235C4.12139 73.3764 3.98392 73.8065 3.98392 73.8065C3.98392 73.8065 3.98705 73.3556 4.0412 72.686C4.0891 72.0154 4.20884 71.1302 4.33485 70.2461C4.41399 69.8056 4.49313 69.3662 4.56707 68.9548C4.641 68.5425 4.74098 68.1624 4.81075 67.8343C4.96591 67.1804 5.10234 66.7503 5.10234 66.7503ZM8.10975 73.0869C8.10975 73.5555 7.72863 73.9367 7.26106 73.9367C6.79245 73.9367 6.41132 73.5555 6.41132 73.0869C6.41132 72.6194 6.79245 72.2382 7.26106 72.2382C7.72863 72.2382 8.10975 72.6194 8.10975 73.0869ZM7.98063 68.6987C7.51306 68.6987 7.13193 68.3175 7.13193 67.85C7.13193 67.3824 7.51306 67.0012 7.98063 67.0012C8.44819 67.0012 8.8283 67.3824 8.8283 67.85C8.8283 68.3175 8.44819 68.6987 7.98063 68.6987ZM4.22344 50.1876C4.39526 48.7557 4.54312 47.8039 4.54312 47.8039C4.54312 47.8039 4.5296 48.7671 4.45983 50.2073C4.41817 50.9279 4.36922 51.7673 4.31715 52.667C4.2505 53.5657 4.17969 54.5248 4.10784 55.4828C3.93289 57.3968 3.75171 59.3109 3.57259 60.7427C3.40077 62.1746 3.25289 63.1274 3.25289 63.1274C3.25289 63.1274 3.26539 62.1631 3.3362 60.7229C3.39868 59.2817 3.5403 57.3646 3.68713 55.4474C3.77772 54.4904 3.86729 53.5334 3.95268 52.6368C4.05161 51.7412 4.1443 50.905 4.22344 50.1876ZM2.57184 65.3278H4.52646C4.82533 63.2909 6.69768 50.5 7.02154 48.4901C7.19545 47.4134 7.00906 46.7334 6.7758 46.3179L7.37872 46.4001C7.77652 46.4532 8.12954 46.6605 8.37009 46.9802C8.61169 47.3009 8.7127 47.6966 8.65438 48.0934L6.1291 65.3278L6.09579 65.56L6.06767 65.7516H2.51039L2.57184 65.3278ZM12.4533 80.7981C12.4408 80.6117 12.4533 80.4097 12.4501 80.216L13.177 80.3764C13.1937 80.6471 13.2228 80.9127 13.2634 81.1751L12.5032 81.2012C12.4887 81.0647 12.4626 80.9387 12.4533 80.7981ZM53.2295 89.2873C52.8369 90.0006 52.4444 90.6025 52.0945 91.0576C51.9601 91.2346 51.8414 91.3846 51.7279 91.5251L50.9802 91.0211C51.7279 90.1276 52.3767 89.1685 52.8671 88.1876C52.9963 87.9366 53.1077 87.6846 53.2191 87.4337L54.2938 86.5412L54.3979 86.6662C54.3271 86.8651 54.2646 87.0765 54.1886 87.265C53.895 87.9991 53.5784 88.6458 53.2608 89.2279L53.0077 89.1248L53.2295 89.2873ZM65.1937 89.7809C65.1426 89.4018 65.1187 89.0207 65.1062 88.6395L66.4433 87.4503L66.4641 87.4743C66.4391 88.1074 66.4547 88.7364 66.538 89.3445C66.5547 89.4768 66.5828 89.6028 66.6057 89.7319L65.1937 89.7809ZM163.928 85.1604C163.535 85.8737 163.142 86.4756 162.792 86.9307C162.658 87.1077 162.539 87.2577 162.426 87.3993L161.678 86.8942C162.426 86.0008 163.075 85.0417 163.566 84.0617C163.949 83.3109 164.247 82.5622 164.488 81.8395L165.176 82.3102C165.082 82.5903 164.992 82.8767 164.887 83.1381C164.594 83.8722 164.276 84.5199 163.959 85.101L163.706 84.9979L163.928 85.1604ZM183.31 74.0231L181.972 64.9321L180.756 47.4342C180.703 46.6761 180.335 45.9659 179.745 45.4858C179.155 45.0068 178.393 44.7923 177.632 44.8912L175.775 45.1432C175.039 45.2432 174.388 45.6243 173.941 46.2179C173.493 46.8115 173.308 47.5425 173.414 48.2777L175.85 64.905H170.983H168.878H167.204H165.695H164.983H164.122H163.529H161.061H160.638H156.569H156.399H155.571H155.106H152.837H152.591H151.849H151.455H142.323H142.281H139.516H139.187H138.496H137.933H134.204H133.98H131.815H131.172H129.871H129.686H127.2H126.803H123.816H121.638H110.346H105.641H103.207H101.254H87.1392H86.9861H84.8242H84.4077H83.3236H82.956H79.5966H76.3893H56.1276H53.0702H51.4155H50.4262H49.4963H49.0068H47.903H47.7593H46.1358H46.0213H44.2479H44.0635H29.6887H29.1461H26.1356H25.2234H23.7426H23.3573H20.2842H19.876H16.6072H16.1646H15.4701H14.7921H12.0586H7.47454L9.91026 48.2777C10.0165 47.5425 9.83007 46.8115 9.38333 46.2179C8.93659 45.6243 8.28575 45.2432 7.54952 45.1432L5.69277 44.8912C4.93883 44.7923 4.17031 45.0058 3.57882 45.4858C2.98941 45.9659 2.62182 46.6761 2.56871 47.4353L1.35763 64.8842L0.0142692 74.0231C-0.0419639 74.4042 0.0694823 74.7916 0.322531 75.0832C0.574539 75.3769 0.941085 75.5435 1.32743 75.5435H4.34318L4.30154 75.935C4.15263 77.3211 5.06693 78.5926 6.42902 78.8925L9.34585 79.5339C8.85642 80.2587 8.43051 80.9752 8.78145 81.701C8.9439 82.0394 9.26568 82.306 9.3292 82.6768C9.43646 83.3068 8.74812 83.9357 9.00741 84.5189C9.11988 84.773 9.38439 84.925 9.53747 85.1562C9.8655 85.6509 9.60722 86.3402 9.82694 86.8911C10.1748 87.7679 11.491 87.8596 11.9451 88.6864C12.2377 89.2175 12.0773 89.8683 12.0169 90.4723C11.9565 91.0753 12.0992 91.8198 12.6698 92.025C12.9531 92.126 13.2863 92.0656 13.5467 92.2156C14.4839 92.7571 13.1249 94.7637 14.1434 95.1272C15.2493 95.5208 14.8702 95.8697 15.5836 96.6215C16.1021 97.1703 16.9748 96.8506 17.5288 97.289C18.2057 97.8243 17.9474 98.9573 19.0981 99.1156C19.4084 99.1583 19.7812 99.1031 19.9812 99.3436C20.152 99.5488 20.0926 99.8549 20.1666 100.112C20.3009 100.569 20.8341 100.781 21.3089 100.816C21.7848 100.853 22.2805 100.782 22.7252 100.951C23.3229 101.18 23.678 101.776 24.0518 102.296C25.1474 103.82 27.3217 102.984 28.9473 103.776C29.5075 104.048 30.0438 104.404 30.6582 104.516C31.735 104.713 32.2213 103.357 33.1512 103.935C33.4928 104.147 33.7614 104.467 34.1165 104.655C35.2506 105.256 37.0115 103.903 38.1362 103.628C39.2265 103.362 39.9054 103.969 40.9499 103.895C42.1391 103.81 42.9701 102.196 44.125 102.493C44.3812 102.559 44.6134 102.72 44.8768 102.733C45.0424 102.742 45.2049 102.691 45.3559 102.623C46.2348 102.233 46.1306 101.475 46.6773 100.95C47.3761 100.281 47.677 100.621 48.5997 100.679C50.7688 100.812 50.3773 99.7206 51.3322 98.2252C51.6592 97.7129 52.4818 97.5535 52.5808 96.9527C52.611 96.7715 52.5631 96.5736 52.6391 96.406C52.8484 95.9488 53.5201 96.2393 54.0085 96.3539C55.0457 96.5986 56.0089 95.6333 56.339 94.6211C56.6691 93.6089 56.6098 92.503 56.9211 91.4845C56.9711 91.321 57.0378 91.1502 57.1742 91.0451C57.4273 90.8493 57.7928 90.9607 58.1062 90.9024C58.7925 90.7733 59.0382 89.9027 58.9778 89.206C58.9486 88.8707 58.9205 88.5791 58.9122 88.2959L60.3649 87.0473L61.7759 88.6843L63.4036 87.2608L63.8712 87.795C63.313 88.6208 62.81 89.4362 63.2088 90.262C63.3911 90.64 63.7493 90.9378 63.8201 91.3512C63.9399 92.0541 63.1724 92.756 63.4608 93.4069C63.5868 93.6901 63.8816 93.8599 64.0523 94.1181C64.4189 94.67 64.1315 95.4385 64.3752 96.054C64.7636 97.0318 66.2319 97.1339 66.739 98.0565C67.065 98.649 66.8859 99.3759 66.8192 100.049C66.7526 100.722 66.9108 101.553 67.5482 101.781C67.8637 101.895 68.2355 101.826 68.526 101.995C69.5715 102.599 68.0553 104.838 69.1925 105.243C70.4254 105.682 70.0026 106.071 70.7982 106.911C71.3783 107.522 72.3509 107.166 72.9694 107.656C73.7244 108.252 73.436 109.517 74.72 109.693C75.0667 109.74 75.4822 109.679 75.7061 109.948C75.8967 110.177 75.829 110.518 75.9134 110.805C76.0623 111.315 76.6569 111.55 77.1869 111.591C77.717 111.632 78.271 111.551 78.7677 111.742C79.4342 111.996 79.8309 112.663 80.2475 113.242C81.47 114.943 83.8953 114.009 85.7094 114.893C86.3352 115.197 86.933 115.594 87.6182 115.719C88.8199 115.939 89.3635 114.426 90.4007 115.071C90.7818 115.308 91.0807 115.664 91.4774 115.874C92.7437 116.545 94.7077 115.035 95.9625 114.729C97.1788 114.432 97.9359 115.11 99.1022 115.026C100.429 114.932 101.357 113.13 102.644 113.461C102.93 113.535 103.19 113.714 103.483 113.729C103.668 113.738 103.85 113.682 104.018 113.607C104.998 113.173 104.882 112.325 105.492 111.741C106.272 110.993 106.607 111.373 107.638 111.437C110.058 111.586 109.62 110.368 110.686 108.7C111.052 108.127 111.968 107.949 112.079 107.281C112.113 107.077 112.06 106.857 112.145 106.67C112.377 106.16 113.127 106.483 113.673 106.612C114.829 106.884 115.904 105.807 116.272 104.678C116.641 103.549 116.574 102.316 116.922 101.18C116.978 100.996 117.052 100.806 117.204 100.688C117.486 100.47 117.895 100.594 118.244 100.529C119.011 100.385 119.284 99.4134 119.217 98.6365C119.136 97.7056 119.024 97.0547 119.375 96.1956C119.601 95.6437 120.314 95.6791 120.181 94.7773C120.093 94.1775 119.757 93.6287 119.718 93.0247C119.643 91.9032 120.656 91.0919 120.688 90.036C120.712 89.231 120.107 89.0332 120.029 88.4375C120.017 88.3355 120.015 88.2438 120.018 88.1574L121.186 86.7849L122.833 88.1855L123.182 87.769C123.244 87.8137 123.293 87.871 123.368 87.8981C123.651 88.0002 123.984 87.9387 124.245 88.0897C125.182 88.6312 123.823 90.6379 124.842 91.0013C125.947 91.3939 125.568 91.7428 126.282 92.4957C126.801 93.0434 127.674 92.7248 128.228 93.1632C128.904 93.6974 128.645 94.8314 129.796 94.9887C130.106 95.0314 130.479 94.9762 130.68 95.2167C130.851 95.4219 130.791 95.7291 130.866 95.9853C130.999 96.4424 131.532 96.6538 132.008 96.6902C132.483 96.7257 132.979 96.6548 133.423 96.8246C134.021 97.0537 134.377 97.6504 134.75 98.17C135.846 99.6935 138.02 98.8573 139.645 99.6487C140.207 99.9226 140.743 100.278 141.356 100.389C142.433 100.586 142.92 99.2301 143.85 99.8091C144.191 100.022 144.459 100.34 144.816 100.529C145.95 101.13 147.711 99.7758 148.834 99.5019C149.924 99.2353 150.603 99.8435 151.649 99.7685C152.837 99.6841 153.669 98.07 154.823 98.3668C155.079 98.4324 155.311 98.5928 155.575 98.6063C155.74 98.6147 155.903 98.5636 156.055 98.497C156.933 98.1075 156.829 97.3484 157.375 96.8246C158.074 96.154 158.375 96.4955 159.299 96.5518C161.468 96.6861 161.075 95.5947 162.03 94.0983C162.358 93.586 163.18 93.4266 163.279 92.8268C163.309 92.6446 163.261 92.4478 163.338 92.2801C163.546 91.823 164.218 92.1125 164.708 92.228C165.744 92.4717 166.708 91.5064 167.037 90.4942C167.367 89.482 167.308 88.3771 167.619 87.3587C167.67 87.1941 167.736 87.0234 167.872 86.9182C168.125 86.7235 168.491 86.8349 168.805 86.7755C169.492 86.6464 169.736 85.7758 169.676 85.0802C169.603 84.245 169.503 83.6619 169.818 82.8913C170.021 82.3977 170.659 82.4289 170.54 81.6208C170.477 81.1907 170.278 80.7888 170.18 80.3691L176.896 78.8925C178.258 78.5926 179.172 77.3211 179.023 75.9361L178.981 75.5435H181.996C182.383 75.5435 182.75 75.3769 183.002 75.0832C183.254 74.7916 183.367 74.4042 183.31 74.0231Z" fill="#4E7457"/>
<path d="M63.9828 70.8437V79.1261C63.9828 80.8261 63.4947 82.1521 62.5186 83.1041C61.5426 84.0425 60.1598 84.5117 58.3703 84.5117C57.0553 84.5117 55.9979 84.2805 55.1981 83.8181C54.3983 83.3421 53.8492 82.6893 53.551 81.8597C53.2527 81.0165 53.1917 80.0577 53.368 78.9833L56.7842 78.3713C56.6215 79.6089 56.6758 80.4861 56.9469 81.0029C57.2316 81.5061 57.7467 81.7577 58.4923 81.7577C59.2244 81.7577 59.7395 81.5129 60.0378 81.0233C60.336 80.5337 60.4852 79.7789 60.4852 78.7589V70.8437H63.9828Z" fill="#E9E4D0"/>
<path d="M79.4321 84.3077H75.8329L74.8975 81.2681H70.3018L69.3461 84.3077H65.8281L70.5458 70.8437H74.7348L79.4321 84.3077ZM70.9525 78.8813H74.2468L72.5996 73.4345L70.9525 78.8813Z" fill="#E9E4D0"/>
<path d="M83.4604 84.3077L79.5967 70.8437H83.318L85.5955 81.4721L87.995 70.8437H91.1673L93.6278 81.4517L95.8646 70.8437H99.4639L95.5799 84.3077H91.7773L90.1912 77.7797L89.5811 74.4953H89.5405L88.9508 77.7797L87.385 84.3077H83.4604Z" fill="#E9E4D0"/>
<path d="M107.891 70.6397C109.247 70.6397 110.413 70.9185 111.389 71.4761C112.378 72.0201 113.137 72.8089 113.666 73.8425C114.195 74.8761 114.459 76.1205 114.459 77.5757C114.459 79.0309 114.195 80.2753 113.666 81.3089C113.137 82.3425 112.378 83.1381 111.389 83.6957C110.413 84.2397 109.247 84.5117 107.891 84.5117C106.535 84.5117 105.363 84.2397 104.373 83.6957C103.384 83.1381 102.624 82.3425 102.096 81.3089C101.567 80.2753 101.303 79.0309 101.303 77.5757C101.303 76.1205 101.567 74.8761 102.096 73.8425C102.624 72.8089 103.384 72.0201 104.373 71.4761C105.363 70.9185 106.535 70.6397 107.891 70.6397ZM107.891 73.3937C107.24 73.3937 106.691 73.5501 106.244 73.8629C105.797 74.1757 105.458 74.6449 105.227 75.2705C104.997 75.8825 104.882 76.6509 104.882 77.5757C104.882 78.4869 104.997 79.2553 105.227 79.8809C105.458 80.5065 105.797 80.9757 106.244 81.2885C106.691 81.6013 107.24 81.7577 107.891 81.7577C108.542 81.7577 109.084 81.6013 109.518 81.2885C109.965 80.9757 110.304 80.5065 110.535 79.8809C110.765 79.2553 110.88 78.4869 110.88 77.5757C110.88 76.6509 110.765 75.8825 110.535 75.2705C110.304 74.6449 109.965 74.1757 109.518 73.8629C109.084 73.5501 108.542 73.3937 107.891 73.3937Z" fill="#E9E4D0"/>
<path d="M124.287 70.8437C125.887 70.8437 127.127 71.2245 128.008 71.9861C128.903 72.7341 129.351 73.7337 129.351 74.9849C129.351 76.3585 128.91 77.4057 128.029 78.1265C127.148 78.8473 125.907 79.2077 124.307 79.2077L123.982 79.3913H121.318V84.3077H117.882V70.8437H124.287ZM123.799 76.9025C124.477 76.9025 124.985 76.7665 125.324 76.4945C125.663 76.2225 125.833 75.7873 125.833 75.1889C125.833 74.6041 125.663 74.1757 125.324 73.9037C124.985 73.6317 124.477 73.4957 123.799 73.4957H121.318V76.9025H123.799ZM125.853 77.6369L130.144 84.3077H126.28L122.843 78.4121L125.853 77.6369Z" fill="#E9E4D0"/>
</svg>
