<svg width="118" height="155" viewBox="0 0 118 155" fill="none" xmlns="http://www.w3.org/2000/svg">
<path d="M62.1152 78.2811C61.4538 77.7614 60.7629 77.2259 60.0253 76.6656C59.6039 76.3455 59.1992 76.0332 58.7981 75.7221C58.3973 76.0332 57.9926 76.3455 57.5712 76.6668C57.1766 76.9655 56.7961 77.2586 56.4231 77.5461C55.7247 78.0861 55.0698 78.6035 54.4454 79.1041C53.2824 80.0352 52.2406 80.901 51.3145 81.7003H66.282C65.3731 80.9157 64.3523 80.0668 63.2144 79.1537C62.86 78.8696 62.494 78.5787 62.1152 78.2811Z" fill="#4E7457"/>
<path d="M14.4206 54.2046C14.3987 54.4819 14.3705 54.7581 14.3335 55.0321C14.2978 55.0332 14.2635 55.0433 14.2278 55.0433C14.2921 54.7638 14.3564 54.4842 14.4206 54.2046ZM22.8704 41.4465C22.8713 41.4465 22.8722 41.4477 22.8731 41.4477C22.6238 41.5942 22.3332 41.6461 22.0394 41.6404C22.3244 41.6179 22.6066 41.5559 22.8704 41.4465ZM26.6924 37.2923C26.6871 37.3498 26.6839 37.4084 26.6919 37.4716C26.7628 37.741 27.0327 37.8954 27.241 37.785C27.2318 37.9484 27.2226 38.1107 27.2129 38.2742C27.0248 38.3734 26.8183 38.4343 26.6065 38.467C26.4193 38.2573 26.2458 38.0431 26.0842 37.8244C26.326 37.6925 26.5333 37.5099 26.6924 37.2923ZM29.1152 38.0826C29.3195 38.6823 28.6568 39.1828 28.1372 39.1716C27.7276 39.1637 27.2621 39.069 26.9107 39.2629C26.8953 39.2268 26.8715 39.1964 26.8319 39.1772C27.1138 39.0137 27.3423 38.777 27.5114 38.5064C28.0632 38.618 28.648 38.4692 29.1152 38.0826ZM27.2379 41.5243C27.2344 41.4826 27.2362 41.4409 27.2371 41.3992C27.2709 41.4082 27.3036 41.4228 27.3379 41.4274C27.3049 41.4589 27.2714 41.4916 27.2379 41.5243ZM39.1925 31.19C39.4343 31.3084 39.6959 31.358 39.9548 31.34C39.939 31.4279 39.9324 31.5203 39.9451 31.6195C40.0231 31.9183 40.323 32.0896 40.5542 31.9679C40.5405 32.2024 40.5268 32.4369 40.5136 32.6713C40.7885 32.7796 41.0777 32.8224 41.3653 32.8055C41.0214 32.8923 40.6665 32.916 40.3181 32.8698C39.9675 32.8235 39.606 32.7007 39.3524 32.394C39.0987 32.0874 38.9931 31.5553 39.1925 31.19ZM40.396 36.2675C40.3732 36.2596 40.3494 36.2563 40.3269 36.2473C40.4 36.2134 40.4753 36.1684 40.5498 36.1165C40.4986 36.1672 40.4471 36.2168 40.396 36.2675ZM56.3783 33.3613C56.3848 33.368 56.3906 33.3748 56.3972 33.3827C56.3871 33.3748 56.3756 33.3692 56.3659 33.3613C56.3703 33.3613 56.3739 33.3601 56.3783 33.3613ZM60.4208 34.5348C60.6322 34.7118 60.8713 34.8234 61.118 34.8347C61.081 35.0399 61.0439 35.245 61.0074 35.4502C61.0942 35.4198 61.1804 35.4807 61.2368 35.5765C60.9484 35.8234 60.586 35.9902 60.1976 36.0556C59.962 35.8493 59.7488 35.6272 59.5608 35.3905C59.9391 35.1966 60.2411 34.8945 60.4208 34.5348ZM61.8295 35.8888C61.7124 36.3825 61.2831 36.6182 60.9149 36.5426C60.8805 36.5359 60.8489 36.5178 60.8158 36.5077C61.0154 36.3228 61.1748 36.103 61.2875 35.8651C61.2866 35.8685 61.288 35.8718 61.2875 35.8752C61.468 35.8797 61.649 35.8843 61.8295 35.8888ZM60.3337 37.2483C60.3094 37.2438 60.2838 37.245 60.2596 37.2404C60.2865 37.2438 60.3111 37.2404 60.3346 37.2337C60.3341 37.2382 60.3341 37.2427 60.3337 37.2483ZM69.6187 32.6702C70.0463 32.9025 70.5444 32.8653 70.9526 32.571C70.9024 32.4155 70.8847 32.2452 70.8835 32.0739C71.1182 32.3207 71.3978 32.4786 71.6872 32.4921C71.6502 32.7063 71.6131 32.9205 71.5766 33.1347C71.7395 33.0727 71.9117 33.3455 71.8563 33.5777C72.0372 33.5834 72.2178 33.5879 72.3988 33.5924C72.3692 33.722 72.32 33.8347 72.2569 33.9294C72.0227 34.0873 71.7743 34.2056 71.5176 34.2744C71.5066 34.2733 71.4952 34.2767 71.4837 34.2744C71.1155 34.1966 70.7958 33.8765 70.4906 33.5653C70.3638 33.7716 70.3871 34.0726 70.488 34.3015C70.2194 34.2417 69.9539 34.1211 69.7601 33.8596C69.5351 33.5563 69.4418 33.031 69.6187 32.6702ZM80.1875 30.2329C80.3698 30.3366 80.5654 30.3783 80.7609 30.3806C81.1114 30.5373 81.52 30.5846 81.8975 30.4922C81.4324 30.8901 80.8331 31.1483 80.2051 31.234C80.0796 30.9228 80.0492 30.5271 80.1875 30.2329ZM82.392 31.7977C82.0031 31.969 81.5896 32.0265 81.1858 31.9645C80.875 31.9172 80.5544 31.7909 80.3293 31.4741C80.3037 31.438 80.2871 31.3918 80.2654 31.3512C80.8939 31.7007 81.7632 31.6601 82.3304 31.2238C82.351 31.4155 82.3717 31.6071 82.392 31.7977ZM83.6377 28.6422C83.6294 28.6479 83.6197 28.6501 83.6109 28.6558C83.5735 28.5284 83.5295 28.4044 83.4876 28.2781C83.558 28.392 83.6148 28.5103 83.6377 28.6422ZM87.9225 35.0478C88.0331 35.0872 88.1489 35.1143 88.266 35.1301C88.528 35.2654 88.8183 35.2901 89.0895 35.1966C89.0877 35.2056 89.0847 35.2146 89.0829 35.2236C88.8336 35.5382 88.5409 35.7783 88.2268 35.9451C88.1692 35.9113 88.1133 35.8752 88.0639 35.8313C87.8389 35.6317 87.7455 35.2856 87.9225 35.0478ZM89.4818 33.1651C89.5435 33.4278 89.6338 33.6769 89.7527 33.8967C89.647 34.1527 89.455 34.2925 89.245 34.3342C89.2723 34.271 89.3057 34.209 89.3497 34.1538C89.1785 34.1312 89.0071 34.1098 88.8359 34.0873C89.123 33.8291 89.337 33.5101 89.4818 33.1651ZM95.6281 44.3731C95.6748 44.3686 95.7228 44.3641 95.7707 44.3562C95.7782 44.7304 95.7998 45.1059 95.8443 45.4801C95.5976 45.4925 95.3497 45.4565 95.1137 45.355C95.4308 45.1938 95.8201 44.7609 95.6281 44.3731ZM98.1813 56.05C98.4147 56.3679 98.7661 56.6013 99.1575 56.6566C98.9184 56.8302 98.6076 56.9023 98.3164 56.8516C98.4724 57.015 98.4349 57.3183 98.2447 57.4389C98.2593 57.4547 98.2773 57.4671 98.2928 57.4818C98.0346 57.3318 97.8021 57.0962 97.6379 56.7806C97.9272 56.8516 98.1861 56.4412 98.1813 56.05ZM98.5349 52.2825C98.6084 52.225 98.6767 52.1495 98.737 52.0649C98.8269 52.0379 98.9145 52.004 99.0008 51.9668C99.0774 52.376 99.339 52.7481 99.7068 52.9442C99.5372 53.0863 99.3351 53.1877 99.1206 53.2407C99.4474 53.4538 99.8657 53.5214 100.243 53.4211C99.8239 53.8112 99.2783 54.0614 98.7098 54.1257C99.2492 54.5496 100.085 54.5383 100.613 54.0998C100.62 54.1674 100.627 54.2362 100.633 54.3049C100.59 54.6476 100.551 54.9915 100.491 55.3274C100.489 55.3364 100.486 55.3455 100.485 55.3533C100.035 55.3353 99.586 55.2745 99.154 55.1459C99.5248 55.4345 99.93 55.6758 100.351 55.8843C100.326 55.9677 100.303 56.0501 100.272 56.1324C99.9137 56.2406 99.5098 56.2056 99.1524 56.076C98.8895 55.9824 98.6481 55.8426 98.4155 55.687C98.8004 55.4864 99.0919 54.9205 99.0515 54.3399C98.8939 54.4357 98.7331 54.5315 98.5693 54.6048C98.2535 53.9464 98.0232 53.2486 97.8814 52.5327C98.1104 52.4989 98.3358 52.4369 98.5349 52.2825ZM98.6336 57.7974C98.6451 57.7861 98.6543 57.7704 98.6657 57.7591C98.6763 57.7647 98.6864 57.7715 98.6969 57.7771C98.6749 57.7828 98.6551 57.7918 98.6336 57.7974ZM98.4332 58.7703C98.3764 58.7759 98.3196 58.7692 98.2628 58.7681C98.2544 58.7196 98.2487 58.67 98.2376 58.6204C98.2231 58.555 98.199 58.4907 98.1796 58.4253C98.3213 58.1999 98.4627 57.9744 98.631 57.8008C98.6828 57.8076 98.7348 57.8143 98.7863 57.82C98.9607 57.8966 99.1475 57.9462 99.3372 57.9564C99.3074 58.396 98.8713 58.723 98.4332 58.7703ZM98.2896 59.9743C98.2967 59.848 98.3023 59.7218 98.3064 59.5955C98.4504 59.5978 98.5939 59.6011 98.7375 59.6034C98.6723 59.7996 98.4922 59.9202 98.2896 59.9743ZM7.4501 73.6489C7.19999 73.7887 6.95029 73.9285 6.70061 74.0683C6.82303 74.1517 6.96306 74.2058 7.10839 74.2407C7.08901 74.2565 7.07051 74.2734 7.0507 74.2892C7.12336 74.2813 7.19558 74.2746 7.26823 74.2678C7.40827 74.2825 7.55054 74.2813 7.68796 74.2498C7.62675 74.4978 7.3616 74.6827 7.0965 74.6635C7.24578 74.7435 7.25019 74.9848 7.10398 75.0705C7.36645 75.1866 7.65527 75.2474 7.94511 75.2497C7.7104 75.5169 7.41177 75.7322 7.07845 75.8743C7.25326 75.8991 7.42901 75.9182 7.60465 75.9363C7.57647 75.9633 7.54874 75.9904 7.52055 76.0163C7.89799 75.9813 8.28545 76.0591 8.61926 76.2395C8.08862 76.6871 7.55753 77.1357 7.02692 77.5833C7.74828 77.6363 8.46955 77.6904 9.19093 77.7434C8.25862 79.0015 7.15815 80.1367 5.92776 81.1062C6.58963 80.8751 7.28454 80.7387 7.98468 80.7004C7.83238 81.0341 7.67996 81.3666 7.52766 81.7003H35.1311H39.7478H42.0778C43.0409 80.6733 44.162 79.528 45.4625 78.2755C47.0279 76.7671 48.8656 75.0975 51.0137 73.2814C51.7523 72.6568 52.5167 72.0199 53.3318 71.3615C44.2731 63.8659 39.6854 58.617 38.3197 56.9609C38.2682 57.0342 38.2198 57.1143 38.1933 57.1729L35.3729 63.6427C35.087 64.2988 34.382 64.6437 33.6923 64.4566C27.0922 62.7599 25.9001 57.6813 25.8525 57.466C25.7301 56.9226 25.9393 56.3499 26.3872 56.0106L32.8742 51.1078C32.8187 50.9545 32.79 50.7899 32.79 50.6208C32.79 50.2443 32.9433 49.8745 33.2102 49.6073L37.4689 45.3482C37.7398 45.0765 38.0996 44.9277 38.4831 44.9277C38.4835 44.9277 38.4835 44.9277 38.484 44.9277C38.724 44.9289 38.9552 44.9864 39.1604 45.0968L39.2128 45.045C39.5307 44.7248 39.9597 44.5456 40.4168 44.5433C40.4189 44.5433 40.4212 44.5433 40.423 44.5433C40.8779 44.5433 41.305 44.7203 41.6269 45.0405L45.7254 49.1395C46.0459 49.4563 46.2252 49.8858 46.2252 50.3446C46.2252 50.8012 46.0459 51.2318 45.7215 51.5565L45.5656 51.7132C45.6483 51.7831 45.7232 51.8451 45.7936 51.8992L45.9354 52.0063L45.9345 52.0085C45.9662 52.0322 45.9997 52.0581 46.0301 52.0829C46.3418 52.3219 46.6352 52.668 46.8584 53.0615L47.1857 53.6308C47.2592 53.7582 47.327 53.8743 47.3952 53.9836C47.4966 54.155 47.5816 54.2925 47.6692 54.4278L48.538 55.7581C48.712 56.0196 48.8797 56.2575 49.0511 56.4976C49.1853 56.6881 49.3192 56.8707 49.4558 57.0511C49.5826 57.2259 49.6626 57.3375 49.7468 57.4446C49.9313 57.6926 50.0899 57.9022 50.2542 58.1097C50.6693 58.644 51.0824 59.1536 51.4982 59.6474L51.8738 60.087C52.2414 60.512 52.6013 60.9235 52.9654 61.3215C53.1384 61.5131 53.3093 61.6969 53.4763 61.875C55.487 64.0338 57.3959 65.7857 58.7986 66.9953C60.198 65.7902 62.0973 64.0474 64.0842 61.9144C64.2828 61.7025 64.4545 61.5176 64.6192 61.3339C64.998 60.9224 65.3556 60.512 65.7211 60.0893C65.8457 59.9461 65.9676 59.8041 66.0901 59.6564C66.5151 59.1525 66.9277 58.644 67.3341 58.121C67.5027 57.9068 67.6618 57.6982 67.8168 57.4863C67.9361 57.3352 68.0158 57.2225 68.0986 57.1097C68.2729 56.8764 68.4069 56.6949 68.5385 56.5066C68.7178 56.2552 68.886 56.0162 69.0516 55.7693C69.2268 55.5123 69.3915 55.2632 69.5562 55.014L69.6668 54.8404C69.7478 54.7141 69.8262 54.5935 69.9019 54.4673C70.012 54.297 70.0965 54.1595 70.1776 54.0208L70.7394 53.0592C70.961 52.6647 71.256 52.3197 71.6127 52.0424L71.8161 51.889C71.8813 51.8383 71.9554 51.7786 72.0315 51.7132L71.8752 51.5565C71.5507 51.2329 71.3719 50.8023 71.3719 50.3446C71.3719 49.888 71.5493 49.4596 71.8725 49.1372L75.9684 45.0427C76.6355 44.3787 77.7192 44.3799 78.3847 45.0461L78.4379 45.0991C78.9774 44.8173 79.7022 44.9221 80.1289 45.3505L84.3868 49.6073C84.6537 49.8745 84.8061 50.2443 84.8061 50.6208C84.8061 50.7899 84.7775 50.9545 84.722 51.1078L91.2081 56.0106C91.6564 56.3477 91.867 56.9203 91.7441 57.4682C91.6951 57.6869 90.4731 62.769 83.8959 64.4588C83.226 64.6381 82.5008 64.2875 82.2216 63.6381L79.4028 57.1695C79.3768 57.112 79.3297 57.0342 79.2769 56.9621C77.9117 58.617 73.324 63.8647 64.2648 71.3615C66.8087 73.4178 68.9648 75.305 70.802 77.014C72.2037 78.3172 73.4138 79.5133 74.4685 80.6012C74.8357 80.9799 75.1898 81.3486 75.5192 81.7003H113.37C112.902 81.0589 112.257 80.5493 111.524 80.2427C112.204 79.7974 112.882 79.351 113.561 78.9045C112.285 78.8324 110.633 78.4141 110.553 77.138C110.534 76.8505 110.605 76.5371 110.456 76.2902C110.382 76.1685 110.261 76.0794 110.192 75.9543C109.973 75.553 110.373 75.1156 110.6 74.7199C110.829 74.3242 110.57 73.5835 110.173 73.8101C110.958 73.5485 111.684 73.1089 112.28 72.5351C111.012 72.1405 109.918 71.2285 109.283 70.0651C109.477 69.8486 109.649 69.6096 109.906 69.4811C109.752 69.471 109.604 69.4293 109.46 69.3729C109.947 69.197 110.432 69.0212 110.918 68.8453C110.561 68.5296 110.219 68.1971 109.868 67.8758C110.077 67.6796 110.21 67.3989 110.183 67.1115C109.908 67.231 109.624 67.346 109.329 67.3775C109.111 67.1769 108.891 66.9784 108.676 66.7755C108.89 66.6538 109.055 66.4396 109.077 66.1927C109.005 66.1239 108.933 66.0552 108.861 65.9853C109.378 65.8613 109.88 65.6651 110.334 65.3889C110.233 65.3393 110.135 65.2818 110.036 65.23C110.091 65.1014 110.117 64.9639 110.079 64.8275C109.909 64.9087 109.723 64.9526 109.536 64.9582C109.421 64.8895 109.311 64.8162 109.198 64.7441C109.366 64.6246 109.495 64.4465 109.542 64.2447C109.085 64.274 108.621 64.1849 108.205 63.9899C108.323 63.9098 108.441 63.8309 108.559 63.7509C108.51 63.6911 108.461 63.6325 108.412 63.5739C108.486 63.5615 108.561 63.5446 108.633 63.522C108.546 63.4352 108.467 63.3529 108.386 63.2695C108.763 63.0835 108.986 62.5987 108.842 62.1963C108.568 62.4759 108.167 62.6089 107.778 62.5852C107.685 62.468 107.6 62.3507 107.523 62.2312C107.85 61.9167 107.98 61.1738 108.454 60.9765C108.145 60.8739 108.291 60.4083 108.489 60.1513C108.096 60.5323 107.558 60.7477 107.012 60.7758C106.995 60.5786 106.988 60.3722 107.004 60.1445C106.936 60.3587 106.847 60.5662 106.767 60.777C106.59 60.7668 106.414 60.7398 106.245 60.6879C106.562 60.5729 106.951 60.2629 106.759 59.9856C106.966 59.9743 107.2 59.9484 107.327 59.7849C107.454 59.6214 107.318 59.3013 107.122 59.3678C107.669 59.1807 108.085 58.6564 108.143 58.0804C107.627 58.5268 106.916 58.723 106.238 58.6508C105.973 58.6237 105.699 58.5505 105.507 58.3645C105.315 58.1796 105.235 57.8594 105.386 57.6385C105.752 57.7805 106.177 57.758 106.525 57.5787C106.415 57.3329 106.446 57.0286 106.605 56.811C106.458 56.7907 106.312 56.7704 106.166 56.7501C106.564 56.3623 106.82 55.8313 106.875 55.2778C106.427 55.9847 105.498 56.3499 104.688 56.1357C104.636 55.74 104.785 55.3218 105.075 55.0467C104.944 54.9937 104.812 54.9408 104.68 54.8889C105.145 54.7784 105.507 54.3286 105.515 53.8495C105.151 54.1482 104.645 54.2666 104.186 54.1595C104.381 54.1854 104.482 53.8495 104.305 53.7627C104.779 53.4741 105.116 52.9702 105.201 52.4211C104.902 52.8011 104.44 53.0491 103.958 53.0874C103.811 52.8541 103.592 52.6669 103.338 52.5575C103.839 52.3806 104.246 51.959 104.405 51.4528C104.212 51.5971 104.006 51.747 103.766 51.7741C103.526 51.8022 103.248 51.6534 103.225 51.4133C103.421 51.3817 103.617 51.3513 103.813 51.3209C103.829 51.1213 103.759 50.9173 103.626 50.7707C103.886 50.7155 104.102 50.4889 104.143 50.2262C103.929 50.2386 103.715 50.2522 103.502 50.2646C103.994 50.0357 104.368 49.5667 104.483 49.0358C104.04 49.5025 103.407 49.7832 102.764 49.7978C102.874 49.2962 102.984 48.7945 103.094 48.2929C103.463 48.2478 103.792 47.9682 103.898 47.6119C103.535 47.7382 103.143 47.4563 102.964 47.1159C102.784 46.7754 102.743 46.3809 102.605 46.0224C102.726 46.0224 102.825 45.8837 102.787 45.7687C102.376 45.3482 102.147 44.8094 102.19 44.2412C102.08 44.9942 101.971 45.7462 101.861 46.4992C101.844 46.6187 101.827 46.7427 101.854 46.8611C101.879 46.966 101.939 47.0618 101.951 47.1678C102.001 47.5838 101.413 47.7247 100.995 47.6999C101.038 48.0775 101.554 48.303 101.861 48.0775C101.987 48.3639 101.714 48.7393 101.403 48.7066C101.53 49.1147 101.57 49.551 101.519 49.976C101.178 50.1947 100.65 49.9714 100.568 49.5757C100.435 49.9771 100.714 50.3931 101.011 50.693C101.309 50.9928 101.662 51.2915 101.729 51.7087C101.35 51.9781 100.752 51.8451 100.521 51.4426C100.528 51.8203 100.657 52.1946 100.884 52.4956C100.684 52.8405 100.181 52.898 99.8217 52.7255C99.486 52.5632 99.2483 52.2599 99.029 51.9556C99.0351 51.9533 99.0427 51.9522 99.0492 51.9488C99.0092 51.8349 98.9692 51.7199 98.929 51.6061C98.9625 51.4561 98.9784 51.3006 98.9471 51.1461C98.8983 51.1788 98.8454 51.1969 98.7939 51.2217C98.5098 50.4134 98.2258 49.6051 97.9417 48.7968C98.5688 48.8227 99.1959 48.8486 99.823 48.8745C98.8833 47.94 98.0752 46.8724 97.43 45.7135C98.1091 45.6898 98.7881 45.665 99.4672 45.6414C99.0255 44.8736 98.2672 44.2942 97.4102 44.071C97.8752 43.9402 98.3402 43.8105 98.8053 43.6798C97.4441 41.8152 96.8166 39.4297 97.0839 37.1367C96.5819 38.883 96.0804 40.6664 95.8707 42.4623C95.6197 42.5288 95.3608 42.5446 95.1071 42.5062C94.8415 42.4679 94.5677 42.3642 94.3756 42.106C94.1836 41.8467 94.1039 41.398 94.255 41.0903C94.62 41.2887 95.0455 41.2571 95.3938 41.0069C95.2832 40.663 95.3149 40.2369 95.4735 39.9325C95.3273 39.9043 95.1811 39.875 95.0349 39.8468C95.4329 39.3046 95.6888 38.5617 95.7443 37.7872C95.2952 38.777 94.3668 39.2866 93.5566 38.9889C93.5046 38.4332 93.653 37.8503 93.9436 37.4659C93.8119 37.3915 93.6803 37.3171 93.5487 37.2438C94.0137 37.0894 94.3756 36.4592 94.3841 35.7907C94.0189 36.2089 93.5134 36.3735 93.0542 36.2247C93.2501 36.2608 93.351 35.7896 93.1734 35.6689C93.6477 35.2654 93.9846 34.5596 94.0692 33.7919C93.7706 34.324 93.3092 34.6701 92.8269 34.7231C92.6794 34.3973 92.4605 34.1357 92.2068 33.9836C92.7076 33.7355 93.1145 33.1459 93.2743 32.438C93.081 32.6398 92.8749 32.8495 92.6349 32.8878C92.3944 32.9261 92.1165 32.7187 92.0937 32.3827C92.2897 32.3399 92.4861 32.2959 92.682 32.2531C92.6979 31.9747 92.6282 31.6894 92.494 31.4831C92.7547 31.4065 92.97 31.0897 93.0114 30.7211C92.7978 30.7402 92.5843 30.7583 92.3706 30.7763C92.8626 30.455 93.2364 29.8 93.3514 29.0571C92.9088 29.7098 92.2756 30.1021 91.6322 30.1224C91.7423 29.4212 91.8524 28.7189 91.9624 28.0177C92.3315 27.9546 92.6609 27.5645 92.7666 27.0662C92.4032 27.2432 92.0118 26.8486 91.8326 26.3729C91.6533 25.896 91.6115 25.3448 91.4736 24.842C91.5947 24.842 91.6942 24.6481 91.6551 24.488C91.2442 23.9007 91.0157 23.1454 91.0584 22.3517C90.9492 23.4035 90.8395 24.4564 90.7304 25.5094C90.7127 25.6773 90.6951 25.851 90.7233 26.0167C90.748 26.1621 90.8074 26.2963 90.8201 26.4451C90.8695 27.0268 90.2816 27.2229 89.8637 27.188C89.9064 27.7167 90.4225 28.0324 90.729 27.7178C90.8558 28.118 90.5833 28.6423 90.2714 28.5972C90.3983 29.1687 90.4384 29.7775 90.3877 30.3727C90.0473 30.6771 89.5188 30.3659 89.4365 29.8124C89.3039 30.3727 89.5823 30.9555 89.88 31.3749C90.1772 31.7943 90.5304 32.2137 90.5978 32.7965C90.3098 33.0817 89.8958 33.0422 89.6123 32.7593C89.632 32.6725 89.6576 32.5857 89.6668 32.4966C89.6267 32.5552 89.5774 32.6082 89.5308 32.6623C89.4765 32.5913 89.4273 32.5147 89.3903 32.4233C89.3917 32.5462 89.4009 32.6691 89.4153 32.7909C89.0609 33.1392 88.5769 33.3692 88.0652 33.4515C87.9908 33.3207 87.919 33.1865 87.8504 33.0524C87.8631 33.1955 87.8908 33.3354 87.9269 33.4706C87.6522 33.5 87.3729 33.4898 87.1043 33.4244C87.0435 32.996 87.2175 32.5451 87.5579 32.2475C87.4034 32.1911 87.2493 32.1336 87.0947 32.0761C87.6398 31.9566 88.0634 31.4707 88.0731 30.9555C87.646 31.2768 87.0537 31.4042 86.5156 31.2892C86.745 31.3174 86.863 30.9533 86.6552 30.8608C87.2109 30.5486 87.6055 30.0041 87.705 29.4111C87.3549 29.8214 86.8141 30.0897 86.2495 30.1303C86.0765 29.8789 85.8203 29.6771 85.5234 29.5588C86.1095 29.3671 86.5865 28.9117 86.7736 28.3649C86.5468 28.5216 86.3056 28.6839 86.0245 28.7133C85.7431 28.7426 85.4173 28.5825 85.3904 28.3221C85.6203 28.2894 85.8498 28.2556 86.0797 28.2218C86.0981 28.0076 86.0166 27.7877 85.8594 27.6276C86.1647 27.569 86.417 27.3244 86.4658 27.0392C86.2153 27.0538 85.9651 27.0685 85.7145 27.082C86.2915 26.834 86.7291 26.3278 86.8639 25.754C86.3451 26.2579 85.6036 26.5612 84.8501 26.577C84.9791 26.0347 85.1078 25.4936 85.2367 24.9514C85.6687 24.9029 86.055 24.6019 86.1787 24.2163C85.7533 24.3527 85.2945 24.0484 85.0843 23.6808C84.8743 23.3133 84.8255 22.8872 84.6638 22.4994C84.8061 22.4994 84.9223 22.3495 84.877 22.2255C84.3952 21.7711 84.1274 21.1883 84.1777 20.575C84.0495 21.389 83.9214 22.2018 83.7932 23.0146C83.7726 23.1442 83.7523 23.2784 83.7849 23.4058C83.8139 23.5185 83.8835 23.6211 83.8985 23.7372C83.9562 24.1859 83.2679 24.3381 82.7778 24.311C82.8284 24.7191 83.4326 24.9626 83.792 24.7191C83.9403 25.0291 83.6206 25.4338 83.2556 25.3989C83.4044 25.8397 83.4515 26.3109 83.3921 26.7697C83.2463 26.8565 83.071 26.8769 82.9024 26.8498C82.8333 26.7089 82.7677 26.5657 82.6924 26.427C82.7028 26.542 82.7139 26.6728 82.7245 26.8036C82.5064 26.719 82.326 26.5522 82.2779 26.338C82.1255 26.763 82.4364 27.2026 82.7774 27.5251C82.8019 27.9039 82.824 28.3198 82.8398 28.7629C82.5857 28.7043 82.3537 28.5645 82.2234 28.3536C82.2304 28.7617 82.3814 29.1665 82.6483 29.4923C82.4232 29.8508 81.8714 29.915 81.4549 29.7538C81.4289 29.4269 81.4817 29.0853 81.6147 28.8181C81.4439 28.7832 81.2726 28.7482 81.1012 28.7133C81.5676 28.0493 81.867 27.1418 81.9323 26.1959C81.4064 27.4056 80.3187 28.0279 79.3698 27.6637C79.3085 26.9851 79.4825 26.2703 79.8229 25.8014C79.6687 25.7112 79.5146 25.6198 79.3601 25.5297C79.9052 25.3403 80.3289 24.5714 80.3386 23.7541C79.9114 24.2648 79.3187 24.4666 78.7809 24.284C79.0105 24.3279 79.1284 23.7519 78.9206 23.6053C79.4763 23.1115 79.8708 22.248 79.9699 21.31C79.6204 21.9605 79.0796 22.3833 78.515 22.4498C78.342 22.0507 78.0853 21.7306 77.7884 21.5434C78.375 21.2413 78.8519 20.5198 79.0387 19.654C78.8123 19.902 78.5709 20.159 78.2895 20.2053C78.0086 20.2515 77.6827 19.999 77.6559 19.5875C77.8857 19.5345 78.1151 19.4815 78.345 19.4285C78.3635 19.0892 78.2821 18.7397 78.1248 18.4883C78.43 18.3936 78.6823 18.0058 78.7312 17.556C78.4806 17.5786 78.2306 17.6011 77.98 17.6237C78.5568 17.2302 78.9946 16.4287 79.1288 15.5212C78.6106 16.3193 77.869 16.7996 77.1151 16.8244C77.2442 15.9665 77.3731 15.1086 77.5022 14.2507C77.9342 14.174 78.3203 13.6972 78.4441 13.0873C78.0188 13.3026 77.5594 12.8212 77.3498 12.2395C77.1398 11.6578 77.0904 10.9825 76.9293 10.3681C77.0714 10.3681 77.1878 10.1314 77.1419 9.93523C76.6606 9.21712 76.3929 8.29382 76.4431 7.32318C76.3149 8.60947 76.1868 9.89689 76.0582 11.1843C76.0379 11.3895 76.0177 11.6014 76.0503 11.8032C76.0794 11.9825 76.1489 12.1459 76.1639 12.3274C76.2215 13.0388 75.5333 13.2789 75.0431 13.2361C75.0933 13.8832 75.698 14.2687 76.0573 13.8832C76.2058 14.3736 75.8861 15.0139 75.5209 14.9586C75.6698 15.6576 75.7165 16.4027 75.657 17.1287C75.2585 17.5019 74.6393 17.122 74.543 16.4445C74.3879 17.131 74.7137 17.8424 75.0621 18.3553C75.4109 18.8682 75.8244 19.38 75.9032 20.0925C75.4594 20.5513 74.7587 20.3259 74.4887 19.6371C74.4958 20.283 74.6469 20.9234 74.9137 21.4386C74.6795 22.0282 74.0893 22.1263 73.6688 21.8309C73.2477 21.5344 72.9576 20.9594 72.6845 20.4059C72.7501 21.1567 73.077 21.8489 73.534 22.2051C73.3355 22.4475 73.0985 22.6223 72.8475 22.7113C73.2302 23.0766 73.7203 23.1927 74.1625 23.0213C73.6714 23.6876 73.032 24.116 72.3662 24.2265C72.9985 24.9514 73.9779 24.931 74.5957 24.1802C74.6451 24.9051 74.694 25.63 74.7433 26.3549C74.1158 26.3616 73.4882 26.2309 72.8867 25.9705C73.3988 26.5522 73.9585 27.0437 74.5504 27.4326C74.0607 27.8745 73.4258 27.8463 72.8845 27.5623C72.3433 27.277 71.8752 26.7641 71.4154 26.259C71.4744 27.3886 72.1218 28.3942 72.8906 28.5521C72.6106 28.8497 72.2464 28.9737 71.9051 28.888C72.0878 29.1653 72.0443 29.685 71.821 29.8913C72.1481 30.4133 72.618 30.738 73.1016 30.7763C73.0664 31.5271 72.5556 32.0863 72.0425 32.1674C71.6498 32.2283 71.2617 32.0739 70.8936 31.8484C70.9165 31.6579 70.9641 31.4707 71.0455 31.314C70.8747 31.2802 70.7034 31.2464 70.5321 31.2126C70.9984 30.5768 71.2979 29.7076 71.3631 28.8012C70.8373 29.9601 69.7495 30.5565 68.8005 30.2081C68.7398 29.5576 68.9133 28.8734 69.2537 28.4224C69.0996 28.3367 68.9454 28.2499 68.7908 28.1631C69.336 27.9816 69.7597 27.2443 69.7694 26.462C69.3422 26.9512 68.7499 27.144 68.2118 26.9693C68.4412 27.011 68.5593 26.4597 68.3514 26.3188C68.9071 25.8453 69.3016 25.019 69.4007 24.1205C69.0511 24.7428 68.5103 25.1486 67.9458 25.2118C67.7727 24.8296 67.516 24.5229 67.2197 24.3437C67.8058 24.054 68.2826 23.3629 68.4699 22.5332C68.2431 22.77 68.0017 23.0157 67.7203 23.0608C67.4394 23.1059 67.1135 22.8624 67.0866 22.469C67.316 22.4182 67.5459 22.3675 67.7758 22.3168C67.7943 21.991 67.7129 21.6573 67.5556 21.4149C67.8608 21.3258 68.1132 20.9538 68.162 20.5232C67.9114 20.5446 67.6613 20.566 67.4107 20.5874C67.9876 20.2109 68.4253 19.4432 68.5601 18.5729C68.0414 19.3372 67.2998 19.7972 66.5458 19.8208C66.6749 18.999 66.8039 18.1772 66.933 17.3553C67.365 17.2809 67.7512 16.8244 67.8749 16.2404C67.4495 16.4479 66.9902 15.9856 66.7806 15.4276C66.5705 14.8707 66.5212 14.2236 66.3601 13.6351C66.5022 13.6351 66.6186 13.4085 66.5727 13.2203C66.0914 12.5315 65.8237 11.6477 65.8738 10.7176C65.7458 11.9509 65.6176 13.1831 65.489 14.4164C65.4687 14.6137 65.4485 14.8166 65.4811 15.0105C65.5102 15.1819 65.5797 15.3386 65.5947 15.5133C65.6523 16.1953 64.9641 16.4242 64.4739 16.3836C64.5245 17.0036 65.1288 17.3723 65.4881 17.0036C65.6365 17.4726 65.3168 18.087 64.9518 18.034C65.1006 18.7036 65.1477 19.4173 65.0882 20.114C64.6892 20.4713 64.0701 20.1061 63.9737 19.4578C63.8187 20.1151 64.1445 20.7971 64.4929 21.2886C64.8417 21.779 65.2556 22.2705 65.334 22.9537C64.8901 23.3934 64.1895 23.1769 63.9195 22.5163C63.9266 23.1352 64.0777 23.7496 64.3445 24.2434C64.1102 24.8082 63.5205 24.9018 63.0996 24.6177C62.6785 24.3347 62.3883 23.7845 62.1153 23.2536C62.1809 23.9728 62.5077 24.6357 62.9649 24.9773C62.7662 25.2095 62.5293 25.3764 62.2783 25.4632C62.6609 25.8126 63.1516 25.9231 63.5932 25.7596C63.1022 26.3977 62.4627 26.8081 61.7969 26.914C62.4294 27.6085 63.4087 27.5893 64.0266 26.8701C64.0759 27.5645 64.1248 28.259 64.174 28.9534C63.547 28.9602 62.919 28.835 62.3174 28.5859C62.8296 29.1428 63.3893 29.614 63.9812 29.9872C63.4914 30.4099 62.857 30.3829 62.3158 30.11C61.7745 29.8372 61.306 29.3468 60.8463 28.8621C60.9057 29.9443 61.5525 30.9082 62.3215 31.0592C62.0414 31.3445 61.6777 31.4628 61.3359 31.3806C61.5186 31.6477 61.4755 32.1449 61.2518 32.3422C61.579 32.8416 62.0489 33.1527 62.5324 33.1899C62.4971 33.9103 61.9863 34.4458 61.4733 34.5224C60.9602 34.6002 60.4552 34.324 59.9919 34.0061C60.0861 34.1854 60.2081 34.3308 60.3393 34.4582C60.1641 34.5687 59.9774 34.6622 59.7686 34.6848C59.4873 34.713 59.1614 34.5551 59.1345 34.297C59.3639 34.2643 59.5938 34.2305 59.8237 34.1978C59.8421 33.9847 59.7607 33.766 59.6035 33.6082C59.9087 33.5495 60.161 33.306 60.2099 33.0242C59.9593 33.0388 59.7092 33.0524 59.4591 33.067C60.0355 32.8202 60.4732 32.3185 60.6079 31.7492C60.0893 32.2497 59.3477 32.5507 58.5937 32.5654C58.7228 32.0276 58.8518 31.491 58.9809 30.9533C59.4129 30.9048 59.7991 30.6061 59.9227 30.2239C59.4974 30.3592 59.0381 30.0571 58.8284 29.6929C58.6184 29.3288 58.569 28.9049 58.408 28.5205C58.5501 28.5205 58.6664 28.3717 58.6206 28.2488C58.1393 27.799 57.8716 27.2207 57.9217 26.6119C57.7935 27.418 57.6655 28.2251 57.5368 29.0312C57.5166 29.1608 57.4964 29.2927 57.529 29.4201C57.5581 29.5317 57.6276 29.6343 57.6426 29.7482C57.6523 29.8248 57.6341 29.8902 57.6047 29.9488C57.366 30.1055 57.1123 30.2262 56.8508 30.3073C56.7385 30.3186 56.6257 30.3231 56.5218 30.3175C56.525 30.34 56.535 30.3592 56.5407 30.3806C56.0502 30.4753 55.5446 30.446 55.0699 30.2611C55.5349 30.0491 56.1053 29.481 55.8239 28.9692C56.1268 28.9477 56.4689 28.9015 56.6553 28.6017C56.842 28.2995 56.6425 27.7122 56.355 27.834C57.1568 27.489 57.7663 26.524 57.8517 25.4654C57.0956 26.285 56.0537 26.6457 55.0602 26.5149C54.6718 26.4631 54.2703 26.3278 53.9892 25.9874C53.9514 25.9423 53.9259 25.8837 53.8947 25.8307C54.4808 25.6052 55.0669 25.3797 55.6525 25.1554C55.3972 25.0957 55.077 24.9728 54.7405 24.8014C54.9973 24.771 55.251 24.6898 55.4808 24.541C55.3187 24.0889 55.3649 23.5298 55.5975 23.1285C55.3831 23.0913 55.169 23.0541 54.955 23.0157C55.5381 22.3021 55.9128 21.3247 55.9943 20.3067C55.3364 21.6088 53.9761 22.2784 52.7889 21.8861C52.7871 21.8703 52.7898 21.8534 52.7884 21.8376C53.4274 20.9628 55.4302 20.2413 56.1691 19.7667C55.2496 20.0632 54.2777 20.1974 53.312 20.1624C53.268 20.1602 53.2227 20.1568 53.1777 20.1534C53.2349 20.061 53.2878 19.964 53.3556 19.8829C53.1627 19.7859 52.9698 19.6878 52.7769 19.5909C53.4586 19.3868 53.9888 18.5594 54.0007 17.68C53.5565 18.1366 52.969 18.3598 52.3969 18.3102C52.7334 17.8785 53.2464 17.6191 53.7444 17.3835C53.4415 17.2032 53.1165 17.0645 52.7831 16.9495C53.179 16.4298 53.4525 15.7624 53.5397 15.0499C53.1024 15.75 52.4255 16.2055 51.7197 16.2765C51.6967 16.2303 51.6682 16.1908 51.643 16.1468C52.2816 15.5122 52.9205 14.8786 53.559 14.245C53.031 14.3397 52.5523 14.2033 52.1397 13.9215C52.2375 13.7163 52.3176 13.4976 52.3749 13.2688C52.2102 13.4232 52.038 13.5754 51.8549 13.6904C51.6588 13.51 51.4805 13.2981 51.3259 13.0613C51.3863 13.0489 51.4466 13.0377 51.507 13.0253C51.5303 12.66 51.4282 12.2846 51.2317 12.014C51.6135 11.9126 51.9293 11.4955 51.9896 11.0107C51.677 11.0355 51.3638 11.0592 51.0507 11.084C51.772 10.6601 52.3199 9.79768 52.4881 8.82141C51.9808 9.49331 51.3018 9.95102 50.5795 10.1337C50.5765 9.2284 50.6319 8.30735 50.5126 7.43817C51.0283 7.32769 51.4818 6.83279 51.6306 6.20148C51.0988 6.43484 50.5245 5.91516 50.262 5.28949C49.9996 4.66382 49.9379 3.93668 49.7363 3.27605C49.9137 3.27605 50.0595 3.02126 50.0022 2.81045C49.4002 2.03709 49.0652 1.04392 49.1276 7.62939e-06C48.9673 1.38438 48.8071 2.76988 48.6468 4.15425C48.6212 4.37521 48.5957 4.60292 48.6366 4.8205C48.6732 5.01328 48.76 5.18914 48.7785 5.38529C48.8506 6.15076 47.9898 6.40891 47.3767 6.36269C47.4398 7.05825 48.1959 7.47313 48.6454 7.05827C48.8309 7.58587 48.431 8.27579 47.9748 8.21605C48.1606 8.96798 48.2192 9.76952 48.1448 10.5519C47.6463 10.9532 46.8717 10.5429 46.751 9.81573C46.5573 10.553 46.965 11.3185 47.4005 11.8709C47.8365 12.4221 48.3544 12.9734 48.4526 13.7411C47.8972 14.2338 47.021 13.9914 46.6832 13.2496C46.692 13.944 46.8809 14.634 47.2147 15.1886C46.9219 15.8233 46.1838 15.9281 45.6576 15.6102C45.1309 15.2923 44.768 14.6734 44.4263 14.0782C44.5087 14.8854 44.9173 15.6294 45.4894 16.0138C45.2406 16.2742 44.9446 16.4625 44.6302 16.5583C45.1089 16.9518 45.7223 17.0758 46.2754 16.892C45.661 17.6079 44.8614 18.0701 44.0282 18.1885C44.8192 18.9674 46.0442 18.946 46.817 18.1389C46.8659 18.7555 46.9144 19.3733 46.9632 19.9899C46.64 20.1264 46.3173 20.2639 45.9944 20.4014C45.5497 20.3338 45.1089 20.2255 44.6795 20.0655C44.8993 20.2797 45.1283 20.4781 45.3607 20.6697C45.0648 20.7949 44.7689 20.9211 44.4725 21.0462C44.9151 21.035 45.3577 21.0248 45.8007 21.0124C46.112 21.2413 46.4312 21.4532 46.7602 21.6381C46.1477 22.1138 45.3537 22.0834 44.6769 21.7768C44 21.4713 43.4139 20.92 42.8388 20.3755C42.9127 21.5919 43.7226 22.6741 44.6843 22.8432C44.3338 23.1634 43.8785 23.2975 43.4518 23.204C43.6803 23.5038 43.6258 24.0619 43.3465 24.284C43.7556 24.8454 44.3435 25.1949 44.9481 25.2354C44.9042 26.0449 44.2652 26.6469 43.6231 26.7325C42.9815 26.8194 42.3495 26.5093 41.77 26.152C42.0954 26.7077 42.6301 27.0595 43.1788 27.082C43.1325 27.3131 43.0863 27.5442 43.0404 27.7742C43.2444 27.7077 43.4597 28.0008 43.3906 28.2511C43.6165 28.2567 43.8428 28.2612 44.0687 28.2668C44.0317 28.4078 43.9692 28.5295 43.8895 28.631C43.8767 28.6298 43.8644 28.6298 43.8517 28.6287C43.86 28.6343 43.8693 28.6389 43.8776 28.6445C43.6415 28.9354 43.2629 29.0627 42.9247 29.0007C42.464 28.9162 42.0637 28.5723 41.6823 28.2375C41.3711 28.6715 41.7784 29.5058 42.2275 29.3536C42.2139 29.5554 42.2002 29.7572 42.1866 29.959C42.343 30.0131 42.4992 30.0683 42.6556 30.1224C42.2134 30.5294 41.6062 30.4009 41.0588 30.4426C40.9144 30.4539 40.7624 30.4956 40.6185 30.561C40.6206 30.2961 40.6779 30.0322 40.8021 29.8181C40.6092 29.7831 40.4159 29.7493 40.2226 29.7155C40.7483 29.0718 41.0865 28.1913 41.1602 27.2736C40.5669 28.4472 39.3405 29.0515 38.2705 28.6975C38.2017 28.0402 38.3977 27.3469 38.7817 26.8915C38.6078 26.8036 38.4334 26.7156 38.2594 26.6277C38.8741 26.4439 39.352 25.6988 39.363 24.9051C38.8812 25.4012 38.2132 25.5962 37.6063 25.4192C37.8648 25.462 37.9983 24.904 37.7641 24.7608C38.3902 24.2817 38.8354 23.4452 38.9473 22.5355C38.5527 23.1657 37.9432 23.576 37.3065 23.6402C37.1114 23.2536 36.8221 22.9424 36.4873 22.7621C37.1484 22.4678 37.686 21.7689 37.897 20.929C37.6416 21.1691 37.3695 21.4172 37.0524 21.4634C36.7354 21.5085 36.3681 21.2627 36.3376 20.8636C36.5966 20.8118 36.8555 20.761 37.1149 20.7092C37.1356 20.38 37.0436 20.0418 36.8666 19.7972C37.2109 19.7059 37.4954 19.3305 37.55 18.8942C37.2677 18.9156 36.9854 18.937 36.7031 18.9584C37.3536 18.5774 37.8472 17.8007 37.9992 16.9191C37.4144 17.6936 36.5776 18.1591 35.7282 18.1839C35.8735 17.3508 36.0188 16.5189 36.1641 15.6869C36.6516 15.6125 37.0872 15.1492 37.2263 14.5584C36.7467 14.7681 36.2288 14.3003 35.9924 13.7355C35.7555 13.1718 35.7005 12.5168 35.5182 11.9216C35.6785 11.9216 35.8097 11.6916 35.7582 11.5011C35.2156 10.8044 34.9135 9.90817 34.9698 8.96797C34.8254 10.2159 34.681 11.4639 34.5366 12.7119C34.5133 12.9114 34.4904 13.1166 34.5274 13.3139C34.5599 13.4863 34.6383 13.6453 34.655 13.8223C34.7202 14.5122 33.9439 14.7445 33.3916 14.7027C33.4484 15.3307 34.1301 15.7038 34.5353 15.3307C34.7025 15.8064 34.3419 16.4276 33.9307 16.3734C34.0984 17.0521 34.1513 17.7747 34.0839 18.4793C33.6343 18.8412 32.9358 18.4714 32.8276 17.8153C32.6527 18.4804 33.02 19.1704 33.4132 19.6686C33.806 20.1658 34.2728 20.663 34.3613 21.354C33.861 21.7993 33.0706 21.5795 32.7663 20.9121C32.7742 21.5378 32.9447 22.1601 33.2455 22.6595C32.9817 23.2322 32.3162 23.3269 31.8415 23.0394C31.3672 22.753 31.0396 22.195 30.7318 21.6584C30.8058 22.3867 31.1743 23.0574 31.6901 23.4035C31.4659 23.638 31.1986 23.8071 30.9155 23.895C31.3475 24.249 31.9001 24.3606 32.3986 24.1949C31.8451 24.8409 31.1237 25.2568 30.3729 25.3639C31.0858 26.0663 32.1903 26.0471 32.887 25.3189C32.9424 26.0223 32.9979 26.7258 33.0534 27.4281C32.3457 27.4337 31.6381 27.3086 30.9599 27.0561C31.5372 27.6197 32.1687 28.0966 32.8359 28.4743C32.2836 28.9015 31.5681 28.8756 30.9578 28.5994C30.3474 28.3232 29.8189 27.826 29.301 27.3357C29.3675 28.4314 30.0973 29.4066 30.9643 29.5599C30.6485 29.8485 30.2382 29.9691 29.8533 29.8846C30.0594 30.1551 30.01 30.659 29.7586 30.8586C30.1271 31.3648 30.657 31.6793 31.2022 31.7165C31.1625 32.4459 30.5865 32.9881 30.0079 33.0659C29.4297 33.1437 28.8598 32.8641 28.3375 32.5428C28.6308 33.0434 29.1125 33.3613 29.6071 33.3816C29.5657 33.589 29.5239 33.7976 29.4825 34.005C29.6662 33.9452 29.8603 34.2101 29.7982 34.4345C30.0017 34.4401 30.2061 34.4446 30.4094 34.4492C30.2773 34.9486 29.793 35.1864 29.3781 35.1109C28.9628 35.0354 28.6022 34.7242 28.2582 34.4221C27.9773 34.8133 28.3446 35.5652 28.7498 35.4288C28.7374 35.6103 28.7251 35.7929 28.7128 35.9744C28.8537 36.0241 28.9946 36.0725 29.1359 36.1221C28.7369 36.4885 28.1896 36.3735 27.6964 36.4107C27.3741 36.4344 27.0142 36.6204 26.8231 36.9158C26.6509 37.033 26.4677 37.139 26.2604 37.1615C26.0054 37.1897 25.7104 37.0387 25.6861 36.7952C25.894 36.7636 26.1022 36.7331 26.3101 36.7004C26.3272 36.4998 26.2533 36.2935 26.111 36.1435C26.3877 36.0883 26.6162 35.8583 26.6601 35.5911C26.4334 35.6047 26.2066 35.6171 25.9798 35.6317C26.5021 35.3984 26.8989 34.9226 27.0204 34.3838C26.551 34.8572 25.879 35.1425 25.1964 35.1571C25.3131 34.6487 25.4298 34.1403 25.5469 33.6307C25.938 33.5856 26.2881 33.3026 26.3999 32.9408C26.0146 33.0693 25.5989 32.7829 25.4087 32.438C25.2184 32.093 25.174 31.6928 25.0277 31.3287C25.1568 31.3287 25.262 31.1889 25.2206 31.0717C24.7847 30.6455 24.542 30.0988 24.5874 29.5238C24.4712 30.287 24.3553 31.0491 24.2391 31.8123C24.2206 31.9341 24.2021 32.0603 24.2316 32.1798C24.258 32.2858 24.3209 32.3827 24.3347 32.491C24.3866 32.9126 23.763 33.0546 23.3196 33.0298C23.3649 33.4131 23.9127 33.642 24.2377 33.4131C24.3725 33.704 24.0827 34.0839 23.7525 34.0512C23.8872 34.4649 23.9295 34.9068 23.8757 35.3375C23.5142 35.5584 22.9537 35.333 22.8664 34.9317C22.726 35.3386 23.021 35.7603 23.3367 36.0646C23.3799 36.1063 23.4243 36.148 23.4689 36.1898C23.3183 36.4705 23.1579 36.7467 22.9916 37.0184C22.9241 36.9631 22.862 36.9 22.8172 36.8245C22.8193 36.9541 22.8413 37.0804 22.8722 37.2066C22.6661 37.5335 22.4503 37.8548 22.2221 38.1671C22.1729 38.1536 22.1205 38.1468 22.0742 38.1254C21.6933 37.9506 21.4304 37.6091 21.183 37.281C21.2424 37.7263 21.5383 38.1367 21.9527 38.3475C21.7726 38.4918 21.5581 38.5944 21.3304 38.6485C21.4515 38.724 21.5868 38.7747 21.7259 38.8131C21.6744 38.8762 21.6259 38.9427 21.5735 39.0058C21.8444 38.9822 22.1147 38.9585 22.3856 38.9348C21.9611 39.2674 21.4401 39.4872 20.8945 39.5458C21.4282 39.946 22.2318 39.9584 22.792 39.5988C22.5991 39.9923 22.3785 40.3722 22.1424 40.742C21.8805 40.7048 21.6201 40.6529 21.3662 40.5807C21.5647 40.7284 21.7748 40.8614 21.9883 40.9888C21.8536 41.1884 21.7109 41.3834 21.5638 41.5739C21.4974 41.5581 21.4286 41.5457 21.3644 41.5243C20.8737 41.3552 20.4497 41.0508 20.0335 40.7521C20.0869 41.4217 20.673 42.0181 21.3697 42.1117C21.116 42.2875 20.7861 42.3608 20.477 42.3101C20.6426 42.4747 20.603 42.7836 20.4008 42.9053C20.6972 43.2142 21.1225 43.407 21.5607 43.4306C21.5286 43.8748 21.0662 44.2074 20.6011 44.2547C20.1366 44.3021 19.6791 44.1318 19.2594 43.9346C19.495 44.2412 19.882 44.4351 20.2793 44.4475C20.2458 44.5749 20.2123 44.7012 20.1793 44.8286C20.3269 44.7925 20.4828 44.9537 20.4325 45.0912C20.455 45.0912 20.4775 45.0923 20.4999 45.0923C20.3427 45.2276 20.1825 45.3595 20.0173 45.4858C19.717 45.4226 19.4497 45.2536 19.196 45.0833C18.9706 45.3223 19.2651 45.7823 19.5906 45.6989C19.5874 45.7338 19.5844 45.7687 19.5814 45.8037C19.5752 45.8082 19.569 45.8127 19.5628 45.8172C19.5685 45.8184 19.5743 45.8172 19.58 45.8183C19.5734 45.8905 19.5673 45.9615 19.5611 46.0325C19.6743 46.063 19.7874 46.0923 19.9006 46.1227C19.5805 46.3471 19.1405 46.276 18.7442 46.2986C18.3478 46.3222 17.8745 46.5725 17.9374 46.9479C17.9942 47.1125 18.2113 47.2072 18.3787 47.1396C18.369 47.2692 18.3593 47.3977 18.3496 47.5274C18.8586 47.6796 19.4386 47.6018 19.8843 47.3211C20.0485 47.6875 19.5161 47.9941 19.0986 47.9874C18.6812 47.9806 18.1889 47.8848 17.9066 48.179C17.6926 48.0527 17.479 47.9265 17.265 47.8013C17.2716 48.3255 17.7925 48.7923 18.3408 48.7641C18.239 48.9084 18.0801 49.0121 17.904 49.0527C18.0299 49.2263 18.2369 49.3435 18.4566 49.3661C18.3003 49.4811 18.1443 49.5983 17.9885 49.7144C18.2977 49.9545 18.7468 50.0165 19.1145 49.87C19.1282 49.9861 19.1414 50.1022 19.1546 50.2183C18.6468 50.4799 17.9819 50.4292 17.5231 50.0955C17.6379 50.5971 18.0801 51.0165 18.6059 51.1224C18.476 51.3141 18.2206 51.4201 17.9849 51.3817C18.3038 51.65 18.69 51.8439 19.1018 51.9432C18.6332 52.2532 17.9278 52.1709 17.5522 51.7617C17.3222 51.9466 17.5226 52.3118 17.774 52.4696C18.0255 52.6263 18.3527 52.7515 18.4258 53.0299C18.188 53.1539 17.9246 53.2328 17.6555 53.261C17.7587 53.4256 17.8617 53.5902 17.9643 53.7559C17.4605 53.9836 16.8511 53.987 16.3447 53.7638C16.7215 54.3173 17.3566 54.704 18.0413 54.7964C17.7776 54.9453 17.5138 55.0918 17.2505 55.2395C17.5067 55.4131 17.8313 55.4841 18.1431 55.4492C18.0902 55.483 18.0401 55.5202 17.9867 55.5518C18.0722 55.5506 18.1576 55.5394 18.243 55.536C18.1383 55.74 17.9075 55.8855 17.6679 55.8674C17.8255 55.952 17.8304 56.2079 17.6758 56.2969C17.9533 56.4198 18.2584 56.4852 18.5636 56.4875C18.3162 56.7693 18.0008 56.9959 17.6494 57.1458C18.4839 57.2687 19.3321 57.3003 20.1749 57.2495C20.1419 57.3476 20.1058 57.4434 20.0746 57.5426C20.0375 57.661 20.0001 57.7805 19.9626 57.8989C19.7962 57.9598 19.6408 58.033 19.5809 58.1864C19.6535 58.2461 19.7447 58.2765 19.8394 58.2923C19.7073 58.7139 19.5752 59.1344 19.443 59.5549C19.0885 60.6834 18.7107 61.8502 17.9229 62.7306C17.8243 62.6991 17.7257 62.6675 17.627 62.6348C17.759 62.6123 17.8895 62.5773 18.0092 62.5187C17.8982 62.282 17.9295 61.99 18.0889 61.7814C17.9422 61.7611 17.7952 61.742 17.6485 61.7217C18.0484 61.3496 18.3056 60.839 18.3615 60.308C17.9101 60.9878 16.977 61.3372 16.1623 61.1332C16.1509 61.0487 16.153 60.9641 16.1606 60.8796C16.2953 60.6654 16.3988 60.4331 16.4626 60.1896C16.4926 60.1547 16.5177 60.1175 16.5516 60.087C16.5323 60.0791 16.5129 60.0713 16.4935 60.0645C16.5124 59.9709 16.5282 59.8774 16.5353 59.7827C16.523 59.7827 16.5106 59.7827 16.4983 59.7838C16.788 59.5933 16.988 59.2731 16.9937 58.9372C16.7123 59.157 16.3473 59.272 15.9839 59.2686C16.4244 58.8774 16.8211 58.4366 17.1523 57.9496C16.9444 57.9733 16.7365 57.997 16.5286 58.0206C16.5974 57.8741 16.652 57.723 16.6776 57.5641C16.4803 57.8042 16.2089 57.9812 15.9104 58.0905C15.7339 58.1108 15.5572 58.1311 15.3811 58.1514C15.3511 58.1108 15.3146 58.077 15.2802 58.0409C15.2534 57.8594 15.2266 57.6779 15.2001 57.4964C15.5154 57.2879 15.7628 56.9835 15.8787 56.634C15.684 56.7727 15.4771 56.917 15.2358 56.9429C15.1966 56.9474 15.1569 56.9406 15.1169 56.9361C15.0975 56.8042 15.0781 56.6723 15.0583 56.5404C15.1331 56.5292 15.2084 56.5179 15.2834 56.5066C15.2992 56.3161 15.2287 56.1199 15.0944 55.9779C15.3564 55.926 15.5727 55.7085 15.6145 55.4548C15.3996 55.4684 15.1848 55.4807 14.9702 55.4931C15.4648 55.2722 15.8409 54.8224 15.9557 54.3117C15.6501 54.6206 15.2511 54.8359 14.8231 54.9509C14.7558 54.4943 14.6884 54.0378 14.6206 53.5823C14.9658 53.518 15.2679 53.2678 15.3679 52.9454C15.0032 53.066 14.6091 52.7954 14.429 52.4685C14.2489 52.1416 14.2067 51.7628 14.0683 51.4178C14.1903 51.4178 14.2903 51.2848 14.2511 51.1743C13.838 50.7707 13.6077 50.2522 13.6513 49.7065C13.5412 50.4303 13.4312 51.1529 13.321 51.8755C13.3035 51.9916 13.2859 52.11 13.314 52.2239C13.3391 52.3242 13.3986 52.4166 13.4113 52.5181C13.4611 52.9183 12.8701 53.0525 12.4501 53.0288C12.4932 53.3918 13.0119 53.6082 13.3201 53.3918C13.4474 53.6669 13.1731 54.0276 12.86 53.996C12.9877 54.3883 13.0278 54.8077 12.9767 55.2158C12.6345 55.4244 12.1031 55.2113 12.0207 54.8314C11.8876 55.2158 12.1673 55.616 12.4663 55.9035C12.7654 56.1921 13.1203 56.4796 13.1877 56.8798C12.8072 57.1379 12.2057 57.0105 11.974 56.6239C11.9802 56.9869 12.1096 57.3465 12.3386 57.6362C12.1378 57.9676 11.6318 58.0217 11.2708 57.856C10.9092 57.6903 10.6604 57.3668 10.4262 57.0568C10.4825 57.4773 10.7625 57.8662 11.1549 58.0669C10.9845 58.2021 10.7815 58.3013 10.5657 58.3509C10.8942 58.5561 11.3147 58.6215 11.6944 58.5257C11.2729 58.8988 10.7242 59.1401 10.1527 59.2021C10.6951 59.6091 11.5358 59.5978 12.066 59.1762C12.1052 59.5572 12.1449 59.9371 12.184 60.3181C12.1713 60.3441 12.1585 60.3689 12.1457 60.3948C11.623 60.3937 11.1007 60.3238 10.5996 60.1817C10.9942 60.4748 11.4258 60.7206 11.8767 60.928C11.8472 60.9855 11.8181 61.043 11.789 61.1016C11.4126 61.2313 10.9797 61.2076 10.5978 61.0757C10.1333 60.9156 9.73126 60.6282 9.33703 60.3441C9.38776 60.9788 9.94297 61.5435 10.6027 61.6315C10.3627 61.7994 10.0501 61.8682 9.75719 61.8198C9.914 61.9765 9.87691 62.2684 9.68493 62.3834C9.96597 62.6765 10.3689 62.8592 10.7836 62.8806C10.7538 63.3033 10.3151 63.6178 9.87522 63.6618C9.43488 63.7069 9.00154 63.5457 8.60392 63.3597C8.82714 63.6494 9.19352 63.8332 9.57005 63.8444C9.53837 63.9651 9.50658 64.0857 9.4749 64.2063C9.61492 64.1714 9.76294 64.3247 9.71537 64.4555C9.87037 64.4577 10.0258 64.4611 10.1808 64.4634C10.0799 64.7531 9.71187 64.8906 9.39565 64.8466C9.07943 64.8027 8.80515 64.6223 8.5435 64.4476C8.32998 64.6742 8.60911 65.1093 8.91744 65.0304C8.90819 65.1353 8.89895 65.2412 8.8897 65.3472C8.99669 65.3754 9.10412 65.4036 9.21111 65.4317C8.90819 65.6448 8.49153 65.5772 8.1159 65.5986C7.74027 65.6211 7.29158 65.8579 7.3519 66.213C7.40568 66.3697 7.61131 66.4587 7.76981 66.3956C7.76011 66.5174 7.75087 66.6402 7.74163 66.762C8.22424 66.9074 8.77336 66.833 9.19578 66.567C9.35112 66.9142 8.84698 67.2039 8.45151 67.1983C8.05604 67.1915 7.58966 67.1002 7.3224 67.3798C7.11983 67.2603 6.91727 67.1408 6.7147 67.0213C6.72087 67.5184 7.21452 67.9604 7.73373 67.9344C7.63723 68.0697 7.48662 68.1689 7.3202 68.2072C7.43905 68.3718 7.63554 68.4834 7.84331 68.5037C7.6954 68.6142 7.54784 68.7247 7.39993 68.834C7.6927 69.0618 8.11816 69.1204 8.4665 68.9829C8.47924 69.0922 8.49198 69.2016 8.50483 69.312C8.02391 69.5589 7.39373 69.5116 6.95911 69.1959C7.06787 69.6705 7.48662 70.0674 7.98468 70.1677C7.86146 70.3492 7.6201 70.4495 7.39677 70.4134C7.69845 70.6671 8.06438 70.852 8.4541 70.9467C8.01072 71.2386 7.34222 71.1609 6.9864 70.7742C6.76887 70.9489 6.95867 71.295 7.1969 71.4438C7.4351 71.5938 7.74467 71.711 7.81434 71.9748C7.58932 72.0932 7.33958 72.1676 7.0846 72.1935C7.18193 72.3502 7.27969 72.5069 7.37704 72.6625C6.90009 72.8789 6.32233 72.8812 5.84277 72.6692C6.19947 73.1946 6.80145 73.561 7.4501 73.6489Z" fill="#4E7457"/>
<path d="M51.1979 118.147C51.5158 118.645 52.0531 119.301 52.7884 119.97C53.523 120.64 54.5046 121.275 55.6465 121.712C56.2141 121.937 56.8258 122.099 57.4554 122.202C57.7734 122.267 58.0786 122.28 58.3974 122.313C58.7501 122.318 59.0627 122.335 59.3824 122.306C60.6811 122.265 61.9489 121.883 63.0419 121.343C63.5778 121.052 64.0918 120.752 64.5365 120.402C64.9874 120.061 65.3749 119.687 65.7105 119.321C66.3666 118.577 66.8506 117.875 67.1082 117.349C67.3865 116.825 67.5235 116.508 67.5235 116.508C67.5235 116.508 67.5024 116.59 67.4618 116.746C67.4143 116.899 67.3821 117.134 67.265 117.412C67.0659 117.984 66.7225 118.791 66.0896 119.633C65.4635 120.472 64.5624 121.351 63.4078 122.021C62.8226 122.332 62.2003 122.645 61.5195 122.824C60.8458 123.016 60.139 123.15 59.4261 123.181C59.0667 123.209 58.6986 123.183 58.3736 123.174C58.0187 123.136 57.647 123.111 57.3088 123.035C56.6152 122.921 55.9577 122.691 55.3496 122.424C54.1214 121.894 53.1557 121.08 52.441 120.319C51.7184 119.553 51.3093 118.77 51.049 118.232C50.9089 117.964 50.8433 117.734 50.7848 117.586C50.7297 117.435 50.7003 117.355 50.7003 117.355C50.7003 117.355 50.8658 117.657 51.1979 118.147ZM29.1276 117.346C29.2338 117.904 29.3424 118.477 29.4548 119.067C29.6235 120.256 30.0391 121.451 30.3804 122.718C31.255 125.188 32.3894 127.82 34.1081 130.29C35.8172 132.754 37.9679 135.104 40.5208 137.14C41.1817 137.62 41.8475 138.102 42.5186 138.588C43.2329 139.007 43.9525 139.43 44.676 139.855C45.3921 140.3 46.1856 140.574 46.9413 140.946C47.685 141.327 48.5161 141.591 49.3426 141.866C52.5819 142.956 56.06 143.543 59.537 143.467C63.012 143.396 66.4689 142.707 69.6629 141.481C72.8599 140.257 75.7879 138.501 78.2944 136.41C80.7965 134.305 82.8257 131.84 84.4301 129.312C86.0858 126.809 87.0666 124.108 87.8724 121.608C88.6562 118.84 88.9746 116.255 89.0385 113.974H64.865C64.8456 114.436 64.7888 114.9 64.6559 115.365C63.7522 118.512 60.468 120.331 57.3202 119.428C54.8022 118.705 53.1623 116.455 53.0584 113.974H28.8656C28.8651 114.033 28.8647 114.087 28.8638 114.147C28.8585 114.648 28.9418 115.164 28.9783 115.697C29.0263 116.229 29.076 116.78 29.1276 117.346Z" fill="#4E7457"/>
<path d="M98.5452 119.349L98.325 117.901C98.2589 117.473 98.0718 117.09 97.781 116.789L97.2293 116.228C96.8757 115.9 96.3993 115.471 95.9245 115.063C95.4515 114.651 94.9755 114.261 94.6166 113.974H89.3983C89.3996 114.168 89.4093 114.351 89.4062 114.55C89.3864 116.715 89.1363 119.175 88.441 121.762C88.2763 122.444 88.0318 123.05 87.8244 123.716C87.5927 124.368 87.4285 125.046 87.0995 125.702C86.8028 126.366 86.5007 127.041 86.1937 127.726C85.8626 128.398 85.4561 129.038 85.0818 129.711C83.4895 132.332 81.4629 134.93 78.8845 137.104C76.3163 139.277 73.3095 141.109 70.016 142.394C66.7261 143.683 63.1556 144.421 59.5569 144.518C55.9543 144.576 52.3635 143.943 49.0242 142.795C45.726 141.651 42.5509 139.972 39.9558 137.856C37.3241 135.754 35.1681 133.276 33.4697 130.715C31.7602 128.146 30.6544 125.432 29.8164 122.896C29.4967 121.597 29.0881 120.375 28.9581 119.157C28.8665 118.555 28.7771 117.969 28.6899 117.398C28.6591 116.824 28.6287 116.263 28.5992 115.722C28.5815 115.18 28.5173 114.658 28.5411 114.152C28.5438 114.09 28.5464 114.034 28.549 113.974H18.4602C18.7526 115.023 19.0789 115.857 19.0934 115.893C19.2428 116.302 19.5004 116.645 19.8372 116.888C19.8478 116.895 20.8796 117.637 21.8981 118.289C22.9652 118.938 24.0344 119.487 24.0754 119.508C24.4131 119.686 24.639 119.982 24.6963 120.322L24.8187 121.054L25.2511 120.981L24.8283 121.096L25.6474 124.103C25.6892 124.277 25.7364 124.42 25.7708 124.496L25.8192 124.622C25.8421 124.682 25.8144 124.733 25.787 124.764C25.7659 124.79 25.6879 124.868 25.5545 124.841C25.5382 124.837 23.9405 124.521 22.4468 124.028C20.9258 123.558 19.3463 122.943 19.3286 122.936C19.1208 122.855 18.8804 122.912 18.7323 123.087C18.5817 123.265 18.5616 123.521 18.684 123.728L20.2341 126.3L21.9801 128.649C22.2412 128.995 22.5874 129.245 22.9771 129.367C22.9767 129.367 23.2796 129.468 23.7631 129.587C24.2295 129.709 24.8469 129.859 25.4554 129.995C26.6643 130.267 27.8488 130.464 27.858 130.467C28.04 130.496 28.202 130.565 28.3653 130.683C28.527 130.784 28.6529 130.908 28.7414 131.052L29.1338 131.684L29.6513 132.522C29.7045 132.604 29.7613 132.699 29.8216 132.799C29.9449 133.006 30.0842 133.238 30.2475 133.456L31.1974 134.702C31.2471 134.767 31.2207 134.847 31.2071 134.879C31.1938 134.91 31.1418 135.01 31.0208 135.024C31.0053 135.027 29.4316 135.204 27.7965 135.267L26.5837 135.304L24.5104 135.237C24.2836 135.226 24.0807 135.354 23.9929 135.562C23.9028 135.779 23.9591 136.029 24.1322 136.186L24.8222 136.818C25.1154 137.076 25.5039 137.368 25.9103 137.675L28.0774 139.301C28.5327 139.617 28.8647 139.803 28.8665 139.804C29.0382 139.908 29.2197 139.988 29.4069 140.042C29.6231 140.104 29.8454 140.131 30.0687 140.121C30.0815 140.121 31.3599 140.067 32.5563 139.951C33.1553 139.901 33.7779 139.821 34.2602 139.731L35.0202 139.597C35.4002 139.527 35.7653 139.621 36.0233 139.85L36.5764 140.345L36.8688 140.02L36.5768 140.347L36.9714 140.696L39.5053 142.544C39.5868 142.602 39.589 142.686 39.5868 142.72C39.5832 142.766 39.5603 142.853 39.4551 142.906L39.1967 143.033C39.0389 143.113 38.8179 143.214 38.5541 143.327C38.012 143.562 37.2753 143.865 36.5121 144.152C35.0158 144.724 33.3824 145.217 33.3657 145.222C33.1477 145.288 32.9954 145.485 32.9878 145.712C32.98 145.945 33.1239 146.158 33.3486 146.242L36.1171 147.279C36.3624 147.381 36.6138 147.462 36.86 147.533C37.0947 147.601 37.3241 147.657 37.5404 147.71C37.7416 147.761 37.9279 147.806 38.1098 147.861L38.9897 148.088C39.4093 148.195 39.836 148.174 40.2161 148.03C40.264 148.014 41.4047 147.608 42.5452 147.029C43.673 146.487 44.7347 145.901 44.7435 145.896C45.0693 145.717 45.4313 145.697 45.7708 145.854C45.7708 145.854 45.9549 145.926 46.1377 145.984L46.4918 146.105L46.9466 146.259C48.9978 146.976 49.7059 147.193 50.0129 147.226C50.0577 147.248 50.0794 147.292 50.0895 147.328C50.0983 147.36 50.1208 147.468 50.0332 147.556L49.1321 148.423C48.7049 148.823 48.1735 149.321 47.6358 149.745C46.4151 150.746 45.0416 151.717 45.0275 151.727C44.8412 151.859 44.7606 152.087 44.8232 152.306C44.8756 152.49 45.0214 152.631 45.2032 152.684C45.2424 152.694 45.2834 152.702 45.3256 152.704L46.2671 152.758C46.4261 152.764 46.5978 152.775 46.7797 152.787C47.2491 152.816 47.7806 152.85 48.3285 152.805L51.2516 152.662C51.7339 152.625 52.1151 152.472 52.4103 152.202C52.4195 152.194 53.4002 151.338 54.2792 150.481C55.1691 149.623 55.9834 148.746 55.9829 148.746C56.2537 148.469 56.6219 148.307 56.9614 148.311L57.7039 148.33L58.6899 148.36C58.7867 148.359 58.8951 148.364 59.0108 148.369C59.2543 148.38 59.5274 148.39 59.7965 148.369L61.3572 148.255C61.439 148.251 61.4914 148.315 61.5099 148.343C61.5284 148.37 61.5848 148.469 61.5293 148.578C61.5228 148.593 60.8129 150.009 59.9727 151.412L59.5864 152.044L58.1508 154.146C58.017 154.329 58.0117 154.568 58.138 154.756C58.2115 154.865 58.3212 154.943 58.4441 154.978C58.5375 155.005 58.6379 155.008 58.737 154.983L59.6481 154.752C60.0321 154.642 60.5015 154.472 60.9921 154.295L63.4771 153.391C63.6721 153.327 63.8412 153.244 63.9808 153.176L64.3587 152.995C64.7505 152.808 65.0698 152.518 65.2808 152.161C65.2874 152.149 65.94 151.048 66.4962 149.978C66.8115 149.387 67.0696 148.851 67.2413 148.436L67.543 147.726C67.6913 147.37 67.9692 147.113 68.3026 147.021L69.0199 146.828V146.829L69.529 146.689L72.4697 145.574C72.5552 145.541 72.6222 145.577 72.6543 145.6C72.6922 145.629 72.7534 145.696 72.7405 145.814L72.7054 146.096C72.6837 146.27 72.6511 146.518 72.5996 146.801C72.5002 147.383 72.3513 148.167 72.1756 148.963C71.837 150.529 71.3583 152.166 71.3535 152.182C71.2895 152.401 71.3715 152.636 71.5568 152.766C71.6067 152.801 71.6608 152.826 71.7171 152.843C71.8779 152.888 72.0567 152.859 72.1999 152.754L74.5787 151.001C75.0028 150.708 75.3788 150.358 75.7104 150.052C75.8645 149.909 76.0081 149.776 76.1525 149.653L76.8232 149.043C77.1442 148.751 77.3609 148.382 77.4516 147.975L77.6128 147.221C77.7004 146.805 77.781 146.222 77.8602 145.652L77.8832 145.485C78.0501 144.248 78.1448 143.043 78.1461 143.027C78.1764 142.59 78.4495 142.299 78.6772 142.128L79.2677 141.677L80.8843 140.451C81.1269 140.287 81.3251 140.095 81.5004 139.927C81.5813 139.848 81.6571 139.775 81.7447 139.701L82.1032 139.368C82.1591 139.316 82.2291 139.331 82.2688 139.342C82.2996 139.352 82.404 139.395 82.4291 139.518C82.4321 139.534 82.7479 141.097 82.9531 142.727C83.1341 144.309 83.1776 145.967 83.1776 145.988C83.1852 146.214 83.3301 146.407 83.5463 146.476C83.5516 146.477 83.5569 146.479 83.5622 146.48C83.7792 146.542 84.0162 146.463 84.1566 146.28L84.7071 145.551C85.0162 145.175 85.3764 144.637 85.8749 143.809L87.2545 141.539C87.348 141.386 87.3929 141.279 87.3929 141.277C87.5818 140.887 87.6518 140.463 87.5973 140.051C87.5955 140.039 87.4282 138.76 87.2039 137.567C87.0925 136.96 86.9692 136.368 86.8701 135.922C86.7613 135.472 86.6702 135.165 86.6702 135.165C86.5654 134.786 86.6227 134.41 86.8274 134.128L87.2656 133.53L87.8667 132.708L89.2037 130.43C89.2495 130.353 89.3495 130.347 89.3789 130.347C89.4133 130.346 89.5274 130.357 89.5854 130.456C89.5934 130.47 90.3724 131.827 91.0717 133.292C91.4279 134.029 91.7692 134.791 92.0184 135.376C92.2672 135.948 92.4025 136.323 92.406 136.333C92.465 136.494 92.595 136.613 92.7544 136.659C92.8019 136.673 92.8526 136.68 92.9041 136.679C93.1365 136.679 93.3462 136.533 93.4276 136.312C93.4276 136.312 93.4646 136.21 93.5122 136.028L94.2123 133.398C94.3789 132.785 94.5792 132.002 94.6496 131.39L94.7892 130.49C94.8545 130.062 94.7936 129.638 94.614 129.265C94.5919 129.219 94.0661 128.113 93.4624 127.046C92.8156 125.963 92.1303 124.948 92.1246 124.938C91.9137 124.624 91.8573 124.256 91.9692 123.93L92.2136 123.227L91.8001 123.082L92.2268 123.181L92.9344 120.14C93.0133 119.829 93.0445 119.618 93.0467 119.607C93.0524 119.557 93.0838 119.521 93.1388 119.5C93.1687 119.489 93.2749 119.458 93.3717 119.539L94.1437 120.207C94.5413 120.566 95.0535 121.068 95.71 121.741C96.8246 122.881 97.9212 124.175 97.9344 124.191C98.0845 124.363 98.317 124.423 98.5306 124.339C98.7468 124.255 98.8864 124.04 98.8776 123.798L98.742 120.821C98.6923 120.308 98.6138 119.796 98.5452 119.349Z" fill="#4E7457"/>
<path d="M77.29 54.8686C76.8879 54.7705 76.4889 54.615 76.1596 54.3568C75.831 54.1054 75.5364 53.8055 75.3343 53.4527C75.1278 53.1032 74.9935 52.7221 74.9072 52.3389C75.0947 52.6872 75.2673 53.0344 75.5246 53.3196C75.7496 53.6251 76.0469 53.8641 76.3604 54.0547C76.6797 54.235 77.0183 54.3838 77.3815 54.4503C77.7172 54.518 78.0801 54.5259 78.4042 54.4898C78.9392 53.9803 79.4597 53.4549 80.0097 52.96C80.5799 52.4414 81.1564 51.9296 81.7685 51.4539C81.2921 52.0649 80.7804 52.6421 80.2625 53.2114C79.7468 53.7841 79.1989 54.3252 78.6692 54.8833L78.6151 54.9408L78.5419 54.9487C78.1029 54.9994 77.6991 54.961 77.29 54.8686ZM73.911 50.3469C74.4008 49.711 74.9323 49.118 75.4655 48.5262C76.0116 47.9479 76.5589 47.3695 77.1244 46.8093L77.2729 46.6627L77.2914 46.6447L77.3177 46.6706L77.4485 46.8093C77.5472 46.9141 77.6454 47.0201 77.7453 47.1227C78.1355 47.5251 78.5327 47.9208 78.9022 48.3447C79.3751 48.8667 79.8397 49.3988 80.2744 49.9602C79.7129 49.525 79.1813 49.0606 78.6586 48.5871C78.1835 48.1733 77.7426 47.7247 77.2882 47.2895C76.7779 47.7991 76.2569 48.2974 75.732 48.7934C75.1402 49.3255 74.547 49.8576 73.911 50.3469ZM83.5687 60.8638C83.7743 60.8097 83.9769 60.7274 84.1795 60.6575C84.3887 60.5876 84.5816 60.4884 84.7806 60.4083C84.973 60.3159 85.1655 60.2223 85.3417 60.1265C85.7001 59.927 86.0255 59.7139 86.2845 59.5155C86.7525 59.1604 87.0146 58.8379 87.0745 58.7647C87.0313 58.8549 86.8354 59.2235 86.4372 59.6744C86.2114 59.9337 85.926 60.2122 85.597 60.4951C85.4279 60.6304 85.2518 60.7668 85.0695 60.9032C84.8832 61.0295 84.6944 61.1715 84.4953 61.2843C84.3456 61.3745 84.1963 61.4714 84.0469 61.5537C84.671 61.3485 85.2721 61.0791 85.8326 60.7443C86.5069 60.3486 87.1277 59.8604 87.6523 59.2833C87.9147 58.9935 88.1534 58.6824 88.3626 58.3532C88.4656 58.1909 88.5651 58.0252 88.6514 57.8515C88.7078 57.749 88.7576 57.6396 88.8007 57.5302L85.6437 54.8844L89.3719 57.165L89.5648 57.2845L89.4912 57.5167C89.4216 57.7523 89.3389 57.9417 89.249 58.1435C89.1561 58.3374 89.0531 58.5257 88.9439 58.7151C88.721 59.0837 88.4722 59.4321 88.1899 59.7545C87.6355 60.4083 86.9683 60.963 86.2444 61.4207C85.9419 61.6123 85.6226 61.7769 85.3003 61.9347C85.0132 62.0644 84.7348 62.1997 84.4112 62.3124C84.2148 62.3812 84.0179 62.4499 83.8074 62.5108L83.5107 61.8299L83.4675 61.7296L83.1416 60.9833C83.1499 60.981 83.1584 60.9788 83.1663 60.9765C83.2993 60.9393 83.4309 60.9032 83.5687 60.8638ZM40.3058 46.6447L40.324 46.6627L40.4723 46.8093C41.0378 47.3695 41.5851 47.9479 42.1312 48.5262C42.6644 49.118 43.196 49.711 43.6857 50.3469C43.0498 49.8576 42.4567 49.3255 41.8648 48.7934C41.3398 48.2974 40.8189 47.7991 40.3085 47.2895C39.8541 47.7247 39.4132 48.1733 38.9381 48.5871C38.4154 49.0606 37.8839 49.525 37.3224 49.9602C37.7566 49.3988 38.2216 48.8667 38.6945 48.3447C39.0632 47.922 39.46 47.5274 39.8493 47.1249C39.95 47.0212 40.0487 46.9152 40.1478 46.8093L40.2693 46.6808L40.3058 46.6447ZM40.154 56.1481C40.29 56.1346 40.4428 56.1109 40.6102 56.0737C41.0937 56.5946 43.0987 58.7309 45.2485 60.715C46.4784 61.8581 47.7564 62.9494 48.756 63.7126C49.7565 64.4769 50.462 64.9256 50.462 64.9256C50.462 64.9256 49.8068 64.4047 48.8992 63.5457C47.9916 62.6867 46.8453 61.4782 45.7537 60.2234C44.1098 58.3509 42.5909 56.386 41.9309 55.5168C42.5376 55.1301 43.1846 54.5078 43.7852 53.5462C47.6565 60.4703 54.6737 66.6391 57.7324 69.1339C57.5722 69.2613 57.4748 69.3357 57.4692 69.3402C56.8293 69.8272 56.2119 70.3052 55.6121 70.7742C55.5914 70.7584 55.5733 70.7426 55.5527 70.7257C46.5538 63.3868 41.8286 58.1739 40.1219 56.1504C40.1323 56.1493 40.1425 56.1493 40.154 56.1481ZM38.9817 54.9408L38.9276 54.8833C38.3978 54.3252 37.8499 53.7841 37.3343 53.2114C36.8164 52.6421 36.3047 52.0649 35.8283 51.4539C36.4403 51.9296 37.0168 52.4414 37.587 52.96C38.1371 53.4549 38.6576 53.9803 39.1926 54.4898C39.5167 54.5259 39.8796 54.518 40.2152 54.4503C40.5784 54.3838 40.9171 54.235 41.2363 54.0547C41.55 53.8641 41.8471 53.6251 42.0721 53.3196C42.3294 53.0344 42.502 52.6872 42.6896 52.3389C42.6032 52.7221 42.469 53.1032 42.2624 53.4527C42.0603 53.8055 41.7657 54.1054 41.4372 54.3568C41.1078 54.615 40.7089 54.7705 40.3067 54.8686C39.8976 54.961 39.4938 54.9994 39.0548 54.9487L38.9817 54.9408ZM34.4543 60.9833L34.1293 61.7296L34.0862 61.8299L33.7894 62.5108C33.5789 62.4499 33.3816 62.3812 33.1847 62.3124C32.8619 62.1997 32.5836 62.0644 32.2966 61.9347C31.9741 61.778 31.6553 61.6123 31.3524 61.4207C30.6284 60.963 29.9613 60.4083 29.4069 59.7545C29.1246 59.4321 28.8758 59.0837 28.6529 58.7151C28.5438 58.5257 28.4406 58.3374 28.3477 58.1435C28.2579 57.9417 28.1751 57.7523 28.1051 57.5167L28.032 57.2845L28.2248 57.165L31.9531 54.8844L28.7961 57.5302C28.8392 57.6396 28.889 57.749 28.9453 57.8515C29.0317 58.0252 29.1311 58.1909 29.2343 58.3532C29.4434 58.6824 29.682 58.9935 29.9445 59.2833C30.469 59.8604 31.0899 60.3486 31.7637 60.7443C32.3247 61.0791 32.9258 61.3485 33.5498 61.5537C33.4006 61.4714 33.2512 61.3745 33.1015 61.2843C32.9025 61.1715 32.7136 61.0295 32.5272 60.9032C32.3449 60.7668 32.1688 60.6304 31.9997 60.4951C31.6708 60.2122 31.3854 59.9337 31.1595 59.6744C30.7609 59.2235 30.5654 58.8549 30.5222 58.7647C30.5818 58.8379 30.8442 59.1604 31.3123 59.5155C31.5712 59.7139 31.8967 59.927 32.2551 60.1265C32.4313 60.2223 32.6237 60.3159 32.8161 60.4083C33.0152 60.4884 33.2081 60.5876 33.4172 60.6575C33.6198 60.7274 33.8224 60.8097 34.028 60.8638C34.1659 60.9032 34.2976 60.9404 34.4305 60.9765C34.4385 60.9788 34.4464 60.981 34.4543 60.9833ZM72.8445 81.7003H74.1947C74.0207 81.5177 73.8318 81.326 73.6481 81.1366C72.5869 80.0454 71.3724 78.8504 69.9632 77.545C68.75 76.421 67.3905 75.2182 65.8779 73.942C65.4865 73.6117 65.0799 73.2746 64.6673 72.9341C64.0552 72.4302 63.4194 71.9162 62.758 71.3897C62.7495 71.3841 62.7416 71.3773 62.7337 71.3705C70.179 65.2897 74.7152 60.6564 77.0364 58.077C77.0514 58.0601 77.068 58.0409 77.083 58.0251C77.2653 57.8222 77.4305 57.6362 77.5855 57.4592C77.6238 57.4152 77.6638 57.3702 77.7008 57.3273C77.8338 57.1751 77.9567 57.0331 78.0681 56.9023C78.1152 56.8459 78.1597 56.7941 78.2029 56.7422C78.2931 56.6351 78.3813 56.5314 78.4552 56.4412C78.5058 56.3804 78.549 56.3285 78.5918 56.2755C78.6428 56.2135 78.6987 56.1447 78.7392 56.094C78.7899 56.0309 78.8274 55.9835 78.8621 55.9396C78.8775 55.9193 78.9039 55.8866 78.9163 55.8708C79.099 55.7987 79.2633 55.7941 79.4267 55.8527C79.8609 56.0083 80.195 56.5799 80.2863 56.7851L83.1081 63.2571C83.1081 63.2582 83.109 63.2582 83.1094 63.2594C83.2014 63.4691 83.4344 63.5818 83.6533 63.5254C83.6542 63.5254 83.6551 63.5254 83.656 63.5254C85.624 63.0192 87.0569 62.194 88.1058 61.3068C89.6586 59.9923 90.3609 58.5426 90.6397 57.7828C90.7489 57.4851 90.7947 57.2935 90.8026 57.2574C90.8435 57.0782 90.7749 56.8911 90.6277 56.7806L83.3657 51.2927L83.6075 51.0503L83.7048 50.9533C83.7502 50.9083 83.784 50.8553 83.8069 50.8C83.8299 50.7437 83.8422 50.6839 83.8422 50.6219C83.8422 50.5599 83.8299 50.499 83.8066 50.4427C83.7916 50.4055 83.7639 50.3739 83.7387 50.3412C83.726 50.3243 83.7198 50.3051 83.7048 50.2894L79.4451 46.0303C79.313 45.8984 79.1048 45.8645 78.9343 45.9311C78.878 45.9525 78.8256 45.9863 78.7815 46.0303L78.3936 46.4181L78.0972 46.1227L77.7026 45.7282C77.5617 45.5872 77.3755 45.5083 77.1782 45.5072C77.1697 45.5095 77.1632 45.5117 77.1553 45.5128C76.962 45.5534 76.792 45.5906 76.6576 45.7203C76.6554 45.7225 76.6524 45.7225 76.6501 45.7248L74.1924 48.1824L72.5534 49.8215C72.2755 50.1 72.2729 50.543 72.5314 50.835C72.542 50.8474 72.5455 50.862 72.5569 50.8733L73.3769 51.694C73.3337 51.7628 73.2804 51.8327 73.2272 51.8981H73.2268C73.2263 51.8992 73.2258 51.8992 73.2254 51.8992C73.1417 51.9939 73.0501 52.0931 72.9185 52.2115L72.8304 52.2938C72.8299 52.2938 72.8299 52.2938 72.8299 52.2938C72.8287 52.2949 72.8278 52.296 72.8264 52.2972C72.6829 52.4279 72.5319 52.5542 72.3408 52.7018C72.3394 52.703 72.339 52.703 72.3376 52.7041L72.205 52.8033C72.0131 52.9533 71.8532 53.1404 71.7114 53.3456C71.667 53.4098 71.6164 53.4685 71.5771 53.5384C71.4657 53.7345 71.3544 53.9307 71.2368 54.1279C71.2054 54.1821 71.1698 54.2407 71.1368 54.2959C71.0959 54.3658 71.0571 54.4323 71.0126 54.5045C70.9236 54.6566 70.8312 54.8066 70.7277 54.9655C70.644 55.1042 70.5595 55.2361 70.4731 55.3703L70.4458 55.4131L70.3357 55.5833L70.2992 55.6408C70.1873 55.8088 70.0733 55.9779 69.9588 56.1481C69.9226 56.2011 69.8888 56.2541 69.8522 56.3059C69.6822 56.5618 69.5087 56.8065 69.3303 57.0568C69.3128 57.0827 69.2912 57.1109 69.2735 57.1357C69.1512 57.3082 69.0296 57.4761 68.8786 57.6768C68.7883 57.8019 68.7006 57.9248 68.5959 58.0556C68.5518 58.1153 68.5047 58.1739 68.4603 58.2337C68.3404 58.3938 68.2207 58.5539 68.0951 58.7128C67.9921 58.8458 67.8855 58.9698 67.7816 59.1006C67.4685 59.4963 67.155 59.8909 66.8349 60.2708L66.5305 60.627L66.4512 60.7195C66.3482 60.839 66.2456 60.9506 66.1435 61.0678C65.8762 61.3744 65.6101 61.6811 65.3384 61.9764C65.1786 62.1546 65.0131 62.3327 64.7898 62.5717C64.5176 62.8637 64.2481 63.1466 63.9803 63.424C63.8941 63.513 63.8096 63.5987 63.7241 63.6866C63.5409 63.8737 63.3595 64.0586 63.1794 64.2379C63.0865 64.3315 62.9939 64.4228 62.9019 64.5141C62.7236 64.6911 62.5483 64.8613 62.3748 65.0293C62.2951 65.1071 62.2154 65.1849 62.137 65.2604C61.8948 65.4926 61.6566 65.7181 61.4258 65.9334C61.4144 65.9447 61.4038 65.9548 61.3923 65.965C61.1643 66.1769 60.9441 66.3798 60.7292 66.5737C60.6579 66.6391 60.59 66.7 60.52 66.7631C60.3694 66.8984 60.2223 67.0303 60.0801 67.1566C60.0083 67.2197 59.9383 67.2817 59.8683 67.3426C59.7295 67.4643 59.597 67.5793 59.468 67.6909C59.4107 67.7405 59.353 67.7912 59.2975 67.8386C59.1219 67.9897 58.9537 68.1328 58.7994 68.2613C58.799 68.2613 58.799 68.2625 58.799 68.2625C58.729 68.2039 58.6511 68.1373 58.5767 68.0731C58.497 68.0066 58.4199 67.9412 58.3349 67.8679C58.2323 67.78 58.123 67.6853 58.0135 67.5895C57.9421 67.5275 57.8716 67.4666 57.7972 67.4012C57.6761 67.2952 57.5519 67.1859 57.4238 67.072C57.3556 67.0111 57.2855 66.948 57.2151 66.8849C57.0759 66.7597 56.9363 66.6346 56.7901 66.5016C56.7399 66.4554 56.6866 66.4069 56.6355 66.3595C56.3101 66.0619 55.9706 65.744 55.6179 65.4081C55.5809 65.3731 55.5452 65.3393 55.5077 65.3043C55.3567 65.1589 55.2021 65.0079 55.0467 64.8568C54.948 64.761 54.8498 64.664 54.7495 64.5659C54.6072 64.425 54.4631 64.2819 54.3183 64.1364C54.1902 64.0068 54.0607 63.876 53.9308 63.743C53.8049 63.6145 53.6802 63.4882 53.5534 63.3563C53.324 63.1184 53.0923 62.8749 52.8594 62.6258C52.8255 62.5897 52.792 62.5548 52.7577 62.5187C52.7524 62.5119 52.7471 62.5074 52.7414 62.5018C52.5833 62.3316 52.4212 62.158 52.2609 61.981C52.2588 61.9776 52.2565 61.9753 52.2544 61.9731H52.2539C51.9139 61.6033 51.5743 61.2144 51.1935 60.7736C51.161 60.7364 51.1323 60.7037 51.0988 60.6654C51.0961 60.662 51.0935 60.6586 51.0905 60.6552L50.9707 60.5154L50.7606 60.2685C50.6972 60.193 50.635 60.1118 50.5721 60.0363C50.212 59.6034 49.853 59.166 49.4985 58.7106C49.3854 58.5663 49.2713 58.4129 49.1568 58.2607C49.1009 58.1863 49.0467 58.1187 48.9895 58.0409C48.9824 58.0319 48.9749 58.0218 48.9678 58.0127C48.8825 57.9045 48.7992 57.7895 48.6874 57.6351C48.6473 57.5821 48.6086 57.5257 48.5684 57.4716C48.4667 57.3352 48.3655 57.1988 48.2646 57.0545C48.0937 56.8155 47.9264 56.5777 47.7591 56.3285C47.7534 56.3195 47.7472 56.3105 47.7411 56.3015C47.7326 56.2902 47.7252 56.2778 47.7168 56.2654C47.5543 56.0275 47.394 55.7862 47.2394 55.5529L47.1174 55.3612C47.0338 55.2305 46.9506 55.0997 46.8603 54.952C46.7651 54.8066 46.6731 54.6578 46.5775 54.4932C46.5036 54.3748 46.4301 54.2497 46.3565 54.1223C46.2469 53.9385 46.1402 53.7503 46.0346 53.5631C46.0298 53.5541 46.0245 53.5462 46.0201 53.5384C45.8567 53.2486 45.6458 53.0028 45.3644 52.7853C45.3635 52.7841 45.3626 52.783 45.3613 52.783L45.3534 52.7763L45.3516 52.7751L45.2005 52.6602C45.1341 52.6083 45.0605 52.5418 44.9891 52.4809C44.9138 52.4178 44.8408 52.3614 44.7655 52.2926C44.765 52.2926 44.7615 52.2893 44.7611 52.2893C44.7523 52.2802 44.6523 52.1867 44.6514 52.1867C44.5471 52.0931 44.4541 51.9939 44.3788 51.9093C44.3247 51.8428 44.2757 51.7786 44.2233 51.6906C44.2233 51.6906 44.2233 51.6906 44.223 51.6906L45.0403 50.8733C45.3296 50.5847 45.3314 50.1157 45.0468 49.8271C45.0455 49.8249 45.0452 49.8226 45.0433 49.8215L40.9462 45.7248C40.9339 45.7124 40.9171 45.7067 40.9039 45.6955C40.8413 45.6414 40.7754 45.5918 40.7018 45.5624C40.6722 45.55 40.6388 45.5523 40.6075 45.5444C40.5472 45.5286 40.4878 45.5072 40.4234 45.5072C40.4217 45.5072 40.4199 45.5072 40.419 45.5072C40.3596 45.5072 40.305 45.5286 40.2491 45.5421C40.2125 45.5512 40.1734 45.55 40.139 45.5647C40.0487 45.6019 39.9659 45.6571 39.8941 45.7282L39.2036 46.4181L38.8148 46.0303C38.8077 46.0224 38.7977 46.0201 38.7897 46.0134C38.6175 45.8646 38.3445 45.8645 38.1731 46.0156C38.1666 46.0212 38.1574 46.0235 38.1512 46.0303L34.8387 49.3424L33.8924 50.2894C33.8466 50.3356 33.8127 50.3874 33.7898 50.4438C33.7739 50.4821 33.77 50.5261 33.7651 50.5678C33.7598 50.6106 33.7621 50.6535 33.7695 50.6963C33.7748 50.7313 33.7765 50.7662 33.7898 50.7989C33.8127 50.8553 33.8466 50.9071 33.8924 50.9533L34.0729 51.1349L34.2306 51.2927L26.969 56.7806C26.8219 56.8911 26.7532 57.0782 26.7941 57.2574C26.7999 57.2834 26.8272 57.3927 26.88 57.5573C27.1187 58.3013 27.9369 60.2731 30.1977 61.8513C31.1621 62.5243 32.3837 63.1252 33.9412 63.5254C33.9968 63.5401 34.0532 63.5446 34.1077 63.5389C34.1214 63.5367 34.1337 63.5299 34.147 63.5265C34.2944 63.4972 34.4256 63.4037 34.4891 63.2571L34.7823 62.5852L37.3088 56.7862C37.3255 56.749 37.3585 56.6904 37.3902 56.634C37.4013 56.6137 37.4056 56.6024 37.4188 56.5799C37.459 56.5123 37.5126 56.4378 37.5676 56.3623C37.5822 56.3431 37.5919 56.3251 37.6073 56.3059C37.6597 56.2394 37.7236 56.1786 37.7861 56.1177C37.8125 56.0918 37.8346 56.0613 37.8628 56.0376C37.9111 55.9959 37.9675 55.9734 38.0208 55.9418C38.0705 55.9114 38.1164 55.8719 38.1696 55.8527C38.1701 55.8527 38.1701 55.8527 38.1701 55.8527C38.3274 55.7941 38.4854 55.8009 38.658 55.8663C38.666 55.8685 38.6725 55.8674 38.6804 55.8708C38.6998 55.8956 38.7382 55.9441 38.765 55.9779C38.7932 56.014 38.8183 56.0444 38.8548 56.0906C38.8976 56.1436 38.9562 56.2158 39.0098 56.2811C39.0513 56.3319 39.0932 56.3826 39.1415 56.4412C39.2147 56.5292 39.3009 56.6329 39.3895 56.7377C39.4353 56.7918 39.4824 56.8471 39.5326 56.9057C39.6405 57.0331 39.7599 57.1706 39.8879 57.3183C39.9302 57.3668 39.9761 57.4186 40.0205 57.4694C40.1725 57.6418 40.3328 57.8234 40.5102 58.0206C40.5292 58.0421 40.5499 58.0646 40.5687 58.086C41.2065 58.794 42.0136 59.6587 43.0001 60.6642C43.9609 61.6439 45.0922 62.7566 46.4098 63.9944C46.4208 64.0045 46.4318 64.0147 46.4428 64.0259C48.6917 66.1374 51.4736 68.6018 54.863 71.3705C54.1276 71.9556 53.4231 72.5261 52.7485 73.0841C49.4792 75.7863 46.9039 78.1695 44.8588 80.2145C44.3445 80.7286 43.8525 81.2291 43.4021 81.7003H43.4078H44.0542H44.1384H44.175H44.4106H44.7109H44.7518H45.2525C46.9845 79.9383 49.1124 77.9136 51.7827 75.6229C53.0368 74.5463 54.4095 73.4133 55.9133 72.2228C56.0212 72.1371 56.1388 72.0469 56.2481 71.9613C56.2629 71.95 56.2797 71.9365 56.2947 71.9252C56.4184 71.8282 56.5519 71.7268 56.6769 71.6287C57.2292 71.1969 57.776 70.7674 58.363 70.321C58.363 70.321 58.5229 70.2015 58.7982 69.9873C58.8867 69.9185 59.0025 69.8261 59.1152 69.737C59.221 69.6536 59.3208 69.5747 59.4469 69.4732C59.4513 69.4699 59.4565 69.4654 59.4605 69.462C59.4698 69.4552 59.4811 69.445 59.4908 69.4383C59.6054 69.3458 59.7348 69.2399 59.8648 69.1339C62.923 66.6391 69.9403 60.4703 73.8115 53.5462C74.4123 54.5078 75.0591 55.1301 75.666 55.5168C75.0058 56.386 73.4869 58.3509 71.8431 60.2234C70.7515 61.4782 69.6052 62.6867 68.6976 63.5457C67.7899 64.4047 67.1347 64.9256 67.1347 64.9256C67.1347 64.9256 67.8402 64.4769 68.8407 63.7126C69.8403 62.9494 71.1183 61.8581 72.3482 60.715C74.4981 58.7309 76.503 56.5946 76.9865 56.0737C77.1539 56.1109 77.3067 56.1346 77.4428 56.1481C77.4538 56.1493 77.4644 56.1493 77.4749 56.1504C75.7681 58.1739 71.043 63.3868 62.0441 70.7257C62.0234 70.7426 62.0054 70.7584 61.9846 70.7742C61.8613 70.8745 61.7297 70.9794 61.605 71.0808C61.6015 71.0831 61.5972 71.0865 61.5935 71.0898C61.5843 71.0977 61.5747 71.1045 61.5654 71.1124C61.4575 71.1992 61.3403 71.2916 61.2317 71.3796C61.1294 71.4619 61.0224 71.5464 60.9199 71.6287C60.2329 72.1811 59.5327 72.738 58.7987 73.3129C58.674 73.4099 58.5405 73.5113 58.4146 73.6094C58.4018 73.6184 58.3882 73.6297 58.3755 73.6399C58.364 73.6489 58.3521 73.6568 58.3411 73.6658C58.2385 73.7458 58.1327 73.827 58.0292 73.9071C57.496 74.3197 56.9781 74.7266 56.4202 75.1505C54.1329 76.8877 52.2054 78.4412 50.5691 79.8368C49.8006 80.4918 49.0934 81.1152 48.4513 81.7003H49.1115H49.1475H49.8535C50.6479 80.9957 51.529 80.2416 52.5089 79.4333C52.8224 79.1751 53.1443 78.9124 53.4781 78.6419C54.5407 77.784 55.7073 76.8708 56.9883 75.8979C57.5656 75.4594 58.1055 75.0366 58.6568 74.6094C58.7035 74.5733 58.7519 74.5361 58.7987 74.5C59.394 74.9634 59.9824 75.4222 60.6085 75.8979C61.3493 76.4605 62.0441 76.9993 62.7104 77.5224C63.5453 78.1797 64.3278 78.8076 65.0527 79.4051C66.0462 80.2235 66.9392 80.9878 67.7433 81.7003H68.4488H68.4853H69.1455C68.4559 81.0713 67.6922 80.4005 66.8564 79.6914C65.7991 78.7929 64.6202 77.8302 63.3039 76.7953C62.6298 76.2643 61.9248 75.7187 61.1765 75.1505C60.6336 74.7379 60.1307 74.3433 59.6111 73.9409C59.5966 73.9296 59.582 73.9183 59.5675 73.9071C59.5737 73.9014 59.5807 73.8969 59.5873 73.8913C60.313 73.3231 61.0035 72.7696 61.6834 72.2228C62.1017 72.5531 62.4871 72.8699 62.8852 73.1923C63.6096 73.7785 64.3023 74.3501 64.9628 74.907C66.3874 76.1087 67.6742 77.2428 68.8288 78.3059C70.1561 79.528 71.3244 80.662 72.3443 81.7003H72.8445Z" fill="#4E7457"/>
<path d="M0.96489 84.9763H116.632C117.165 84.9763 117.597 84.5445 117.597 84.0113C117.597 83.4792 117.165 83.0475 116.632 83.0475H115.776H111.037H84.4569H81.3585H76.7562H75.4537H75.3594H74.8173H74.7865H74.6178H74.1734H74.1351H73.6402H72.5586H72.0527H70.6149H70.5796H69.9785H69.9076H69.2224H67.8054H61.1638H56.7741H49.7918H48.3747H48.3742H47.6891H47.6181H47.0175H46.9822H45.544H45.038H43.9564H43.4615H43.4232H42.9788H42.8102H42.7794H42.2347H42.143H40.8409H39.7289H34.837H34.7352H26.5682H15.5935H1.8192H0.96489C0.432044 83.0475 0.000488281 83.4792 0.000488281 84.0113C0.000488281 84.5445 0.432044 84.9763 0.96489 84.9763Z" fill="#4E7457"/>
<path d="M116.632 109.737H0.964403C0.431556 109.737 0 110.169 0 110.701C0 111.234 0.431556 111.666 0.964403 111.666H1.81915H17.8846H21.0451H24.0924H28.6595H28.8919H53.4274H64.496H89.0217H89.2951H93.4861H115.776H116.632C117.164 111.666 117.596 111.234 117.596 110.701C117.596 110.169 117.164 109.737 116.632 109.737Z" fill="#4E7457"/>
<path d="M30.7061 90.2206V99.1765C30.7061 101.015 30.1728 102.449 29.1062 103.478C28.0397 104.493 26.5287 105 24.5734 105C23.1365 105 21.9811 104.75 21.1071 104.25C20.2331 103.735 19.6332 103.029 19.3073 102.132C18.9814 101.221 18.9147 100.184 19.1073 99.0221L22.8402 98.3603C22.6625 99.6985 22.7217 100.647 23.018 101.206C23.3291 101.75 23.892 102.022 24.7067 102.022C25.5066 102.022 26.0695 101.757 26.3954 101.228C26.7213 100.699 26.8842 99.8824 26.8842 98.7794V90.2206H30.7061Z" fill="#DB9D46"/>
<path d="M47.5876 104.779H43.6547L42.6326 101.493H37.6109L36.5666 104.779H32.7225L37.8775 90.2206H42.4548L47.5876 104.779ZM38.3219 98.9118H41.9216L40.1217 93.0221L38.3219 98.9118Z" fill="#DB9D46"/>
<path d="M51.9892 104.779L47.7675 90.2206H51.8337L54.3223 101.713L56.9443 90.2206H60.4106L63.0992 101.691L65.5434 90.2206H69.4763L65.2323 104.779H61.0772L59.344 97.7206L58.6774 94.1691H58.633L57.9886 97.7206L56.2777 104.779H51.9892Z" fill="#DB9D46"/>
<path d="M78.6847 90C80.166 90 81.4399 90.3015 82.5065 90.9044C83.5879 91.4926 84.4174 92.3456 84.9951 93.4632C85.5729 94.5809 85.8617 95.9265 85.8617 97.5C85.8617 99.0735 85.5729 100.419 84.9951 101.537C84.4174 102.654 83.5879 103.515 82.5065 104.118C81.4399 104.706 80.166 105 78.6847 105C77.2034 105 75.922 104.706 74.8406 104.118C73.7593 103.515 72.9297 102.654 72.352 101.537C71.7743 100.419 71.4854 99.0735 71.4854 97.5C71.4854 95.9265 71.7743 94.5809 72.352 93.4632C72.9297 92.3456 73.7593 91.4926 74.8406 90.9044C75.922 90.3015 77.2034 90 78.6847 90ZM78.6847 92.9779C77.9736 92.9779 77.3737 93.1471 76.8849 93.4853C76.396 93.8235 76.0257 94.3309 75.7739 95.0074C75.5221 95.6691 75.3961 96.5 75.3961 97.5C75.3961 98.4853 75.5221 99.3162 75.7739 99.9926C76.0257 100.669 76.396 101.176 76.8849 101.515C77.3737 101.853 77.9736 102.022 78.6847 102.022C79.3957 102.022 79.9883 101.853 80.4623 101.515C80.9511 101.176 81.3214 100.669 81.5733 99.9926C81.8251 99.3162 81.951 98.4853 81.951 97.5C81.951 96.5 81.8251 95.6691 81.5733 95.0074C81.3214 94.3309 80.9511 93.8235 80.4623 93.4853C79.9883 93.1471 79.3957 92.9779 78.6847 92.9779Z" fill="#DB9D46"/>
<path d="M96.6007 90.2206C98.3486 90.2206 99.7041 90.6324 100.667 91.4559C101.645 92.2647 102.133 93.3456 102.133 94.6985C102.133 96.1838 101.652 97.3162 100.689 98.0956C99.7263 98.875 98.3709 99.2647 96.6229 99.2647L96.2674 99.4632H93.3566V104.779H89.6014V90.2206H96.6007ZM96.0674 96.7721C96.8081 96.7721 97.3636 96.625 97.7339 96.3309C98.1042 96.0368 98.2894 95.5662 98.2894 94.9191C98.2894 94.2868 98.1042 93.8235 97.7339 93.5294C97.3636 93.2353 96.8081 93.0882 96.0674 93.0882H93.3566V96.7721H96.0674ZM98.3116 97.5662L103 104.779H98.7782L95.0231 98.4044L98.3116 97.5662Z" fill="#DB9D46"/>
</svg>
