<svg width="376" height="496" viewBox="0 0 376 496" fill="none" xmlns="http://www.w3.org/2000/svg">
<path d="M198.539 250.21C196.425 248.549 194.217 246.838 191.859 245.047C190.512 244.023 189.219 243.025 187.937 242.031C186.656 243.025 185.362 244.023 184.015 245.05C182.754 246.005 181.538 246.942 180.346 247.861C178.113 249.587 176.02 251.241 174.024 252.841C170.307 255.817 166.977 258.584 164.017 261.139H211.858C208.953 258.631 205.69 255.918 202.053 252.999C200.92 252.091 199.75 251.162 198.539 250.21" fill="#E9E4D0"/>
<path d="M46.0928 173.254C46.0225 174.141 45.9324 175.024 45.8142 175.899C45.7 175.903 45.5905 175.935 45.4762 175.935C45.682 175.042 45.8874 174.148 46.0928 173.254V173.254ZM73.1006 132.476C73.1035 132.476 73.1064 132.479 73.1093 132.479C72.3126 132.948 71.3837 133.114 70.4446 133.096C71.3556 133.023 72.2575 132.825 73.1006 132.476V132.476ZM85.3169 119.198C85.3 119.381 85.2899 119.569 85.3155 119.77C85.5422 120.632 86.4048 121.125 87.0707 120.772C87.0411 121.295 87.0116 121.814 86.9806 122.336C86.3796 122.653 85.7194 122.848 85.0424 122.952C84.4442 122.282 83.8897 121.597 83.373 120.898C84.1459 120.477 84.8085 119.893 85.3169 119.198V119.198ZM93.0612 121.723C93.7141 123.64 91.5957 125.24 89.9349 125.204C88.6259 125.179 87.1381 124.876 86.0149 125.496C85.9655 125.381 85.8895 125.283 85.763 125.222C86.6639 124.7 87.3943 123.943 87.9348 123.078C89.6986 123.435 91.5676 122.959 93.0612 121.723V121.723ZM87.0606 132.724C87.0494 132.591 87.0552 132.458 87.0581 132.324C87.1662 132.353 87.2707 132.4 87.3802 132.414C87.2746 132.515 87.1676 132.62 87.0606 132.724ZM125.271 99.6928C126.044 100.071 126.88 100.23 127.708 100.172C127.657 100.453 127.636 100.749 127.677 101.066C127.926 102.021 128.885 102.568 129.624 102.179C129.58 102.929 129.536 103.678 129.494 104.428C130.372 104.773 131.297 104.91 132.216 104.856C131.117 105.134 129.982 105.209 128.869 105.062C127.748 104.914 126.593 104.521 125.782 103.541C124.971 102.561 124.634 100.86 125.271 99.6928V99.6928ZM129.118 115.922C129.045 115.897 128.969 115.886 128.897 115.857C129.131 115.749 129.371 115.605 129.61 115.439C129.446 115.601 129.281 115.76 129.118 115.922V115.922ZM180.202 106.633C180.223 106.654 180.241 106.676 180.263 106.701C180.23 106.676 180.194 106.658 180.163 106.633C180.177 106.633 180.188 106.629 180.202 106.633ZM193.123 110.384C193.799 110.95 194.563 111.306 195.352 111.342C195.233 111.998 195.115 112.654 194.998 113.31C195.276 113.212 195.551 113.407 195.731 113.713C194.81 114.502 193.651 115.036 192.41 115.245C191.657 114.585 190.975 113.875 190.374 113.119C191.584 112.499 192.549 111.533 193.123 110.384V110.384ZM197.626 114.711C197.252 116.29 195.879 117.043 194.703 116.801C194.593 116.78 194.491 116.722 194.386 116.69C195.024 116.099 195.533 115.396 195.893 114.636C195.891 114.647 195.895 114.657 195.893 114.668C196.47 114.683 197.049 114.697 197.626 114.711V114.711ZM192.845 119.057C192.767 119.043 192.685 119.046 192.608 119.032C192.694 119.043 192.773 119.032 192.848 119.01C192.846 119.025 192.846 119.039 192.845 119.057V119.057ZM222.523 104.424C223.889 105.166 225.481 105.047 226.786 104.107C226.626 103.61 226.569 103.065 226.565 102.518C227.315 103.307 228.209 103.811 229.134 103.855C229.016 104.539 228.897 105.224 228.781 105.909C229.301 105.71 229.852 106.582 229.675 107.325C230.253 107.343 230.83 107.357 231.408 107.371C231.314 107.786 231.157 108.146 230.955 108.449C230.206 108.953 229.413 109.332 228.592 109.551C228.557 109.548 228.52 109.559 228.484 109.551C227.307 109.303 226.285 108.279 225.309 107.285C224.904 107.944 224.979 108.906 225.301 109.638C224.443 109.447 223.594 109.061 222.975 108.225C222.255 107.256 221.957 105.577 222.523 104.424V104.424ZM256.304 96.6336C256.886 96.9651 257.512 97.0984 258.136 97.1056C259.257 97.6065 260.563 97.7578 261.769 97.4623C260.283 98.7343 258.367 99.5595 256.36 99.8333C255.959 98.8388 255.862 97.574 256.304 96.6336V96.6336ZM263.35 101.635C262.107 102.183 260.785 102.366 259.494 102.168C258.501 102.017 257.476 101.613 256.757 100.601C256.675 100.485 256.622 100.338 256.553 100.208C258.562 101.325 261.34 101.195 263.153 99.8009C263.219 100.413 263.285 101.026 263.35 101.635ZM267.332 91.5493C267.305 91.5673 267.274 91.5745 267.246 91.5925C267.126 91.1854 266.986 90.789 266.852 90.3855C267.077 90.7494 267.258 91.1277 267.332 91.5493V91.5493ZM281.027 112.023C281.381 112.149 281.751 112.236 282.125 112.286C282.962 112.719 283.89 112.798 284.757 112.499C284.751 112.528 284.742 112.557 284.736 112.585C283.939 113.591 283.003 114.358 282 114.892C281.815 114.783 281.637 114.668 281.479 114.528C280.76 113.89 280.461 112.784 281.027 112.023V112.023ZM286.011 106.006C286.208 106.845 286.497 107.642 286.877 108.344C286.539 109.162 285.925 109.609 285.254 109.742C285.341 109.541 285.448 109.342 285.589 109.166C285.042 109.094 284.494 109.025 283.946 108.953C284.864 108.128 285.548 107.108 286.011 106.006ZM305.656 141.83C305.806 141.816 305.959 141.801 306.112 141.776C306.136 142.972 306.205 144.172 306.348 145.368C305.559 145.408 304.767 145.293 304.012 144.968C305.026 144.453 306.27 143.069 305.656 141.83V141.83ZM313.817 179.153C314.563 180.169 315.687 180.915 316.938 181.092C316.173 181.646 315.18 181.877 314.249 181.715C314.748 182.237 314.628 183.207 314.02 183.592C314.067 183.643 314.124 183.682 314.174 183.729C313.348 183.25 312.605 182.497 312.08 181.488C313.005 181.715 313.833 180.403 313.817 179.153V179.153ZM314.948 167.111C315.182 166.927 315.401 166.686 315.594 166.415C315.881 166.329 316.161 166.221 316.437 166.102C316.681 167.41 317.518 168.599 318.693 169.226C318.151 169.68 317.505 170.004 316.819 170.174C317.864 170.855 319.201 171.071 320.407 170.75C319.068 171.997 317.324 172.797 315.506 173.002C317.231 174.357 319.904 174.321 321.59 172.919C321.611 173.135 321.633 173.355 321.654 173.575C321.518 174.67 321.391 175.769 321.199 176.843C321.194 176.872 321.185 176.901 321.18 176.926C319.742 176.868 318.307 176.674 316.926 176.263C318.112 177.186 319.407 177.957 320.754 178.623C320.674 178.89 320.598 179.153 320.5 179.416C319.354 179.762 318.064 179.65 316.921 179.236C316.081 178.937 315.309 178.49 314.566 177.993C315.796 177.351 316.728 175.542 316.599 173.687C316.095 173.993 315.581 174.299 315.057 174.534C314.048 172.429 313.312 170.199 312.859 167.911C313.591 167.803 314.311 167.604 314.948 167.111V167.111ZM315.263 184.738C315.3 184.702 315.329 184.652 315.366 184.616C315.399 184.634 315.432 184.655 315.465 184.673C315.395 184.691 315.332 184.72 315.263 184.738V184.738ZM314.623 187.848C314.441 187.866 314.259 187.844 314.078 187.841C314.051 187.686 314.033 187.527 313.997 187.368C313.951 187.16 313.874 186.954 313.812 186.745C314.265 186.024 314.717 185.304 315.255 184.749C315.42 184.771 315.586 184.792 315.751 184.81C316.309 185.055 316.906 185.214 317.512 185.246C317.417 186.651 316.023 187.696 314.623 187.848V187.848ZM314.163 191.696C314.186 191.293 314.204 190.889 314.217 190.485C314.677 190.493 315.136 190.503 315.595 190.511C315.387 191.138 314.811 191.523 314.163 191.696ZM23.8128 235.404C23.0134 235.851 22.2153 236.298 21.4172 236.745C21.8085 237.011 22.2561 237.184 22.7206 237.296C22.6586 237.346 22.5995 237.4 22.5362 237.451C22.7684 237.426 22.9993 237.404 23.2315 237.382C23.6791 237.429 24.1338 237.426 24.5731 237.325C24.3774 238.118 23.5299 238.708 22.6826 238.647C23.1597 238.903 23.1738 239.674 22.7065 239.948C23.5454 240.319 24.4686 240.514 25.395 240.521C24.6448 241.375 23.6903 242.063 22.6249 242.517C23.1836 242.596 23.7454 242.658 24.3068 242.715C24.2167 242.802 24.1281 242.888 24.038 242.971C25.2444 242.859 26.4828 243.108 27.5498 243.685C25.8537 245.115 24.1562 246.549 22.4602 247.98C24.7659 248.149 27.0713 248.322 29.377 248.491C26.3971 252.513 22.8796 256.141 18.9469 259.24C21.0625 258.501 23.2836 258.065 25.5215 257.943C25.0347 259.01 24.5475 260.072 24.0607 261.139H112.29H127.046H134.493C137.572 257.856 141.155 254.196 145.312 250.192C150.316 245.371 156.189 240.034 163.055 234.23C165.416 232.233 167.859 230.197 170.465 228.093C141.51 204.135 126.847 187.358 122.481 182.064C122.317 182.299 122.162 182.555 122.078 182.742L113.062 203.421C112.149 205.518 109.895 206.621 107.691 206.023C86.595 200.6 82.7845 184.367 82.6325 183.679C82.2412 181.942 82.9099 180.111 84.3415 179.027L105.076 163.356C104.898 162.866 104.807 162.34 104.807 161.799C104.807 160.596 105.297 159.414 106.15 158.56L119.762 144.947C120.628 144.078 121.778 143.603 123.004 143.603C123.005 143.603 123.005 143.603 123.006 143.603C123.774 143.606 124.513 143.79 125.168 144.143L125.336 143.977C126.352 142.954 127.723 142.381 129.184 142.374C129.191 142.374 129.198 142.374 129.204 142.374C130.658 142.374 132.023 142.94 133.052 143.963L146.152 157.065C147.177 158.077 147.75 159.45 147.75 160.917C147.75 162.376 147.177 163.752 146.14 164.79L145.641 165.291C145.906 165.514 146.145 165.713 146.37 165.886L146.824 166.228L146.821 166.235C146.922 166.311 147.029 166.394 147.126 166.473C148.123 167.237 149.06 168.343 149.774 169.601L150.82 171.42C151.055 171.827 151.272 172.199 151.49 172.548C151.814 173.096 152.085 173.535 152.365 173.968L155.142 178.22C155.698 179.056 156.234 179.816 156.782 180.584C157.211 181.192 157.639 181.776 158.076 182.353C158.481 182.911 158.737 183.268 159.006 183.61C159.596 184.403 160.103 185.073 160.628 185.736C161.955 187.444 163.275 189.073 164.604 190.651L165.804 192.056C166.979 193.415 168.13 194.73 169.294 196.002C169.847 196.615 170.393 197.202 170.927 197.771C177.353 204.672 183.455 210.271 187.938 214.137C192.411 210.286 198.482 204.715 204.833 197.897C205.467 197.22 206.016 196.629 206.543 196.042C207.753 194.726 208.896 193.415 210.065 192.064C210.463 191.606 210.853 191.152 211.244 190.68C212.602 189.069 213.921 187.444 215.22 185.772C215.759 185.088 216.268 184.421 216.763 183.744C217.144 183.261 217.399 182.9 217.664 182.54C218.221 181.794 218.649 181.214 219.07 180.612C219.643 179.809 220.181 179.045 220.71 178.256C221.27 177.434 221.796 176.638 222.323 175.842L222.676 175.287C222.935 174.883 223.186 174.498 223.428 174.094C223.779 173.55 224.05 173.11 224.309 172.667L226.105 169.593C226.813 168.332 227.756 167.23 228.896 166.343L229.546 165.853C229.754 165.691 229.991 165.5 230.234 165.291L229.735 164.79C228.698 163.756 228.126 162.38 228.126 160.917C228.126 159.457 228.693 158.088 229.726 157.058L242.818 143.97C244.95 141.848 248.414 141.852 250.541 143.981L250.711 144.15C252.436 143.25 254.752 143.585 256.116 144.954L269.726 158.56C270.579 159.414 271.066 160.596 271.066 161.799C271.066 162.34 270.975 162.866 270.797 163.356L291.529 179.027C292.962 180.104 293.635 181.935 293.242 183.686C293.086 184.385 289.18 200.629 268.157 206.03C266.016 206.603 263.698 205.482 262.805 203.407L253.795 182.731C253.713 182.547 253.562 182.299 253.393 182.068C249.029 187.358 234.366 204.131 205.41 228.093C213.541 234.666 220.432 240.698 226.305 246.16C230.785 250.326 234.653 254.149 238.024 257.626C239.198 258.837 240.329 260.015 241.382 261.139H362.366C360.871 259.089 358.806 257.46 356.464 256.48C358.637 255.057 360.806 253.63 362.975 252.203C358.896 251.972 353.617 250.635 353.361 246.556C353.3 245.638 353.527 244.636 353.051 243.847C352.814 243.458 352.428 243.173 352.208 242.773C351.506 241.49 352.785 240.092 353.513 238.827C354.244 237.563 353.415 235.195 352.147 235.919C354.655 235.084 356.975 233.678 358.882 231.844C354.828 230.583 351.333 227.668 349.3 223.949C349.92 223.257 350.471 222.494 351.293 222.083C350.799 222.05 350.327 221.917 349.866 221.737C351.423 221.175 352.976 220.613 354.529 220.05C353.387 219.042 352.295 217.979 351.171 216.952C351.841 216.325 352.266 215.427 352.179 214.509C351.3 214.891 350.392 215.258 349.448 215.359C348.753 214.718 348.05 214.083 347.362 213.435C348.046 213.046 348.573 212.361 348.645 211.572C348.414 211.352 348.183 211.132 347.953 210.909C349.607 210.513 351.21 209.886 352.662 209.003C352.338 208.844 352.025 208.66 351.707 208.495C351.884 208.084 351.967 207.644 351.844 207.208C351.304 207.468 350.709 207.608 350.111 207.626C349.744 207.406 349.39 207.172 349.03 206.942C349.567 206.56 349.978 205.99 350.129 205.345C348.67 205.439 347.185 205.154 345.857 204.531C346.234 204.275 346.612 204.023 346.989 203.767C346.831 203.576 346.675 203.389 346.517 203.201C346.755 203.162 346.993 203.108 347.224 203.036C346.947 202.758 346.693 202.495 346.434 202.229C347.639 201.634 348.353 200.085 347.892 198.798C347.017 199.692 345.733 200.117 344.49 200.041C344.195 199.667 343.923 199.292 343.676 198.91C344.72 197.905 345.138 195.53 346.651 194.899C345.666 194.572 346.13 193.083 346.764 192.262C345.507 193.48 343.787 194.168 342.043 194.258C341.988 193.627 341.967 192.968 342.019 192.24C341.799 192.925 341.516 193.588 341.259 194.262C340.694 194.229 340.133 194.143 339.591 193.977C340.606 193.609 341.848 192.619 341.235 191.732C341.896 191.696 342.642 191.613 343.049 191.091C343.456 190.568 343.021 189.545 342.393 189.758C344.143 189.159 345.472 187.484 345.657 185.642C344.009 187.069 341.736 187.696 339.57 187.466C338.722 187.379 337.847 187.145 337.233 186.551C336.62 185.96 336.365 184.936 336.846 184.23C338.014 184.684 339.373 184.612 340.486 184.039C340.134 183.254 340.234 182.281 340.741 181.585C340.273 181.52 339.806 181.456 339.339 181.391C340.611 180.151 341.429 178.454 341.606 176.685C340.172 178.944 337.205 180.111 334.615 179.427C334.449 178.162 334.923 176.825 335.853 175.946C335.432 175.777 335.011 175.607 334.59 175.442C336.076 175.088 337.232 173.651 337.259 172.119C336.093 173.074 334.476 173.453 333.009 173.11C333.634 173.193 333.956 172.119 333.389 171.842C334.907 170.919 335.983 169.309 336.254 167.554C335.299 168.768 333.823 169.561 332.283 169.684C331.811 168.938 331.11 168.339 330.301 167.99C331.9 167.424 333.202 166.077 333.711 164.459C333.093 164.92 332.436 165.399 331.668 165.486C330.9 165.576 330.013 165.1 329.938 164.333C330.566 164.232 331.192 164.134 331.818 164.037C331.87 163.399 331.647 162.747 331.219 162.279C332.052 162.102 332.74 161.378 332.873 160.538C332.189 160.578 331.506 160.621 330.823 160.661C332.397 159.929 333.592 158.43 333.959 156.733C332.543 158.225 330.521 159.122 328.464 159.169C328.816 157.566 329.168 155.962 329.518 154.359C330.698 154.215 331.752 153.321 332.088 152.182C330.929 152.586 329.676 151.685 329.103 150.597C328.53 149.509 328.397 148.247 327.956 147.102C328.345 147.102 328.661 146.658 328.537 146.291C327.224 144.947 326.492 143.224 326.63 141.408C326.28 143.815 325.93 146.219 325.58 148.626C325.524 149.008 325.469 149.404 325.557 149.782C325.638 150.117 325.828 150.424 325.867 150.763C326.025 152.092 324.147 152.543 322.81 152.463C322.948 153.67 324.598 154.391 325.577 153.67C325.981 154.586 325.11 155.786 324.113 155.681C324.52 156.985 324.648 158.38 324.487 159.738C323.397 160.437 321.708 159.724 321.445 158.459C321.022 159.742 321.912 161.072 322.862 162.03C323.813 162.989 324.942 163.943 325.156 165.277C323.946 166.138 322.035 165.713 321.297 164.426C321.317 165.633 321.729 166.83 322.457 167.792C321.818 168.894 320.209 169.078 319.06 168.527C317.988 168.008 317.228 167.039 316.527 166.066C316.546 166.059 316.57 166.055 316.591 166.044C316.463 165.68 316.336 165.313 316.207 164.949C316.314 164.469 316.365 163.972 316.265 163.479C316.109 163.583 315.94 163.641 315.775 163.72C314.867 161.136 313.96 158.553 313.051 155.969C315.056 156.052 317.06 156.135 319.065 156.218C316.061 153.231 313.478 149.818 311.416 146.114C313.587 146.039 315.757 145.959 317.927 145.884C316.516 143.43 314.092 141.578 311.353 140.864C312.839 140.446 314.325 140.032 315.812 139.614C311.461 133.654 309.455 126.029 310.31 118.7C308.705 124.282 307.102 129.982 306.432 135.722C305.63 135.935 304.802 135.985 303.991 135.863C303.142 135.74 302.267 135.409 301.653 134.584C301.039 133.755 300.785 132.321 301.268 131.337C302.434 131.971 303.794 131.87 304.908 131.07C304.554 129.971 304.655 128.609 305.162 127.636C304.695 127.546 304.228 127.453 303.76 127.363C305.033 125.629 305.851 123.255 306.028 120.779C304.592 123.943 301.625 125.572 299.035 124.621C298.869 122.844 299.343 120.981 300.272 119.752C299.851 119.515 299.431 119.277 299.01 119.043C300.496 118.549 301.653 116.535 301.68 114.398C300.513 115.735 298.897 116.261 297.429 115.785C298.056 115.9 298.378 114.394 297.811 114.009C299.326 112.719 300.404 110.463 300.674 108.009C299.719 109.71 298.244 110.816 296.703 110.986C296.232 109.944 295.532 109.108 294.721 108.622C296.322 107.829 297.622 105.945 298.133 103.682C297.515 104.327 296.856 104.997 296.089 105.119C295.321 105.242 294.432 104.579 294.359 103.505C294.986 103.368 295.614 103.228 296.24 103.091C296.291 102.201 296.068 101.289 295.639 100.63C296.472 100.385 297.161 99.3721 297.293 98.1938C296.61 98.2551 295.927 98.3127 295.245 98.3704C296.817 97.3434 298.012 95.2499 298.38 92.8753C296.965 94.9616 294.941 96.2156 292.884 96.2804C293.236 94.0392 293.588 91.7943 293.94 89.5531C295.12 89.3513 296.172 88.1046 296.51 86.5119C295.349 87.0776 294.098 85.8164 293.525 84.2958C292.952 82.7716 292.818 81.0097 292.377 79.4026C292.764 79.4026 293.083 78.7828 292.958 78.2711C291.644 76.3938 290.914 73.9796 291.05 71.4428C290.701 74.8047 290.351 78.1702 290.002 81.5357C289.945 82.0726 289.889 82.6275 289.979 83.1572C290.058 83.622 290.248 84.0508 290.289 84.5265C290.446 86.3858 288.567 87.0128 287.232 86.9011C287.368 88.591 289.018 89.6 289.998 88.5946C290.403 89.8738 289.532 91.5494 288.535 91.4052C288.94 93.2321 289.069 95.1779 288.906 97.0804C287.819 98.0533 286.129 97.0587 285.866 95.2895C285.443 97.0804 286.332 98.9433 287.284 100.284C288.234 101.624 289.363 102.965 289.578 104.828C288.657 105.739 287.334 105.613 286.428 104.709C286.491 104.431 286.573 104.154 286.602 103.869C286.474 104.056 286.317 104.226 286.168 104.399C285.994 104.172 285.837 103.927 285.719 103.635C285.723 104.028 285.752 104.42 285.799 104.81C284.666 105.923 283.119 106.658 281.483 106.921C281.245 106.503 281.016 106.074 280.796 105.645C280.837 106.103 280.926 106.55 281.041 106.982C280.163 107.076 279.27 107.044 278.412 106.835C278.218 105.465 278.774 104.024 279.862 103.073C279.368 102.893 278.875 102.709 278.381 102.525C280.123 102.143 281.477 100.59 281.508 98.9433C280.143 99.9703 278.25 100.377 276.53 100.01C277.263 100.1 277.641 98.9361 276.976 98.6406C278.753 97.6425 280.014 95.9022 280.332 94.0068C279.213 95.3184 277.484 96.176 275.68 96.3057C275.127 95.5021 274.308 94.8571 273.359 94.4788C275.232 93.8662 276.757 92.4105 277.355 90.6629C276.63 91.1638 275.859 91.6826 274.961 91.7763C274.061 91.87 273.02 91.3583 272.934 90.526C273.668 90.4215 274.402 90.3134 275.137 90.2053C275.196 89.5207 274.935 88.818 274.433 88.3064C275.408 88.119 276.215 87.3371 276.371 86.4254C275.57 86.4723 274.771 86.5191 273.97 86.5623C275.814 85.7696 277.213 84.1517 277.644 82.3176C275.985 83.9283 273.615 84.8976 271.207 84.948C271.619 83.2149 272.03 81.4853 272.443 79.7521C273.823 79.5972 275.058 78.6351 275.453 77.4027C274.094 77.8387 272.627 76.8658 271.955 75.6912C271.284 74.5165 271.128 73.1544 270.611 71.9149C271.066 71.9149 271.438 71.4357 271.293 71.0393C269.753 69.5872 268.897 67.7242 269.058 65.764C268.648 68.3656 268.238 70.9637 267.829 73.5616C267.763 73.976 267.698 74.4048 267.802 74.812C267.895 75.1723 268.117 75.5002 268.165 75.8713C268.35 77.3054 266.149 77.7919 264.583 77.7054C264.745 79.0098 266.676 79.7881 267.825 79.0098C268.299 80.0007 267.277 81.2943 266.11 81.1826C266.586 82.5915 266.736 84.0976 266.546 85.5642C266.081 85.8417 265.52 85.9066 264.981 85.8201C264.76 85.3697 264.551 84.9121 264.31 84.4689C264.343 84.8364 264.379 85.2543 264.413 85.6723C263.716 85.4021 263.139 84.8688 262.985 84.1842C262.498 85.5426 263.492 86.9479 264.582 87.9785C264.66 89.1892 264.731 90.5188 264.781 91.9349C263.969 91.7475 263.227 91.3007 262.811 90.6269C262.833 91.9313 263.316 93.2249 264.169 94.2662C263.45 95.4121 261.686 95.6174 260.355 95.1021C260.272 94.0572 260.44 92.9655 260.865 92.1115C260.32 91.9998 259.772 91.888 259.224 91.7763C260.715 89.6539 261.672 86.7533 261.881 83.7302C260.2 87.5965 256.723 89.5856 253.69 88.4217C253.494 86.2525 254.05 83.968 255.138 82.469C254.645 82.1807 254.153 81.8888 253.659 81.6006C255.401 80.9952 256.756 78.5377 256.787 75.9253C255.421 77.5576 253.527 78.2027 251.808 77.619C252.541 77.7595 252.918 75.9182 252.254 75.4498C254.03 73.8715 255.292 71.1113 255.608 68.1134C254.491 70.1925 252.762 71.5438 250.958 71.7564C250.405 70.4808 249.584 69.4575 248.635 68.8593C250.51 67.8936 252.034 65.5875 252.632 62.8202C251.908 63.6129 251.137 64.4344 250.237 64.5821C249.339 64.7299 248.297 63.9227 248.212 62.6075C248.946 62.4382 249.68 62.2688 250.414 62.0995C250.474 61.0149 250.213 59.8978 249.711 59.0943C250.686 58.7916 251.493 57.5521 251.649 56.1144C250.848 56.1864 250.049 56.2585 249.248 56.3306C251.091 55.073 252.491 52.511 252.92 49.6104C251.263 52.1615 248.893 53.6965 246.483 53.7758C246.896 51.0337 247.308 48.2916 247.721 45.5495C249.101 45.3045 250.336 43.7803 250.731 41.8309C249.372 42.5191 247.903 40.9805 247.233 39.1212C246.562 37.2619 246.404 35.1035 245.889 33.1397C246.344 33.1397 246.716 32.383 246.569 31.756C245.031 29.4607 244.175 26.5096 244.335 23.4071C243.926 27.5185 243.516 31.6335 243.105 35.7484C243.04 36.4042 242.976 37.0817 243.08 37.7267C243.173 38.2996 243.395 38.8221 243.443 39.4023C243.627 41.6759 241.427 42.4435 239.861 42.3065C240.021 44.3748 241.954 45.6072 243.102 44.3748C243.577 45.9423 242.555 47.9889 241.388 47.8123C241.864 50.0464 242.013 52.4282 241.823 54.7487C240.549 55.9414 238.57 54.7271 238.262 52.5615C237.766 54.756 238.808 57.0296 239.921 58.6691C241.036 60.3086 242.358 61.9445 242.61 64.2218C241.191 65.6883 238.952 64.9677 238.089 62.7661C238.111 64.8307 238.594 66.8775 239.447 68.5242C238.698 70.4088 236.812 70.7222 235.468 69.7782C234.122 68.8305 233.195 66.9928 232.322 65.2235C232.532 67.6233 233.576 69.8358 235.037 70.9744C234.402 71.7491 233.645 72.3076 232.843 72.5923C234.066 73.7598 235.633 74.1309 237.046 73.5832C235.476 75.7127 233.432 77.0821 231.304 77.4352C233.325 79.7521 236.456 79.6872 238.431 77.2874C238.588 79.6043 238.745 81.9213 238.902 84.2382C236.897 84.2598 234.891 83.8419 232.968 83.0095C234.605 84.8688 236.394 86.4398 238.286 87.683C236.72 89.0955 234.691 89.0054 232.961 88.0973C231.231 87.1857 229.735 85.5462 228.265 83.9319C228.454 87.5424 230.523 90.7566 232.981 91.261C232.085 92.2123 230.922 92.6087 229.831 92.3348C230.415 93.2212 230.276 94.8824 229.562 95.5418C230.607 97.2102 232.109 98.2479 233.655 98.3704C233.542 100.77 231.91 102.557 230.27 102.817C229.014 103.011 227.774 102.518 226.598 101.797C226.671 101.188 226.823 100.59 227.083 100.089C226.537 99.9811 225.989 99.873 225.442 99.7649C226.932 97.7326 227.89 94.9544 228.098 92.0574C226.417 95.7616 222.941 97.6677 219.907 96.5543C219.713 94.4752 220.268 92.288 221.356 90.8467C220.863 90.5729 220.37 90.2954 219.876 90.0179C221.619 89.4378 222.973 87.0812 223.004 84.5805C221.639 86.1443 219.746 86.7605 218.026 86.202C218.759 86.3353 219.136 84.5733 218.472 84.1229C220.248 82.6095 221.509 79.9683 221.826 77.0964C220.708 79.0854 218.98 80.3827 217.175 80.5845C216.622 79.363 215.802 78.3828 214.854 77.8099C216.728 76.8838 218.252 74.6751 218.851 72.023C218.126 72.7797 217.354 73.5652 216.455 73.7093C215.557 73.8535 214.515 73.0752 214.429 71.8176C215.163 71.6555 215.897 71.4933 216.632 71.3311C216.691 70.2898 216.431 69.2232 215.928 68.4485C216.904 68.1638 217.71 66.9748 217.866 65.5983C217.065 65.6668 216.266 65.7352 215.465 65.8037C217.309 64.6002 218.708 62.1463 219.139 59.3645C217.481 61.8076 215.111 63.2778 212.701 63.3534C213.113 60.7266 213.526 58.0998 213.938 55.473C215.319 55.2351 216.553 53.7758 216.949 51.9093C215.589 52.5723 214.121 51.095 213.451 49.3114C212.78 47.5313 212.622 45.463 212.107 43.582C212.561 43.582 212.933 42.8578 212.787 42.256C211.248 40.0544 210.392 37.2294 210.553 34.2567C210.143 38.1987 209.734 42.1372 209.323 46.0792C209.258 46.7098 209.193 47.3584 209.297 47.9781C209.39 48.5258 209.613 49.0267 209.661 49.5852C209.845 51.7652 207.645 52.4967 206.078 52.367C206.24 54.3488 208.171 55.5271 209.32 54.3488C209.794 55.8477 208.772 57.8115 207.606 57.6422C208.081 59.7825 208.232 62.0635 208.042 64.2903C206.766 65.4326 204.788 64.2651 204.479 62.1932C203.984 64.2939 205.025 66.4739 206.139 68.045C207.254 69.6124 208.577 71.1834 208.827 73.367C207.409 74.7723 205.169 74.0805 204.306 71.9689C204.329 73.9471 204.812 75.911 205.665 77.4892C204.916 79.2945 203.031 79.5936 201.685 78.6855C200.34 77.7811 199.412 76.0227 198.539 74.3255C198.749 76.6244 199.794 78.7432 201.255 79.835C200.62 80.5773 199.863 81.1106 199.06 81.388C200.283 82.505 201.852 82.8581 203.263 82.3356C201.694 84.3751 199.65 85.6867 197.522 86.0254C199.543 88.2451 202.673 88.1839 204.648 85.8849C204.806 88.1046 204.962 90.3242 205.12 92.5438C203.116 92.5655 201.108 92.1655 199.185 91.3692C200.822 93.1492 202.611 94.6554 204.503 95.8481C202.938 97.1993 200.91 97.1128 199.18 96.2408C197.45 95.3688 195.953 93.8014 194.483 92.252C194.673 95.7111 196.741 98.792 199.198 99.2748C198.303 100.186 197.141 100.565 196.048 100.302C196.632 101.156 196.495 102.745 195.779 103.375C196.825 104.972 198.327 105.966 199.873 106.085C199.76 108.388 198.127 110.099 196.487 110.344C194.847 110.593 193.233 109.71 191.752 108.694C192.053 109.267 192.443 109.732 192.863 110.139C192.303 110.492 191.706 110.791 191.039 110.863C190.139 110.953 189.098 110.449 189.012 109.623C189.745 109.519 190.48 109.411 191.215 109.306C191.274 108.625 191.014 107.926 190.511 107.422C191.486 107.235 192.293 106.456 192.449 105.555C191.648 105.602 190.849 105.645 190.049 105.692C191.892 104.903 193.291 103.3 193.721 101.48C192.064 103.08 189.693 104.042 187.283 104.089C187.696 102.37 188.108 100.655 188.521 98.9361C189.902 98.7812 191.136 97.8263 191.531 96.6048C190.172 97.0372 188.704 96.0715 188.034 94.9076C187.362 93.7438 187.204 92.3889 186.69 91.1601C187.144 91.1601 187.516 90.6845 187.369 90.2918C185.831 88.8541 184.975 87.0056 185.135 85.0598C184.726 87.6361 184.316 90.2161 183.905 92.7925C183.84 93.2068 183.776 93.6284 183.88 94.0356C183.973 94.3923 184.195 94.7203 184.243 95.0842C184.274 95.3292 184.216 95.5382 184.122 95.7256C183.359 96.2265 182.548 96.612 181.712 96.8714C181.353 96.9075 180.993 96.9218 180.661 96.9038C180.671 96.9759 180.703 97.0371 180.721 97.1056C179.154 97.4083 177.538 97.3146 176.02 96.7236C177.507 96.0462 179.329 94.2302 178.43 92.5943C179.398 92.5258 180.492 92.3781 181.088 91.4196C181.684 90.4539 181.047 88.5766 180.128 88.9658C182.691 87.8632 184.639 84.7787 184.912 81.3952C182.495 84.0148 179.165 85.1678 175.989 84.7498C174.748 84.5841 173.464 84.1517 172.566 83.0635C172.445 82.9194 172.364 82.7321 172.264 82.5627C174.137 81.842 176.01 81.1214 177.882 80.4043C177.066 80.2133 176.043 79.8205 174.967 79.2728C175.788 79.1755 176.599 78.9161 177.334 78.4404C176.815 76.9955 176.963 75.2084 177.707 73.9256C177.021 73.8067 176.337 73.6878 175.653 73.5652C177.517 71.2844 178.714 68.1603 178.975 64.9065C176.872 69.0683 172.524 71.2087 168.729 69.9547C168.723 69.9043 168.732 69.8502 168.728 69.7997C170.77 67.0036 177.172 64.6975 179.533 63.1805C176.595 64.1282 173.488 64.557 170.402 64.4453C170.261 64.438 170.116 64.4272 169.972 64.4164C170.155 64.1209 170.324 63.8111 170.541 63.5516C169.924 63.2418 169.308 62.9282 168.691 62.6183C170.87 61.9661 172.565 59.3213 172.603 56.5108C171.183 57.9701 169.305 58.6836 167.476 58.525C168.552 57.145 170.192 56.3161 171.783 55.563C170.815 54.9865 169.776 54.5434 168.711 54.1758C169.976 52.5147 170.85 50.3815 171.129 48.1042C169.731 50.3419 167.568 51.7976 165.312 52.0247C165.238 51.8769 165.147 51.7508 165.067 51.6102C167.108 49.5816 169.15 47.5565 171.191 45.5315C169.503 45.8342 167.973 45.3981 166.654 44.4973C166.967 43.8415 167.223 43.1424 167.406 42.411C166.88 42.9046 166.329 43.3911 165.744 43.7586C165.117 43.1821 164.547 42.5047 164.053 41.748C164.246 41.7084 164.439 41.6723 164.632 41.6327C164.706 40.4652 164.38 39.2653 163.752 38.4005C164.972 38.0762 165.982 36.743 166.174 35.1936C165.175 35.2729 164.174 35.3485 163.174 35.4278C165.479 34.0729 167.23 31.3164 167.768 28.1959C166.146 30.3435 163.976 31.8065 161.667 32.3902C161.658 29.4968 161.835 26.5528 161.454 23.7747C163.102 23.4215 164.552 21.8397 165.027 19.8218C163.327 20.5677 161.492 18.9067 160.653 16.9068C159.814 14.907 159.617 12.5828 158.972 10.4713C159.539 10.4713 160.005 9.65688 159.822 8.98306C157.898 6.51119 156.827 3.3367 157.027 3.19165e-05C156.514 4.4249 156.002 8.8534 155.49 13.2783C155.408 13.9845 155.327 14.7123 155.458 15.4078C155.574 16.024 155.852 16.5861 155.911 17.213C156.141 19.6597 153.39 20.4848 151.43 20.3371C151.632 22.5603 154.049 23.8864 155.486 22.5604C156.078 24.2467 154.8 26.452 153.342 26.261C153.936 28.6644 154.123 31.2263 153.885 33.727C152.292 35.0098 149.816 33.6982 149.43 31.3741C148.811 33.7306 150.115 36.1773 151.506 37.9429C152.9 39.7049 154.555 41.467 154.869 43.9208C153.094 45.4955 150.293 44.7207 149.214 42.3497C149.242 44.5694 149.846 46.7746 150.913 48.5474C149.977 50.5761 147.617 50.9112 145.935 49.895C144.252 48.8789 143.092 46.9007 142 44.9982C142.263 47.5782 143.569 49.9563 145.398 51.1851C144.603 52.0174 143.657 52.6192 142.652 52.9255C144.182 54.183 146.142 54.5794 147.91 53.992C145.947 56.2801 143.391 57.7575 140.728 58.1359C143.256 60.6257 147.171 60.5573 149.641 57.9773C149.798 59.9483 149.953 61.9229 150.109 63.8939C149.076 64.3299 148.044 64.7695 147.012 65.2091C145.591 64.9929 144.182 64.647 142.809 64.1353C143.512 64.82 144.244 65.4542 144.987 66.0667C144.041 66.4667 143.095 66.8702 142.148 67.2702C143.562 67.2342 144.977 67.2018 146.393 67.1622C147.388 67.8936 148.408 68.571 149.46 69.1619C147.502 70.6825 144.964 70.5853 142.801 69.6052C140.637 68.6287 138.764 66.8666 136.926 65.1262C137.162 69.0142 139.751 72.4734 142.825 73.0139C141.704 74.0373 140.249 74.466 138.885 74.167C139.616 75.1255 139.441 76.9091 138.549 77.619C139.856 79.4134 141.735 80.5304 143.668 80.6601C143.527 83.2473 141.485 85.1715 139.433 85.4453C137.382 85.7228 135.362 84.7318 133.51 83.5896C134.55 85.366 136.259 86.4903 138.012 86.5623C137.865 87.301 137.717 88.0397 137.57 88.7748C138.222 88.5622 138.91 89.4991 138.69 90.299C139.412 90.317 140.135 90.3314 140.857 90.3494C140.739 90.7998 140.539 91.189 140.284 91.5133C140.243 91.5097 140.204 91.5097 140.163 91.506C140.19 91.5241 140.219 91.5385 140.246 91.5565C139.492 92.4862 138.281 92.8933 137.2 92.6952C135.728 92.4249 134.448 91.3259 133.229 90.2557C132.235 91.643 133.536 94.3095 134.972 93.823C134.928 94.468 134.885 95.113 134.841 95.758C135.341 95.9309 135.84 96.1075 136.34 96.2804C134.927 97.5812 132.986 97.1705 131.236 97.3038C130.775 97.3398 130.289 97.4732 129.829 97.6822C129.836 96.8354 130.019 95.9922 130.416 95.3076C129.799 95.1959 129.181 95.0878 128.564 94.9797C130.244 92.9222 131.325 90.108 131.56 87.1749C129.664 90.9259 125.744 92.8573 122.324 91.7259C122.104 89.6252 122.731 87.4091 123.958 85.9534C123.402 85.6723 122.845 85.3912 122.289 85.1102C124.254 84.5228 125.781 82.1411 125.816 79.6044C124.276 81.1899 122.141 81.8132 120.201 81.2474C121.028 81.3844 121.454 79.6008 120.705 79.1432C122.707 77.6118 124.13 74.9381 124.487 72.0302C123.226 74.0445 121.278 75.356 119.243 75.5614C118.619 74.3255 117.694 73.331 116.625 72.7545C118.738 71.814 120.456 69.58 121.13 66.8955C120.314 67.663 119.444 68.4557 118.431 68.6035C117.417 68.7476 116.243 67.9621 116.146 66.6865C116.974 66.5207 117.801 66.3586 118.631 66.1928C118.697 65.1406 118.403 64.0597 117.837 63.2778C118.937 62.9859 119.847 61.786 120.021 60.3915C119.119 60.46 118.217 60.5285 117.314 60.5969C119.393 59.379 120.971 56.8963 121.457 54.0785C119.588 56.554 116.913 58.0422 114.198 58.1214C114.663 55.4586 115.127 52.7994 115.592 50.1401C117.15 49.9023 118.542 48.4213 118.987 46.5332C117.454 47.2034 115.798 45.708 115.043 43.9028C114.285 42.1011 114.11 40.0076 113.527 38.105C114.039 38.105 114.459 37.37 114.294 36.761C112.56 34.5342 111.594 31.6695 111.774 28.6644C111.313 32.6532 110.851 36.6421 110.389 40.6309C110.315 41.2687 110.242 41.9246 110.36 42.5551C110.464 43.1065 110.715 43.6145 110.768 44.1802C110.976 46.3855 108.495 47.1278 106.73 46.9944C106.911 49.0015 109.09 50.1941 110.385 49.0014C110.92 50.522 109.767 52.5074 108.453 52.3345C108.989 54.5037 109.158 56.8135 108.942 59.0655C107.505 60.2222 105.273 59.0403 104.927 56.9431C104.368 59.0691 105.542 61.2743 106.799 62.867C108.054 64.456 109.546 66.0451 109.829 68.254C108.23 69.6773 105.704 68.9746 104.731 66.8414C104.756 68.8413 105.301 70.8303 106.263 72.4265C105.419 74.257 103.292 74.5597 101.775 73.6409C100.259 72.7257 99.212 70.942 98.2283 69.2268C98.4647 71.5546 99.6426 73.6985 101.291 74.8048C100.574 75.5543 99.7201 76.0947 98.8153 76.3758C100.196 77.5072 101.962 77.864 103.556 77.3343C101.787 79.399 99.4808 80.7286 97.081 81.0709C99.3598 83.3157 102.89 83.2545 105.117 80.9268C105.294 83.1752 105.471 85.4237 105.649 87.6686C103.387 87.6866 101.125 87.2866 98.9573 86.4795C100.803 88.2811 102.821 89.8053 104.954 91.0124C103.188 92.3781 100.901 92.2952 98.9504 91.4124C96.9996 90.5295 95.3104 88.9405 93.655 87.3731C93.8676 90.8755 96.2 93.9923 98.9713 94.4824C97.962 95.4048 96.6504 95.7904 95.4203 95.5202C96.0789 96.385 95.9211 97.9956 95.1176 98.6334C96.2955 100.251 97.9891 101.257 99.7316 101.376C99.6048 103.707 97.7639 105.44 95.9143 105.689C94.0661 105.937 92.2447 105.044 90.5753 104.017C91.5128 105.617 93.0525 106.633 94.6333 106.698C94.5011 107.361 94.3674 108.027 94.2351 108.69C94.8221 108.499 95.4426 109.346 95.2441 110.063C95.8945 110.081 96.5477 110.096 97.1978 110.11C96.7755 111.706 95.2275 112.466 93.9015 112.225C92.574 111.984 91.4213 110.989 90.3219 110.024C89.424 111.274 90.598 113.677 91.893 113.241C91.8533 113.821 91.8141 114.405 91.7748 114.985C92.2252 115.144 92.6756 115.299 93.1271 115.457C91.8519 116.628 90.1025 116.261 88.5261 116.38C87.4959 116.455 86.3457 117.05 85.7349 117.994C85.1843 118.369 84.5988 118.707 83.9362 118.78C83.1211 118.87 82.1781 118.387 82.1006 117.608C82.7651 117.508 83.4306 117.41 84.0951 117.306C84.1498 116.664 83.9135 116.005 83.4587 115.526C84.343 115.349 85.0734 114.614 85.2139 113.76C84.4893 113.803 83.7643 113.843 83.0393 113.89C84.7087 113.144 85.9771 111.623 86.3655 109.901C84.8651 111.414 82.7172 112.326 80.5354 112.373C80.9083 110.748 81.2812 109.123 81.6556 107.494C82.9056 107.35 84.0248 106.445 84.3822 105.289C83.1506 105.699 81.8217 104.784 81.2139 103.682C80.6056 102.579 80.4636 101.3 79.9963 100.136C80.4089 100.136 80.7451 99.6892 80.6128 99.3145C79.2194 97.9524 78.4436 96.2048 78.5888 94.3671C78.2173 96.8066 77.8469 99.2423 77.4754 101.682C77.4163 102.071 77.3572 102.475 77.4516 102.856C77.536 103.195 77.737 103.505 77.781 103.851C77.9471 105.199 75.9538 105.653 74.5366 105.573C74.6814 106.799 76.4323 107.53 77.4711 106.799C77.9021 107.728 76.9756 108.942 75.9202 108.838C76.3508 110.16 76.486 111.573 76.3141 112.949C75.1585 113.656 73.3669 112.935 73.088 111.652C72.6391 112.953 73.582 114.301 74.5913 115.274C74.7293 115.407 74.8713 115.54 75.0136 115.673C74.5322 116.571 74.0199 117.454 73.488 118.322C73.2725 118.145 73.074 117.944 72.9306 117.702C72.9374 118.117 73.0077 118.52 73.1064 118.924C72.4477 119.969 71.7581 120.996 71.0287 121.994C70.8713 121.95 70.7037 121.929 70.556 121.86C69.3384 121.302 68.4981 120.21 67.7072 119.161C67.8971 120.585 68.843 121.896 70.1676 122.57C69.5917 123.031 68.9064 123.359 68.1785 123.532C68.5655 123.774 68.9979 123.936 69.4426 124.058C69.2779 124.26 69.123 124.473 68.9554 124.675C69.8213 124.599 70.6854 124.523 71.5512 124.448C70.1942 125.511 68.5291 126.213 66.7851 126.401C68.4909 127.68 71.0597 127.719 72.8502 126.57C72.2337 127.827 71.5285 129.042 70.774 130.224C69.9366 130.105 69.1046 129.939 68.2928 129.708C68.9273 130.18 69.599 130.606 70.2814 131.013C69.8508 131.651 69.3946 132.274 68.9244 132.883C68.7122 132.832 68.4924 132.793 68.287 132.724C66.7188 132.184 65.3636 131.211 64.0333 130.256C64.2037 132.396 66.0771 134.303 68.3039 134.602C67.4932 135.164 66.4388 135.398 65.4508 135.236C65.9801 135.762 65.8533 136.749 65.2072 137.138C66.1545 138.126 67.5141 138.742 68.9147 138.818C68.812 140.237 67.3339 141.3 65.8475 141.452C64.3626 141.603 62.9004 141.059 61.5589 140.428C62.312 141.408 63.549 142.028 64.8188 142.068C64.7118 142.475 64.6048 142.878 64.4992 143.286C64.9709 143.17 65.4692 143.686 65.3085 144.125C65.3806 144.125 65.4523 144.129 65.524 144.129C65.0213 144.561 64.5093 144.983 63.9814 145.386C63.0215 145.185 62.1671 144.644 61.3564 144.1C60.6357 144.864 61.5773 146.334 62.6175 146.067C62.6075 146.179 62.5977 146.291 62.588 146.402C62.5682 146.417 62.5484 146.431 62.5285 146.446C62.5469 146.449 62.5653 146.446 62.5837 146.449C62.5624 146.68 62.543 146.907 62.5231 147.134C62.8849 147.231 63.2467 147.325 63.6085 147.422C62.5851 148.139 61.1787 147.912 59.9122 147.984C58.6452 148.06 57.1322 148.86 57.3333 150.06C57.5149 150.586 58.2089 150.889 58.744 150.672C58.713 151.087 58.682 151.498 58.651 151.912C60.2779 152.398 62.1318 152.15 63.5562 151.253C64.0812 152.424 62.3794 153.404 61.0451 153.382C59.7108 153.361 58.1372 153.054 57.2349 153.995C56.551 153.591 55.8682 153.188 55.1843 152.788C55.2052 154.463 56.8703 155.955 58.6229 155.865C58.2975 156.326 57.7895 156.658 57.2266 156.787C57.6291 157.342 58.2907 157.717 58.993 157.789C58.4932 158.157 57.9949 158.531 57.4969 158.902C58.4849 159.67 59.9205 159.868 61.0959 159.4C61.1395 159.771 61.1816 160.142 61.2238 160.513C59.6008 161.349 57.4756 161.187 56.0091 160.12C56.3762 161.724 57.7895 163.064 59.4701 163.403C59.0549 164.015 58.2384 164.354 57.4853 164.232C58.5044 165.089 59.7389 165.709 61.0551 166.026C59.5573 167.017 57.3027 166.754 56.102 165.446C55.367 166.037 56.0076 167.204 56.8112 167.709C57.6151 168.21 58.6607 168.61 58.8946 169.5C58.1343 169.896 57.2926 170.148 56.4325 170.238C56.7622 170.764 57.0915 171.291 57.4194 171.82C55.8091 172.548 53.8611 172.559 52.2425 171.846C53.4471 173.615 55.4769 174.851 57.6655 175.146C56.8227 175.622 55.9795 176.09 55.1378 176.562C55.9568 177.117 56.9942 177.344 57.9909 177.232C57.8219 177.341 57.6615 177.459 57.4911 177.56C57.7642 177.557 58.0374 177.521 58.3101 177.51C57.9754 178.162 57.2378 178.627 56.4721 178.569C56.9758 178.839 56.9913 179.657 56.4973 179.942C57.3841 180.335 58.3595 180.544 59.3349 180.551C58.544 181.452 57.5362 182.176 56.413 182.655C59.0802 183.048 61.7913 183.149 64.4851 182.987C64.3796 183.3 64.2643 183.607 64.1644 183.924C64.0459 184.302 63.9263 184.684 63.8066 185.062C63.2748 185.257 62.7779 185.491 62.5866 185.981C62.8186 186.172 63.1101 186.27 63.4128 186.32C62.9905 187.668 62.5682 189.012 62.1459 190.356C61.0126 193.963 59.8052 197.692 57.2872 200.506C56.9719 200.405 56.6566 200.304 56.3413 200.2C56.7632 200.128 57.1801 200.016 57.5628 199.829C57.2083 199.072 57.3081 198.139 57.8176 197.472C57.3488 197.407 56.8789 197.346 56.4101 197.281C57.6882 196.092 58.5101 194.46 58.6889 192.763C57.2461 194.935 54.2636 196.052 51.6595 195.4C51.6231 195.13 51.63 194.86 51.6541 194.59C52.0847 193.905 52.4155 193.163 52.6194 192.384C52.7153 192.273 52.7956 192.154 52.9041 192.056C52.8421 192.031 52.7801 192.006 52.7182 191.984C52.7787 191.685 52.8292 191.386 52.8519 191.084C52.8126 191.084 52.7729 191.084 52.7337 191.087C53.6597 190.478 54.2989 189.455 54.317 188.381C53.4176 189.084 52.2508 189.451 51.0895 189.44C52.4973 188.19 53.7653 186.781 54.8239 185.225C54.1595 185.3 53.495 185.376 52.8306 185.452C53.0504 184.983 53.2248 184.5 53.3066 183.992C52.676 184.76 51.8087 185.325 50.8545 185.675C50.2903 185.74 49.7256 185.805 49.1628 185.87C49.0669 185.74 48.9502 185.632 48.8403 185.516C48.7545 184.936 48.6688 184.356 48.5841 183.776C49.5919 183.109 50.3829 182.137 50.7533 181.02C50.131 181.463 49.4694 181.924 48.6983 182.007C48.5729 182.021 48.4461 182 48.3182 181.985C48.2562 181.564 48.1942 181.142 48.1308 180.72C48.3701 180.684 48.6108 180.648 48.8504 180.612C48.9008 180.003 48.6756 179.376 48.2465 178.922C49.0839 178.757 49.775 178.061 49.9087 177.25C49.2219 177.294 48.5351 177.333 47.8494 177.373C49.4302 176.667 50.6322 175.229 50.9994 173.597C50.0225 174.584 48.7473 175.272 47.3791 175.64C47.164 174.18 46.9486 172.721 46.732 171.265C47.8353 171.06 48.801 170.26 49.1206 169.229C47.955 169.615 46.6952 168.75 46.1194 167.705C45.544 166.66 45.4089 165.45 44.9667 164.347C45.3566 164.347 45.6762 163.922 45.5508 163.569C44.2306 162.279 43.4944 160.621 43.6339 158.877C43.2818 161.191 42.9301 163.5 42.5781 165.81C42.5219 166.181 42.4657 166.559 42.5558 166.923C42.6357 167.244 42.826 167.54 42.8667 167.864C43.0256 169.143 41.1368 169.572 39.7942 169.496C39.9322 170.656 41.5901 171.348 42.5752 170.656C42.982 171.536 42.1053 172.689 41.1043 172.588C41.5126 173.842 41.6409 175.182 41.4776 176.487C40.3837 177.153 38.6851 176.472 38.4217 175.258C37.9965 176.487 38.8905 177.766 39.8461 178.685C40.802 179.607 41.9364 180.526 42.1518 181.805C40.9357 182.63 39.013 182.223 38.2725 180.987C38.2923 182.147 38.706 183.297 39.4378 184.223C38.7961 185.282 37.1789 185.455 36.0248 184.925C34.8692 184.396 34.0739 183.362 33.3252 182.371C33.5053 183.715 34.4004 184.958 35.6543 185.599C35.1099 186.032 34.4609 186.349 33.7712 186.507C34.8213 187.163 36.1653 187.372 37.3789 187.066C36.0316 188.259 34.2779 189.03 32.451 189.228C34.1849 190.529 36.8719 190.493 38.5665 189.145C38.6919 190.363 38.8188 191.577 38.9438 192.795C38.9031 192.878 38.8624 192.957 38.8213 193.04C37.1508 193.036 35.4814 192.813 33.8797 192.359C35.1409 193.296 36.5202 194.081 37.9615 194.744C37.8671 194.928 37.7742 195.112 37.6812 195.299C36.4781 195.714 35.0944 195.638 33.8739 195.217C32.389 194.705 31.1041 193.786 29.844 192.878C30.0062 194.907 31.7808 196.712 33.8894 196.993C33.1223 197.53 32.1231 197.75 31.187 197.595C31.6882 198.096 31.5696 199.029 30.956 199.396C31.8543 200.333 33.1421 200.917 34.4678 200.985C34.3723 202.337 32.9702 203.342 31.5642 203.482C30.1568 203.627 28.7717 203.111 27.5008 202.517C28.2142 203.443 29.3853 204.03 30.5888 204.066C30.4876 204.452 30.3859 204.837 30.2847 205.223C30.7322 205.111 31.2053 205.601 31.0533 206.019C31.5487 206.026 32.0456 206.037 32.5411 206.044C32.2186 206.971 31.0421 207.41 30.0314 207.27C29.0206 207.129 28.144 206.552 27.3076 205.994C26.6252 206.718 27.5173 208.109 28.5029 207.857C28.4733 208.192 28.4438 208.531 28.4142 208.87C28.7562 208.96 29.0996 209.05 29.4415 209.14C28.4733 209.821 27.1415 209.605 25.9409 209.673C24.7403 209.745 23.3061 210.502 23.4989 211.637C23.6708 212.138 24.3281 212.422 24.8347 212.221C24.8037 212.61 24.7741 213.002 24.7446 213.392C26.2872 213.856 28.0423 213.619 29.3925 212.768C29.889 213.878 28.2776 214.804 27.0136 214.786C25.7496 214.764 24.2589 214.473 23.4046 215.366C22.7572 214.984 22.1097 214.602 21.4622 214.22C21.4819 215.809 23.0598 217.222 24.7194 217.139C24.4109 217.571 23.9295 217.889 23.3976 218.011C23.7775 218.537 24.4055 218.894 25.0696 218.959C24.5969 219.312 24.1252 219.665 23.6524 220.015C24.5882 220.742 25.9481 220.93 27.0615 220.49C27.1022 220.84 27.143 221.189 27.184 221.542C25.6469 222.331 23.6326 222.18 22.2434 221.171C22.5911 222.688 23.9295 223.957 25.5215 224.277C25.1276 224.857 24.3562 225.178 23.6423 225.063C24.6066 225.873 25.7762 226.464 27.0219 226.767C25.6047 227.7 23.468 227.452 22.3307 226.216C21.6354 226.774 22.242 227.881 23.0035 228.356C23.7649 228.835 24.7543 229.21 24.977 230.053C24.2578 230.432 23.4596 230.67 22.6446 230.752C22.9556 231.253 23.2681 231.754 23.5793 232.251C22.0548 232.943 20.2081 232.95 18.6753 232.273C19.8154 233.952 21.7395 235.123 23.8128 235.404" fill="#E9E4D0"/>
<path d="M163.644 377.634C164.66 379.227 166.377 381.324 168.728 383.46C171.076 385.601 174.213 387.633 177.863 389.028C179.677 389.748 181.632 390.267 183.645 390.595C184.661 390.804 185.637 390.844 186.656 390.948C187.783 390.966 188.782 391.02 189.804 390.927C193.955 390.797 198.007 389.575 201.501 387.849C203.214 386.92 204.857 385.961 206.278 384.841C207.719 383.752 208.958 382.556 210.031 381.385C212.128 379.007 213.675 376.766 214.498 375.083C215.388 373.407 215.825 372.395 215.825 372.395C215.825 372.395 215.758 372.658 215.628 373.155C215.476 373.645 215.374 374.395 214.999 375.285C214.363 377.111 213.265 379.691 211.242 382.383C209.241 385.064 206.361 387.875 202.67 390.015C200.8 391.009 198.811 392.011 196.635 392.584C194.482 393.197 192.222 393.625 189.944 393.723C188.795 393.813 187.618 393.73 186.579 393.701C185.445 393.579 184.257 393.499 183.176 393.258C180.959 392.894 178.858 392.159 176.914 391.305C172.988 389.611 169.902 387.01 167.617 384.578C165.307 382.127 164 379.627 163.168 377.904C162.72 377.05 162.51 376.315 162.323 375.84C162.147 375.357 162.053 375.101 162.053 375.101C162.053 375.101 162.582 376.067 163.644 377.634ZM93.1003 375.072C93.4397 376.856 93.7871 378.69 94.1463 380.574C94.6854 384.376 96.0139 388.195 97.1047 392.245C99.9001 400.14 103.526 408.55 109.02 416.445C114.482 424.322 121.357 431.835 129.516 438.343C131.629 439.874 133.757 441.416 135.902 442.969C138.185 444.31 140.485 445.661 142.798 447.019C145.087 448.443 147.623 449.318 150.038 450.507C152.415 451.725 155.072 452.568 157.714 453.448C168.067 456.932 179.184 458.806 190.298 458.564C201.405 458.337 212.454 456.136 222.663 452.215C232.882 448.306 242.241 442.692 250.252 436.008C258.25 429.28 264.736 421.4 269.864 413.321C275.156 405.322 278.291 396.688 280.867 388.696C283.372 379.85 284.39 371.588 284.594 364.295H207.328C207.266 365.772 207.084 367.256 206.66 368.741C203.771 378.801 193.274 384.614 183.213 381.727C175.164 379.418 169.922 372.225 169.591 364.295H92.2629C92.2614 364.485 92.26 364.658 92.2571 364.849C92.2402 366.449 92.5065 368.1 92.6232 369.804C92.7767 371.505 92.9356 373.263 93.1003 375.072Z" fill="#E9E4D0"/>
<path d="M314.98 381.475L314.276 376.848C314.065 375.479 313.467 374.254 312.538 373.292L310.774 371.501C309.644 370.452 308.121 369.08 306.604 367.775C305.092 366.46 303.57 365.213 302.423 364.294H285.744C285.748 364.914 285.779 365.501 285.769 366.136C285.706 373.058 284.906 380.92 282.684 389.19C282.157 391.37 281.376 393.305 280.713 395.434C279.973 397.517 279.448 399.686 278.396 401.783C277.448 403.906 276.482 406.06 275.501 408.251C274.443 410.399 273.143 412.445 271.947 414.597C266.857 422.974 260.38 431.276 252.139 438.227C243.93 445.171 234.319 451.026 223.792 455.134C213.277 459.256 201.864 461.612 190.362 461.922C178.847 462.11 167.369 460.085 156.696 456.417C146.154 452.759 136.005 447.394 127.711 440.63C119.299 433.91 112.408 425.99 106.979 417.803C101.515 409.595 97.9804 400.918 95.3021 392.815C94.2802 388.66 92.974 384.754 92.5585 380.862C92.2659 378.938 91.9802 377.065 91.7013 375.241C91.6029 373.404 91.5056 371.613 91.4116 369.883C91.355 368.15 91.1496 366.482 91.2257 364.864C91.2343 364.665 91.2426 364.489 91.2509 364.294H59.0042C59.9388 367.649 60.9816 370.315 61.0281 370.431C61.5056 371.735 62.3289 372.834 63.4056 373.609C63.4395 373.631 66.7372 376.005 69.9928 378.088C73.4033 380.163 76.8211 381.918 76.9519 381.983C78.0314 382.552 78.7535 383.5 78.9366 384.585L79.3279 386.927L80.7098 386.693L79.3585 387.06L81.9767 396.67C82.1104 397.229 82.261 397.683 82.3709 397.928L82.5258 398.331C82.599 398.522 82.5103 398.684 82.4228 398.785C82.3554 398.868 82.106 399.117 81.6798 399.03C81.6275 399.016 76.5209 398.007 71.7465 396.432C66.8849 394.93 61.8364 392.962 61.7798 392.941C61.1157 392.681 60.3471 392.865 59.874 393.424C59.3926 393.993 59.3281 394.811 59.7194 395.474L64.674 403.693L70.2548 411.202C71.0893 412.308 72.1959 413.105 73.4415 413.498C73.4401 413.498 74.4083 413.818 75.9538 414.2C77.4444 414.589 79.418 415.069 81.363 415.505C85.2269 416.373 89.0129 417.004 89.0424 417.011C89.624 417.104 90.1418 417.324 90.6639 417.703C91.1806 418.027 91.5831 418.423 91.866 418.881L93.1203 420.902L94.7742 423.58C94.9443 423.843 95.1259 424.145 95.3187 424.466C95.7129 425.129 96.1579 425.868 96.68 426.567L99.7161 430.548C99.875 430.757 99.7907 431.013 99.7471 431.114C99.7046 431.215 99.5385 431.532 99.1515 431.579C99.1021 431.586 94.0719 432.152 88.8457 432.354L84.9692 432.473L78.3424 432.26C77.6174 432.224 76.9688 432.631 76.6885 433.298C76.4002 433.99 76.5804 434.789 77.1335 435.29L79.3391 437.312C80.2763 438.137 81.518 439.07 82.817 440.05L89.7436 445.25C91.199 446.259 92.2602 446.853 92.2659 446.857C92.8147 447.189 93.3948 447.444 93.993 447.617C94.6841 447.815 95.3947 447.902 96.1085 447.869C96.1492 447.869 100.235 447.697 104.06 447.325C105.974 447.167 107.964 446.911 109.506 446.623L111.935 446.194C113.15 445.971 114.316 446.27 115.141 447.005L116.909 448.587L117.844 447.545L116.91 448.59L118.172 449.707L126.271 455.613C126.531 455.8 126.538 456.067 126.531 456.175C126.52 456.323 126.447 456.6 126.11 456.77L125.284 457.177C124.78 457.433 124.073 457.757 123.23 458.117C121.498 458.867 119.143 459.836 116.704 460.755C111.921 462.582 106.7 464.156 106.647 464.174C105.95 464.383 105.463 465.014 105.439 465.738C105.414 466.484 105.874 467.165 106.592 467.435L115.441 470.747C116.225 471.075 117.029 471.334 117.816 471.561C118.566 471.777 119.299 471.958 119.99 472.127C120.633 472.289 121.229 472.433 121.81 472.61L124.623 473.334C125.964 473.676 127.328 473.608 128.543 473.15C128.696 473.096 132.342 471.799 135.987 469.951C139.592 468.217 142.985 466.344 143.013 466.329C144.055 465.756 145.212 465.691 146.297 466.192C146.297 466.192 146.886 466.423 147.47 466.61L148.601 466.996L150.055 467.49C156.612 469.781 158.875 470.473 159.856 470.578C159.999 470.65 160.069 470.79 160.101 470.905C160.129 471.006 160.201 471.352 159.921 471.633L157.041 474.404C155.676 475.683 153.977 477.276 152.258 478.631C148.356 481.831 143.966 484.933 143.921 484.966C143.326 485.387 143.068 486.115 143.268 486.818C143.436 487.405 143.902 487.855 144.483 488.025C144.608 488.057 144.739 488.082 144.874 488.09L147.883 488.263C148.392 488.281 148.941 488.317 149.522 488.353C151.022 488.446 152.721 488.554 154.472 488.41L163.815 487.953C165.357 487.837 166.576 487.347 167.519 486.483C167.548 486.457 170.683 483.722 173.492 480.984C176.337 478.242 178.94 475.438 178.938 475.438C179.804 474.552 180.98 474.033 182.066 474.048L184.439 474.109L187.59 474.202C187.9 474.199 188.246 474.217 188.616 474.231C189.395 474.267 190.267 474.3 191.127 474.231L196.116 473.867C196.377 473.857 196.545 474.058 196.604 474.148C196.663 474.235 196.843 474.552 196.666 474.901C196.645 474.948 194.376 479.474 191.691 483.96L190.456 485.978L185.867 492.698C185.44 493.282 185.423 494.046 185.827 494.648C186.062 494.997 186.412 495.246 186.805 495.357C187.103 495.444 187.424 495.451 187.741 495.372L190.653 494.633C191.88 494.284 193.381 493.74 194.949 493.174L202.892 490.284C203.515 490.079 204.056 489.816 204.502 489.596L205.71 489.019C206.962 488.421 207.983 487.495 208.657 486.353C208.678 486.313 210.764 482.796 212.542 479.377C213.55 477.485 214.375 475.773 214.923 474.447L215.888 472.177C216.362 471.039 217.25 470.217 218.315 469.925L220.608 469.306V469.309L222.235 468.862L231.635 465.299C231.908 465.194 232.122 465.31 232.225 465.382C232.346 465.475 232.542 465.688 232.501 466.066L232.388 466.967C232.319 467.522 232.215 468.315 232.05 469.219C231.732 471.082 231.256 473.586 230.695 476.13C229.613 481.135 228.083 486.367 228.067 486.421C227.863 487.12 228.125 487.87 228.717 488.288C228.876 488.4 229.049 488.479 229.23 488.533C229.743 488.677 230.315 488.583 230.772 488.248L238.376 482.645C239.731 481.708 240.933 480.591 241.993 479.611C242.486 479.153 242.945 478.728 243.406 478.335L245.55 476.386C246.576 475.453 247.269 474.275 247.558 472.974L248.074 470.563C248.354 469.234 248.611 467.371 248.865 465.547L248.938 465.014C249.471 461.061 249.774 457.209 249.778 457.159C249.875 455.761 250.748 454.831 251.476 454.283L253.363 452.842L258.531 448.925C259.306 448.399 259.939 447.787 260.5 447.25C260.758 446.997 261.001 446.763 261.281 446.525L262.426 445.462C262.605 445.297 262.829 445.344 262.956 445.38C263.054 445.412 263.388 445.549 263.468 445.942C263.478 445.992 264.487 450.99 265.143 456.2C265.722 461.256 265.861 466.556 265.861 466.621C265.885 467.345 266.348 467.962 267.039 468.181C267.056 468.185 267.073 468.192 267.09 468.196C267.783 468.394 268.541 468.142 268.99 467.554L270.749 465.227C271.737 464.023 272.889 462.304 274.482 459.656L278.892 452.402C279.19 451.912 279.334 451.57 279.334 451.563C279.938 450.316 280.162 448.961 279.987 447.646C279.981 447.606 279.447 443.52 278.73 439.704C278.374 437.766 277.98 435.874 277.663 434.447C277.315 433.009 277.024 432.029 277.024 432.029C276.689 430.819 276.872 429.615 277.526 428.714L278.927 426.801L280.848 424.174L285.122 416.895C285.268 416.647 285.588 416.629 285.682 416.629C285.792 416.625 286.156 416.661 286.342 416.978C286.368 417.022 288.857 421.36 291.093 426.041C292.231 428.397 293.322 430.833 294.119 432.703C294.914 434.53 295.346 435.73 295.357 435.762C295.546 436.278 295.961 436.656 296.471 436.804C296.623 436.847 296.785 436.872 296.949 436.869C297.692 436.869 298.363 436.4 298.623 435.694C298.623 435.694 298.741 435.37 298.893 434.786L301.131 426.379C301.663 424.423 302.304 421.918 302.529 419.962L302.975 417.086C303.183 415.717 302.989 414.362 302.415 413.17C302.344 413.022 300.664 409.487 298.734 406.078C296.667 402.616 294.476 399.373 294.458 399.34C293.784 398.335 293.604 397.16 293.961 396.119L294.742 393.87L293.421 393.409L294.784 393.723L297.046 384.004C297.299 383.01 297.398 382.336 297.405 382.3C297.424 382.142 297.524 382.026 297.7 381.958C297.795 381.922 298.134 381.824 298.444 382.084L300.912 384.217C302.182 385.366 303.819 386.97 305.918 389.121C309.481 392.764 312.986 396.901 313.028 396.951C313.508 397.502 314.251 397.693 314.933 397.427C315.625 397.156 316.071 396.468 316.043 395.697L315.609 386.181C315.45 384.541 315.199 382.905 314.98 381.475" fill="#E9E4D0"/>
<path d="M247.042 175.377C245.757 175.063 244.482 174.566 243.429 173.741C242.379 172.937 241.437 171.979 240.791 170.851C240.131 169.734 239.702 168.516 239.426 167.291C240.025 168.404 240.577 169.514 241.399 170.426C242.119 171.402 243.069 172.166 244.071 172.775C245.091 173.352 246.174 173.827 247.335 174.04C248.407 174.256 249.567 174.281 250.603 174.166C252.313 172.537 253.977 170.858 255.735 169.276C257.558 167.619 259.4 165.983 261.357 164.462C259.834 166.415 258.198 168.26 256.543 170.08C254.895 171.91 253.144 173.64 251.45 175.424L251.277 175.607L251.044 175.633C249.641 175.795 248.35 175.672 247.042 175.377ZM236.242 160.924C237.807 158.892 239.506 156.996 241.211 155.104C242.956 153.256 244.705 151.407 246.513 149.617L246.987 149.148L247.046 149.091L247.131 149.173L247.549 149.617C247.864 149.952 248.178 150.29 248.498 150.618C249.745 151.905 251.014 153.17 252.195 154.524C253.707 156.193 255.192 157.893 256.581 159.688C254.786 158.297 253.087 156.812 251.417 155.299C249.898 153.977 248.489 152.543 247.036 151.152C245.405 152.78 243.74 154.373 242.062 155.958C240.171 157.659 238.275 159.36 236.242 160.924ZM267.111 194.539C267.768 194.366 268.416 194.103 269.063 193.88C269.732 193.656 270.348 193.339 270.984 193.083C271.599 192.788 272.215 192.489 272.778 192.183C273.923 191.545 274.963 190.864 275.791 190.23C277.287 189.094 278.125 188.064 278.316 187.83C278.178 188.118 277.552 189.296 276.279 190.738C275.558 191.566 274.645 192.456 273.594 193.361C273.053 193.793 272.491 194.229 271.908 194.665C271.312 195.069 270.709 195.523 270.072 195.883C269.594 196.171 269.117 196.481 268.639 196.744C270.634 196.089 272.555 195.227 274.347 194.157C276.502 192.892 278.486 191.332 280.163 189.487C281.002 188.561 281.765 187.567 282.434 186.515C282.763 185.996 283.081 185.466 283.357 184.911C283.537 184.583 283.696 184.234 283.834 183.884L273.743 175.427L285.66 182.717L286.276 183.099L286.041 183.841C285.818 184.594 285.554 185.199 285.267 185.844C284.97 186.464 284.641 187.066 284.291 187.671C283.579 188.849 282.784 189.963 281.881 190.993C280.109 193.083 277.977 194.856 275.663 196.319C274.696 196.932 273.676 197.458 272.645 197.962C271.728 198.377 270.838 198.809 269.804 199.169C269.176 199.389 268.547 199.609 267.874 199.804L266.925 197.627L266.787 197.306L265.745 194.921C265.772 194.914 265.799 194.907 265.824 194.899C266.25 194.781 266.67 194.665 267.111 194.539ZM128.83 149.091L128.888 149.148L129.362 149.617C131.169 151.407 132.919 153.256 134.664 155.104C136.368 156.996 138.067 158.892 139.633 160.924C137.6 159.36 135.704 157.659 133.813 155.958C132.134 154.373 130.469 152.78 128.838 151.152C127.386 152.543 125.976 153.977 124.458 155.299C122.787 156.812 121.088 158.297 119.294 159.688C120.681 157.893 122.168 156.193 123.679 154.524C124.858 153.173 126.126 151.912 127.37 150.626C127.692 150.294 128.008 149.955 128.324 149.617L128.713 149.206L128.83 149.091ZM128.344 179.466C128.779 179.423 129.267 179.348 129.802 179.229C131.348 180.893 137.756 187.722 144.628 194.063C148.559 197.717 152.644 201.205 155.839 203.645C159.037 206.088 161.292 207.522 161.292 207.522C161.292 207.522 159.197 205.857 156.296 203.111C153.395 200.366 149.732 196.503 146.242 192.492C140.988 186.507 136.133 180.227 134.024 177.449C135.963 176.213 138.031 174.224 139.951 171.15C152.325 193.282 174.754 212.999 184.53 220.973C184.018 221.38 183.707 221.618 183.689 221.632C181.644 223.189 179.67 224.717 177.753 226.216C177.687 226.165 177.629 226.115 177.563 226.061C148.8 202.603 133.697 185.942 128.241 179.474C128.275 179.47 128.307 179.47 128.344 179.466ZM124.597 175.607L124.424 175.424C122.731 173.64 120.98 171.91 119.332 170.08C117.676 168.26 116.041 166.415 114.518 164.462C116.474 165.983 118.317 167.619 120.139 169.276C121.897 170.858 123.561 172.537 125.271 174.166C126.307 174.281 127.467 174.256 128.54 174.04C129.701 173.827 130.783 173.352 131.804 172.775C132.806 172.166 133.756 171.402 134.475 170.426C135.297 169.514 135.849 168.404 136.449 167.291C136.173 168.516 135.744 169.734 135.083 170.851C134.437 171.979 133.496 172.937 132.446 173.741C131.393 174.566 130.118 175.063 128.832 175.377C127.525 175.672 126.234 175.795 124.831 175.633L124.597 175.607ZM110.126 194.921L109.087 197.306L108.95 197.627L108.001 199.804C107.328 199.609 106.698 199.389 106.068 199.169C105.037 198.809 104.147 198.377 103.229 197.962C102.199 197.461 101.18 196.932 100.212 196.319C97.8976 194.856 95.7652 193.083 93.9931 190.993C93.0908 189.963 92.2956 188.849 91.5832 187.671C91.2344 187.066 90.9047 186.464 90.6078 185.844C90.3206 185.199 90.0561 184.594 89.8323 183.841L89.5985 183.099L90.215 182.717L102.132 175.427L92.0408 183.884C92.1788 184.234 92.3377 184.583 92.5179 184.911C92.7939 185.466 93.1117 185.996 93.4414 186.515C94.1098 187.567 94.8726 188.561 95.7115 189.487C97.3881 191.332 99.3725 192.892 101.526 194.157C103.32 195.227 105.241 196.089 107.235 196.744C106.758 196.481 106.281 196.171 105.802 195.883C105.166 195.523 104.562 195.069 103.967 194.665C103.384 194.229 102.821 193.793 102.281 193.361C101.229 192.456 100.317 191.566 99.5951 190.738C98.321 189.296 97.6962 188.118 97.5582 187.83C97.7484 188.064 98.5873 189.094 100.083 190.23C100.911 190.864 101.951 191.545 103.097 192.183C103.66 192.489 104.275 192.788 104.89 193.083C105.527 193.339 106.143 193.656 106.811 193.88C107.459 194.103 108.107 194.366 108.764 194.539C109.204 194.665 109.625 194.784 110.05 194.899C110.076 194.907 110.101 194.914 110.126 194.921ZM232.833 261.139H237.149C236.593 260.555 235.989 259.943 235.402 259.337C232.01 255.849 228.128 252.03 223.624 247.857C219.746 244.265 215.4 240.42 210.566 236.341C209.314 235.285 208.015 234.208 206.696 233.12C204.74 231.509 202.707 229.866 200.593 228.183C200.566 228.165 200.541 228.144 200.516 228.122C224.313 208.686 238.812 193.876 246.231 185.632C246.279 185.578 246.333 185.516 246.381 185.466C246.963 184.817 247.491 184.223 247.987 183.657C248.109 183.517 248.237 183.372 248.355 183.236C248.78 182.749 249.173 182.295 249.529 181.877C249.68 181.697 249.822 181.531 249.96 181.365C250.248 181.023 250.53 180.692 250.767 180.403C250.928 180.209 251.066 180.043 251.203 179.874C251.366 179.675 251.545 179.456 251.674 179.294C251.836 179.092 251.956 178.94 252.067 178.8C252.116 178.735 252.201 178.631 252.24 178.58C252.824 178.349 253.349 178.335 253.872 178.522C255.26 179.02 256.328 180.846 256.619 181.502L265.638 202.189C265.638 202.193 265.641 202.193 265.643 202.196C265.937 202.866 266.682 203.227 267.381 203.047C267.384 203.047 267.387 203.047 267.39 203.047C273.68 201.429 278.26 198.791 281.613 195.955C286.576 191.754 288.821 187.12 289.712 184.691C290.061 183.74 290.207 183.127 290.233 183.012C290.363 182.439 290.144 181.841 289.674 181.488L266.462 163.947L267.235 163.172L267.546 162.862C267.691 162.718 267.799 162.549 267.872 162.372C267.946 162.192 267.985 162.001 267.985 161.803C267.985 161.605 267.946 161.41 267.871 161.23C267.823 161.111 267.735 161.01 267.654 160.906C267.613 160.852 267.594 160.791 267.546 160.74L253.931 147.127C253.508 146.705 252.843 146.597 252.298 146.81C252.118 146.878 251.95 146.986 251.809 147.127L250.569 148.366L249.622 147.422L248.361 146.161C247.911 145.711 247.315 145.458 246.685 145.455C246.658 145.462 246.637 145.469 246.612 145.473C245.994 145.603 245.45 145.721 245.021 146.136C245.014 146.143 245.004 146.143 244.997 146.15L237.141 154.006L231.903 159.245C231.014 160.135 231.006 161.551 231.832 162.484C231.866 162.524 231.877 162.571 231.914 162.607L234.535 165.23C234.397 165.45 234.226 165.673 234.056 165.882H234.055C234.053 165.886 234.052 165.886 234.05 165.886C233.783 166.188 233.49 166.505 233.07 166.884L232.788 167.147C232.786 167.147 232.786 167.147 232.786 167.147C232.782 167.15 232.78 167.154 232.775 167.158C232.317 167.576 231.834 167.979 231.223 168.451C231.219 168.455 231.217 168.455 231.213 168.458L230.789 168.775C230.175 169.255 229.664 169.853 229.211 170.509C229.069 170.714 228.907 170.901 228.782 171.125C228.426 171.752 228.07 172.379 227.694 173.009C227.594 173.182 227.48 173.37 227.375 173.546C227.244 173.77 227.12 173.982 226.978 174.213C226.693 174.699 226.398 175.179 226.067 175.687C225.8 176.13 225.529 176.551 225.253 176.98L225.166 177.117L224.814 177.661L224.697 177.845C224.34 178.382 223.975 178.922 223.61 179.466C223.494 179.636 223.386 179.805 223.269 179.971C222.725 180.789 222.171 181.571 221.601 182.371C221.544 182.454 221.476 182.544 221.419 182.623C221.028 183.174 220.639 183.711 220.157 184.353C219.868 184.753 219.588 185.145 219.253 185.563C219.112 185.754 218.962 185.942 218.82 186.133C218.437 186.644 218.054 187.156 217.652 187.664C217.323 188.089 216.983 188.486 216.65 188.904C215.65 190.168 214.648 191.429 213.624 192.644L212.651 193.782L212.398 194.078C212.069 194.46 211.741 194.817 211.414 195.191C210.56 196.171 209.71 197.151 208.841 198.096C208.33 198.665 207.801 199.234 207.088 199.998C206.218 200.931 205.356 201.836 204.5 202.722C204.225 203.007 203.955 203.281 203.681 203.562C203.096 204.16 202.516 204.751 201.94 205.324C201.643 205.623 201.348 205.915 201.054 206.207C200.483 206.772 199.923 207.316 199.369 207.853C199.114 208.102 198.859 208.351 198.609 208.592C197.834 209.334 197.073 210.055 196.335 210.743C196.299 210.779 196.265 210.812 196.228 210.844C195.499 211.522 194.796 212.17 194.109 212.79C193.881 212.999 193.664 213.193 193.44 213.395C192.959 213.828 192.488 214.249 192.034 214.653C191.805 214.855 191.581 215.053 191.357 215.247C190.913 215.636 190.49 216.004 190.077 216.361C189.894 216.519 189.71 216.681 189.533 216.833C188.971 217.316 188.434 217.773 187.941 218.184C187.939 218.184 187.939 218.188 187.939 218.188C187.715 218 187.467 217.788 187.229 217.582C186.974 217.37 186.727 217.161 186.456 216.926C186.128 216.645 185.779 216.343 185.428 216.036C185.2 215.838 184.975 215.644 184.737 215.435C184.35 215.096 183.953 214.746 183.544 214.382C183.326 214.188 183.102 213.986 182.877 213.784C182.432 213.384 181.986 212.984 181.518 212.559C181.358 212.412 181.187 212.257 181.024 212.105C179.984 211.154 178.899 210.138 177.771 209.064C177.653 208.952 177.539 208.844 177.419 208.733C176.937 208.268 176.443 207.785 175.946 207.302C175.63 206.996 175.317 206.686 174.996 206.372C174.541 205.922 174.081 205.464 173.618 205C173.208 204.585 172.794 204.167 172.379 203.742C171.977 203.331 171.578 202.928 171.173 202.506C170.439 201.746 169.699 200.967 168.955 200.171C168.846 200.056 168.739 199.944 168.629 199.829C168.613 199.807 168.596 199.793 168.577 199.775C168.072 199.231 167.554 198.676 167.042 198.11C167.035 198.099 167.027 198.092 167.021 198.085H167.019C165.932 196.903 164.847 195.66 163.63 194.251C163.526 194.132 163.434 194.027 163.327 193.905C163.319 193.894 163.31 193.883 163.301 193.872L162.918 193.426L162.246 192.637C162.043 192.395 161.845 192.136 161.644 191.894C160.492 190.511 159.345 189.113 158.212 187.657C157.851 187.196 157.486 186.706 157.12 186.219C156.941 185.981 156.768 185.765 156.585 185.516C156.562 185.488 156.539 185.455 156.516 185.426C156.243 185.08 155.977 184.713 155.619 184.219C155.491 184.05 155.368 183.87 155.239 183.697C154.914 183.261 154.591 182.825 154.268 182.364C153.722 181.6 153.187 180.839 152.652 180.043C152.634 180.014 152.614 179.985 152.595 179.957C152.568 179.921 152.544 179.881 152.517 179.841C151.998 179.081 151.485 178.31 150.991 177.564L150.601 176.951C150.334 176.533 150.068 176.115 149.78 175.643C149.475 175.178 149.181 174.703 148.876 174.177C148.639 173.798 148.404 173.399 148.169 172.991C147.819 172.404 147.478 171.802 147.14 171.204C147.125 171.175 147.108 171.15 147.094 171.125C146.572 170.199 145.898 169.413 144.998 168.718C144.995 168.714 144.993 168.711 144.988 168.711L144.963 168.689L144.957 168.685L144.474 168.318C144.262 168.152 144.027 167.939 143.799 167.745C143.558 167.543 143.325 167.363 143.084 167.143C143.082 167.143 143.071 167.132 143.07 167.132C143.042 167.104 142.722 166.804 142.719 166.804C142.386 166.505 142.089 166.188 141.848 165.918C141.675 165.705 141.519 165.5 141.351 165.219C141.351 165.219 141.351 165.219 141.35 165.219L143.962 162.607C144.887 161.684 144.893 160.185 143.983 159.263C143.979 159.255 143.978 159.248 143.972 159.245L130.876 146.15C130.837 146.111 130.783 146.093 130.741 146.057C130.541 145.884 130.33 145.725 130.095 145.631C130.001 145.592 129.894 145.599 129.794 145.574C129.601 145.523 129.411 145.455 129.205 145.455C129.2 145.455 129.194 145.455 129.191 145.455C129.001 145.455 128.827 145.523 128.648 145.567C128.531 145.595 128.406 145.592 128.296 145.639C128.008 145.757 127.743 145.934 127.514 146.161L125.307 148.366L124.064 147.127C124.041 147.102 124.009 147.094 123.983 147.073C123.433 146.597 122.56 146.597 122.013 147.08C121.992 147.098 121.962 147.105 121.943 147.127L111.355 157.713L108.33 160.74C108.184 160.888 108.076 161.054 108.002 161.234C107.952 161.356 107.939 161.497 107.923 161.63C107.907 161.767 107.914 161.904 107.938 162.041C107.954 162.153 107.96 162.264 108.002 162.369C108.076 162.549 108.184 162.715 108.33 162.862L108.907 163.443L109.411 163.947L86.2009 181.488C85.7307 181.841 85.5112 182.439 85.642 183.012C85.6604 183.095 85.7476 183.445 85.9166 183.971C86.6794 186.349 89.2947 192.651 96.5208 197.696C99.6034 199.847 103.508 201.767 108.486 203.047C108.664 203.093 108.844 203.108 109.019 203.09C109.062 203.083 109.101 203.061 109.144 203.05C109.615 202.956 110.035 202.657 110.238 202.189L111.175 200.041L119.25 181.506C119.303 181.387 119.409 181.2 119.51 181.02C119.546 180.955 119.56 180.919 119.602 180.847C119.73 180.63 119.902 180.392 120.077 180.151C120.124 180.09 120.155 180.032 120.204 179.971C120.372 179.758 120.576 179.564 120.776 179.369C120.86 179.286 120.931 179.189 121.021 179.113C121.175 178.98 121.356 178.908 121.526 178.807C121.685 178.71 121.832 178.584 122.002 178.522C122.003 178.522 122.003 178.522 122.003 178.522C122.506 178.335 123.011 178.357 123.563 178.566C123.588 178.573 123.609 178.569 123.634 178.58C123.696 178.659 123.819 178.814 123.905 178.922C123.995 179.038 124.075 179.135 124.192 179.283C124.328 179.452 124.516 179.683 124.687 179.892C124.82 180.054 124.953 180.216 125.108 180.403C125.342 180.684 125.618 181.016 125.901 181.351C126.047 181.524 126.198 181.701 126.358 181.888C126.703 182.295 127.084 182.735 127.494 183.207C127.629 183.362 127.776 183.527 127.918 183.69C128.403 184.241 128.916 184.821 129.483 185.452C129.543 185.52 129.61 185.592 129.67 185.661C131.708 187.923 134.288 190.687 137.441 193.901C140.512 197.033 144.128 200.589 148.34 204.546C148.375 204.578 148.41 204.61 148.445 204.646C155.633 211.395 164.525 219.272 175.359 228.122C173.008 229.992 170.756 231.815 168.6 233.599C158.15 242.236 149.919 249.853 143.382 256.39C141.738 258.033 140.166 259.633 138.726 261.139H138.744H140.811H141.08H141.196H141.95H142.909H143.04H144.64C150.177 255.507 156.978 249.036 165.513 241.714C169.522 238.272 173.909 234.651 178.716 230.846C179.061 230.572 179.437 230.284 179.786 230.01C179.833 229.974 179.887 229.931 179.935 229.895C180.33 229.585 180.757 229.261 181.156 228.947C182.922 227.567 184.67 226.194 186.546 224.767C186.546 224.767 187.057 224.385 187.937 223.701C188.22 223.481 188.59 223.185 188.95 222.901C189.288 222.634 189.607 222.382 190.01 222.058C190.024 222.047 190.041 222.032 190.054 222.022C190.083 222 190.12 221.967 190.151 221.946C190.517 221.65 190.93 221.312 191.346 220.973C201.121 212.999 223.55 193.282 235.924 171.15C237.844 174.224 239.912 176.213 241.851 177.449C239.741 180.227 234.886 186.507 229.632 192.492C226.143 196.503 222.479 200.366 219.578 203.111C216.677 205.857 214.583 207.522 214.583 207.522C214.583 207.522 216.838 206.088 220.036 203.645C223.231 201.205 227.316 197.717 231.247 194.063C238.118 187.722 244.527 180.893 246.072 179.229C246.607 179.348 247.096 179.423 247.53 179.466C247.566 179.47 247.6 179.47 247.633 179.474C242.178 185.942 227.075 202.603 198.312 226.061C198.245 226.115 198.188 226.165 198.121 226.216C197.727 226.536 197.307 226.872 196.908 227.196C196.897 227.203 196.883 227.214 196.871 227.225C196.842 227.25 196.811 227.272 196.781 227.297C196.437 227.574 196.062 227.87 195.715 228.151C195.388 228.414 195.046 228.684 194.718 228.947C192.522 230.713 190.284 232.493 187.938 234.33C187.54 234.64 187.113 234.965 186.711 235.278C186.67 235.307 186.626 235.343 186.586 235.375C186.549 235.404 186.511 235.429 186.476 235.458C186.148 235.714 185.81 235.974 185.479 236.229C183.775 237.548 182.119 238.849 180.336 240.204C173.025 245.757 166.864 250.722 161.634 255.183C159.178 257.276 156.917 259.269 154.865 261.139H156.975H157.09H159.347C161.886 258.887 164.702 256.476 167.834 253.893C168.836 253.068 169.865 252.228 170.932 251.363C174.328 248.621 178.057 245.702 182.152 242.593C183.997 241.191 185.723 239.84 187.485 238.474C187.634 238.359 187.789 238.24 187.938 238.125C189.841 239.606 191.722 241.072 193.723 242.593C196.091 244.391 198.312 246.113 200.441 247.785C203.11 249.886 205.611 251.893 207.928 253.803C211.103 256.419 213.958 258.862 216.528 261.139H218.783H218.9H221.01C218.806 259.128 216.365 256.984 213.693 254.718C210.314 251.846 206.546 248.769 202.338 245.461C200.184 243.764 197.93 242.02 195.539 240.204C193.803 238.885 192.196 237.624 190.535 236.338C190.489 236.301 190.442 236.265 190.396 236.229C190.415 236.211 190.438 236.197 190.459 236.179C192.779 234.363 194.986 232.594 197.159 230.846C198.496 231.902 199.727 232.914 201 233.945C203.315 235.819 205.53 237.645 207.641 239.425C212.194 243.267 216.307 246.892 219.998 250.29C224.24 254.196 227.974 257.82 231.234 261.139H232.833Z" fill="#E9E4D0"/>
<path d="M215.409 250.498C215.409 250.498 216.11 251.151 217.295 252.282C219.232 254.138 222.485 257.305 226.205 261.139H227.39C223.215 257.251 219.55 254.041 217.408 252.199C216.152 251.118 215.409 250.498 215.409 250.498Z" fill="#E9E4D0"/>
<path d="M149.67 261.139C155.666 254.959 160.464 250.498 160.464 250.498C160.464 250.498 155.105 254.974 148.484 261.139H149.67Z" fill="#E9E4D0"/>
<path d="M3.08399 271.61H372.79C374.495 271.61 375.875 270.23 375.875 268.526C375.875 266.825 374.495 265.445 372.79 265.445H370.056H354.907H269.95H260.046H245.336H241.173H240.871H239.139H239.04H238.501H237.081H236.958H235.376H231.919H230.302H225.707H225.594H223.673H223.446H221.256H216.726H195.498H181.467H159.15H154.62H154.619H152.429H152.202H150.282H150.169H145.572H143.955H140.498H138.916H138.794H137.373H136.834H136.736H134.995H134.702H130.54H126.986H111.349H111.024H84.9199H49.8413H5.81461H3.08399C1.38085 265.445 0.00146484 266.825 0.00146484 268.526C0.00146484 270.23 1.38085 271.61 3.08399 271.61" fill="#E9E4D0"/>
<path d="M372.79 350.753H3.08252C1.37938 350.753 0 352.133 0 353.834C0 355.538 1.37938 356.918 3.08252 356.918H5.81455H57.1646H67.2665H77.0066H91.6043H92.3473H170.77H206.149H284.54H285.414H298.81H370.055H372.79C374.491 356.918 375.871 355.538 375.871 353.834C375.871 352.133 374.491 350.753 372.79 350.753Z" fill="#E9E4D0"/>
<path d="M108.198 291.64V317.624C108.198 322.957 106.662 327.117 103.59 330.104C100.518 333.048 96.1665 334.52 90.5345 334.52C86.3958 334.52 83.0678 333.794 80.5505 332.344C78.0331 330.85 76.3051 328.802 75.3665 326.2C74.4278 323.554 74.2358 320.546 74.7905 317.176L85.5425 315.256C85.0305 319.138 85.2011 321.89 86.0545 323.512C86.9505 325.09 88.5718 325.88 90.9185 325.88C93.2225 325.88 94.8438 325.112 95.7825 323.576C96.7211 322.04 97.1905 319.672 97.1905 316.472V291.64H108.198Z" fill="#98764F"/>
<path d="M156.822 333.88H145.494L142.55 324.344H128.086L125.078 333.88H114.006L128.854 291.64H142.038L156.822 333.88ZM130.134 316.856H140.502L135.318 299.768L130.134 316.856Z" fill="#98764F"/>
<path d="M169.5 333.88L157.34 291.64H169.052L176.22 324.984L183.772 291.64H193.756L201.5 324.92L208.54 291.64H219.868L207.644 333.88H195.676L190.684 313.4L188.764 303.096H188.636L186.78 313.4L181.852 333.88H169.5Z" fill="#98764F"/>
<path d="M246.391 291C250.658 291 254.327 291.874 257.399 293.624C260.514 295.33 262.903 297.805 264.567 301.048C266.231 304.29 267.063 308.194 267.063 312.76C267.063 317.325 266.231 321.229 264.567 324.472C262.903 327.714 260.514 330.21 257.399 331.96C254.327 333.666 250.658 334.52 246.391 334.52C242.125 334.52 238.434 333.666 235.319 331.96C232.205 330.21 229.815 327.714 228.151 324.472C226.487 321.229 225.655 317.325 225.655 312.76C225.655 308.194 226.487 304.29 228.151 301.048C229.815 297.805 232.205 295.33 235.319 293.624C238.434 291.874 242.125 291 246.391 291ZM246.391 299.64C244.343 299.64 242.615 300.13 241.207 301.112C239.799 302.093 238.733 303.565 238.007 305.528C237.282 307.448 236.919 309.858 236.919 312.76C236.919 315.618 237.282 318.029 238.007 319.992C238.733 321.954 239.799 323.426 241.207 324.408C242.615 325.389 244.343 325.88 246.391 325.88C248.439 325.88 250.146 325.389 251.511 324.408C252.919 323.426 253.986 321.954 254.711 319.992C255.437 318.029 255.799 315.618 255.799 312.76C255.799 309.858 255.437 307.448 254.711 305.528C253.986 303.565 252.919 302.093 251.511 301.112C250.146 300.13 248.439 299.64 246.391 299.64Z" fill="#98764F"/>
<path d="M297.995 291.64C303.03 291.64 306.934 292.834 309.707 295.224C312.523 297.57 313.931 300.706 313.931 304.632C313.931 308.941 312.544 312.226 309.771 314.488C306.998 316.749 303.094 317.88 298.059 317.88L297.035 318.456H288.651V333.88H277.835V291.64H297.995ZM296.459 310.648C298.592 310.648 300.192 310.221 301.259 309.368C302.326 308.514 302.859 307.149 302.859 305.272C302.859 303.437 302.326 302.093 301.259 301.24C300.192 300.386 298.592 299.96 296.459 299.96H288.651V310.648H296.459ZM302.923 312.952L316.427 333.88H304.267L293.451 315.384L302.923 312.952Z" fill="#98764F"/>
</svg>
