<?xml version="1.0" ?><svg data-name="Layer 1" id="Layer_1" viewBox="0 0 100 100" xmlns="http://www.w3.org/2000/svg"><title/><path d="M80.8,24.45h-.13L16.06,21.33a2.65,2.65,0,0,1-2.39-1.85l-.33-1.06a19.39,19.39,0,0,1,.25-12.14,2.65,2.65,0,0,1,2.59-1.75h0L81.79,7a2.64,2.64,0,0,1,2.53,2.43l.06.69a38.08,38.08,0,0,1-1,12.31A2.65,2.65,0,0,1,80.8,24.45ZM16.08,5.53a1.64,1.64,0,0,0-1.55,1.09,18.31,18.31,0,0,0-.24,11.5l.34,1.06a1.63,1.63,0,0,0,1.48,1.15l64.61,3.12a1.64,1.64,0,0,0,1.67-1.24,37.23,37.23,0,0,0,1-12l0-.69A1.65,1.65,0,0,0,81.75,8L16.14,5.53Z"/><path d="M54.49,95.5a10.87,10.87,0,0,1-4.38-.93l-.6-.28a2.37,2.37,0,0,1-1.4-2.38l.94-10.22c.29-3.25.74-6.53,1.32-9.75l1.63-9a8.27,8.27,0,0,0-.62-4.69l-.44-.74a1.74,1.74,0,0,1-.24-1.18l.76-4.57a2.36,2.36,0,0,1,2.13-2.2l.51,0a21,21,0,0,1,7.69.65,2.38,2.38,0,0,1,1.75,2.29v5.2a1.8,1.8,0,0,1-.27.93l-1,1.57a5.52,5.52,0,0,0-.79,2.53l-.27,9.18a113.25,113.25,0,0,1-1,12.34l-1.25,9a2.39,2.39,0,0,1-1.76,2A10.81,10.81,0,0,1,54.49,95.5ZM56.2,50.35c-.66,0-1.33,0-2,.1l-.51,0h0a1.38,1.38,0,0,0-1.24,1.31l-.76,4.62a.79.79,0,0,0,.1.52l.44.73A9.08,9.08,0,0,1,53,63.07l-1.63,9.05c-.57,3.19-1,6.44-1.31,9.66L49.11,92a1.36,1.36,0,0,0,.81,1.38l.6.27a9.69,9.69,0,0,0,6.41.53A1.38,1.38,0,0,0,58,93l1.26-9a111.24,111.24,0,0,0,1-12.23l.27-9.2a6.57,6.57,0,0,1,.94-3l1-1.57a.73.73,0,0,0,.12-.41V52.4a1.38,1.38,0,0,0-1-1.33A20,20,0,0,0,56.2,50.35ZM53.64,50h0Z"/><path d="M59.4,50.1l-1-.07.45-2.79a4,4,0,0,1,2-2.84l22.92-13A6.41,6.41,0,0,0,87,25.88V18.62a3,3,0,0,0-3-3l-.08-1H84a4,4,0,0,1,4,4v7.26a7.39,7.39,0,0,1-3.74,6.42l-22.92,13a3,3,0,0,0-1.49,2.13Z"/><path d="M57.35,49.87h-1a1.23,1.23,0,0,1,0-.27l.45-2.69a6.08,6.08,0,0,1,3-4.31l22.93-13a4.3,4.3,0,0,0,2.18-3.75V18.62a.9.9,0,0,0-.91-.9h-.14a.74.74,0,0,1-.26,0l.16-.47.08-.49H84a1.9,1.9,0,0,1,1.91,1.9v7.26a5.33,5.33,0,0,1-2.68,4.62l-22.93,13a5.07,5.07,0,0,0-2.51,3.6l-.45,2.69A.37.37,0,0,0,57.35,49.87Z"/><path d="M76.63,22.33h0L69,22a.5.5,0,0,1-.47-.53.47.47,0,0,1,.52-.47l7.6.38a.5.5,0,0,1,.47.53A.5.5,0,0,1,76.63,22.33Z"/><path d="M63.58,21.67h0l-43-2.17a.49.49,0,0,1-.47-.53.48.48,0,0,1,.52-.47l43,2.17a.5.5,0,0,1,.47.53A.5.5,0,0,1,63.58,21.67Z"/></svg>