<?xml version="1.0" ?><svg data-name="Layer 1" id="Layer_1" viewBox="0 0 512 512" xmlns="http://www.w3.org/2000/svg"><title/><path d="M444.3,291.13c-6.69-10.23-22.36-15.72-39.38-6.45l-1.37.75a18.55,18.55,0,0,0-5.47-9.77c-3.35-3-7.72-4.24-13-3.82-3.38.27-10,2.48-18.31,5.77a2.49,2.49,0,0,0-.16-.33c-3.1-5.26-12.16-13.61-24.32-7.56-2.09,1-5.8,2.79-10.5,4.95a3.57,3.57,0,0,0-1.23-2.08c-.49-.4-12.26-9.86-29.7-3-14.22,5.6-52.35,22.75-60.11,26.26q-6.15-2.21-11.89-3.76V206.51c77.23-12.89,122.11-34.62,133.36-64.63,8.57-22.86-6-41.48-7.23-43h0C354.35,98,339.07,79,314.41,82.59c-30.89,4.52-60.88,41.89-89.18,111.09C196.92,124.48,166.94,87.11,136,82.59,111.37,79,96.11,98,95.47,98.86h0c-1.25,1.53-15.8,20.15-7.23,43,11.25,30,56.13,51.74,133.36,64.63v83.82c-33.57-7.15-56.7,1.87-79.17,10.66-16.63,6.51-32.35,12.65-52.22,12.65H67.9a3.64,3.64,0,1,0,0,7.27H90.2c21.24,0,38.34-6.68,54.87-13.15,26.7-10.44,51.93-20.3,94.58-4.58,20.07,7.39,35.06,13.46,46.22,18.36l.25.11c14.95,6.56,23,11,27.17,13.63a3.75,3.75,0,0,0,.76.48,21.83,21.83,0,0,1,3.46,2.57,4.26,4.26,0,0,0,.52.52c.46.37,11.12,9.28,4.28,19.56-6,9-25.81,6-32.81,4.16l-81.92-25a3.64,3.64,0,0,0-2.13,7l82.05,25.05a75.64,75.64,0,0,0,17.58,2.23c8.68,0,18.32-1.93,23.28-9.36,8.28-12.43.09-24.35-5.54-29.07l-.15-.15c16.06-7.55,63.19-29.85,85.74-42.15,13.15-7.17,24.94-3.39,29.8,4,3.53,5.38,3.77,13.87-6.13,21.54-6.76,5.25-68,52.48-135.83,95.83a64.94,64.94,0,0,1-48.74,8.59L144.76,398.26a4.23,4.23,0,0,0-.79-.08H67.9a3.64,3.64,0,1,0,0,7.27h75.67l102.36,22.72a72.22,72.22,0,0,0,54.24-9.56c68.08-43.52,129.58-90.94,136.37-96.21C450.36,311.68,449.36,298.85,444.3,291.13ZM315.37,89.8c20.5-3.06,33.34,12.86,33.89,13.55,0,0,0,0,0,0l0,0c.14.17,13.38,16.45,6.09,35.91-6.72,17.93-32.25,41.94-114,57.56l73.43-49.63a3.63,3.63,0,1,0-4.07-6l-77.7,52.51C266.43,113.33,296.06,92.68,315.37,89.8ZM95.08,139.41c-7.32-19.38,5.51-35.33,6-36l0,0,0,0c.13-.17,13.26-16.6,33.79-13.56,19.33,2.82,49,23.45,82.41,104l-77.7-52.51a3.64,3.64,0,0,0-4.08,6l73.43,49.63C127.39,181.29,101.84,157.31,95.08,139.41ZM345.54,276.23c7.89-3.94,12.95,2,14.42,4.16-26.24,11-63.1,29.15-72.61,33.87-4-1.74-8.42-3.61-13.33-5.61C292.13,300.59,335.68,281.15,345.54,276.23Zm-42,.13c11.26-4.43,19.25-.24,21.67,1.33-21.22,9.68-53.55,24.06-60.6,27.19q-6.56-2.58-14.12-5.43C264.31,293.24,292.14,280.84,303.53,276.36ZM296,318.11c33.32-16.41,80.33-38.26,89.7-39,3.26-.25,5.73.39,7.57,2,3.17,2.77,3.5,7.59,3.51,7.75a1.48,1.48,0,0,0,0,.19C370,302.94,325.29,324,315.87,328.38A205.64,205.64,0,0,0,296,318.11Z" style="fill:#231f20"/></svg>