<?xml version="1.0" ?><svg viewBox="0 0 64 64" xmlns="http://www.w3.org/2000/svg"><title/><g data-name="6" id="_6"><path d="M60.15,16.49,48,4.35a1,1,0,0,0-1.42,0l-6.07,6.07L4.09,46.85a1,1,0,0,0,0,1.42L14,58.13a1,1,0,0,0,.71.29.82.82,0,0,0,.22,0,1,1,0,0,0,.72-.66l1.34-4,3.22-.65a1,1,0,0,0,.79-.78l.63-3.14,3.14-.63a1,1,0,0,0,.78-.79l.63-3.14L29.28,44a1,1,0,0,0,.79-.78l.62-3.14,3.14-.63a1,1,0,0,0,.7-.53l1.3-2.6,3.32-.66a1,1,0,0,0,.7-.54l1.29-2.59,3.32-.67a1,1,0,0,0,.7-.53l1.24-2.48h3.93a1,1,0,0,0,.84-.45l3-4.47,6-6A1,1,0,0,0,60.15,16.49ZM49.8,26.83h-4a1,1,0,0,0-.89.55L43.59,30l-3.32.66a1,1,0,0,0-.7.53l-1.3,2.6L35,34.43a1,1,0,0,0-.7.54L33,37.57l-3.31.66a1,1,0,0,0-.79.78l-.62,3.14-3.15.63a1,1,0,0,0-.78.79l-.63,3.14-3.14.63a1,1,0,0,0-.78.78l-.63,3.14L16,51.89a1,1,0,0,0-.76.66l-1,3-8-8,35-35L52.08,23.4Zm3.57-5L42.64,11.13,47.3,6.47,58,17.2Z"/><path d="M46.59,8.9l-1.52,1.52a1,1,0,0,0-.29.71,1.05,1.05,0,0,0,.29.71l7.59,7.59a1.05,1.05,0,0,0,.71.29,1,1,0,0,0,.71-.29l1.52-1.52a1,1,0,0,0-1.42-1.42l-.81.81L47.2,11.13l.81-.81A1,1,0,0,0,46.59,8.9Z"/><path d="M24.92,31.2,23.17,33a1,1,0,0,0,0,1.42,1,1,0,0,0,.7.29,1,1,0,0,0,.71-.29l1.76-1.76a1,1,0,0,0,0-1.41A1,1,0,0,0,24.92,31.2Z"/><path d="M31.9,24.22,27.42,28.7a1,1,0,0,0,0,1.41,1,1,0,0,0,.71.29,1,1,0,0,0,.71-.29l4.47-4.47a1,1,0,0,0,0-1.42A1,1,0,0,0,31.9,24.22Z"/><path d="M40.52,15.6,36.2,19.92l-2.3,2.3a1,1,0,0,0,0,1.42,1,1,0,0,0,.7.29,1,1,0,0,0,.71-.29l2.3-2.3L41.93,17a1,1,0,0,0,0-1.41A1,1,0,0,0,40.52,15.6Z"/></g></svg>