<?xml version="1.0" ?><svg data-name="Layer 1" id="Layer_1" viewBox="0 0 100 100" xmlns="http://www.w3.org/2000/svg"><title/><path d="M18.52,56.47a2.8,2.8,0,0,1-1.23-.28L5.3,50.4a.51.51,0,0,1-.23-.67.5.5,0,0,1,.67-.23l12,5.79A1.85,1.85,0,0,0,20,54.76L40.71,25.49a15,15,0,0,1,4-3.89A16.82,16.82,0,0,1,54,18.86h.16a.5.5,0,0,1,.5.5.5.5,0,0,1-.5.5H54a15.74,15.74,0,0,0-8.73,2.58,14,14,0,0,0-3.78,3.62L20.81,55.33A2.79,2.79,0,0,1,18.52,56.47Z"/><path d="M22.72,34.62a.49.49,0,0,1-.32-.12.51.51,0,0,1-.06-.71l3.33-3.89a20.92,20.92,0,0,1,7.08-5.39.5.5,0,0,1,.67.24.49.49,0,0,1-.24.66,19.9,19.9,0,0,0-6.75,5.14L23.1,34.44A.49.49,0,0,1,22.72,34.62Z"/><path d="M35.07,24.61a.5.5,0,0,1-.48-.34.49.49,0,0,1,.32-.63,21.24,21.24,0,0,1,3.86-.91.5.5,0,1,1,.13,1,19.4,19.4,0,0,0-3.67.87A.47.47,0,0,1,35.07,24.61Z"/><path d="M21.83,61.72a2.56,2.56,0,0,1-1.07-.24l-.09,0-13.2-7A4.51,4.51,0,0,1,5.13,51l-.57-5.25a10.71,10.71,0,0,1,11.59-11.8,6.11,6.11,0,0,0,5.19-2.12l3.33-3.89a21,21,0,0,1,13.1-7.17,15.79,15.79,0,0,1,7.43.82.5.5,0,0,1-.33.94,14.88,14.88,0,0,0-7-.77,20,20,0,0,0-12.47,6.83L22.1,32.44a7.13,7.13,0,0,1-6,2.47A9.69,9.69,0,0,0,5.56,45.6l.56,5.25a3.48,3.48,0,0,0,1.82,2.67l13.19,7,.06,0A1.52,1.52,0,0,0,23.11,60L41.93,30.75a18.14,18.14,0,0,1,8.51-7.1,11.54,11.54,0,0,1,3.32-.76.5.5,0,0,1,.07,1,10.58,10.58,0,0,0-3,.69,17.21,17.21,0,0,0-8,6.71L24,60.56A2.5,2.5,0,0,1,21.83,61.72Z"/><path d="M19.51,49.6a.43.43,0,0,1-.19,0L15.49,48a4.79,4.79,0,0,1-2.91-3.63L12.35,43a3.42,3.42,0,0,1,3.38-4l6,.13a.47.47,0,0,1,.38.19.49.49,0,0,1,.09.42L20,49.21a.51.51,0,0,1-.26.33A.46.46,0,0,1,19.51,49.6ZM15.72,40a2.44,2.44,0,0,0-2.39,2.85l.23,1.32a3.82,3.82,0,0,0,2.31,2.88l3.29,1.35,1.9-8.28Z"/><path d="M51.93,73a2.45,2.45,0,0,1-1.09-.23L35.55,65a5.72,5.72,0,0,0-4-.45,22.87,22.87,0,0,1-3.22.68c-.85,0-6.95-3.35-7.65-3.73a.5.5,0,0,1-.31-.63.51.51,0,0,1,.64-.32l.21.11a74.09,74.09,0,0,0,7.14,3.57c.32,0,2.16-.46,3-.65a6.72,6.72,0,0,1,4.66.53L51.3,71.92a2.57,2.57,0,0,0,2-.21c.34-.17.55-.38.57-.57l2.62-19.38c.11-.93-1.2-2.07-2.47-2.73l-.34-.16a.5.5,0,0,1-.25-.66.51.51,0,0,1,.66-.25l.37.17c.57.29,3.26,1.81,3,3.76L54.85,71.27a1.82,1.82,0,0,1-1.09,1.33A4.15,4.15,0,0,1,51.93,73Z"/><path d="M44.81,44.88a.46.46,0,0,1-.2-.05L36,41a.49.49,0,0,1-.26-.66.51.51,0,0,1,.66-.25L45,43.92a.5.5,0,0,1-.21,1Z"/><path d="M53.54,26.31a.59.59,0,0,1-.25-.07l-2.93-1.69a.5.5,0,0,1-.18-.68.51.51,0,0,1,.68-.19l2.93,1.69a.51.51,0,0,1,.18.69A.5.5,0,0,1,53.54,26.31Z"/><path d="M71.82,60.39h-.06a.51.51,0,0,1-.44-.56l1.07-8.64a25.28,25.28,0,0,0-1.09-11,12.39,12.39,0,0,0-2.16-3.92,12.68,12.68,0,0,0-2-2,.5.5,0,0,1,.61-.79,14.79,14.79,0,0,1,2.17,2.1,13.53,13.53,0,0,1,2.33,4.25,26.18,26.18,0,0,1,1.13,11.39L72.31,60A.49.49,0,0,1,71.82,60.39Z"/><path d="M51.72,52.91a2.31,2.31,0,0,1-.92-.2l-6.87-3.09a2.21,2.21,0,0,1-1-3.24c2.08-3.16,5.9-10.15,8-14a18.59,18.59,0,0,0,2.11-6.9L54,17a.49.49,0,0,1,.4-.44l22.34-4a.5.5,0,0,1,.58.38l2.78,11.69a3.4,3.4,0,0,1-.22,2.22l-1.81,4a3.43,3.43,0,0,1-2.38,1.92L56.46,36.89,53.91,51.08a2.25,2.25,0,0,1-1.16,1.57A2.22,2.22,0,0,1,51.72,52.91ZM54.9,17.47l-.82,8.07a19.35,19.35,0,0,1-2.23,7.27c-2.1,3.9-5.93,10.93-8,14.12a1.18,1.18,0,0,0-.15,1,1.23,1.23,0,0,0,.68.78l6.87,3.09a1.28,1.28,0,0,0,1.08,0,1.25,1.25,0,0,0,.63-.87l2.57-14.21a.16.16,0,0,1,0-.09.48.48,0,0,1,.12-.45L56,33.82a18.74,18.74,0,0,0,.25-4.67l-.8-10.71a.5.5,0,0,1,1-.07l.79,10.7A19.37,19.37,0,0,1,57,34l-.33,1.82,18.76-4.11a2.44,2.44,0,0,0,1.69-1.37l1.81-4a2.43,2.43,0,0,0,.16-1.57L76.41,13.58Z"/><path d="M84,84.29a10.32,10.32,0,0,1-4.77-1.17L54.37,69.87a.5.5,0,0,1-.21-.68.5.5,0,0,1,.68-.2L79.67,82.24A9.17,9.17,0,0,0,84,83.29,8.7,8.7,0,0,0,92.17,78c1.58-4.14-.74-8.54-5.51-10.45L56.15,57.2a.51.51,0,0,1-.31-.64.5.5,0,0,1,.63-.31l3.39,1.14L87,66.57c5.25,2.1,7.86,7.15,6.1,11.75A9.7,9.7,0,0,1,84,84.29Z"/><path d="M85,85.75a10.51,10.51,0,0,1-5.18-1.38L54.35,69.9a.51.51,0,0,1-.18-.69.49.49,0,0,1,.68-.18l1.11.62L80.28,83.5A9.51,9.51,0,1,0,88,66.21L56.35,55.74A.5.5,0,0,1,56,55.1a.49.49,0,0,1,.63-.31l2.94,1,28.68,9.49A10.51,10.51,0,0,1,94.9,78.73,10.56,10.56,0,0,1,85,85.75Z"/><path d="M68.89,59.86h0a.5.5,0,0,1-.44-.55l.92-8.42a24,24,0,0,0-.4-7.8l-.34-1.62a1.42,1.42,0,0,0-1.66-1.09c-6.83,1.4-11.24,2.35-11.8,2.55a.5.5,0,1,1-.33-.94c.83-.3,7.83-1.75,11.92-2.59a2.42,2.42,0,0,1,2.85,1.86l.34,1.62A25.17,25.17,0,0,1,70.32,51l-.93,8.42A.5.5,0,0,1,68.89,59.86Z"/><path d="M54.43,71.19a.5.5,0,0,1-.21-1l1.28-.59a.5.5,0,1,1,.42.9l-1.28.6A.5.5,0,0,1,54.43,71.19Z"/><path d="M56,18.9a.5.5,0,0,1-.09-1L75.5,14.32a.5.5,0,0,1,.18,1L56,18.9Z"/><path d="M10.82,48.77a.5.5,0,0,1-.49-.39l-1-4.55a4.56,4.56,0,0,1,4.8-5.15l7.59.46a.49.49,0,0,1,.46.53.48.48,0,0,1-.52.47l-7.6-.46a3.49,3.49,0,0,0-2.8,1.11,3.55,3.55,0,0,0-.94,2.88l1,4.49a.5.5,0,0,1-.38.6Z"/><path d="M57.17,57.52a.51.51,0,0,1-.5-.48l-.07-1.55a.5.5,0,1,1,1-.05L57.67,57a.5.5,0,0,1-.47.53Z"/><path d="M59.7,58.37a.51.51,0,0,1-.5-.43L59,56.31a.5.5,0,0,1,.42-.57.52.52,0,0,1,.57.42l.24,1.64a.49.49,0,0,1-.42.56Z"/><path d="M62.46,59.3a.5.5,0,0,1-.5-.5V57.24a.5.5,0,0,1,1,0V58.8A.5.5,0,0,1,62.46,59.3Z"/><path d="M65.68,60.39a.49.49,0,0,1-.49-.41l-.3-1.69a.5.5,0,0,1,1-.18l.3,1.69a.49.49,0,0,1-.4.58Z"/><path d="M69.42,61.66a.51.51,0,0,1-.5-.43l-.27-1.7a.51.51,0,0,1,.42-.58.52.52,0,0,1,.57.42l.27,1.71a.49.49,0,0,1-.41.57Z"/><path d="M72.62,62.74a.51.51,0,0,1-.5-.45l-.18-1.7a.5.5,0,0,1,.44-.55.5.5,0,0,1,.55.44l.19,1.7a.5.5,0,0,1-.45.55Z"/><path d="M75.94,63.86a.51.51,0,0,1-.49-.4l-.35-1.78a.5.5,0,1,1,1-.2l.35,1.78a.5.5,0,0,1-.39.59Z"/><path d="M79.43,65a.5.5,0,0,1-.5-.5V62.85a.51.51,0,0,1,.5-.5.5.5,0,0,1,.5.5v1.69A.5.5,0,0,1,79.43,65Z"/><path d="M83.23,66.32a.5.5,0,0,1-.5-.46l-.12-1.76a.5.5,0,0,1,.46-.53.51.51,0,0,1,.54.46l.12,1.76a.5.5,0,0,1-.46.53Z"/><path d="M87.37,67.77a.5.5,0,0,1-.48-.35l-.63-2a.5.5,0,1,1,1-.3l.62,2a.5.5,0,0,1-.32.63Z"/><path d="M90.88,70.28h0a.5.5,0,0,1-.47-.54l.18-2.5a.52.52,0,0,1,.53-.47.5.5,0,0,1,.46.54l-.17,2.5A.5.5,0,0,1,90.88,70.28Z"/><path d="M92.88,73.82a.47.47,0,0,1-.17,0,.51.51,0,0,1-.3-.64l1-2.68a.5.5,0,0,1,.94.35l-1,2.67A.49.49,0,0,1,92.88,73.82Z"/><path d="M92.92,77.74a.51.51,0,0,1-.44-.25.5.5,0,0,1,.18-.68l2-1.21a.51.51,0,0,1,.69.18.49.49,0,0,1-.18.68l-2,1.21A.47.47,0,0,1,92.92,77.74Z"/><path d="M93.38,81.19h0l-2.25-.06a.5.5,0,0,1-.49-.51.52.52,0,0,1,.51-.49l2.26.06a.5.5,0,0,1,0,1Z"/><path d="M90.18,84.3a.4.4,0,0,1-.15,0l-2.41-.76a.5.5,0,1,1,.3-1l2.41.76a.5.5,0,0,1-.15,1Z"/><path d="M86.41,85.65a.45.45,0,0,1-.25-.07l-2.38-1.35a.5.5,0,1,1,.5-.87l2.37,1.35a.51.51,0,0,1,.19.69A.5.5,0,0,1,86.41,85.65Z"/><path d="M52.23,73h-.06a.5.5,0,0,1-.44-.56l2.73-21.14a.5.5,0,0,1,.56-.43.51.51,0,0,1,.43.56L52.73,72.59A.51.51,0,0,1,52.23,73Z"/><path d="M41.25,41.53a.49.49,0,0,1-.1-1l4.41-1a.52.52,0,0,1,.6.39.51.51,0,0,1-.39.59l-4.41,1Z"/><path d="M40.2,40.49a.5.5,0,0,1-.1-1l4.41-1a.52.52,0,0,1,.6.39.51.51,0,0,1-.39.59l-4.41.95Z"/><path d="M39.15,39.44a.5.5,0,0,1-.1-1l4.41-1a.5.5,0,0,1,.6.38.49.49,0,0,1-.39.59l-4.41,1Z"/><path d="M77.31,62l-1-.1L79,37.61a11.2,11.2,0,0,0-1.65-7.19l.84-.54A12.19,12.19,0,0,1,80,37.71Z"/><path d="M79.81,63.72l-.76-.64a.76.76,0,0,0,.15-.28.69.69,0,0,0,0-.21L82,37.94a14.16,14.16,0,0,0-2.67-10,.92.92,0,0,0-.39-.31l.42-.92a2.12,2.12,0,0,1,.78.64A15.23,15.23,0,0,1,83,38.05L80.25,62.68a1.65,1.65,0,0,1-.11.45A1.6,1.6,0,0,1,79.81,63.72Z"/></svg>